<?xml version="1.0" encoding="utf-8"?>
<!-- Generator: Adobe Illustrator 25.2.3, SVG Export Plug-In . SVG Version: 6.00 Build 0)  -->
<svg version="1.1" id="Layer_1" xmlns="http://www.w3.org/2000/svg" xmlns:xlink="http://www.w3.org/1999/xlink" x="0px" y="0px"
	 viewBox="0 0 1756.1 1356.3" style="enable-background:new 0 0 1756.1 1356.3;" xml:space="preserve">
<style type="text/css">
	.st0{display:none;}
	.st1{fill:#B4EFCB;}
</style>
<g id="Layer_1_1_" class="st0">
	
		<image style="display:inline;overflow:visible;enable-background:new    ;" width="1586" height="1304" xlink:href="D3D84DC7B92EFAF7.png"  transform="matrix(0.8514 0 0 0.8514 278.5997 -101.5736)">
	</image>
</g>
<g id="Layer_2_1_">
	<path class="st1" d="M-49,1435c-86.2-135.3,187.9-601.9,523.2-654.9c76.2-12.1,273.9-14.3,414.6-71.3
		c44.3-18,107.4-44.3,163.9-104.6c73.5-78.5,42.6-115,103.7-171.2c66.4-61.1,117.4-31.3,306.1-114.1c0,0,48.9-21.5,86.8-42.8
		c130.3-73.3,173.6-231.1,206.9-223.5c31.9,7.3,9.9,156.6,10.3,383c0.5,313.5,43.6,371,21,564c-4.3,36.8-11.7,85.2-11.3,148.5
		c0.1,25,1.6,45,3.5,69.3c13.7,173.9,29.3,189.3,21,212.5c-32,89.7-326.9,34.1-697.8,26.2c-170.9-3.6-388.9,2.2-797.5,13.1
		C43,1476.2-19.8,1480.9-49,1435z"/>
</g>
</svg>
