<?xml version="1.0" encoding="utf-8"?>
<!-- Generator: Adobe Illustrator 25.2.3, SVG Export Plug-In . SVG Version: 6.00 Build 0)  -->
<svg version="1.1" id="Layer_1" xmlns="http://www.w3.org/2000/svg" xmlns:xlink="http://www.w3.org/1999/xlink" x="0px" y="0px"
	 viewBox="0 0 1711.8 1080" style="enable-background:new 0 0 1711.8 1080;" xml:space="preserve">
<style type="text/css">
	.st0{display:none;}
	.st1{fill:#B4EFCB;}
</style>
<g id="Layer_1_1_" class="st0">
	
		<image style="display:inline;overflow:visible;enable-background:new    ;" width="1586" height="1304" xlink:href="D3D84DC7B92EFAF2.png"  transform="matrix(0.8514 0 0 0.8514 266.89 -30.2822)">
	</image>
</g>
<g id="Layer_2_1_">
	<path class="st1" d="M132.1,1148.6c-26.3-72.9,136.2-238.8,330.3-297.2c154.1-46.4,228.9,4,414.6-71.3
		c44.3-18,107.4-44.3,163.9-104.6c73.5-78.5,42.6-115,103.7-171.2c66.4-61.1,117.4-31.4,306.1-114.1c42.8-18.8,64.3-28.2,86.8-42.8
		c135.5-87.9,159-219.5,185.6-214c31.9,6.6,11.6,198.2,2.4,378.1c-22.9,447.8,38.4,527.3-41,618.2c-81,92.8-174.9,44.7-600.3,73.7
		c-101.1,6.9-403.8,35.2-781.1,2.4C219.8,1198.4,146.9,1189.4,132.1,1148.6z"/>
</g>
</svg>
