<?xml version="1.0" encoding="utf-8"?>
<!-- Generator: Adobe Illustrator 25.2.3, SVG Export Plug-In . SVG Version: 6.00 Build 0)  -->
<svg version="1.1" xmlns="http://www.w3.org/2000/svg" xmlns:xlink="http://www.w3.org/1999/xlink" x="0px" y="0px"
	 viewBox="0 0 521.7 419.8" style="enable-background:new 0 0 521.7 419.8;" xml:space="preserve">
<style type="text/css">
	.st0{display:none;}
	.st1{display:inline;}
	.st2{fill:#1CBF03;}
	.st3{font-family:'Dynamix';}
	.st4{font-size:126.5851px;}
	.st5{font-size:126.7959px;}
	.st6{font-size:72px;}
</style>
<g id="Layer_1">
	<g id="Layer_1_1_" class="st0">
		<g class="st1">
			<g>
				<path class="st2" d="M248.8,471.8c-0.7-12.3,9.7-22.1,14.1-33c5-12.5,22.8-4.2,17.8,8.2c-1.9,4.8-5,8.8-7.6,13.3
					c-1.3,2.2-4.3,6.7-4.2,9.1C269.6,482.5,249.5,484.8,248.8,471.8L248.8,471.8z"/>
			</g>
		</g>
		<g class="st1">
			<g>
				<path class="st2" d="M250.4,479.4c-6.8-5.3-14.1-11.8-17.9-19.9c-1.5-3.3-1.5-6.8-2.6-10.2c-1.5-4.3-3.5-7.2-4.2-11.9
					c6.3,1,12.6,2,18.9,2.9c-2.2,5,4.5,10.5,7.1,13.5c4,4.5,7,8.8,9.6,14.3c3.8,8.3-7.2,16-14.3,13.1c-7.8-3.3-17.1-7.6-22-14.9
					c-3.9-5.8-4.4-14.4-6.4-21.2c-4.2-13.8-6.2-35.7,6.1-47c13.3-12.3,31.6-7.6,44.7-0.1c7.5,4.3,14.3,9.7,20,16.2
					c3,3.4,5.1,7.7,8.2,11c2.6,2.8,6.5,3.4,9.3,6.4c5.3,5.5,2.9,17.7-6.4,18.1c-5.4,0.2-10-0.4-14.5-3.3c4.8-2.6,9.7-5.3,14.5-7.9
					c-0.6,4.7-0.7,9.2-0.6,13.8c-4.3-2.8-8.7-5.6-13-8.3c0.5-0.3,0.9-0.7,1.4-1c8-7.3,22.3-0.8,16.2,10.5
					c-8.2,15.1-15.7,30.6-22.3,46.4c-4.7,11.2-8.5,34.1-23.8,34.4c-7.1,0.2-9.5-4.8-12.9-9.9c-3.6-5.4-9.6-8.5-11.7-15
					c-2-6.5,0.7-12.4,3.5-18.4c3.7-7.8,7.5-15.6,11.3-23.4c6-12.4,22.5-4.1,17.8,8.2c-4.6,12.1-8.2,31.3-20.4,38.4
					c-1.9-6.1-3.8-12.3-5.8-18.4c3.5-0.5,9.2,1,12.4-0.4c3.2-1.4,6.3-11.4,8.1-14.8c3.2-6.3,6.4-12.5,9.5-18.8
					c2.7-5.4,7.5-12.1,8.8-17.8c1,3.1,2,6.3,2.9,9.4c-3-2.9-8.1-4-11.8-6c-4.5-2.5-8.8-5.5-13-8.5c-8.2-6-15.9-12.1-25.9-15.3
					c4.5-1.7,9-3.5,13.5-5.3c1-2.5,0.9-0.7,2.4,0.8c1.3,1.3,2.4,2.9,3.4,4.5c6.7,10.7-10.3,22.8-17,12c-5.5-8.7-11.2-14.1-6.5-25.6
					c2.3-5.7,8.8-6.7,13.5-5.3c14.1,4.4,24.1,14.8,36.4,22.3c5.8,3.6,13.9,5.3,18.6,10.3c5.3,5.6,2.5,11.9-0.7,18.4
					c-7.7,15.5-14.9,31.6-23.6,46.6c-3.3,5.7-7.2,10.2-13.4,12.3c-5.6,1.9-11.2,0.6-16.9,1.4c-9.6,1.4-14.9-13.1-5.8-18.4
					c3.9-2.2,5-8.4,6.5-12.4c2.2-5.9,4.5-11.8,6.8-17.6c5.9,2.7,11.8,5.5,17.8,8.2c-2.3,4.9-4.7,9.8-7,14.7
					c-1.1,2.3-6.1,9.5-5.8,11.9c0.3,2.7,7.6,7.1,8.9,10.1c0.5,0.9,0.9,1.7,1.4,2.5c-7.8,4-10.7,4.1-8.8,0.3c0-1.9,2.3-6,2.9-7.6
					c8.2-21.3,17.9-42.1,28.8-62.3c5.4,3.5,10.8,7,16.2,10.5c-3.3,3-6.2,5.1-10.1,7.1c-6,3.2-12.8-2.4-13-8.3
					c-0.2-6.4,0.2-12.7,1-19.1c0.8-6.1,9.3-11.2,14.5-7.9c1.2,1.1,2.6,1.7,4.3,1.7c-2.1,6-4.3,12.1-6.4,18.1
					c-3.2-3.4-8.1-4.2-11.2-8.3c-3.5-4.5-6.2-9.3-10.2-13.3c-6.6-6.6-20.1-17.5-30.7-14.7c-8.9,2.3-5.1,20.5-3.2,26.6
					c1.4,4.6,2.3,9.4,3.6,13.9c1.7,6,9.7,8.6,15,10.8c-4.7,4.4-9.5,8.7-14.3,13.1c-3.7-8-11.7-12.7-15.4-20.8
					c-3.3-7.3-3.2-14.9,0.1-22.6c4.5-10.5,17.5-6,18.9,2.9c0.4,2.6,3.1,5.2,3.8,7.9c0.6,2.1,0.2,4.6,1,6.5
					c2.1,5.8,9.1,10.5,13.6,14.1C274,471.3,260.3,487.2,250.4,479.4L250.4,479.4z"/>
			</g>
		</g>
		<g class="st1">
			<g>
				<path class="st2" d="M131,450.8c-6.4,4.7-14.4,7.1-21.4,3.6c-3.1-1.5-5.3-3.9-6.9-6.9c-1.2-2.3-1.4-6.8-3.1-8.5
					c-5.8-5.5-2.6-17.5,6.4-18.1c7.3-0.5,17.7,0.7,24.8-2.1c3.3-1.3,2.6-2.2,4.2-5c-0.5,0.9,2.5,3.2-0.7-0.1
					c-2.8-2.9-5.4-6.2-7.8-9.4c-10.1-13.5-8.8-27.7-1.8-43.8c5.4-12.3,23.1-4.1,17.8,8.2c-1.9,4.4-4.1,9.9-3.7,14.7
					c0.3,4.3,4,8,6.5,11.1c5.7,7.1,11.8,11.8,9.4,22.3c-5.6,24.4-28.4,23.1-47.7,24.4c2.1-6,4.3-12.1,6.4-18.1
					c2.5,2.3,4.1,4.7,5.4,8c0.5,1.2,0.6,2.6,1.2,3.8c0.5,1.1-2.6,1.6,0.5-0.7C131.2,426.4,141.8,442.9,131,450.8L131,450.8z"/>
			</g>
		</g>
		<g class="st1">
			<g>
				<path class="st2" d="M125.7,359.3c17.9-41.8,73.5-4.9,85.4,20.4c5.3,11.4-11.6,23.6-17,12c-4.1-8.8-14-19.1-22.5-23.4
					c-5.3-2.7-11.1-5.1-16.9-6.7c-6.5-1.8-8.5-0.4-11.2,5.9C138.2,379.9,120.4,371.6,125.7,359.3L125.7,359.3z"/>
			</g>
		</g>
		<g class="st1">
			<g>
				<path class="st2" d="M211.2,393.6c-15.1,26.8-28.9,54.4-41.1,82.5c-2.6,5.9-11.5,8.3-15.8,3.8c-5.7-5.9-14.3-12.5-13.3-22
					c1.1-10.6,8.4-21.6,14.6-30.3c-0.4,4.2-0.8,8.3-1.2,12.5c-0.3-0.4-0.7-0.8-1.1-1.2c2.1,1.4,4.3,2.7,6.4,4.1
					c-3.1-0.8-10.9,8.6-13.4,10.2c-4.4,2.8-9.3,2.9-13.2,0c-9.7-7-1.4-20.6,4.5-28.2c3.6-4.6,7.9-8.5,11.9-12.8
					c2.1-2.3,5.2-4.9,6.6-7.8c1-2.1,1.2-1.2-0.8-4.4c-5.2-8.6-12.4-14.8-15.2-25c6.5-0.7,12.9-1.5,19.4-2.2
					c-1.8,9.6-4.7,22,2.8,29.2c-5.1,4.7-10.3,9.3-15.4,14c-7-13.3-18.7-28.1-9.6-44.3c3.5-6.3,10.7-16,17.2-19.2
					c6.9-3.4,16.5,0.7,22.5,3.8c13.2,6.7,22.6,20.6,18.3,36.7c-2.1,8.1-6.7,15.6-10.4,23.1c-4.7,9.4-9.4,18.8-14.1,28.2
					c-5.2,10.4-21.5,6-18.7-5.6c2.3-9.5,4.6-19,6.6-28.6c0.9-4.3,1.7-8.5,2.5-12.8c0.5-2.6,0.5-11.6,3.2-11.4
					c-12.8-1-8.4-21.2,4.3-20.2c14.6,1.1,15,16.5,13.2,28.2c-2.5,16-6.4,31.9-10.2,47.8c-6.2-1.9-12.5-3.7-18.7-5.6
					c6.8-13.7,14.2-27.2,20.5-41.1c2.8-6.1,4.1-11-0.6-16.2c-3.9-4.2-10.8-7.1-16.6-7.4c2.5-0.6,5-1.2,7.5-1.9
					c-4.8,3.7-11.2,10.6-9.3,16.6c2,6.2,6.3,12.1,9.3,17.7c4.9,9.3-6.9,22.1-15.4,14c-13.1-12.6-12-30.4-8.7-48
					c1.9-10,16.8-11.9,19.4-2.2c3.5,12.9,19.3,20.9,18.1,35.8c-0.6,7.9-7,15-12.3,20.6c-3,3.3-16.9,14.4-16.3,19.2
					c-1.1-2.3-2.1-4.5-3.2-6.8c0.4,0.2,0.7,0.5,1.1,0.7c-3.3-0.5-6.6-1.1-9.8-1.6c0.7-0.2,4.8-4.4,6.6-5.7c3.3-2.6,7-5,10.8-6.5
					c7-2.7,12.6-0.6,17,4.6c3,3.5,1.3,9-1.2,12.5c-3.2,4.4-7.2,10.2-8.4,15.6c-0.5,2.2-2.4-0.3,0.9,2.3c2,1.5,3.6,3.8,5.3,5.6
					c-5.2,1.3-10.5,2.6-15.8,3.8c12.2-28.2,25.9-55.7,41.1-82.5C200.1,373.7,217.9,381.8,211.2,393.6L211.2,393.6z"/>
			</g>
		</g>
		<g class="st1">
			<g>
				<path class="st2" d="M72.8,345.4c5.1,7.8,12.3,17.8,13.6,27.5c1.3,10-5.4,21.3-9.8,30.1c-3.9,7.8-16.3,8.2-18.5-0.4
					c-2.6-10.4-2.9-20.7-0.7-31.5c2.5-12.2,18.2-10.5,19.8,0.3c2.3,15.2-5.1,31.1-18.4,39.8c-12.3,8.1-30.3,2.3-38.7-7.5
					c-9.8-11.4-5.3-30.4-0.5-44.1c2.8-8.1,6.1-14.7,13.5-19.4c6.4-4.1,13.1-7.2,20.4-8.1c12.9-1.6,13.8,18.7,0.9,20.3
					c-6.9,0.8-13.1,4.7-15.6,11.3c-2.3,6.2-6.2,17.8-4.1,24c1.6,4.6,10.2,8.3,14.6,5.8c7.1-4.2,8.9-12.5,7.8-19.8
					c6.6,0.1,13.2,0.2,19.8,0.3c-1.5,7.2-1.5,14.1,0.3,21.1c-6.2-0.1-12.3-0.3-18.5-0.4c2.5-5,8.1-13.5,7.2-18.8
					c-1-6.2-7-13.4-10.3-18.5C48.8,346.8,65.8,334.8,72.8,345.4L72.8,345.4z"/>
			</g>
		</g>
		<g class="st1">
			<g>
				<path class="st2" d="M64.4,333.3c10.5,4,24.7,11.5,29.4,22.6c4.7,11.2-1.6,27.3-5.8,38.5C83.5,406,77.1,420.6,66.4,428
					c-10,6.9-21.5,4.7-31.8,1.8c-12.1-3.5-19.5-9.9-26.3-20.5c-5.8-9.1-9.9-19.6-8.1-31c2-13.2,9.7-28.4,16.7-39.9
					c6.9-11.5,15.9-21.9,28.1-27.6c11.9-5.5,26.1-5,35.8,3.1c11,9.2,12.7,24.5,13.2,38.5c0.4,13.1-19.6,15.5-20.1,2.4
					c-0.3-8.4,0.1-20.8-7.7-25.6c-8.1-5.1-18.6,1.6-24.6,8.1c-7.6,8.2-12.2,18.5-16.5,28.6c-4.3,10-7.4,17.8-2.3,27.5
					c4.4,8.4,9.5,14.4,18.7,17.1c3.3,1,7.7,2.5,11.2,2c4.7-0.7,6.8-4.9,9.1-8.8c5.8-9.9,9.9-20.6,12.2-31.6
					c1.4-6.5,0.3-8.2-4.7-12.1c-4.4-3.4-9.2-5.8-14.5-7.8C43.3,347.5,52.7,328.8,64.4,333.3L64.4,333.3z"/>
			</g>
		</g>
		<g class="st1">
			<g>
				<path class="st2" d="M56.6,342.1c-0.2-0.6-0.5-1.2-0.7-1.8c-0.4-1.2-0.5-1.2-0.2-0.1c1.3,1.1,2.6,2.2,3.8,3.3
					c2.9,0.1,3.4,0.2,1.4,0.3c-0.4,0-0.7,0.1-1.1,0.1c-1.3,0.2-0.6,0-2.2,0.6c-0.6,0.2-2.6,1-2.4,0.9c0,0-2,1.3-2.6,1.7
					c-4.6,3.3-11,2.2-13.8-2.2c-2.9-4.5-1.4-11,3.2-14.3c5.3-3.8,11.2-6.2,17.5-7.1c3.7-0.5,7.4-0.3,10.4,1.9
					c3.2,2.2,4.4,5.6,5.8,9.2c2,5-1.7,11.3-6.6,13.2C63.6,350,58.5,347.1,56.6,342.1L56.6,342.1z"/>
			</g>
		</g>
		<g class="st1">
			<g>
				<path class="st2" d="M-21.6,293.3c1.8,1,4.4,2.9,6.5,3.2c-3.2,1.2-6.3,2.4-9.5,3.7c0.7-0.9,2.2-3.6,2.2-4.7
					c0.2,0.1,0.5,0.2,0.8,0.3c-0.8-0.7-1.5-1.4-2.3-2.1c-3.4-3.2-7-6.3-10.5-9.4c-6.6-5.9-13.2-11.9-19.8-17.8
					c4.7-0.5,9.5-1,14.2-1.5c-3.8,5.3-6.3,12.6-9.2,18.5c-3,6.2-6,12.3-9,18.5c-3,6.2-5.9,12.3-8.9,18.5c-2.7,5.6-4.7,8.4-2.4,14.1
					c3.8,9.5,12.1,16.7,19.7,22.9c3.4,2.8,9.1,7.6,14.1,5.4c1.6-0.7,7.5-9.6,6.5-11.5c5.8-0.6,11.6-1.3,17.4-1.9
					c-3.4,8.3-6.2,20.2-14,25.8c-7.4,5.4-16.3,3.7-23.3-0.1c-6.6-3.5-7.2-12.7-0.6-17.6c1.5-1.3,3.2-2.4,5-3.2
					c0.2,5.9,0.4,11.8,0.6,17.6c-1.4-0.9-2.8-1.8-4.2-2.7c-7.3-4.7-6.9-18.8,4.2-19.5c3.7-0.2,6.9-0.1,10.4,0.8
					c9.9,2.6,10.6,20.1-1.7,20.3c-22,0.2-37.6-15.8-40.9-37.2c-2.9-19.1,8.7-45,25.6-55.7c8.4-5.3,19.1,2.7,14.2,12.4
					c-6.3,12.4-15.4,25.9-17.8,39.5c-6.2-1.9-12.5-3.7-18.7-5.6c7-14.7,13.7-30.9,23.3-44.2c10.2-14.1,21-4.7,27.9,5.7
					c6.2,9.2-7.2,21.5-15.4,14c-3.9-3.6-7.9-6.9-12-10.1c-10-7.6,3.8-23.5,13.7-15.9c4.2,3.2,8.2,6.5,12,10.1
					c-5.1,4.7-10.3,9.3-15.4,14c-0.9-1.5-2-2.9-3.1-4.3c-2.6-2.2-2.4-2.5,0.4-0.7c3.2-1.2,6.3-2.4,9.5-3.7
					c-5.4,5.3-8.9,14.2-12.3,20.8c-3.8,7.4-7.4,14.9-11,22.5c-5.2,10.9-20.7,5.7-18.7-5.6c2.8-15.7,12.5-30.6,19.7-44.8
					c4.7,4.1,9.5,8.3,14.2,12.4c-9.2,5.8-16.6,20.3-16.7,31c-0.1,11.6,8.1,25.2,20.5,25c-0.6,6.8-1.1,13.5-1.7,20.3
					c-1.7-0.7-3.4-0.9-5.3-0.7c1.4-6.5,2.8-13,4.2-19.5c1.4,0.9,2.8,1.8,4.2,2.7c5.4,3.4,8.4,13.3,0.6,17.6c-1.8,0.8-3.5,1.9-5,3.2
					c-0.2-5.9-0.4-11.8-0.6-17.6c0.7,0.4,3,2.1,3.9,1.9c-2.4,0.6,0-2,0.6-3.5c1.9-4.5,3.7-9.1,5.6-13.6c2.9-7,14-8.3,17.4-1.9
					c7,13.4-2.1,36.7-17.2,42.6c-18.9,7.3-36.1-8.4-47.3-20.9c-5.6-6.2-10.5-13.2-13-21.5c-2.7-8.9-0.9-15.8,3.1-24.3
					c5.1-10.8,10.4-21.6,15.6-32.4c5-10.3,9.3-21.6,16-30.9c3.3-4.6,10.6-4.8,14.2-1.5c7,6.3,14,12.5,20.9,18.8
					c5.6,5.1,16.6,11.3,18,19.4c1.2,7-3.1,18.1-7.9,23.6c-6.7,7.6-14.7,3.3-21.5-0.4C-41.9,306.1-32.7,287.3-21.6,293.3L-21.6,293.3
					z"/>
			</g>
		</g>
		<g class="st1">
			<g>
				<path class="st2" d="M-177.1,315.9c-13.4-5.8-12.1-16-9.8-29.5c1.3-7.6,11.4-11.5,16.7-6.5c3.2,3.1,4.3,6.9,6.9,10.3
					c2.5,3.4,6.5,6.1,10.2,8.2c3.3,2,7.5,4.4,11.5,2c2.5-1.6,7.5-9.9,7.3-11.4c1.1,2.3,2.1,4.5,3.2,6.8c-5.2-4-12.3-5.1-17.3-9.7
					c-5.7-5.3-6-13.6-2.5-20.9c3.4-7.1,9.5-10.1,16.7-7.8c3.4,1.1,6.5,3.2,9.4,5.2c1.2,0.9,4.6,2.8,5.4,4.3c2,1.4,1.3,1.4-2.1,0.1
					c-3.4,0.1-4.1-0.4-2.1-1.6c0.4,2.5,0.9,5,1.3,7.5c-6.4-9.9-17.9-15.8-25.5-24.5c-3.3-3.8-5.1-8.1-4.6-13.5
					c0.6-6.8,5.3-12.7,6.4-19.4c0.4,2.5,0.9,5,1.3,7.5c-0.2-0.3-0.5-0.6-0.7-0.9c6.2-2.4,12.4-4.8,18.5-7.2c-0.2-1.8,1.9,1,2.7,1.7
					c2,1.6,4,3.2,6,4.9c4,3.2,8,6.4,12,9.6c6.8,5.3,16.7,10.4,21.6,17.6c5.1,7.4-1.6,17.2-5,24.7c-4.6,10.1-9.5,20.1-14.9,29.8
					c-6,10.7-20,5.8-18.7-5.6c0.9-7.6,1.7-15.2,1.3-22.8c-0.4-7-2.5-13.6-3.2-20.5c-1.2-11,13-14.1,18.6-7.2c5,6.3,4.9,14,1.9,21.7
					c-4.9,12.5-22.6,4.2-17.8-8.2c0.4,0.7,0,0.2-1.2-1.5c6.2-2.4,12.4-4.8,18.5-7.2c0.8,7.9,3.2,15.2,3.3,23.3
					c0.2,8.4-0.9,16.9-1.8,25.3c-6.2-1.9-12.5-3.7-18.7-5.6c3.8-6.8,7.3-13.7,10.7-20.8c3-6.3,7.7-13.6,9.1-20.3
					c0.4,2.5,0.9,5,1.3,7.5c-3.4-4.1-9.7-7.2-14-10.6c-4.4-3.5-8.9-7-13.3-10.5c-8-6.4-17-11.7-18.6-22.9
					c-1.5-11.2,13-13.7,18.6-7.2c3.1,3.7,2.3,8.1,0.9,12.5c-1,3.1-2.3,6.4-3.7,9.3c-2.5,5.2-1.5,0.9,0.4,3.7
					c3.1,4.4,9.1,8.1,13,11.8c3.9,3.8,9.5,8.1,12.2,12.9c5.1,9-3.1,20.1-11.5,24.6c-4.6,2.5-8.6,2.4-12.8,0.2
					c-4-2.2-7.7-8.1-12.6-8.2c3.2-1.2,6.3-2.4,9.5-3.7c-1.4-2.3-1.3-2.9,0.5-1.6c1.2,0.6,2.4,1.2,3.6,1.8c2.8,1.4,5.8,2.6,8.4,4.2
					c3.7,2.2,6.5,5.3,6.6,10.1c0.1,9.9-8.8,23.5-16.8,29.2c-10.1,7.1-21.8,5.7-31.4,0.2c-4.3-2.4-8.5-5.3-12.2-8.5
					c-1.8-1.6-3.5-3.4-5-5.4c-1.6-2.1-2.4-5.7-4.3-7.5c5.6-2.2,11.1-4.3,16.7-6.5c-0.6,3.5-2.8,6.8-0.5,7.8
					C-156.1,302.1-165.5,320.8-177.1,315.9L-177.1,315.9z"/>
			</g>
		</g>
		<g class="st1">
			<g>
				<path class="st2" d="M-113.2,310.9c-0.1,1.5-0.1,3.1-0.2,4.6c-3.5-3-7-6-10.5-9c0.4,0,0.8,0,1.1-0.1c-2.3,1.2-4.6,2.5-6.9,3.7
					c2.6-3,4.4-8,6.3-11.5c5.3-9.8,22.7-6,18.7,5.6c-4,11.7-8.3,23.4-13.4,34.7c-4.4,9.6-11.7,17-22.2,12.6
					c-9.2-3.9-17.3-11.2-24.9-17.4c-8.2-6.7-15.3-14.2-21.8-22.7c-3.6-4.8-0.5-13.7,5.5-15.5c11.1-3.4,21.2,6,30,11
					c5.5,3.2,11,6.3,16.5,9.5c4.5,2.6,10.7,7.9,15.7,9.1c-3.5,5.4-7.1,10.8-10.7,16.1c-2.9-4.1-6-7.8-9.5-11.3
					c-8.9-8.8,4.7-24.7,13.7-15.9c4.8,4.7,9,9.7,12.9,15.2c4.6,6.6-2.3,18.2-10.7,16.1c-9.9-2.4-18.9-9.6-27.6-14.6
					c-4.6-2.6-9.2-5.3-13.7-7.9c-2.8-1.6-5.5-3.2-8.2-4.8c-0.9-0.5-1.8-1.1-2.8-1.6c-3.8-1.4-3.7-2.1,0.4-2
					c1.9-5.2,3.7-10.4,5.5-15.5c8.2,10.9,18.7,19.6,29.6,27.6c0.8,0.6,8.5,5.3,8.5,5.4c-5.5,3-6.8,2.4-4-1.7
					c0.7-1.6,1.4-3.2,2.1-4.7c3.5-8.1,6.7-16.3,9.5-24.7c6.2,1.9,12.5,3.7,18.7,5.6c-4,7.3-7.8,19.4-17.4,19.9
					c-5,0.3-10.8-3.2-10.5-9c0.1-1.5,0.1-3.1,0.2-4.6C-132.6,300.2-112.5,297.7-113.2,310.9L-113.2,310.9z"/>
			</g>
		</g>
		<g class="st1">
			<g>
				<path class="st2" d="M-219,270.1c5.4-12,11.2-23.8,17.5-35.4c3-5.5,6.1-11.1,9.2-16.5c2.8-4.8,7.8-10.9,9.1-16.4
					c0.4,2.5,0.9,5,1.3,7.5c-3.9-4.6-13.1-8.1-18.4-11c4.8-2.6,9.7-5.3,14.5-7.9c-2.3,13.5-6.2,26.5-11.6,39.3
					c-5.4-3.5-10.8-7-16.2-10.5c5.7-5.9,11.5-11.9,17.2-17.9c9.3-9.6,23.9,2.9,14.6,12.9c-5.9,6.3-11.7,12.6-17.6,18.9
					c-4.6,5-9.5,11-16.7,10.2c-13.5-1.6-17.7-19.5-16.5-31c6.5,1,13.1,2,19.6,2.9c-0.2,1.4-0.4,2.8-0.7,4.2
					c-1.5,10.1-17,11.9-19.4,2.2c-1.9-7.5-4.6-14.1-8.8-20.4c-3.8-5.7-6.6-10.6-7.7-17.7c5.8,1.8,11.6,3.5,17.3,5.3
					c-2.9,4-7.1,8.4-9,12.9c-0.1-3.4-0.2-6.8-0.4-10.1c3.1,6.6,9.5,12.5,13.9,18.2c5.1,6.6,10.3,13.1,15.4,19.7
					c7.8,9.9-9.3,21.9-17,12c-8.7-11.1-17.4-22.2-26.1-33.3c-3.5-4.5-6.3-8.6-3.7-14.7c2.7-6.2,8.2-12.1,12.1-17.6
					c5.8-8.2,16.2-2.3,17.3,5.3c0.8,5.2,6.5,10.5,8.9,15.1c2.9,5.7,5.1,11.6,6.7,17.9c-6.5,0.7-12.9,1.5-19.4,2.2
					c0.2-1.4,0.4-2.8,0.7-4.2c2.1-13.4,20.9-9.9,19.6,2.9c-0.3,3,0.9,7.3,3.8,8.6c-2.5-0.1-5.1-0.1-7.6-0.2c-1.9,1.7-2,1.7-0.4,0.1
					c1.1-1.2,2.2-2.4,3.3-3.5c1.8-2,3.6-3.9,5.5-5.9c4-4.3,8-8.7,12.1-13c4.9,4.3,9.8,8.6,14.6,12.9c-5.7,5.9-11.5,11.9-17.2,17.9
					c-8.3,8.6-20.8,0.4-16.2-10.5c4.6-11.1,7.7-22.3,9.7-34c1.1-6.4,9-10.8,14.5-7.9c8.1,4.3,18.9,9,24.8,16.1
					c6,7.3,0.2,16.1-4.1,23.5c-11.2,19.3-21.7,38.8-30.9,59.1C-206.8,290.6-224.5,282.4-219,270.1L-219,270.1z"/>
			</g>
		</g>
		<g class="st1">
			<g>
				<path class="st2" d="M-214.5,234.4c-0.3,7.4-1.4,15.2-6,21.6c-5,6.9-13,8.8-20.4,11.4c-15.1,5.4-30.9,9.4-44.4,0.4
					c-9.1-6,2.3-23.3,11.5-17.3c5.1,3.3,10.1,6.5,14,11.2c1.2,1.3,2.1,2.6,3,4.2c-0.3-0.7,0-1,1-1.1c2.6-0.7,5.2-3.4,7.5-4.8
					c5.7-3.5,11.8-6,17.8-8.8c7.3-3.3,10.6-6.7,14.1-14.2c5.9,2.7,11.8,5.5,17.8,8.2c-4,7.9-8,15.7-11.9,23.6
					c-3.5,6.9-9.3,15-11.4,22.3c-0.4-2.5-0.9-5-1.3-7.5c-0.9-1.6,4.1,1.2,4.6,1c-3.8,1.1,0.3-5.7,0.6-6.8
					c4.6-12.6,22.3-4.3,17.8,8.2c-3.1,8.6-9.8,19.3-19.9,19.1c-6.5-0.1-16.9-3.6-20.2-9.5c-4.5-8.2,3.7-18.8,7.5-26.3
					c5.5-10.8,11-21.6,16.4-32.4c6.1-12,23.4-4,17.8,8.2c-4.3,9.3-9.5,16.5-18.6,21.5c-8.2,4.6-16.8,7.5-24.7,12.7
					c-6.9,4.6-14.7,8.3-22.7,6c-3.8-1.1-6.3-3.1-8.5-6.3c-2.9-4.3-5.6-7-10-9.8c3.9-5.8,7.7-11.5,11.5-17.3
					c5.4,3.6,16.1-0.6,21.7-2.5c3.3-1.1,7.6-2,10.7-3.8c3.9-2.3,4.5-4.1,4.7-8.9C-234.1,223.6-214,221.2-214.5,234.4L-214.5,234.4z"
					/>
			</g>
		</g>
		<g class="st1">
			<g>
				<path class="st2" d="M-291.5,183.3c0,0.6,0,1.1,0,1.6c-1.1-2.3-2.1-4.5-3.2-6.8c4.9,4.2,12.6,6.9,18.4,9.9
					c-4.5,1.7-9,3.5-13.5,5.3c2.9-5.4,7.7-12.4,9-18.5c0.4,2.5,0.9,5,1.3,7.5c-3.4-5.4-10-9.6-14.9-13.7c-5.5-4.5-11.2-8.8-17-13
					c-11-7.9-24.1-14.6-32.8-25.1c6.1-1.5,12.2-3,18.3-4.5c-1,7.6-2.6,14.9-4.7,22.3c-1.7-3.6-3.4-7.2-5.1-10.8
					c9.8,5.3,19.2,11.4,27.7,18.5c8.9,7.4,16.4,14.3,27.7,18c8.1,2.6,6.3,16.3-1.7,18.9c-8.5,2.8-16.1,0.6-24-2.3
					c-8.5-3-12.6-8.6-13.3-18c-0.6-7.6,1.9-16.5,10.4-18.4c9.3-2.1,17.4,7.4,22.7,13.3c4.5,5,4,11.5-1.6,16.2
					c-7.4,6.3-20.8,0.1-25.7-6.1c-0.7-0.6-1.4-1.2-2.1-1.8c4.3-3.4,5.4-3.6,3.3-0.7c-0.9,1.9-2.8,3.9-4.5,5.1
					c-1.9,1.3-4,1.9-6.2,1.9c-0.7,0.1-1.4,0-2-0.1c-3.6-1-3.4-1,0.7-0.1c2.3-1.2,4.6-2.5,6.9-3.7c-3.1,3-4.7,11.2-6.6,15.5
					c-2.6,5.7-6,10.8-9.5,15.9c-1.2,1.8-5.1,5.8-5,7.8c-0.2-0.1-0.4-0.2-0.7-0.3c0.9,0.8,1.8,1.6,2.7,2.4c4,3.7,7.5,7.8,10.4,12.4
					c-5.8,0.6-11.6,1.3-17.4,1.9c8.8-19.1,17.6-38.1,26.4-57.2c4.7,4.1,9.5,8.3,14.2,12.4c-2.2,1.4-3.8,6.3-5,8.7
					c-2.2,4.2-4.3,8.4-6.3,12.7c-3.8,7.9-8,13.6-15.5,18.4c-6.8,4.4-14.5,0.6-15.3-7.1c-0.1-0.6-0.1-1.2-0.2-1.8
					c-1.3-13,18.7-15.3,20.1-2.4c0.1,0.6,0.1,1.2,0.2,1.8c-5.1-2.4-10.2-4.7-15.3-7.1c13.6-8.7,12.9-30.8,26.8-39.7
					c8.7-5.6,18.6,2.8,14.2,12.4c-8.8,19.1-17.6,38.1-26.4,57.2c-3.4,7.3-13.4,8-17.4,1.9c-4.3-6.7-12.4-11-15.1-18.7
					c-3.1-8.8,2.5-17.3,7.5-24.7c6.4-9.4,9.8-18.8,14.7-29c1.7-3.5,3.6-6.7,7.2-8.6c1.5-0.8,3.2-1.3,4.9-1.4
					c0.9-0.1,7.3,1.1,4.1,0.5c-3.2,1.2-6.3,2.4-9.5,3.7c5.1-5,7.4-11.2,15.7-11c3.7,0.1,6.9,1.7,9.8,3.8c1.5,1.1,2.8,2.3,4.2,3.5
					c1,0.9,2.1,1.8,3.3,2.5c2.1,0.9,1.5,1.9-1.9,2.9c-0.5,5.4-1,10.8-1.6,16.2c-1.7-1.9-3.5-3.8-5.3-5.5c-0.7-0.7-1.5-1.4-2.3-2
					c-2.1-1.2-1.4-1.8,2.1-1.7c2-1.8,3.9-3.6,5.9-5.4c0.8-2,0.3,0.6,0.3,1.5c0.2,0.7,0.4,1.5,0.6,2.3c-1.5-1.8-1.3-2.2,0.5-1.1
					c3.2,0,6.8,3.6,10.2,2.4c-0.6,6.3-1.1,12.6-1.7,18.9c-21.4-7-35.9-25.9-55.5-36.5c-3.5-1.9-6.5-6.3-5.1-10.8
					c2.2-7.4,3.7-14.7,4.7-22.3c1.3-9.9,13.5-10.4,18.3-4.5c6.1,7.4,16.7,12.3,24.5,17.7c8.3,5.9,16.5,11.9,24.3,18.5
					c5.6,4.8,15.7,11.1,17.1,19.1c1.5,8.5-6.9,20.3-10.9,27.7c-2.6,4.8-8.7,7.8-13.5,5.3c-8.8-4.7-25.7-9-26-21.2
					C-311.9,172.6-291.9,170.2-291.5,183.3L-291.5,183.3z"/>
			</g>
		</g>
		<g class="st1">
			<g>
				<path class="st2" d="M-456.4,180.3c-5.4-5.9-11.5-13.6-8.9-22.7c2.8-9.6,15.1-14.1,20.8-5.4c2,3.1,2,6.9,4,10.1
					c2.2,3.5,4.3,6.5,3.9,11c-1,11-13.1,14.1-21.1,10.2c4.7-4.4,9.5-8.7,14.3-13.1c2.4,7.9,9.6,13.9,15.8,18.8
					c5.6,4.5,14.7,11.8,22.1,12.9c-3.2,1.2-6.3,2.4-9.5,3.7c1.3-1.5,2.3-4.6,3.1-6.2c0.7,4,1.3,8,2,12c-7.4-5.1-16.5-7.7-24.1-12.6
					c-6.6-4.3-15.7-9.2-20-16c-2.2-3.5-2-9.1,1.2-12.5c5.2-5.6,12.5-6.5,19.1-4.1c6.8,2.5,12.5,9.8,20.6,5.7c-2,1.8-3.9,3.6-5.9,5.4
					c0.9-2.1,2.3-6.9,1.5-8.7c-1.2-2.7-5.2-5-6.7-8.2c-3.4-7.2-2.9-15.4,1-22.8c2.1-3.9,6.7-6.9,11-6c4.3,0.8,11.3,4.4,14.1,4.4
					c-2.5,0.6-5,1.2-7.5,1.9c5.9-3.9,1.1-6.7-2.6-8.8c-5.1-3-10.5-5.4-14.3-10.1c-7.3-9.3-0.2-20.2,1.1-31.1
					c1.7-13.2,21.3-10.1,19.6,2.9c-0.6,5-1.6,9.9-3.4,14.7c-2,5.3,0.1,1-0.9,0.5c2.3,1.1,4.9,3.1,7.2,4.4c7,4,13.5,8.9,15.8,17.1
					c2.5,9-2,18.2-8.9,24.5c-8.9,8-15.3,1.7-24.6-0.1c3.7-2,7.3-4,11-6c-3.2,6,6,10.3,7.5,15.8c1.9,6.6,0.2,16.2-2.8,22.6
					c-3.7,7.9-12.6,9.5-20.1,9.2c-3.8-0.2-7.6-0.9-11.1-2.4c-1.6-0.7-3.1-1.6-4.6-2.5c-1.1-0.8-2.3-1.5-3.4-2.1
					c-2.3-0.7-1.7-1.8,1.7-3.1c0.4-4.2,0.8-8.3,1.2-12.5c1.6,2.6,6.5,5,9,6.8c3.5,2.6,7.1,5,10.9,7.1c6.9,3.8,14.3,6.3,20.9,10.8
					c3.5,2.4,3.9,8.3,2,12c-3.4,6.9-6.7,15.3-15.7,14.6c-7.4-0.6-15.3-6.3-21.3-10.1c-12.6-8-26.8-19.2-31.4-34.4
					c-2.4-8.1,6.5-16.8,14.3-13.1c-1.8,0.7-3.6,1.3-5.4,2c-0.9,2.5-1.8,5.1-2.7,7.6c0.4,2.5,0.2,1.3-1,0c-1.2-1.4-2-3.3-2.8-5
					c-0.6-1.4-1.1-2.8-1.5-4.3c-0.1-0.8-0.3-1.6-0.4-2.4c-0.4-2.1-0.3-1.7,0.3,1.1c3,1.4,6,2.8,9,4.1c-0.4,0.1-0.8,0.1-1.2,0.2
					c2.3-1.2,4.6-2.5,6.9-3.7c3.2-4.3,1.8-3,4.7,0.1C-434.2,173.6-447.9,189.6-456.4,180.3L-456.4,180.3z"/>
			</g>
		</g>
		<g class="st1">
			<g>
				<path class="st2" d="M-412.5,87.6c13-4.6,19.6,4.2,27.9,11.9c5,4.6,10.6,8.5,15.9,12.7c4.3,3.4,9.8,7,10.8,12.9
					c1,5.8-2.6,11.8-5.1,17c-3.3,6.8-6.7,13.7-10,20.5c-6.6,13.5-14.3,27-18.5,41.3c-3.8,12.7-23.1,10-19.6-2.9
					c6.4-23.7,12.3-47.6,17.7-71.5c6.2,1.9,12.5,3.7,18.7,5.6c-5.9,12.4-11.8,24.8-18.6,36.7c-3.6,6.3-10.5,7.7-15.8,3.8
					c-0.3-0.3-0.7-0.5-1-0.8c-10.1-7.5,3.7-23.3,13.7-15.9c0.3,0.3,0.7,0.5,1,0.8c-5.2,1.3-10.5,2.6-15.8,3.8
					c6.8-12,12.7-24.3,18.6-36.7c5-10.7,21.3-5.8,18.7,5.6c-5.4,23.9-11.3,47.7-17.7,71.5c-6.5-1-13.1-2-19.6-2.9
					c3.8-12.9,9.8-24.9,15.8-37.1c3.1-6.3,6.1-12.6,9.2-18.9c2.7-5.4,7.8-12.9,8.7-18.8c0.4,2.5,0.9,5,1.3,7.5
					c-3.8-5.6-11.5-9.4-16.6-13.5c-1.5-1.2-13.3-13.6-13.8-13.4C-419,111-425,92-412.5,87.6L-412.5,87.6z"/>
			</g>
		</g>
		<g class="st1">
			<g>
				<path class="st2" d="M-519.5,76.8c5,9.2,10.8,18.2,15,27.9c3.6,8.2,0.9,17.3-7,22.5c-3.5,2.3-7.2,2.6-11,4
					c-4,1.6-7.2,4.6-11.3,6c-8,2.7-20.3,3.8-26.1-2.7c-8.3-9.2,5-25.1,13.7-15.9c1.8,1.9,11.3,11.2,9.7,14.6
					c-6.9-0.6-8.7-1.6-5.4-3.1c1.2-0.6,2.3-1.3,3.5-1.9c2.4-1.2,5-2,7.5-2.8c7-2.1,14.1-3.7,21.2-5.5c5-1.3,9.7-2.8,14.2,0.2
					c8.7,5.9,3.4,24.1-5.3,29.3c-2.7,2.8-2.4,0.6,0.7-6.5c1.6,1.2,3.2,2.4,4.8,3.5c2.2,1.7,4.3,3.4,6.2,5.5c3.9,4.4,6,9.5,6.4,15.6
					c0.5,9.7-10.2,13.6-16.9,9.1c-8-5.4-14.7-11.9-20.7-19.5c-4.6-5.7,1-15.6,8.1-16.2c2.1-0.2,20.8-0.9,20.9,1.2
					c-4.8,3.2-5.8,2.8-3.1-1c0.7-1.5,1.5-2.9,2.2-4.4c1.7-3.4,3.4-6.8,5.1-10.2c3.9-7.8,7.8-15.6,11.7-23.4c1.4-2.8,2.9-5.7,4.1-8.5
					c0.6-1.3,3.6-11,4.4-8c-0.5-2-5.6-5.3-7-7.2c-1.7-2.3-2.6-4.2-4.8-6.1c-5.6-5.1-12.9-10.3-19.9-13.3c-3.9-1.7-10.6-3.9-14.7-0.7
					c-4.4,3.3-6.8,13.2-4.1,17.5c-5.3-0.1-10.6-0.3-15.9-0.4c7.6-8.6,13.4-23.8,26.5-23.1c5.9,0.3,11.8,4,17,6.3
					c4.9,2.2,10.4,4.1,13.8,8.5c1.7,2.3,2.3,5,3.7,7.5c1.3,2.3,3.2,3.7,4.7,5.8c3.6,4.8,3.9,9.4,2.1,15.3
					c-4.5,14.7-14.2,27.6-18.6,42.4c-2.8,9.5-16.2,12.4-19.4,2.2c-2.9-9.4-5-19.1-6.1-29c-1-8.9,0.4-20.1-6.9-26
					c5.2-1.3,10.5-2.6,15.8-3.8c-2.1,4.8,6.7,13.2,10.9,12.3c-2.3,1.2-4.6,2.5-6.9,3.7c-0.8,2.8-1.5,2.6-2-0.6
					c-0.7-1.7-1.6-3.4-2.5-5c-1.8-3.2-3.9-6-6.1-8.9c-7.8-9.9,9.3-21.9,17-12c5.5,7,11.8,16.3,12.9,25.6c1.2,9.5-6.1,18.6-15.9,17.8
					c-8.5-0.7-18.7-8-23.3-14.8c-5.3-7.8-6-17.2-2-26.4c2.9-6.5,11-7.6,15.8-3.8c8.7,7,11.4,17.5,12.3,28.6c1,12,2.5,23.4,6.1,34.8
					c-6.5,0.7-12.9,1.5-19.4,2.2c2.8-9.5,6.7-18.5,11.1-27.4c2.5-5,4.8-10.2,7.3-15.2c2.7-5.5-0.3-0.6,0.5-0.1
					c-1.6-1-3.1-3.4-4.1-4.9c-2-3.2-2.1-5.9-5.1-8c-3.2-2.2-7.8-3.5-11.4-5c-1.3-0.6-5.4-1.2-2.4-2.1c2.8-0.9-0.3,2.1-1.2,3.5
					c-2.9,4.4-6,8.5-9.6,12.5c-4.5,5-12.4,5-15.9-0.4c-10.1-16-0.7-44,18.7-50c10-3.1,20.5-0.8,29.2,3.8
					c9.7,5.1,21.1,12.4,27.5,21.5c2.9,4,7.1,6.7,9.8,10.8c3,4.5,2.1,9.8,0.6,15c-3.6,12.1-10,23.3-15.6,34.6
					c-2.9,5.8-5.9,11.7-8.8,17.5c-2.5,5-4.7,11.1-8.6,15.3c-8,8.9-20.1,3.2-29.8,3.9c2.7-5.4,5.4-10.8,8.1-16.2
					c4.9,6.2,10.9,11.3,17.4,15.6c-5.6,3-11.3,6.1-16.9,9.1c-0.4-8-13.8-10.7-16.4-18.8c-1.2-3.8-0.7-7.9,1.4-11.5
					c1.1-1.9,2.6-2.9,3.9-4.5c0.8-1,2.6-4.9,3-2.6c1.6,1.9,3.3,3.8,4.9,5.6c3.3,0.7,3,1.2-1,1.6c-2.1,0.6-4.3,1.1-6.4,1.7
					c-3,0.8-6,1.5-9,2.3c-5.4,1.5-9.9,4.2-15,6.3c-4.8,1.9-10.2,1.8-14-1.5c-4.2-3.6-4.8-9.9-8.6-14c4.6-5.3,9.2-10.6,13.7-15.9
					c2,2.2,9-1.9,11-3.1c2.5-1.5,9.4-5.8,12.3-4.9c1.3-0.7,1.4-0.2,0.4,1.4c-0.4,2.6-1.1,2.2-2-1.1c-1.6-1.8-2.6-4.8-3.8-6.9
					c-2.8-5.1-5.5-10.1-8.3-15.2C-542.5,77.8-525.5,65.6-519.5,76.8L-519.5,76.8z"/>
			</g>
		</g>
		<text transform="matrix(-0.8488 -0.3923 -0.4463 0.8949 290.6156 530.7586)" class="st1 st3 st4">PROJEKTER</text>
	</g>
	<g id="Layer_2_1_" class="st0">
		<g class="st1">
			<g>
				<path class="st2" d="M-85.6-26.6c0.7-3.3,1.5-6.7,1.1-10c1.1,2.3,2.1,4.5,3.2,6.8c0.1,0.1,0.2,0.1,0.3,0.2
					c1.7,0.3,3.4,0.5,5.1,0.8c2.5-0.2-0.2,1.6-1.2,3.2c-1.7,2.4-3.4,4.8-5,7.3c-3.1,4.5-6.2,9-9.4,13.5c-3.7,5.4-13.1,4.7-15.9-0.4
					c-7.2-13.3,4.9-33.2,13.3-44.6c8-10.9,22.6,2.1,14.6,12.9c-2.7,3.7-5,7.6-6.8,11.8c-0.8,1.9-1.5,3.7-2.1,5.7
					c-0.2,0.8-0.4,1.6-0.7,2.4c-0.4,3.4-0.8,3.3-1.3-0.3c-5.3-0.1-10.6-0.3-15.9-0.4c4.1-5.9,8.2-11.8,12.2-17.7
					c3.5-5.1,7-10.7,13-12.9c5.5-2,12.1-0.3,15,4.6c3.3,5.4,1.3,14,0,20.1C-68.8-10.6-88.4-13.6-85.6-26.6L-85.6-26.6z"/>
			</g>
		</g>
		<g class="st1">
			<g>
				<path class="st2" d="M-115.9-10.6c0.8-1.6,1.6-3.2,2.4-4.8c5.4,3.5,10.8,7,16.2,10.5c-2.6,3-5.2,6.1-7.8,9.1
					c-0.7,0.8-1.3,1.5-1.9,2.3c-2.9,4.3-3.3,2.7-1.3-4.5c0.8,0.1,4.2,6.8,4.7,7.6c2.1,3.4,4.2,6.8,6.3,10.1
					c-5.8,0.6-11.6,1.3-17.4,1.9C-106,6.2-95.3-7.7-82.2-19.7c3.8-3.5,10.3-5.8,14.2-1.5C-57.7-9.8-53.3,5.4-57.6,21.4
					c-2.2,8.1-10.5,10.8-16.7,6.5C-81.8,22.6-89.4,17.3-97,12c-3.6-2.5-7.1-5-10.7-7.4c-2-1.4-7.2-6.7-9.5-6.9
					c2.5-0.6,5-1.2,7.5-1.9c1-5.6,3-7.1,5.8-4.6c11,5.9,1.8,24.7-9.3,18.7c-6.8-3.6-13.4-8.9-13.5-17.6c-0.1-8.1,6.1-16,14.5-14.9
					c8.3,1.1,17.1,10.3,23.7,14.9c9.3,6.5,18.7,13,28,19.5c-5.6,2.2-11.1,4.3-16.7,6.5c2.3-8.6,1.3-17.4-4.5-23.8
					c4.7-0.5,9.5-1,14.2-1.5C-79.2,3.9-89.1,16-96.9,29.8c-3.8,6.7-13.3,8.6-17.4,1.9c-4.3-6.9-13.5-16.6-13.5-25.4
					c0-9.1,10.4-17.6,15.9-24.1c7.7-9,21.4-0.1,16.2,10.5c-0.8,1.6-1.6,3.2-2.4,4.8C-104.1,9.7-121.8,1.5-115.9-10.6L-115.9-10.6z"
					/>
			</g>
		</g>
		<g class="st1">
			<g>
				<path class="st2" d="M-112.7-20.1c6.3-16.6,16.3-33.1,27.3-47.1c3.9-5,8.6-7.7,14.7-7.9c5.9-0.2,11.4,5.3,16.7,4.7
					c6.2-0.7,11.9,5.1,10.3,11.6c-1.8,7-3.7,13.9-5.4,20.9c-1.2,4.9-3.6,11.4-1.3,15.9c-5.3-0.1-10.6-0.3-15.9-0.4
					c4.4-6.3,0-11.4-5.6-13.2c-5.3-1.7-6.2-8.7-4.2-13.5c0.5-1.1,0.9-2.2,1.4-3.3c1.9-4.5,6.8-6.2,11-6c6.4,0.3,12,3,16.1,7.7
					c2.1,2.4,8.4,12,5.9,15.7c0.5,2.6-1,2.1-4.3-1.5c1.2-0.8,2.2-1.8,3.2-2.9c2.2-2.2,4.2-4.7,6.5-6.9c4.6-4.5,9.4-8.3,15.5-10
					c4.3-1.2,9.1-0.5,11.5,3.5c3.9,6.5,12.7,9.6,15,17.1c2.7,8.6-4.4,17.4-7.4,25.3c-8,21.1-12.1,43.9-17.8,65.5
					c-1.5,5.7-6.4,9.2-12,8.6c-8.8-0.8-22.7,0.8-27.4-8.3c-4.7-9.2,4.7-21.5,8.5-30.3c4.6-10.8,5.3-20.8,6.8-32
					c0.6-4.4,1.6-9,3.6-13.1c1.3-2.7,3-5.2,5.1-7.3c0.7-0.6,1.3-1.2,2-1.8c3.2-3,3.8-1.8,2,3.7c5.6,0.9,11.3,1.8,16.9,2.7
					C-25.2-9.4-38.2,2.3-52.7,12.1c-0.2-5.9-0.4-11.8-0.6-17.6c0.9,1,1.9,1.3,3.2,1c12.8-3.7,17.8,13,6,19.1
					c-4.7,2.4-9.5,3.7-14.6,4.2c-12.9,1.2-13.8-19.1-0.9-20.3c3.6-0.3,6.3-1.3,9.6-2.9c2,6.4,4,12.7,6,19.1
					c-6.6,1.9-12.6,2-18.5-1.3c-6.2-3.5-7.6-12.9-0.6-17.6c13.1-8.8,24.6-19.1,34.9-31.2c4.7-5.5,15.4-4.9,16.9,2.7
					c1.4,7-0.4,11.9-5.8,17c-3.5,3.3-5,4.2-6,9.2C-24-3.2-24.1,0.4-24.5,4c-0.8,8-2.7,15.6-5.6,23.3c-2.9,7.8-8.2,15.5-10.3,23.5
					c-0.4-2.5-0.9-5-1.3-7.5c-2.2-1.3-2.2-1.7,0-1.2c1.6,0.1,3.3,0.3,4.9,0.4c3.3,0.3,6.5,0.6,9.8,0.9c-4,2.9-8,5.8-12,8.6
					C-34,33.1-29.6,14-24-4.8c1.2-4.2,2.6-8.3,4.1-12.4c0.9-2.5,3.2-11.1,5.6-12.5c-1,0.6,4,3.5,0,1.6c-1.8-0.8-3.5-2.6-4.8-4
					c-2.7-2.7-5-5.7-7-9c3.8,1.2,7.7,2.3,11.5,3.5c-12.5,3.5-17.2,20.9-31.6,21.6c-6.5,0.3-12-3.7-14.1-9.7
					c-2.1-5.9,0.6-12.5-7.4-12.8c3.7-2,7.3-4,11-6c-0.5,1.1-0.9,2.2-1.4,3.3c-1.4-4.5-2.8-9-4.2-13.5C-43.4-48.2-40-26-51.6-9.6
					c-3.7,5.2-13.2,4.9-15.9-0.4c-8-16.1-0.3-34.7,4.1-51.8c3.4,3.9,6.8,7.7,10.3,11.6c-5.3,0.6-9.4-0.5-14.1-2.6
					c-1.6-0.7-3-1.5-4.6-2.1c2.4-1.5,2.7-1.4,1,0.5c-1,1.4-2,2.8-3,4.3C-82-38-89.6-25.6-94.9-11.9C-99.7,0.7-117.4-7.7-112.7-20.1
					L-112.7-20.1z"/>
			</g>
		</g>
		<g class="st1">
			<g>
				<path class="st2" d="M-33.6,32c0.1,0,0.2,0.1,0.3,0.1c-0.8-0.3-1.7-0.5-2.5-0.8c0.2,0.1,0.4,0.1,0.6,0.1c-0.9,0-1.7,0-2.6,0
					c0.2,0,0.4,0,0.6-0.1c-0.8,0.2-1.7,0.4-2.5,0.6c0.3-0.1,0.5-0.2,0.7-0.3c-0.8,0.4-1.6,0.8-2.3,1.2c0.2-0.1,0.4-0.2,0.5-0.4
					c-0.7,0.6-1.3,1.2-2,1.8c0.1-0.1,0.3-0.3,0.4-0.5c-0.5,0.8-1,1.6-1.6,2.3c0.1-0.2,0.2-0.4,0.3-0.6c-0.3,0.9-0.6,1.8-0.9,2.6
					c0-0.1,0-0.1,0-0.2c0.2-1.4,0.8-2.7,1.7-3.8c0.7-1.2,1.6-2.2,2.8-3c1.1-0.8,2.3-1.4,3.6-1.6c1.3-0.4,2.6-0.5,3.9-0.3
					c2.5,0.5,5,1.8,6.4,4.1c1.2,2.1,2,4.9,1.3,7.5c-0.3,1-0.6,2.2-1.1,3.2c-0.2,0.4-0.8,1.2-0.9,1.4c-0.2,0.3-0.6,1-0.9,1.4
					c-0.1,0.1-0.2,0.2-0.3,0.3c-0.6,0.6-1.5,1.4-2.1,1.9c-0.9,0.6-1.9,1.1-2.8,1.6c-0.2,0.1-0.4,0.2-0.6,0.2
					c-0.8,0.3-1.9,0.6-2.7,0.7c-0.1,0-0.2,0-0.3,0c-0.8,0.1-1.9,0-2.7,0c-0.1,0-0.2,0-0.3,0c-0.5-0.1-1.2-0.3-1.6-0.4
					c-0.5-0.2-1.1-0.3-1.5-0.5c-1.2-0.5-2.2-1.3-3-2.4c-0.9-0.9-1.5-2-1.9-3.3c-0.4-1.2-0.6-2.5-0.3-3.9c0-1.4,0.3-2.7,1-4
					c1.3-2.4,3.3-4.5,5.9-5.4C-38.6,30.9-36,30.9-33.6,32L-33.6,32z"/>
			</g>
		</g>
		<g class="st1">
			<g>
				<path class="st2" d="M-154.2,14.8c-0.3-0.2-0.6-0.4-0.9-0.6c2.4,0.7,4.9,1.5,7.3,2.2c5-4,6.5-4.7,4.5-2c-0.6,1-1.2,1.8-2,2.6
					c-2.2,2.2-4,3-6.9,3.7c-4.7,1.1-9.3,0-13.2-2.5c-3.8-2.4-6.6-6.1-8.1-10.4c-1.3-3.7-2.6-6-4.4-9.4c-4.7-9-1-19,4.4-27.3
					c6.4-9.9,11.8-19.8,15.9-30.8c3.1-8.4,8.9-17.5,19-15.4c4.2,0.9,7.8,4.1,9,8.3c1.1,3.7,1.9,4.8,4.1,8.1
					c5.7,8.4,3.5,16.4-0.9,25.5c-6,12.6-12.1,25.1-18.1,37.6c-3.3,6.8-13.8,8.6-17.4,1.9c-10.1-18.5-1.8-37.9,8.9-55.5
					c7-11.4,24.8-3.3,17.8,8.2c-6,9.8-15.7,24-9.6,35.2c-5.8,0.6-11.6,1.3-17.4,1.9c6-12.5,12.1-25,18.1-37.6c0.6-1.3,1.9-7,2.7-3.6
					c-0.4-1.8-2.5-3.2-3.6-4.7c-1.2-1.7-2.4-3.6-3-5.6c-0.4-1.4-0.7-2.9-0.9-4.4c9-1.5,12.5,0,10.6,4.3c-0.5,5.1-4.7,12.5-7,17.1
					c-2.7,5.7-5.9,11.1-9.4,16.3c-1.5,2.2-3.8,4.7-4.5,7.2c-0.8,2.8-0.3,2.4,0.7,4.6c0.6,1.5,4.7,10.7,5.5,10.6
					c-2.3,1.2-4.6,2.5-6.9,3.7c5.9-7.1,11.5-10.7,19.5-5.3C-130.1,5.9-143.9,21.7-154.2,14.8L-154.2,14.8z"/>
			</g>
		</g>
		<g class="st1">
			<g>
				<path class="st2" d="M-120.5-94.7c2.1,0.7,3.7,1.9,5,3.6c0.6,0.6,1.1,1.3,1.5,2.1c1.5,2.7,1.5,3-0.2,0.9
					c-1.7-0.3-3.4-0.5-5.1-0.8c-0.4,0.8-0.2,0.5,0.7-1c4-7.3,16.5-8.7,18.5,0.4C-97-74.9-109-64.5-123-66
					c-7.5-0.8-11.3-6.6-14.4-12.8c-2.6-5.3-7.1-11.4-7.5-17.7c-1.2-16.8,19.1-19,30.3-15.8c11,3.1,24.4,20,11.6,30.4
					c-10.4,8.5-21-8.1-10.6-16.5c0.2-0.2,0.4-0.3,0.6-0.5c-1.5,2.3-3,4.5-4.5,6.8c0-0.3,0.1-0.6,0.1-0.9c0.1,1.7,0.1,3.5,0.2,5.2
					c-0.5-1.7-1.9-3.9-3.5-4.7c-1-0.5-2.5-0.5-3.6-0.6c-0.9-0.1-1.9-0.1-2.8-0.1c-1.4,0.2-1-0.4,1.1-1.8c0.4-1.8,0.8-3.5,1.1-5.3
					c0,2.8,3.3,7,4.5,9.4c0.4,0.7,2.2,5.1,1.7,4.5c-1.2,0.1-0.8,0.1,1.3,0c-1.7,1.1-2.3,2.5-2,4.3c6.2,0.1,12.3,0.3,18.5,0.4
					c-3.6,6.5-9.1,12.3-16.7,13.1c-3.4,0.3-7.2-0.6-9.7-2.8c-0.9-0.8-1.9-2-2.5-3c-0.4-0.8-0.8-1.6-1.2-2.4c-1-1.9-0.6-1.6,1.2,0.8
					c-5.1-1.6-6.5-8.9-4.2-13.5C-131.3-95.1-125.6-96.3-120.5-94.7L-120.5-94.7z"/>
			</g>
		</g>
		<g class="st1">
			<g>
				<path class="st2" d="M-235-57.3c7.9-2.8,14.7-7.9,19.3-15.3c7.9-12.6,0.5-23.1-9.6-29.9c-5.3-3.6-12.4-5.6-16.9-10.2
					c-3.8-3.9-3.9-9.3-3.3-14.7c1.7-14.4,11.5-19.7,24.6-20.2c12.8-0.4,25.2,1.5,33.6,11.4c7.8,9.1,9.9,21.5,9.8,33.7
					c-0.2,25-4.7,56.9-25.6,75.1c-11.8,10.3-27.7,10.3-40.1,3.7c-5.3-2.8-10.1-8.9-15.8-9.7c-6.9-1-11.3-1.8-16.7-6.7
					c-2.3-2.2-4-6-2.9-9.4c1.6-5.4,3.6-10.6,6.5-15.5c0.5-0.8,0.7-1.6,0.9-2.5c0.3,2.1-0.4,2.1-2.2,0c-2.5-1.1-5.1-4.4-6.6-6.6
					c-5.5-8.1-5.9-23.6,6-27.6c6.1-2.1,10.9,1.2,15.9,3.8c6.5,3.4,13.2,6.7,19.6,10.2c5.1,2.8,9.8,5.6,9.6,12.4
					c-0.2,7.7-7.4,15.5-11.5,21.8c-1.4-4.5-2.8-9-4.2-13.5c5.8,3.2,11.7,6.4,17.5,9.6c2.7,1.5,5.4,3,8.1,4.4c1.3,0.7,2.7,1.5,4,2.2
					c-3,0.7-3.6,0.2-1.6-1.6c8.3-10.7,22.9,2.2,14.6,12.9c-5.6,7.2-13.7,11.3-21.9,7.6c-10.4-4.5-20.2-11.1-30.1-16.5
					c-4.2-2.3-7.4-8.4-4.2-13.5c1.9-3,3.8-5.9,5.7-8.9c1.2-1.9,3.3-8.5,3.5-4c1.1,2.3,2.1,4.5,3.2,6.8c-6-4.8-14.7-7.8-21.6-11.3
					c-1.9-1-3.7-1.9-5.6-2.9c4.9-7,8.3-8.4,10.1-4c2.4,1.4,5.3,3.9,7.2,5.9c10.2,10.7,0.3,22-3.2,33.8c-1-3.1-2-6.3-2.9-9.4
					c3.6,3.3,7.3,1.7,11.8,3.1c6.4,2,10.6,7.4,16.3,10.6c14.2,7.7,21.8-1.9,28-15c6.7-14.1,8.2-27.6,8.4-42.7
					c0.1-13.8-2.7-26.3-18.2-27.1c-3.3-0.2-6.6,0.3-9.9,0.3c0.8-0.3,0.7,0.5-0.2,2.3c-1-2.5-0.8-3,0.9-1.7c2.3-0.1,6.8,3.8,8.7,5
					c2.8,1.7,5.5,3.5,8,5.6c9.2,7.4,16.2,18.4,16.1,31.1c-0.3,20.9-18.1,39.8-37,46.5C-241.5-33.9-247.5-52.9-235-57.3L-235-57.3z"
					/>
			</g>
		</g>
		<g class="st1">
			<g>
				<path class="st2" d="M-192.8-126.9c1.2,5.7,2.1,11.5,2.4,17.4c0.5,10.1-13.3,15.5-18.6,7.2c-1.5-2.4-3.3-6.9-5.6-8.6
					c-2.1-1.6-5.5-1.4-8.1-1.6c-5.4-0.4-8.8-6.4-7.7-11.6c1.2-5.8,6.6-9,12-8.6c6,0.4,12,1.5,16.7,5.3c4.2,3.4,6.8,8.5,9.7,13
					c-6.2,2.4-12.4,4.8-18.6,7.2c-0.2-4.2-0.6-8.3-1.5-12.3c-1.1-5.3,1.1-11.1,6.6-13.2C-200.6-134.5-193.9-132.2-192.8-126.9
					L-192.8-126.9z"/>
			</g>
		</g>
		<g class="st1">
			<g>
				<path class="st2" d="M-315.9-95.9c9.6,7.3,9,20.3,6.8,31.6c-6.2-1.9-12.5-3.7-18.7-5.6c0.8-2,1.7-4,2.5-6
					c4.7,4.1,9.5,8.3,14.2,12.4c0.5-0.7,1.1-1.4,1.7-2.1c-0.4,0.7-0.9,1.3-1.3,2c-1.1,1.6-1.7,2.5-3.4,3.8c-2.3,1.8-4.7,2.7-7.6,2.8
					c-5.6,0-9.6-3.8-12.7-7.8c-6-7.9-3.2-18.4-1.8-27.8c0.8-5.5,6.9-9.4,12-8.6c5.6,0.8,8.5,6.1,7.7,11.6c-0.5,3.2-1.4,7.3-1.6,10.1
					c0,0.8,0,1.7,0,2.5c-0.7-1.8-0.7-2,0.1-0.6c-0.6-0.5-0.4-0.3,0.5,0.5c1.3,1.1,0.9,1.1-1.2,0c-1.7,0.2-3.4,0.4-5.1,0.6
					c-3.2,3.3-4.2,4.2-3.1,2.5c0.6-0.9,1.2-1.8,1.8-2.8c1-1.2,2.1-2.2,3.4-3.1c8.9-6.2,18,3.1,14.2,12.4c-0.8,2-1.7,4-2.5,6
					c-4.7,11.1-20.9,5.6-18.7-5.6c0.6-3.1,1.4-6.3,1.1-9.4c-0.1-1.2-0.1-1.5-0.1-0.7c-0.5-1.1-0.5-1.3-0.1-0.7
					c-0.7-1-0.8-1.2-0.2-0.6c-0.5-0.5-1-1-1.6-1.4c-4.2-3.2-4-10.3-0.5-14.4C-326.2-98.9-320.1-99.1-315.9-95.9L-315.9-95.9z"/>
			</g>
		</g>
		<g class="st1">
			<g>
				<path class="st2" d="M-305.2-128.9c6.9,0.5,12.2,6.3,11.7,13.5c-0.9,13-18.5,15.5-20.1,2.4c-0.9-7.5,3.9-14.1,7.3-20.6
					c4.2-8,8.2-16.1,12.1-24.3c1.9-4.1,3.8-8.2,5.6-12.3c0.9-2.1,1.8-4.1,2.7-6.2c1.3,3.1,0.7,3.2-1.7,0.3
					c-6.9-3.6-13.1-11.3-19-16.4c-9.5-8.2,4.2-24.1,13.7-15.9c7.1,6.1,14.6,12,21.4,18.4c6,5.7,7,12.4,3.8,20.6
					c-3.6,9.3-8.1,18.4-12.4,27.4c-2.2,4.6-4.5,9.1-6.8,13.7c-1.6,3.1-7,9.8-6.6,13.1c-6.7,0.8-13.4,1.6-20.1,2.4
					c1.3,1.5,2.7,2.9,4.1,4.4C-322.3-109.6-317.9-129.8-305.2-128.9L-305.2-128.9z"/>
			</g>
		</g>
		<g class="st1">
			<g>
				<path class="st2" d="M-291.1-194.3c-1.2,12.7-3.2,25.4-6.2,37.9c-2.8,11.5-6.4,22.8-6.1,34.6c0.2,13.1-19.8,15.5-20.1,2.4
					c-0.2-12.6,2.8-24.7,5.9-37c3.3-13.5,5.6-27.1,6.9-40.8C-309.6-210.4-290-207.3-291.1-194.3L-291.1-194.3z"/>
			</g>
		</g>
		<g class="st1">
			<g>
				<path class="st2" d="M-307.7-154.4c3-8,6.1-16,9.1-24c2-5.3,9.1-7.3,13.5-5.3c5.2,2.4,6.2,8.2,4.2,13.5c-3,8-6.1,16-9.1,24
					c-2,5.3-9.1,7.3-13.5,5.3C-308.8-143.3-309.8-149.1-307.7-154.4L-307.7-154.4z"/>
			</g>
		</g>
		<text transform="matrix(-0.8488 -0.3923 -0.4463 0.8949 -9.9391 69.6952)" class="st1 st3 st4">MIG!</text>
	</g>
	<g id="Layer_1_2_" class="st0">
		<g class="st1">
			<g>
				<path class="st2" d="M504.8,539.6c0.2-12.4,11.2-21.4,16.3-32c5.9-12.1,22.9-2.5,17.1,9.5c-2.3,4.7-5.6,8.5-8.5,12.8
					c-1.4,2.1-4.8,6.4-4.8,8.8C524.7,551.9,504.6,552.7,504.8,539.6L504.8,539.6z"/>
			</g>
		</g>
		<g class="st1">
			<g>
				<path class="st2" d="M505.8,547.4c-6.4-5.8-13.2-12.9-16.3-21.3c-1.3-3.4-1-6.9-1.9-10.4c-1.2-4.5-2.9-7.4-3.3-12.3
					c6.2,1.4,12.4,2.9,18.5,4.3c-2.5,4.9,3.7,10.9,6.1,14c3.7,4.8,6.4,9.3,8.5,15.1c3.2,8.6-8.3,15.5-15.1,12.1
					c-7.5-3.8-16.5-8.9-20.8-16.5c-3.5-6.1-3.3-14.7-4.9-21.7c-3.1-14.1-3.6-36.2,9.4-46.7c14.1-11.3,31.9-5.2,44.4,3.2
					c7.2,4.9,13.5,10.7,18.7,17.7c2.7,3.6,4.6,8.1,7.3,11.6c2.4,3,6.2,3.9,8.8,7.1c4.8,5.9,1.7,18-7.7,17.7
					c-5.4-0.2-9.9-1.2-14.2-4.3c5-2.3,10-4.6,14.9-6.9c-0.9,4.6-1.4,9.2-1.6,13.8c-4.1-3.1-8.2-6.2-12.3-9.3c0.5-0.3,1-0.6,1.5-0.9
					c8.5-6.8,22.2,0.9,15.3,11.8c-9.2,14.6-17.7,29.5-25.5,44.9c-5.5,10.9-10.9,33.5-26.1,32.7c-7-0.4-9.1-5.5-12.1-10.9
					c-3.2-5.7-9-9.2-10.5-15.9c-1.6-6.6,1.5-12.4,4.8-18.2c4.2-7.6,8.6-15.1,12.9-22.7c6.8-12,22.6-2.4,17.1,9.5
					c-5.5,11.8-10.4,30.8-23,36.9c-1.5-6.3-2.9-12.6-4.4-18.9c3.5-0.3,9.1,1.7,12.3,0.5c3.3-1.2,7.1-11,9.1-14.3
					c3.6-6,7.2-12.1,10.8-18.1c3.1-5.2,8.3-11.6,10-17.2c0.8,3.2,1.5,6.4,2.3,9.7c-2.7-3.1-7.8-4.6-11.2-6.9
					c-4.3-2.8-8.4-6.1-12.3-9.5c-7.8-6.7-14.9-13.3-24.6-17.2c4.6-1.4,9.2-2.9,13.8-4.3c1.2-2.5,1-0.6,2.3,1c1.2,1.4,2.2,3.1,3,4.8
					c5.9,11.2-11.8,22.1-17.8,10.8c-4.8-9.1-10.1-14.9-4.7-26.2c2.7-5.5,9.2-6.1,13.8-4.3c13.7,5.5,22.8,16.7,34.5,25.1
					c5.5,4,13.4,6.3,17.8,11.7c4.9,6,1.6,12.1-2,18.4c-8.7,15-17.1,30.5-26.7,44.9c-3.7,5.5-7.8,9.7-14.2,11.4
					c-5.7,1.5-11.2-0.3-16.9,0.2c-9.6,0.7-13.9-14.3-4.4-18.9c4-2,5.5-8.1,7.3-11.9c2.6-5.7,5.3-11.5,8-17.2
					c5.7,3.2,11.4,6.4,17.1,9.5c-2.7,4.7-5.4,9.4-8,14.2c-1.2,2.2-6.7,9.1-6.6,11.5c0.2,2.7,7,7.7,8.2,10.8c0.4,0.9,0.8,1.8,1.2,2.7
					c-8,3.4-10.9,3.3-8.7-0.4c0.2-1.9,2.7-5.8,3.4-7.4c9.7-20.8,20.7-40.9,33-60.3c5.1,3.9,10.2,7.9,15.3,11.8
					c-3.5,2.8-6.5,4.6-10.5,6.4c-6.2,2.7-12.5-3.4-12.3-9.3c0.2-6.4,1.1-12.8,2.4-19.1c1.2-6.1,10-10.5,14.9-6.9
					c1.1,1.2,2.5,1.9,4.1,2c-2.6,5.9-5.1,11.8-7.7,17.7c-3-3.6-7.7-4.8-10.6-9.1c-3.2-4.7-5.5-9.8-9.2-14.1
					c-6.1-7.1-18.7-19-29.4-17c-9,1.7-6.5,20.1-5.1,26.4c1.1,4.7,1.6,9.5,2.6,14.2c1.3,6.1,9,9.4,14.1,12c-5,4-10.1,8-15.1,12.1
					c-3.1-8.3-10.7-13.6-13.8-22c-2.8-7.6-2.1-15.2,1.7-22.7c5.2-10.2,17.8-4.7,18.5,4.3c0.2,2.6,2.7,5.5,3.2,8.2
					c0.4,2.1-0.1,4.6,0.5,6.6c1.7,6,8.3,11.2,12.5,15.1C529.8,541,515.1,555.9,505.8,547.4L505.8,547.4z"/>
			</g>
		</g>
		<g class="st1">
			<g>
				<path class="st2" d="M389.3,509.9c-6.7,4.2-14.8,6-21.5,2.1c-2.9-1.7-5-4.3-6.4-7.4c-1.1-2.3-0.9-7-2.5-8.7
					c-5.4-5.9-1.3-17.7,7.7-17.7c7.3,0,17.5,2,24.7-0.2c3.4-1.1,2.8-2,4.6-4.7c-0.5,0.8,2.2,3.3-0.7-0.2c-2.6-3.1-4.9-6.6-7.1-10
					c-9.1-14.2-6.8-28.4,1.3-44c6.2-12,23.2-2.4,17.1,9.5c-2.2,4.2-4.8,9.6-4.7,14.4c0,4.3,3.4,8.3,5.6,11.6
					c5.2,7.6,10.9,12.7,7.7,23.1c-7.3,24-29.9,21.1-49.1,21c2.6-5.9,5.1-11.8,7.7-17.7c2.3,2.5,3.8,5,4.8,8.4
					c0.4,1.3,0.5,2.7,0.9,3.9c0.4,1.1-2.7,1.4,0.6-0.7C391.3,485.4,400.7,502.8,389.3,509.9L389.3,509.9z"/>
			</g>
		</g>
		<g class="st1">
			<g>
				<path class="st2" d="M390.7,417.8c20.7-40.6,73.3,0.5,83.3,26.7c4.5,11.8-13.2,22.8-17.8,10.8c-3.5-9.1-12.5-20.2-20.7-25.1
					c-5.1-3.1-10.7-5.9-16.3-7.9c-6.3-2.2-8.4-1.1-11.5,5.1C401.6,439.3,384.5,429.7,390.7,417.8L390.7,417.8z"/>
			</g>
		</g>
		<g class="st1">
			<g>
				<path class="st2" d="M473.1,458.5c-16.9,25.8-32.5,52.4-46.6,79.7c-3,5.8-12,7.4-15.9,2.7c-5.2-6.3-13.3-13.6-11.7-23
					c1.9-10.6,9.9-21.1,16.6-29.3c-0.7,4.1-1.4,8.3-2.1,12.4c-0.3-0.4-0.6-0.9-1-1.3c2,1.5,4,3.1,6,4.6c-3-1-11.4,7.8-14,9.2
					c-4.6,2.5-9.4,2.2-13.1-1c-9.1-7.8,0-20.7,6.5-27.9c3.9-4.3,8.4-8,12.7-11.9c2.3-2.1,5.6-4.6,7.1-7.3c1.2-2,1.2-1.1-0.5-4.5
					c-4.6-9-11.3-15.8-13.3-26.2c6.5-0.3,12.9-0.6,19.4-0.8c-2.5,9.5-6.2,21.7,0.7,29.5c-5.4,4.3-10.8,8.6-16.3,12.9
					c-6-13.9-16.5-29.5-6.4-45.1c4-6.1,11.7-15.2,18.5-18c7.1-2.9,16.3,1.9,22.1,5.5c12.7,7.7,20.9,22.3,15.6,38.2
					c-2.7,7.9-7.7,15.2-12,22.4c-5.3,9.1-10.7,18.2-16,27.3c-5.9,10-21.7,4.4-18.1-7c3-9.4,5.9-18.7,8.6-28.2
					c1.2-4.2,2.3-8.4,3.4-12.6c0.6-2.6,1.4-11.6,4-11.2c-12.6-1.9-6.9-21.9,5.7-20c14.4,2.2,13.7,17.7,11.1,29.2
					c-3.6,15.9-8.6,31.5-13.5,47.1c-6.1-2.3-12.1-4.6-18.1-7c7.8-13.2,16-26.2,23.3-39.7c3.2-5.9,4.8-10.8,0.6-16.2
					c-3.5-4.5-10.2-7.9-15.9-8.6c2.5-0.4,5-0.9,7.5-1.3c-5,3.4-11.9,9.8-10.4,16c1.5,6.3,5.4,12.6,8,18.4
					c4.2,9.7-8.4,21.6-16.3,12.9c-12.1-13.6-9.7-31.4-5.2-48.7c2.6-9.9,17.5-10.7,19.4-0.8c2.6,13.2,17.7,22.4,15.4,37.3
					c-1.2,7.8-8.1,14.5-13.6,19.8c-3.2,3-17.8,13.2-17.5,18.1c-0.9-2.3-1.8-4.7-2.7-7c0.3,0.3,0.7,0.6,1,0.8
					c-3.2-0.8-6.4-1.5-9.7-2.3c0.7-0.1,5.1-4.1,6.9-5.3c3.4-2.3,7.3-4.5,11.2-5.7c7.1-2.1,12.6,0.4,16.6,5.9
					c2.7,3.7,0.6,9.1-2.1,12.4c-3.4,4.2-7.8,9.7-9.4,15c-0.7,2.2-2.4-0.5,0.7,2.3c1.8,1.7,3.3,4.1,4.9,6c-5.3,0.9-10.6,1.8-15.9,2.7
					c14.1-27.3,29.7-53.9,46.6-79.7C463.4,437.7,480.5,447.2,473.1,458.5L473.1,458.5z"/>
			</g>
		</g>
		<g class="st1">
			<g>
				<path class="st2" d="M339.1,399.9c4.5,8.2,11,18.7,11.5,28.5c0.6,10.1-6.8,20.9-11.8,29.5c-4.4,7.5-16.8,7-18.3-1.7
					c-1.8-10.6-1.4-20.9,1.5-31.6c3.3-12,18.8-9.2,19.7,1.7c1.2,15.4-7.3,30.8-21.1,38.6c-12.8,7.2-30.2,0.1-37.8-10.4
					c-8.9-12.1-3.1-30.8,2.6-44.2c3.3-7.9,7.1-14.3,14.8-18.5c6.6-3.6,13.5-6.3,20.9-6.6c12.9-0.6,12.4,19.8-0.5,20.4
					c-6.9,0.3-13.3,3.7-16.3,10.2c-2.8,6-7.4,17.4-5.8,23.8c1.2,4.8,9.6,9.1,14,6.8c7.3-3.7,9.7-11.8,9.2-19.2
					c6.6,0.6,13.1,1.2,19.7,1.7c-2,7.2-2.5,14.1-1.2,21.2c-6.1-0.6-12.2-1.2-18.3-1.7c2.8-4.9,9-12.9,8.5-18.4
					c-0.5-6.3-6-14-8.9-19.3C315.2,399.6,333,388.8,339.1,399.9L339.1,399.9z"/>
			</g>
		</g>
		<g class="st1">
			<g>
				<path class="st2" d="M331.7,387.2c10.1,4.8,23.7,13.4,27.5,24.8c3.9,11.5-3.5,27.3-8.5,38.1c-5.2,11.4-12.6,25.6-23.8,32.2
					c-10.4,6.2-21.7,3.2-31.6-0.6c-11.8-4.4-18.7-11.4-24.7-22.5c-5.2-9.5-8.4-20.3-5.8-31.7c3-13.1,11.7-27.7,19.4-38.8
					c7.7-11,17.4-20.8,29.9-25.6c12.2-4.6,26.2-3.1,35.3,5.8c10.3,10,10.9,25.5,10.4,39.6c-0.5,13.2-20.6,14.1-20.1,0.9
					c0.3-8.4,1.6-20.8-5.8-26.3c-7.7-5.7-18.6,0.3-25,6.3c-8.1,7.6-13.4,17.7-18.4,27.5c-5,9.7-8.6,17.3-4.2,27.4
					c3.8,8.8,8.4,15.1,17.4,18.5c3.2,1.2,7.4,3.1,11,2.8c4.7-0.4,7.1-4.4,9.6-8.2c6.4-9.5,11.2-19.9,14.4-30.8
					c1.8-6.4,0.9-8.2-3.8-12.5c-4.1-3.8-8.7-6.5-13.8-8.9C309.7,399.9,320.3,381.9,331.7,387.2L331.7,387.2z"/>
			</g>
		</g>
		<g class="st1">
			<g>
				<path class="st2" d="M323.2,395.4c-0.2-0.6-0.4-1.3-0.6-1.9c-0.3-1.2-0.4-1.3-0.1-0.1c1.2,1.2,2.4,2.4,3.6,3.6
					c2.8,0.3,3.3,0.5,1.4,0.4c-0.4,0-0.7,0-1.1,0.1c-1.3,0.1-0.6,0-2.3,0.4c-0.6,0.1-2.6,0.8-2.4,0.8c0,0-2.1,1.1-2.7,1.5
					c-4.8,2.9-11,1.4-13.6-3.3c-2.5-4.7-0.6-11.1,4.2-14.1c5.5-3.4,11.6-5.4,17.9-5.8c3.7-0.2,7.4,0.3,10.2,2.7c3,2.5,3.9,6,5.1,9.6
					c1.6,5.2-2.5,11.2-7.5,12.8C329.7,403.9,324.8,400.6,323.2,395.4L323.2,395.4z"/>
			</g>
		</g>
		<g class="st1">
			<g>
				<path class="st2" d="M249.2,340.8c1.7,1.1,4.1,3.2,6.2,3.7c-3.2,1-6.4,2-9.7,3c0.8-0.8,2.4-3.5,2.5-4.5c0.2,0.1,0.5,0.2,0.7,0.3
					c-0.7-0.8-1.4-1.5-2.1-2.3c-3.1-3.5-6.5-6.8-9.7-10.2c-6.1-6.4-12.2-12.9-18.3-19.3c4.7-0.2,9.5-0.3,14.2-0.5
					c-4.2,5.1-7.2,12.2-10.4,17.9c-3.4,6-6.8,11.9-10.2,17.9c-3.4,6-6.8,11.9-10.1,17.9c-3.1,5.5-5.2,8.1-3.4,14
					c3.1,9.8,10.8,17.6,18,24.4c3.2,3,8.4,8.2,13.7,6.5c1.6-0.5,8.1-9,7.3-11c5.8-0.2,11.6-0.4,17.4-0.6c-4,8.1-7.6,19.8-15.7,24.8
					c-7.8,4.8-16.4,2.5-23.1-1.8c-6.3-4-6.2-13.3,0.6-17.7c1.6-1.2,3.3-2.1,5.2-2.9c-0.2,5.9-0.4,11.8-0.6,17.7c-1.3-1-2.7-2-4-3
					c-6.9-5.2-5.5-19.3,5.6-19.3c3.7,0,6.9,0.4,10.3,1.5c9.6,3.3,9.1,21-3.1,20.2c-21.8-1.4-36.2-18.6-37.9-40.4
					c-1.6-19.3,11.8-44.5,29.3-53.9c8.8-4.7,18.7,4.1,13.2,13.4c-7.1,11.9-17.1,24.8-20.5,38.3c-6.1-2.3-12.1-4.6-18.1-7
					c8-14.2,15.8-29.9,26.3-42.6c11.1-13.4,21.1-3.1,27.3,7.8c5.5,9.7-8.7,21-16.3,12.9c-3.6-3.9-7.3-7.5-11.2-11
					c-9.4-8.4,5.4-23.3,14.8-14.9c3.9,3.5,7.6,7.2,11.2,11c-5.4,4.3-10.8,8.6-16.3,12.9c-0.8-1.6-1.8-3.1-2.8-4.5
					c-2.4-2.4-2.2-2.7,0.5-0.6c3.2-1,6.4-2,9.7-3c-5.7,4.9-9.8,13.6-13.7,20c-4.3,7.1-8.4,14.4-12.5,21.7c-5.9,10.5-20.9,4.2-18.1-7
					c3.9-15.5,14.5-29.7,22.7-43.4c4.4,4.5,8.8,9,13.2,13.4c-9.5,5.1-18,19.2-18.8,29.9c-0.9,11.6,6.3,25.8,18.6,26.6
					c-1,6.7-2.1,13.5-3.1,20.2c-1.6-0.8-3.3-1.1-5.2-1.1c1.9-6.4,3.7-12.8,5.6-19.3c1.3,1,2.7,2,4,3c5.1,3.9,7.4,14-0.6,17.7
					c-1.8,0.7-3.6,1.7-5.2,2.9c0.2-5.9,0.4-11.8,0.6-17.7c0.7,0.5,2.8,2.3,3.7,2.2c-2.4,0.4,0.1-2,0.9-3.4c2.2-4.4,4.4-8.8,6.5-13.2
					c3.4-6.8,14.5-7.3,17.4-0.6c6,14-4.7,36.7-20,41.4c-19.3,6-35.2-11.1-45.4-24.4c-5.1-6.6-9.5-14.1-11.4-22.5
					c-2.1-9.1,0.2-15.9,4.8-24.1c5.9-10.5,11.8-20.9,17.8-31.3c5.7-10,10.8-20.9,18.1-29.8c3.6-4.3,10.8-4,14.2-0.5
					c6.5,6.8,13,13.6,19.4,20.4c5.2,5.5,15.6,12.5,16.5,20.8c0.7,7.1-4.3,18-9.5,23.1c-7.2,7.1-14.9,2.2-21.3-2
					C228.1,352.1,238.6,334,249.2,340.8L249.2,340.8z"/>
			</g>
		</g>
		<g class="st1">
			<g>
				<path class="st2" d="M93.3,351.9c-12.9-6.8-10.9-16.9-7.6-30.3c1.9-7.6,12.1-10.7,17-5.3c3,3.3,3.8,7.2,6.1,10.8
					c2.3,3.6,6.1,6.6,9.5,9c3.1,2.2,7.2,5,11.2,2.8c2.6-1.4,8.1-9.3,8-10.9c0.9,2.3,1.8,4.7,2.7,7c-4.9-4.4-11.9-6-16.4-11
					c-5.3-5.8-5-14.1-1-21.1c3.9-6.9,10.2-9.4,17.1-6.6c3.3,1.4,6.2,3.6,8.9,5.9c1.1,1,4.3,3.2,5,4.7c1.9,1.5,1.2,1.5-2.1,0
					c-3.3-0.1-4-0.7-2-1.8c0.2,2.5,0.5,5.1,0.8,7.6c-5.6-10.4-16.6-17.2-23.6-26.5c-3-4-4.5-8.5-3.6-13.8c1.1-6.8,6.2-12.3,7.7-18.9
					c0.2,2.5,0.5,5.1,0.8,7.6c-0.2-0.3-0.5-0.6-0.7-0.9c6.3-1.9,12.6-3.9,18.9-5.8c-0.1-1.8,1.8,1.1,2.5,1.9
					c1.8,1.8,3.7,3.5,5.6,5.3c3.7,3.5,7.5,7,11.2,10.5c6.3,5.8,15.9,11.7,20.2,19.2c4.5,7.8-2.8,17.2-6.7,24.4
					c-5.3,9.8-10.8,19.4-16.9,28.8c-6.7,10.3-20.2,4.3-18.1-7c1.4-7.5,2.8-15.1,2.9-22.7c0.1-7-1.5-13.8-1.7-20.8
					c-0.4-11.2,13.9-13.2,18.9-5.9c4.5,6.7,3.9,14.4,0.4,21.9c-5.7,12.2-22.7,2.5-17.1-9.5c0.4,0.7,0,0.2-1.1-1.5
					c6.3-1.9,12.6-3.9,18.9-5.8c0.3,8,2.1,15.5,1.6,23.6c-0.4,8.4-2.1,16.9-3.6,25.2c-6.1-2.3-12.1-4.6-18.1-7
					c4.3-6.5,8.3-13.2,12.1-20c3.4-6.1,8.6-13.1,10.5-19.7c0.2,2.5,0.5,5.1,0.8,7.6c-3.1-4.4-9.1-8-13.2-11.6
					c-4.2-3.8-8.3-7.6-12.4-11.5c-7.5-7-16.1-13-16.8-24.4c-0.7-11.4,13.9-12.8,18.9-5.9c2.8,3.9,1.7,8.3,0,12.6
					c-1.2,3-2.7,6.2-4.3,9.1c-2.8,5-1.5,0.8,0.2,3.7c2.8,4.6,8.5,8.8,12.1,12.8c3.6,4.1,8.9,8.8,11.2,13.8
					c4.4,9.4-4.5,19.9-13.2,23.8c-4.7,2.1-8.7,1.8-12.7-0.8c-3.8-2.5-7.1-8.7-11.9-9.2c3.2-1,6.4-2,9.7-3c-1.3-2.5-1.1-3,0.6-1.6
					c1.2,0.7,2.3,1.4,3.5,2.1c2.7,1.6,5.5,3.1,8.1,4.9c3.5,2.5,6.1,5.8,5.8,10.6c-0.6,9.9-10.4,23-18.8,28
					c-10.6,6.4-22,4.1-31.2-2.1c-4-2.7-8.1-5.9-11.5-9.4c-1.6-1.7-3.3-3.7-4.5-5.7c-1.4-2.3-2-5.9-3.7-7.9c5.7-1.8,11.3-3.5,17-5.3
					c-0.9,3.5-3.2,6.6-1,7.8C115,339.7,104.4,357.7,93.3,351.9L93.3,351.9z"/>
			</g>
		</g>
		<g class="st1">
			<g>
				<path class="st2" d="M157,351.6c-0.2,1.5-0.4,3-0.5,4.6c-3.3-3.3-6.5-6.5-9.8-9.8c0.4,0,0.8,0,1.1,0c-2.4,1.1-4.7,2.1-7.1,3.2
					c2.8-2.8,4.9-7.7,7-11c6-9.5,22.9-4.4,18.1,7c-4.8,11.4-9.9,22.9-15.8,33.8c-5,9.3-12.8,16.2-22.9,11
					c-8.9-4.5-16.4-12.5-23.5-19.3c-7.6-7.3-14.2-15.4-20-24.3c-3.3-5.1,0.5-13.8,6.6-15.2c11.3-2.6,20.6,7.6,29,13.3
					c5.2,3.6,10.5,7.2,15.7,10.7c4.2,2.9,10.1,8.7,15,10.3c-3.9,5.1-7.8,10.3-11.7,15.4c-2.6-4.4-5.4-8.3-8.7-12.1
					c-8.2-9.4,6.4-24.4,14.8-14.9c4.4,5,8.3,10.4,11.7,16.2c4.1,6.9-3.6,18-11.7,15.4c-9.7-3.1-18.1-11-26.4-16.7
					c-4.4-3-8.7-6-13.1-8.9c-2.6-1.8-5.2-3.6-7.8-5.4c-0.9-0.6-1.7-1.2-2.6-1.8c-3.7-1.7-3.5-2.4,0.6-2c2.2-5.1,4.4-10.1,6.6-15.2
					c7.4,11.5,17.2,21,27.4,29.8c0.7,0.6,8,6,8,6c-5.7,2.6-6.9,1.9-3.8-2c0.8-1.5,1.6-3.1,2.4-4.6c4-7.9,7.8-15.9,11.2-24
					c6.1,2.3,12.1,4.6,18.1,7c-4.4,7-9.1,18.9-18.7,18.7c-5-0.1-10.5-4-9.8-9.8c0.2-1.5,0.4-3,0.5-4.6
					C138.5,339.4,158.6,338.5,157,351.6L157,351.6z"/>
			</g>
		</g>
		<g class="st1">
			<g>
				<path class="st2" d="M55,303c6.2-11.6,12.8-23.1,19.9-34.2c3.4-5.3,6.8-10.6,10.3-15.9c3.1-4.6,8.6-10.4,10.2-15.7
					c0.2,2.5,0.5,5.1,0.8,7.6c-3.5-4.9-12.4-9.1-17.5-12.3c5-2.3,10-4.6,14.9-6.9c-3.2,13.3-8.1,26.1-14.3,38.5
					c-5.1-3.9-10.2-7.9-15.3-11.8c6.1-5.5,12.2-11.1,18.3-16.6c9.9-9,23.5,4.7,13.6,14c-6.3,5.9-12.5,11.8-18.8,17.6
					c-4.9,4.6-10.2,10.4-17.3,9c-13.3-2.6-16.1-20.9-14.2-32.3c6.4,1.5,12.8,2.9,19.3,4.4c-0.3,1.4-0.6,2.8-1,4.2
					c-2.3,10-17.7,10.6-19.4,0.8c-1.3-7.6-3.6-14.5-7.2-21.1c-3.3-6-5.8-11.1-6.4-18.3c5.6,2.2,11.2,4.4,16.8,6.6
					c-3.1,3.8-7.6,7.9-9.9,12.3c0.1-3.4,0.2-6.8,0.4-10.2c2.6,6.8,8.5,13.2,12.5,19.3c4.6,7,9.3,13.9,13.9,20.9
					c7,10.5-10.8,21.3-17.8,10.8c-7.8-11.7-15.7-23.5-23.5-35.3c-3.1-4.7-5.7-9.1-2.6-15.1c3.1-6,9-11.5,13.3-16.7
					c6.4-7.8,16.3-1.1,16.8,6.6c0.4,5.2,5.7,11,7.7,15.8c2.5,5.9,4.3,12,5.4,18.5c-6.5,0.3-12.9,0.6-19.4,0.8c0.3-1.4,0.6-2.8,1-4.2
					c3-13.3,21.4-8.4,19.3,4.4c-0.5,3,0.4,7.4,3.1,8.9c-2.5-0.2-5.1-0.5-7.6-0.7c-2,1.6-2.1,1.6-0.4,0.1c1.2-1.1,2.3-2.2,3.5-3.3
					c1.9-1.8,3.9-3.7,5.9-5.5c4.3-4,8.6-8.1,12.9-12.1c4.5,4.7,9.1,9.3,13.6,14c-6.1,5.5-12.2,11.1-18.3,16.6
					c-8.9,8-20.6-1.1-15.3-11.8c5.4-10.8,9.2-21.8,12.1-33.4c1.5-6.3,9.7-10.2,14.9-6.9c7.7,4.9,18.1,10.4,23.4,18
					c5.5,7.8-1,16.2-5.8,23.2c-12.5,18.5-24.3,37.3-34.9,57C65.6,324.4,48.6,314.8,55,303L55,303z"/>
			</g>
		</g>
		<g class="st1">
			<g>
				<path class="st2" d="M61.9,267.4c-0.8,7.4-2.5,15.2-7.4,21.2c-5.4,6.6-13.5,7.8-21.1,9.9c-15.4,4.3-31.3,7.1-44.1-2.9
					c-8.6-6.7,3.9-23.2,12.7-16.5c4.8,3.7,9.6,7.2,13.1,12.3c1.1,1.3,1.9,2.8,2.6,4.4c-0.3-0.7,0.1-1,1.1-1c2.6-0.5,5.4-3.1,7.8-4.3
					c5.9-3.1,12.1-5.1,18.3-7.5c7.4-2.8,11-6,15-13.2c5.7,3.2,11.4,6.4,17.1,9.5c-4.5,7.6-9,15.2-13.5,22.7
					c-4,6.7-10.3,14.3-12.9,21.6c-0.2-2.5-0.5-5.1-0.8-7.6c-0.8-1.7,4,1.5,4.5,1.4c-3.9,0.8,0.7-5.7,1.1-6.7
					c5.5-12.3,22.5-2.6,17.1,9.5c-3.7,8.4-11.1,18.6-21.1,17.7c-6.5-0.6-16.5-4.9-19.3-11c-3.9-8.5,5-18.5,9.3-25.8
					c6.2-10.4,12.4-20.8,18.6-31.3c6.9-11.6,23.5-2.3,17.1,9.5c-4.9,9-10.6,15.8-20,20.1c-8.5,4-17.2,6.3-25.4,10.9
					c-7.2,4.1-15.2,7.2-22.9,4.4c-3.7-1.4-6.1-3.6-8-7c-2.6-4.5-5-7.4-9.2-10.6c4.2-5.5,8.4-11,12.7-16.5c5.1,4,16,0.6,21.7-0.9
					c3.4-0.9,7.7-1.4,10.8-3c4.1-2,4.8-3.7,5.3-8.5C43.3,255.2,63.3,254.3,61.9,267.4L61.9,267.4z"/>
			</g>
		</g>
		<g class="st1">
			<g>
				<path class="st2" d="M-10.9,210.6c0,0.6-0.1,1.1-0.1,1.7c-0.9-2.3-1.8-4.7-2.7-7c4.6,4.6,12.1,7.9,17.5,11.3
					c-4.6,1.4-9.2,2.9-13.8,4.3c3.3-5.2,8.5-11.9,10.3-17.8c0.2,2.5,0.5,5.1,0.8,7.6c-3-5.6-9.2-10.4-13.8-14.8
					c-5.1-5-10.5-9.7-15.9-14.3c-10.4-8.8-22.8-16.4-30.8-27.6c6.2-1.1,12.3-2.1,18.5-3.2c-1.5,7.5-3.6,14.8-6.3,22
					c-1.4-3.7-2.9-7.5-4.3-11.2c9.3,6,18.2,12.8,26.2,20.6c8.3,8,15.3,15.6,26.2,20.1c7.9,3.2,5.1,16.8-3,18.8
					c-8.7,2.2-16-0.6-23.7-4c-8.2-3.6-11.9-9.6-11.9-19c0-7.7,3-16.4,11.6-17.7c9.4-1.4,16.7,8.7,21.6,15c4.1,5.3,3.2,11.8-2.7,16.1
					c-7.8,5.8-20.7-1.4-25.1-8c-0.6-0.6-1.3-1.3-2-1.9c4.5-3.1,5.6-3.2,3.3-0.4c-1,1.8-3.1,3.7-4.8,4.7c-2,1.1-4.1,1.6-6.3,1.4
					c-0.7,0-1.4-0.1-2-0.3c-3.5-1.2-3.3-1.3,0.7-0.1c2.4-1.1,4.7-2.1,7.1-3.2c-3.3,2.8-5.5,10.9-7.6,15c-3,5.5-6.7,10.4-10.6,15.3
					c-1.4,1.8-5.5,5.4-5.5,7.5c-0.2-0.1-0.4-0.3-0.6-0.4c0.8,0.9,1.6,1.7,2.5,2.6c3.7,4,6.8,8.4,9.5,13.2
					c-5.8,0.2-11.6,0.4-17.4,0.6c10.1-18.5,20.2-36.9,30.3-55.4c4.4,4.5,8.8,9,13.2,13.4c-2.2,1.2-4.2,6.1-5.6,8.3
					c-2.5,4-4.8,8.1-7.2,12.3c-4.3,7.7-8.9,13.1-16.7,17.3c-7.1,3.9-14.5-0.4-14.7-8.2c0-0.6,0-1.2-0.1-1.8
					c-0.4-13.1,19.7-13.9,20.1-0.9c0,0.6,0,1.2,0.1,1.8c-4.9-2.7-9.8-5.5-14.7-8.2c14.1-7.7,15-29.9,29.4-37.8
					c9-4.9,18.3,4.1,13.2,13.4c-10.1,18.5-20.2,36.9-30.3,55.4c-3.9,7.1-13.9,7-17.4,0.6c-3.8-7-11.5-12-13.7-19.9
					c-2.5-9,3.7-17.2,9.1-24.2c7.1-9,11-18.2,16.6-28c1.9-3.4,4.1-6.5,7.7-8.1c1.6-0.7,3.3-1.1,5-1.1c0.9,0,7.2,1.7,4,0.8
					c-3.2,1-6.4,2-9.7,3c5.5-4.7,8.1-10.7,16.3-9.9c3.7,0.3,6.7,2.2,9.4,4.6c1.4,1.2,2.6,2.5,3.9,3.8c0.9,1,2,1.9,3.1,2.8
					c2,1.1,1.3,2-2.1,2.8c-0.9,5.4-1.8,10.8-2.7,16.1c-1.6-2-3.2-4-4.9-5.9c-0.7-0.8-1.4-1.5-2.2-2.2c-2-1.4-1.3-1.9,2.2-1.5
					c2.1-1.7,4.2-3.3,6.2-5c0.9-2,0.2,0.7,0.2,1.5c0.1,0.8,0.3,1.5,0.4,2.3c-1.4-1.9-1.1-2.3,0.6-1.1c3.2,0.2,6.5,4.1,10,3.2
					c-1,6.3-2,12.6-3,18.8c-20.7-8.6-33.8-28.6-52.4-40.7c-3.4-2.2-6-6.8-4.3-11.2c2.7-7.2,4.7-14.5,6.3-22c2-9.8,14.1-9.4,18.5-3.2
					c5.5,7.9,15.7,13.6,23.1,19.6c7.9,6.5,15.6,13.1,22.8,20.3c5.2,5.2,14.8,12.3,15.6,20.4c0.9,8.6-8.3,19.9-12.8,26.9
					c-2.9,4.6-9.2,7.2-13.8,4.3c-8.4-5.3-24.8-10.9-24.3-23.1C-30.3,198.3-10.3,197.4-10.9,210.6L-10.9,210.6z"/>
			</g>
		</g>
		<g class="st1">
			<g>
				<path class="st2" d="M-174.3,195.4c-4.9-6.3-10.5-14.5-7.3-23.5c3.4-9.5,16-13,21-3.9c1.8,3.3,1.5,7,3.3,10.4
					c1.9,3.7,3.8,6.8,3.1,11.4c-1.8,11-14,13.1-21.7,8.7c5-4,10.1-8,15.1-12.1c1.8,8.1,8.6,14.7,14.3,20c5.3,4.9,13.7,12.9,21,14.6
					c-3.2,1-6.4,2-9.7,3c1.4-1.4,2.6-4.4,3.5-6c0.4,4.1,0.8,8.2,1.1,12.2c-6.9-5.6-15.8-8.9-23-14.4c-6.3-4.8-14.9-10.4-18.7-17.5
					c-2-3.7-1.3-9.2,2.1-12.4c5.6-5.2,12.9-5.6,19.2-2.7c6.6,3,11.7,10.7,20.1,7.2c-2.1,1.7-4.2,3.3-6.2,5c1-2.1,2.7-6.8,2.1-8.6
					c-1-2.8-4.8-5.4-6-8.7c-2.8-7.4-1.8-15.6,2.6-22.8c2.3-3.8,7.2-6.4,11.4-5.2c4.2,1.1,10.9,5.2,13.7,5.5c-2.5,0.4-5,0.9-7.5,1.3
					c6.2-3.4,1.5-6.6-1.9-9c-4.8-3.4-10.1-6.2-13.5-11.2c-6.6-9.8,1.2-20.3,3.3-31.1c2.6-13.1,21.8-8.6,19.3,4.4
					c-1,4.9-2.2,9.8-4.4,14.5c-2.4,5.1,0.1,1-0.9,0.4c2.2,1.3,4.6,3.4,6.8,4.9c6.7,4.5,12.7,9.9,14.4,18.3
					c1.8,9.2-3.3,18.1-10.6,23.9c-9.4,7.4-15.3,0.6-24.4-1.9c3.8-1.7,7.6-3.5,11.4-5.2c-3.6,5.8,5.2,10.8,6.4,16.4
					c1.4,6.8-0.9,16.2-4.4,22.5c-4.2,7.6-13.2,8.6-20.6,7.7c-3.8-0.5-7.5-1.5-10.8-3.2c-1.6-0.8-2.9-1.8-4.3-2.8
					c-1-0.9-2.1-1.7-3.3-2.4c-2.2-0.9-1.5-1.9,1.9-3c0.7-4.1,1.4-8.3,2.1-12.4c1.4,2.7,6.1,5.5,8.4,7.5c3.3,2.8,6.7,5.6,10.3,8
					c6.6,4.3,13.7,7.4,19.9,12.4c3.3,2.7,3.3,8.6,1.1,12.2c-3.9,6.7-7.8,14.9-16.6,13.5c-7.3-1.2-14.7-7.5-20.4-11.7
					c-12-8.9-25.2-21.2-28.7-36.8c-1.8-8.3,7.7-16.4,15.1-12.1c-1.8,0.5-3.7,1-5.5,1.6c-1.1,2.5-2.2,5-3.2,7.5
					c0.2,2.5,0.1,1.3-1-0.1c-1.1-1.5-1.8-3.5-2.4-5.2c-0.5-1.5-0.9-2.9-1.2-4.5c-0.1-0.8-0.2-1.6-0.2-2.4c-0.2-2.1-0.2-1.7,0.2,1.1
					c2.9,1.6,5.7,3.2,8.6,4.8c-0.4,0-0.8,0.1-1.2,0.1c2.4-1.1,4.7-2.1,7.1-3.2c3.5-4.1,2-2.9,4.6,0.5
					C-151.8,190.3-166.4,205.3-174.3,195.4L-174.3,195.4z"/>
			</g>
		</g>
		<g class="st1">
			<g>
				<path class="st2" d="M-124.1,105.7c13.3-3.6,19.1,5.7,26.9,14c4.6,5,9.9,9.3,14.9,13.9c4,3.7,9.2,7.8,9.8,13.8
					c0.6,5.8-3.4,11.7-6.3,16.6c-3.8,6.6-7.6,13.2-11.4,19.8c-7.5,13-16.1,26-21.3,40.1c-4.6,12.4-23.7,8.4-19.3-4.4
					c8.1-23.3,15.6-46.8,22.7-70.3c6.1,2.3,12.1,4.6,18.1,7c-6.7,12-13.4,24-21,35.4c-4,6-10.9,7-15.9,2.7c-0.3-0.3-0.6-0.6-1-0.8
					c-9.5-8.2,5.3-23.1,14.8-14.9c0.3,0.3,0.6,0.6,1,0.8c-5.3,0.9-10.6,1.8-15.9,2.7c7.6-11.5,14.3-23.4,21-35.4
					c5.7-10.3,21.5-4.3,18.1,7c-7.1,23.6-14.6,47-22.7,70.3c-6.4-1.5-12.8-2.9-19.3-4.4c4.7-12.7,11.5-24.3,18.3-36.1
					c3.5-6.1,7-12.2,10.5-18.3c3-5.3,8.7-12.3,9.9-18.2c0.2,2.5,0.5,5.1,0.8,7.6c-3.3-5.8-10.7-10.3-15.5-14.8
					c-1.4-1.3-12.2-14.6-12.7-14.5C-132.2,128.7-136.8,109.2-124.1,105.7L-124.1,105.7z"/>
			</g>
		</g>
		<g class="st1">
			<g>
				<path class="st2" d="M-229.5,87c4.3,9.6,9.4,19.1,12.9,29.1c3,8.5-0.3,17.4-8.6,22.1c-3.7,2.1-7.4,2-11.2,3.2
					c-4,1.3-7.5,4-11.7,5.1c-8.1,2.2-20.4,2.3-25.7-4.6c-7.6-9.8,6.8-24.8,14.8-14.9c1.6,2,10.4,12.1,8.6,15.3
					c-6.8-1.1-8.5-2.3-5.1-3.5c1.2-0.6,2.4-1.1,3.6-1.6c2.5-1,5.1-1.7,7.7-2.3c7.1-1.6,14.3-2.7,21.4-4c5-0.9,9.8-2.1,14,1.3
					c8.2,6.6,1.7,24.4-7.3,29c-2.8,2.6-2.5,0.4,1.2-6.4c1.5,1.3,3,2.6,4.5,3.8c2.1,1.9,4.1,3.7,5.8,5.9c3.6,4.7,5.3,9.9,5.2,16.1
					c-0.2,9.8-11.1,12.8-17.4,7.9c-7.6-6-13.8-13-19.2-21.1c-4.1-6.1,2.1-15.6,9.2-15.6c2.1,0,20.7,0.6,20.7,2.8
					c-5,2.8-5.9,2.4-3-1.2c0.8-1.4,1.7-2.8,2.5-4.2c1.9-3.3,3.9-6.6,5.8-9.9c4.4-7.5,8.9-15,13.3-22.6c1.6-2.7,3.2-5.5,4.7-8.3
					c0.7-1.3,4.4-10.7,4.9-7.7c-0.4-2-5.2-5.8-6.4-7.7c-1.5-2.4-2.3-4.4-4.3-6.5c-5.2-5.5-12.1-11.3-18.8-14.8
					c-3.8-2-10.2-4.6-14.6-1.8c-4.6,3-7.7,12.8-5.3,17.3c-5.2-0.5-10.5-1.1-15.7-1.6c8.2-8,15-22.9,28-21.2
					c5.9,0.7,11.4,4.9,16.4,7.6c4.7,2.6,10,4.9,13.1,9.5c1.6,2.4,1.9,5.2,3.1,7.8c1.1,2.4,2.9,4,4.3,6.1c3.3,5.1,3.2,9.7,1,15.5
					c-5.5,14.4-16.1,26.6-21.5,41.2c-3.5,9.3-17,11.2-19.4,0.8c-2.2-9.6-3.6-19.5-4-29.5c-0.3-9,1.8-20.1-5-26.5
					c5.3-0.9,10.6-1.8,15.9-2.7c-2.5,4.7,5.7,13.8,10,13.1c-2.4,1.1-4.7,2.1-7.1,3.2c-1,2.7-1.6,2.5-1.9-0.7
					c-0.6-1.8-1.4-3.5-2.2-5.2c-1.6-3.3-3.4-6.3-5.4-9.3c-7-10.5,10.8-21.3,17.8-10.8c5,7.4,10.5,17.2,11,26.6
					c0.5,9.6-7.4,18.2-17,16.7c-8.4-1.3-17.9-9.4-22-16.5c-4.7-8.2-4.7-17.7-0.1-26.6c3.3-6.3,11.5-6.8,15.9-2.7
					c8.1,7.6,10.1,18.4,10.2,29.6c0.1,12.1,0.9,23.6,3.6,35.4c-6.5,0.3-12.9,0.6-19.4,0.8c3.5-9.3,8-18,13-26.6
					c2.8-4.9,5.5-9.8,8.3-14.7c3-5.3-0.3-0.7,0.5-0.1c-1.5-1.2-2.8-3.6-3.7-5.2c-1.8-3.3-1.7-6.1-4.5-8.4c-3.1-2.4-7.5-4-10.9-5.9
					c-1.2-0.7-5.2-1.6-2.2-2.3c2.9-0.7-0.4,2.1-1.4,3.4c-3.2,4.2-6.6,8.1-10.4,11.8c-4.8,4.7-12.6,4.1-15.7-1.6
					c-8.9-16.8,2.5-44.2,22.1-48.8c10.1-2.4,20.4,0.7,28.7,6c9.3,5.9,20,14,25.7,23.6c2.5,4.3,6.5,7.3,8.9,11.6
					c2.7,4.7,1.4,10-0.5,15.1c-4.5,11.8-11.5,22.6-18,33.5c-3.3,5.6-6.6,11.3-10,16.9c-2.9,4.9-5.5,10.7-9.6,14.7
					c-8.6,8.4-20.1,1.7-29.9,1.7c3.1-5.2,6.1-10.4,9.2-15.6c4.5,6.6,10,12.1,16.2,17c-5.8,2.6-11.6,5.3-17.4,7.9
					c0.1-8-13-11.8-14.9-20c-0.9-3.9-0.1-8,2.2-11.4c1.2-1.8,2.8-2.8,4.2-4.3c0.9-0.9,2.9-4.7,3.2-2.4c1.5,2,3,4,4.5,6
					c3.2,0.9,2.9,1.5-1.1,1.6c-2.2,0.4-4.3,0.8-6.5,1.2c-3,0.6-6.1,1.1-9.1,1.7c-5.4,1.1-10.1,3.5-15.4,5.2
					c-4.9,1.6-10.2,1-13.8-2.5c-3.9-3.9-4-10.3-7.5-14.6c4.9-5,9.8-9.9,14.8-14.9c1.8,2.4,9-1.3,11.1-2.3c2.6-1.3,9.8-5.1,12.6-4
					c1.3-0.6,1.4-0.1,0.3,1.4c-0.6,2.6-1.3,2.2-2-1.3c-1.5-2-2.2-5-3.2-7.2c-2.4-5.3-4.8-10.5-7.1-15.8
					C-252.4,86.2-234.7,75.3-229.5,87L-229.5,87z"/>
			</g>
		</g>
		<text transform="matrix(-0.813 -0.4552 -0.5055 0.8628 542.0792 601.8465)" class="st1 st3 st5">PROJEKTER</text>
	</g>
	<g>
		<g>
			<path class="st2" d="M298.7,380.7c-2.5-2.3-5.3-4.3-8.4-5.7c-0.4-0.2-0.6-0.8-0.3-1.2c3.5-4,9.1-5.5,14.1-4
				c0.4,0.1,0.5,0.6,0.4,1c-0.2,0.4-0.6,0.5-1,0.4c-4.3-1.4-9.4,0.1-12.4,3.5c-0.1-0.4-0.2-0.8-0.3-1.2c3.2,1.5,6.1,3.5,8.7,6
				C300.3,380.2,299.4,381.4,298.7,380.7L298.7,380.7z"/>
		</g>
	</g>
	<g>
		<g>
			<path class="st2" d="M294.1,385.2c-0.5-0.4-1-0.8-1.5-1.1c0.7,0.4,1.3,0.8,2,1.3c-0.8-0.5-1.7-0.9-2.5-1.2
				c0.7,0.2,1.5,0.4,2.2,0.7c-0.9-0.3-1.8-0.4-2.8-0.5c-1.2-0.2-2.3-0.6-3.2-1.3c-1.1-0.6-2-1.4-2.6-2.4c-0.7-1-1.1-2-1.3-3.2
				c-0.3-1.1-0.4-2.2-0.2-3.4c0.2-0.7,0.5-1.5,0.7-2.2c0.7-1.5,1.7-2.7,3-3.7c0.7-0.4,1.4-0.7,2.1-1.1c1.5-0.5,3-0.7,4.5-0.4
				c0.6,0,1.3,0.1,1.9,0.2c0.7,0.1,1.3,0.4,2,0.6c0.7,0.2,1.3,0.4,2,0.6c0.6,0.2,1.1,0.5,1.7,0.8c1.2,0.7,2.5,1.4,3.5,2.4
				c1,0.8,1.7,1.7,2.1,2.8c0.6,1,1,2.1,1,3.3c0.1,1.2,0,2.3-0.4,3.4c-0.3,1.2-0.8,2.2-1.6,3.2c-0.6,0.5-1.2,1.1-1.8,1.6
				c-1.3,0.9-2.7,1.4-4.3,1.6c-0.8,0-1.5,0-2.3-0.1C296.7,386.9,295.3,386.2,294.1,385.2L294.1,385.2z"/>
		</g>
	</g>
	<g>
		<g>
			<path class="st2" d="M289.1,378.1c-0.7-0.6-1.4-1.1-2.2-1.6c0.3,0.2,0.7,0.4,1,0.6c-1.5-0.9-3.1-1.7-4.8-2.2
				c0.4,0.1,0.7,0.2,1.1,0.3c-1.4-0.4-2.9-0.7-4.3-0.8c1.5-2.3,2.9-4.7,4.4-7c1.5,1.7,2.5,3.7,3.5,5.8c0.9,1.9,1.8,3.8,2.6,5.7
				c1.8,3.9,3.6,7.9,5.4,11.8c-2.2-0.7-4.5-1.4-6.7-2.1c2.9-1.6,5.7-3.2,8.5-4.9c2.7-1.6,5.5-3.1,7.8-5.3c-0.3,0.3-0.6,0.5-0.9,0.8
				c1.2-1.1,2.3-2.3,3.6-3.3c1.1-0.9,2.4-1.6,3.8-2.1c2.6-1.1,5.5-1.4,8.3-1.2c0.7,0.1,1.6,0.5,2.1,1c0.8,0.6,1.2,1.5,1.5,2.5
				c0.4,1.7-0.3,3.7-1.8,4.7c-3.5,2.3-6.7,5.1-10.4,7.1c-1.2,0.7-2.4,1.3-3.6,1.8c-1.2,0.5-2.5,0.8-3.8,1.1
				c-2.3,0.5-4.8,0.5-7.2,0.1c-3-0.6-5.7-1.8-8.1-3.7c-1.1-0.8-1.6-2.3-1.6-3.6c0.1-1.5,0.7-2.6,1.9-3.5c2.5-1.9,5-3.9,7.6-5.6
				c1.7-1.1,3.4-1.8,5.4-2.2c1.5-0.3,3-0.1,4.5-0.1c-0.4,0-0.8,0-1.1,0c1.1,0,2.1,0,3.2-0.2c-0.4,0.1-0.7,0.2-1.1,0.3
				c0.3-0.1,0.7-0.2,1-0.3c-0.3,0.2-0.7,0.4-1,0.5c0.1,0,0.1-0.1,0.2-0.1c-0.3,0.3-0.6,0.5-0.9,0.8c0-0.1,0.1-0.1,0.1-0.2
				c-0.3,0.7-0.7,1.4-1,2.1c0,0,0-0.1,0-0.1c0.1,0.8,0.1,1.5,0.2,2.3c0,0,0-0.1,0-0.1c0.2,0.3,0.4,0.7,0.5,1
				c-0.1-0.1-0.1-0.2-0.2-0.3c0.3,0.3,0.5,0.6,0.8,0.9c-1.5-1.6-3.1-3.1-4.9-4.3c0.3,0.2,0.7,0.4,1,0.6c-0.9-0.5-1.8-1-2.7-1.3
				c0.4,0.1,0.7,0.2,1.1,0.3c-1.4-0.4-3-0.7-4.4-1.4c-1.2-0.6-2-1.3-2.9-2.3c-1.4-1.7-1.1-4,0-5.7c0.6-0.9,1.4-1.7,2.3-2.2
				c0.5-0.3,1.1-0.6,1.6-0.9c1.1-0.7,2.1-1.6,3.1-2.4c-0.3,0.3-0.6,0.5-0.9,0.8c1.2-1.1,2.4-2.3,3.5-3.6c1.5-1.6,3.8-2.1,5.8-0.9
				c1.9,1.2,2.5,3.5,1.7,5.6c-0.2,0.5-0.4,1.1-0.6,1.6c0.1-0.4,0.2-0.7,0.3-1.1c-0.6,1.9-0.9,3.8-1,5.8c0-0.4,0-0.8,0-1.1
				c0,0.1,0,0.1,0,0.2c-2.9-0.1-5.9-0.2-8.8-0.3c1.1-4,2.8-7.7,4.8-11.4c1.6-2.9,3.7-5.7,4.7-8.9c-0.1,0.4-0.2,0.7-0.3,1.1
				c0.2-0.7,0.3-1.4,0.4-2.2c0,0.4,0,0.8,0,1.1c0-0.6,0-1.1-0.1-1.7c0.1,0.4,0.2,0.7,0.2,1.1c-0.1-0.3-0.1-0.5-0.2-0.8
				c2.7,0.1,5.5,0.2,8.2,0.3c-2.8,6.2-5.9,12.2-9.2,18.2c-0.6,1.1-1.4,1.9-2.5,2.4c-1,0.4-2.4,0.4-3.4-0.1c-1-0.5-2-1.4-2.3-2.6
				c-0.3-1.1-0.4-2.4,0.1-3.4c3.3-5.9,6.4-12,9.2-18.2c0.7-1.6,2.5-2.7,4.2-2.6c1.8,0.1,3.4,1.2,4,2.9c1.7,4.7-0.4,9.4-2.8,13.4
				c-2.4,4.1-4.9,8.3-6.3,12.9c0.1-0.4,0.2-0.7,0.3-1.1c-0.1,0.3-0.2,0.6-0.3,0.9c-0.3,1.1-0.8,2.3-1.9,2.9
				c-0.8,0.5-1.7,0.8-2.7,0.8c-0.9,0-2-0.3-2.7-1c-0.8-0.7-1.6-1.9-1.6-3c0-1.7,0.1-3.4,0.5-5c0.3-1.7,0.8-3.3,1.4-4.9
				c2.5,1.6,5,3.1,7.5,4.7c-1.6,1.7-3.3,3.4-5,5c-0.7,0.6-1.5,1.2-2.3,1.8c-0.8,0.6-1.8,0.9-2.6,1.6c0.3-0.3,0.6-0.5,0.9-0.8
				c-0.1,0.1-0.2,0.2-0.3,0.3c0.2-0.3,0.4-0.7,0.6-1c-0.1,0.1-0.1,0.2-0.2,0.3c0.1-0.4,0.2-0.7,0.3-1.1c0,0.1,0,0.1-0.1,0.2
				c-0.2-1.1-0.5-2.2-0.7-3.3c0.1,0.1,0.2,0.2,0.3,0.3c-0.3-0.3-0.5-0.6-0.8-0.9c0.2,0.2,0.4,0.4,0.6,0.5c-0.3-0.2-0.7-0.4-1-0.6
				c0.5,0.3,1,0.5,1.5,0.6c-0.4-0.1-0.7-0.2-1.1-0.3c2.1,0.6,4.1,1.1,5.9,2.2c1.8,1.1,3.4,2.4,4.9,4c1.3,1.3,2.7,2.5,2.8,4.5
				c0.1,2.6-1.5,4.6-3.9,5.3c-2.1,0.6-4.1,0.5-6.3,0.4c0.4,0,0.8,0,1.1,0c-1.1,0-2.1,0-3.2,0.2c0.4-0.1,0.7-0.2,1.1-0.3
				c-0.7,0.2-1.3,0.4-1.9,0.7c0.3-0.2,0.7-0.4,1-0.5c-1.5,0.8-2.8,1.8-4.2,2.8c-1.5,1.1-3,2.2-4.4,3.3c0.1-2.4,0.2-4.8,0.3-7.1
				c0.4,0.3,0.7,0.5,1.1,0.8c-0.3-0.2-0.7-0.4-1-0.6c1.1,0.7,2.2,1.2,3.4,1.5c-0.4-0.1-0.7-0.2-1.1-0.3c1.3,0.4,2.5,0.6,3.9,0.7
				c-0.4,0-0.8,0-1.1,0c1.2,0,2.5-0.1,3.7-0.4c-0.4,0.1-0.7,0.2-1.1,0.3c1.6-0.4,3.2-1,4.6-1.8c-0.3,0.2-0.7,0.4-1,0.5
				c3.9-2.1,7.2-5,10.9-7.4c0.6,2.7,1.2,5.4,1.8,8.1c-0.2,0-0.4,0-0.6,0c0.4,0,0.8,0,1.1,0c-1.1,0-2.2,0.1-3.2,0.3
				c0.4-0.1,0.7-0.2,1.1-0.3c-1.1,0.3-2.2,0.7-3.2,1.2c0.3-0.2,0.7-0.4,1-0.5c-1.2,0.6-2.2,1.4-3.2,2.3c0.3-0.3,0.6-0.5,0.9-0.8
				c-1.5,1.4-2.9,2.8-4.6,4c-1.5,1-3,1.9-4.5,2.8c-3.1,1.8-6.3,3.6-9.5,5.4c-1.3,0.7-2.4,1-3.8,0.6c-1.4-0.4-2.3-1.4-2.9-2.7
				c-1.4-3-2.8-6.1-4.2-9.1c-1.3-2.9-2.6-5.9-4.1-8.8c0.2,0.3,0.4,0.7,0.5,1c-0.8-1.5-1.7-3-2.8-4.3c-0.4-0.5-0.7-1.5-0.8-2.1
				c-0.1-1,0.2-1.9,0.7-2.8c0.4-0.7,1-1.2,1.7-1.6c0.9-0.5,1.7-0.5,2.8-0.5c4.9,0.3,9.7,2.4,13.4,5.6c1.8,1.5,2.2,4.5,0.6,6.3
				C293.7,379.3,291,379.7,289.1,378.1L289.1,378.1z"/>
		</g>
	</g>
	<g>
		<g>
			<path class="st2" d="M313.7,342c0.3-0.8,0.5-1.6,0.8-2.3c-0.1,0.4-0.2,0.7-0.3,1.1c1.7-5.6,2.6-11.4,2.9-17.2c0,0.4,0,0.8,0,1.1
				c0.1-1.6,0.1-3.3,0.3-4.9c2.9,0.5,5.9,1,8.8,1.4c-1.3,4.8-2.2,9.7-2.6,14.6c-0.1,1.1-1,2.3-1.9,2.9c-0.9,0.6-2.2,1-3.3,0.7
				c-1.1-0.2-2.3-0.8-2.9-1.9c-0.6-1-0.8-2.1-0.7-3.3c0.5-4.9,1.3-9.8,2.6-14.6c0.3-1.2,0.8-2.2,1.9-3c0.9-0.6,2.2-1,3.3-0.7
				c1.1,0.2,2.3,0.8,2.9,1.9c0.6,1,0.8,2.1,0.7,3.3c-0.1,0.9-0.1,1.9-0.2,2.8c0-0.4,0-0.8,0-1.1c-0.2,3.9-0.4,7.7-1.1,11.6
				c-0.7,3.8-1.7,7.5-3,11.2c-0.4,1-1.6,2-2.5,2.4c-1,0.4-2.4,0.4-3.4-0.1c-1-0.5-2-1.4-2.3-2.6C313.2,344.2,313.3,343.1,313.7,342
				L313.7,342z"/>
		</g>
	</g>
	<g>
		<g>
			<path class="st2" d="M315.5,332.4c1.4-1.5,2.7-3.2,3.8-5c-0.2,0.3-0.4,0.7-0.6,1c0.7-1.1,1.3-2.2,1.7-3.4
				c-0.1,0.4-0.2,0.7-0.3,1.1c0.2-0.7,0.3-1.4,0.3-2.2c0,0.4,0,0.8,0,1.1c0.1-2.2,0.1-4.3,0.6-6.4c0.4-2.3,2.7-4.2,5.1-3.7
				c2.3,0.5,4.1,2.7,3.6,5.1c-0.2,1.3-0.4,2.6-0.5,3.9c0-0.4,0-0.8,0-1.1c-0.1,1.5,0,3-0.4,4.5c-0.4,1.4-0.9,2.6-1.6,3.8
				c-1.4,2.4-3,4.8-5,6.8c-0.8,0.9-1.8,1.5-3,1.6c-1.1,0.1-2.4-0.3-3.2-1C314.4,337.2,313.8,334.3,315.5,332.4L315.5,332.4z"/>
		</g>
	</g>
	<g>
		<g>
			<path class="st2" d="M330.1,276.9c0.2,10.9-0.6,21.7-1.6,32.5c-0.3,2.9-0.7,5.9-0.8,8.8c0-0.4,0-0.8,0-1.1c0,0.5,0,1,0.1,1.5
				c-0.1-0.4-0.2-0.7-0.2-1.1c0,0.1,0,0.1,0.1,0.2c-2.5-0.4-5.1-0.9-7.6-1.3c1.5-1.5,3.1-3.1,4.2-4.9c-0.2,0.3-0.4,0.7-0.6,1
				c0.2-0.3,0.3-0.6,0.5-1c-0.1,0.4-0.2,0.7-0.3,1.1c0.4-1.2,0.3-2.6,0.4-3.9c0.1-1.4,0.2-2.8,0.2-4.1c0,0.4,0,0.8,0,1.1
				c0.2-4.2-0.2-8.4-0.2-12.6c0.1-4.4,0.3-8.7,0.4-13.1c0.1-2.5,0.2-5,0.2-7.4c0-0.8,0.1-1.5,0.4-2.3c0.4-0.9,1.1-1.6,2-2.1
				c0.7-0.4,1.4-0.5,2.2-0.5c0.9,0,2,0.3,2.7,1c0.9,1,1.5,1.7,2,2.9c0.2,0.5,0.4,1,0.5,1.6c0.3,1.4,0.6,2.9,0.8,4.4
				c0.4,2.3,0.7,4.7,0.6,7c0,2.7-0.4,5.4-0.7,8.1c-0.3,2.5-0.4,5-0.5,7.5c0-0.4,0-0.8,0-1.1c0,0.9-0.1,1.9-0.1,2.8
				c0,1.2-0.2,2.3-1,3.3c-0.7,0.8-1.9,1.5-3,1.6c-1.2,0.1-2.4-0.2-3.2-1c-0.8-0.7-1.6-1.9-1.6-3c0-3.1,0.2-6.2,0.5-9.2
				c0.2-2.8,0.7-5.5,0.8-8.3c0,0.4,0,0.8,0,1.1c0.1-3.7-0.4-7.6-1.2-11.2c0.1,0.4,0.2,0.7,0.2,1.1c-0.1-0.5-0.3-1.1-0.5-1.6
				c0.2,0.3,0.4,0.7,0.5,1c-0.2-0.3-0.3-0.6-0.6-0.8c0.3,0.3,0.5,0.6,0.8,0.9c0-0.1-0.1-0.1-0.1-0.1c2.4-1.3,4.9-2.6,7.3-3.9
				c-0.2,6.7-0.5,13.3-0.6,20c-0.1,3.2,0.2,6.4,0.2,9.5c0,3.5-0.2,6.9-0.4,10.4c-0.1,1.2-0.2,2.3-0.7,3.4c-0.4,1-1,2-1.7,2.9
				c-1.1,1.4-2.4,2.7-3.6,4c-1.1,1.2-2.5,1.8-4.2,1.6c-1.5-0.2-3-1.4-3.4-2.9c-0.4-1.5-0.5-2.8-0.3-4.4c0.1-1,0.2-2,0.3-3
				c0.2-2.1,0.4-4.1,0.6-6.2c0.4-4,0.7-8.1,1-12.1c0.2-2.3,0.3-4.6,0.4-6.9c0,0.4,0,0.8,0,1.1c0.2-3.9,0.2-7.7,0.1-11.6
				c0-1.2,0.2-2.3,1-3.3c0.7-0.8,1.9-1.5,3-1.6c1.2-0.1,2.4,0.2,3.2,1C329.3,274.6,330,275.7,330.1,276.9L330.1,276.9z"/>
		</g>
	</g>
	<g>
		<g>
			<path class="st2" d="M320.8,278.8c0.5-1.1,1-2.1,1.4-3.3c-0.1,0.4-0.2,0.7-0.3,1.1c0.4-1.3,0.5-2.7,0.6-4.1c0,0.4,0,0.8,0,1.1
				c0.2-4.6,0.1-9.1,0.1-13.7c0-4.5,0-9.1-0.2-13.6c-0.1-2.6-0.3-5.1-0.6-7.7c-0.3-2.3,1.7-4.8,4-4.9c2.5-0.1,4.5,1.6,4.8,4
				c0.6,5.6,0.8,11.2,0.8,16.8c0,5.7,0,11.4-0.1,17.1c0,1.7-0.1,3.5-0.4,5.2c-0.4,1.9-1.1,3.7-2,5.4c-1,2.1-3.7,3.4-5.9,2.3
				C320.9,283.7,319.7,281.1,320.8,278.8L320.8,278.8z"/>
		</g>
	</g>
	<g>
		<g>
			<path class="st2" d="M335.4,237.2c0.7,1.7,0.8,3.7,1.1,5.5c0.2,1.6,0.5,3.2,0.6,4.9c0.4,3.2,0.7,6.5,0.9,9.8
				c0.4,6.8,0.2,13.6-0.2,20.3c-0.2,3.7-0.5,7.3-0.8,11c-0.1,1.1-1,2.3-1.9,3c-0.9,0.6-2.2,1-3.3,0.7c-1.1-0.2-2.3-0.8-2.9-1.9
				c-0.6-1-0.8-2.1-0.7-3.3c0.4-5.2,0.8-10.4,1-15.7c0,0.4,0,0.8,0,1.1c0.3-8.5-0.1-17-1.1-25.4c-0.3-2.4-0.5-4.8-1-7.1
				c0.1,0.4,0.2,0.7,0.2,1.1c-0.1-0.4-0.2-0.7-0.3-1c-0.9-2.2,0.5-5,2.7-5.7C332.1,233.7,334.4,234.9,335.4,237.2L335.4,237.2z"/>
		</g>
	</g>
	<g>
		<g>
			<path class="st2" d="M322,239.1c-1.2-4.5-1.8-9.1-2.2-13.7c-0.4-4.3-0.6-8.7-1-13c-0.3-2.5-0.6-4.9-1.1-7.3
				c0.1,0.4,0.2,0.7,0.2,1.1c-1.3-5.9-3.9-11.3-5.7-17.1c-0.3-1.1-0.3-2.3,0.1-3.4c0.5-1,1.5-2,2.5-2.4c2.2-0.7,4.9,0.3,5.7,2.7
				c1,3.3,2.3,6.5,3.5,9.7c1.2,3.4,2.1,6.8,2.8,10.3c1.1,6.1,1.3,12.3,1.8,18.5c0.3,3.5,0.7,7,1.4,10.4c-0.1-0.4-0.2-0.7-0.2-1.1
				c0.2,0.7,0.3,1.5,0.5,2.2c0.3,1.1,0.4,2.3-0.1,3.4c-0.5,1-1.5,2-2.5,2.4c-1.1,0.3-2.3,0.4-3.4-0.1
				C323.3,241.1,322.3,240.2,322,239.1L322,239.1z"/>
		</g>
	</g>
	<g>
		<g>
			<path class="st2" d="M327.1,206.5c2.2,1.5,2.9,4.3,3.6,6.7c0.6,2.1,1.2,4.1,1.8,6.2c1.1,4.2,1.2,8.7,1.3,13.1
				c0.1,2.6,0,5.3-0.2,7.9c-0.1,1.1-1,2.3-1.9,2.9c-0.9,0.6-2.2,1-3.3,0.7c-1.1-0.2-2.3-0.8-2.9-1.9c-0.6-1-0.8-2.1-0.7-3.3
				c0.1-0.8,0.1-1.7,0.2-2.5c0,0.4,0,0.8,0,1.1c0.1-2.6,0-5.1-0.1-7.7c-0.1-2.6-0.2-5.2-0.8-7.7c0.1,0.4,0.2,0.7,0.2,1.1
				c-0.4-1.8-1-3.5-1.5-5.3c-0.5-1.7-0.9-3.6-1.7-5.2c0.2,0.3,0.4,0.7,0.5,1c-0.2-0.3-0.4-0.6-0.6-0.8c0.3,0.3,0.5,0.6,0.8,0.9
				c-0.2-0.1-0.3-0.3-0.5-0.4c-0.9-0.6-1.5-2-1.6-3c-0.1-1.1,0.3-2.4,1-3.3c0.8-0.9,1.8-1.5,3-1.6
				C325.1,205.4,326.1,205.8,327.1,206.5L327.1,206.5z"/>
		</g>
	</g>
	<g>
		<g>
			<path class="st2" d="M311.2,185c-1.6-2.1-2.5-4.7-3.4-7.1c-0.9-2.2-1.8-4.5-2.7-6.7c-0.9-2.2,0.4-5,2.7-5.7
				c2.4-0.8,4.8,0.3,5.7,2.7c0.8,1.9,1.5,3.8,2.3,5.7c0.8,1.9,1.5,3.8,2.4,5.6c-0.2-0.3-0.4-0.7-0.5-1c0.3,0.5,0.6,1.1,1,1.5
				c1.4,1.9,0.8,5-1.1,6.2C315.3,187.4,312.7,186.9,311.2,185L311.2,185z"/>
		</g>
	</g>
	<g>
		<path d="M287.3,401.2c-6.7-10.8-11.7-22.9-17.2-34.3c-0.8-1.4,0.8-3.3,2.1-3.4c7.5-0.5,15.3-1.5,22.6,0.2l0.2-0.2
			c25.8-26.9,24.6-74.8,23.3-109.3c-1.3-39.7-8.8-80.9-31.4-113.8c-3.3-3.6-6.9-7.4-10.8-10.7c-1.9-1.6,0.3-4.1,2.3-2.8
			c0.7,0.6,1.4,1.2,2.1,1.7c0.8-0.9,2.1-1.1,3.2-0.1c2.4,2.4,4.3,5.2,6.5,7.8c61.3,54.5,69.3,168.6,21.9,233.9
			c5.5,1,11,2.4,16.6,3.2c2.6,0.2,2.7,3.4,1.1,4.9c-11.3,10.4-25.7,16.3-38.8,23.6C290,402.7,288.3,402.9,287.3,401.2z M322.6,377.5
			c-4.2-1.1-8-2.7-12.3-3.6c-1.6-0.5-1.9-2-1.5-2.9c-0.7-0.6-0.8-1.4-0.4-2.3c37.2-63.9,37.1-141.1-0.2-200.9
			c11,27.9,14.7,59.6,15.7,88.7c0.8,21.3-0.2,42.4-3.7,63.3c-2.9,16.3-8.5,35-23,44.4l0,0c2.4,0.8,1,4.4-1.1,4.2
			c-6.5-0.2-12.7-0.3-18.9,0.1c4.5,9.3,8.7,18.8,14,27.6C301.5,390.1,312.9,384.9,322.6,377.5z"/>
	</g>
</g>
<g id="Layer_2">
	<g id="Layer_3">
		<g>
			<g>
				<path class="st2" d="M63.3,62c-0.1,0-1.5-0.4-0.8-0.2s-0.6-0.5-0.1-0.1c0.5,0.5-0.5-0.5-0.6-0.6c0.6,0.6,0,0.1-0.2-0.3
					c-0.1-0.1-0.5-1.1-0.3-0.5c0.2,0.7-0.2-0.7-0.2-0.8c0.2,0.9-0.1,0.1,0.1,0c0-0.6,0-0.7,0-0.3c-0.1,0.4,0,0.4,0.1-0.3
					c2-7.4-9.5-10.6-11.5-3.2c-2,7.5,2.6,15.8,10.3,17.7c3.1,0.8,6.5-1,7.3-4.2C68.3,66.3,66.4,62.8,63.3,62L63.3,62z"/>
			</g>
		</g>
		<g>
			<g>
				<path class="st2" d="M67.5,55.9c-0.9,0-2.9,0.2-3.2-0.4c-0.2-0.5,1.3-4.3,1.4-5.2c0.5-3.3,0.3-6.5,1.6-9.6
					c1.9-4.6-3.4-8.1-7.3-7.3c-5,1-12.8,1-16.8,4.4c-3.9,3.3-2.9,10.6-2.9,15.2c0.1,12.6,2,25.1,2.5,37.6c0.2,4.3-1.3,11,1.2,14.8
					c3,4.6,10.4,3.4,14.9,2.1c10.5-2.9,6.7-19.6,4.5-27.1c-2.9,2.2-5.8,4.5-8.8,6.7c3.5,2.2,6.1,4.9,8.4,8.3c2,2.9,3.9,5.7,7.2,7.3
					c1.3,0.6,2.3,1,3.5,1.6c1.5,0.7,2.7,1.4,4.4,1.3c4-0.2,8.4-2.9,12.1-4.3c5.7-2.3,5.7-12.3-1.6-11.7c-3.7,0.3-7-0.4-9.9-2.9
					c-5.8-5-14.2,3.4-8.4,8.4c5.2,4.5,11.4,6.9,18.3,6.3c-0.5-3.9-1.1-7.8-1.6-11.7c-1.9,0.8-3.8,1.5-5.7,2.2
					c-0.8,0.3-1.6,0.6-2.4,1c-2.1,0.5-2.2,0.8-0.1,1c1.9,0.7,2,0.5,0.3-0.6c-0.9-0.4-1.7-0.8-2.6-1.2c-1.3-0.6-1.5-0.5-2.5-1.8
					c-4.3-5.3-7.4-9.9-13.4-13.7c-4.4-2.7-10.2,1.8-8.8,6.7c1,3.5,1.7,6.9,1.7,10.6c0,0.6,0,1.2,0,1.8c-0.6,2.4,0.1,2.5,2.1,0.1
					c0,0.2-4.6,0.7-5,0.6c1.2,0.9,2.4,1.8,3.6,2.7c1.2,2.5,0.6,1.2,0.6-1.1c0-1.6,0-3.2,0-4.8c-0.1-2.9-0.2-5.8-0.4-8.7
					c-0.4-6.1-1.1-12.2-1.5-18.3c-0.5-5.8-0.8-11.6-0.6-17.4c0-1,0.1-1.9,0.1-2.9c0.3-1.4-0.1-1.4-1.2,0.2c-3.3,2.3,1.6,0.6,2.5,0.4
					c3.2-0.6,6.4-1.3,9.5-1.9c-2.4-2.4-4.9-4.9-7.3-7.3c-1.4,3.4-1.2,6.9-1.8,10.4c-0.5,3.3-2.3,6.1-1.8,9.5
					c1.1,7.5,8.4,10.6,15.2,10.3C75.1,67.5,75.2,55.6,67.5,55.9L67.5,55.9z"/>
			</g>
		</g>
		<g>
			<g>
				<path class="st2" d="M81.7,87.1c-2.9-2-5.9-3.9-8.7-6.1c-1.2-0.9-2.5-1.9-3.6-3c-0.8-0.8-1.5-2.4-2.3-3c-0.7-1.5-0.8-0.8-0.4,2
					c0.6-0.4,1.2-0.8,1.9-1.2c1.1-0.6,2.2-1.2,3.3-1.9c2.6-1.7,4-4.2,6.3-6.1c4.2-3.7,11.4-3.5,15.2-7.9c4-4.6,1.3-11.6-0.9-16.4
					c-2-4.4-8-3.3-10.3,0c-2.3,3.3-6.2,5.1-9.3,7.6c-3.2,2.6-5.9,5.8-9.2,8.4c-6.6,5.3-12.9,9.8-15.9,18.2c3.8,0,7.7,0,11.5,0
					c-1.2-5-2.4-10-3.7-14.9c-0.6-2.5-1.2-5-1.8-7.5c-0.3-1.4-1.6-4.6-1.2-5.7c-0.9,1.2-1.8,2.4-2.7,3.6c-1.8-1.1-3-1.1-3.3,0.1
					c-1.9,7.4,9.6,10.6,11.5,3.2c1.2-4.6,0-9.4-3.8-12.5c-4-3.3-10.4-3.3-12.9,1.8c-2.3,4.7,0.4,10.8,1.5,15.5
					c1.6,6.5,3.2,13.1,4.8,19.6c1.5,6.1,9.6,5.2,11.5,0c2.7-7.3,11.5-11.4,16.9-16.5c5.3-5.1,12-8.6,16.3-14.7c-3.4,0-6.8,0-10.3,0
					c0.1,0.2,1.4,4.2,1.3,4.2c1.6-2.2,1.4-2.6-0.8-1.2c-0.9,0.4-1.8,0.8-2.6,1.2c-2.9,1.3-6,2.4-8.6,4.3c-2.6,1.9-4,4.6-6.8,6.4
					c-2.5,1.5-5.1,2.7-7,4.9c-9.8,11.2,10.8,22.9,18.1,28C82,101.7,87.9,91.4,81.7,87.1L81.7,87.1z"/>
			</g>
		</g>
		<g>
			<g>
				<path class="st2" d="M121.7,87.8c-9.2-8.2-4.3-20.4,2.6-28.5c3-3.5,7.9-10,12.9-9.9c5.2,0.1,7.7,5.9,9.2,10.1
					c4.1,11,5.3,23.6-1.8,33.8c-3.5,5-10.8,4.4-16.1,3.6c-5.4-0.8-12.5-2.8-11.6-9.6c0.4-3.2-3-5.9-6-5.9c-3.6,0-5.5,2.8-6,5.9
					c-2.2,16.5,17.9,22.4,30.7,21.9c7.1-0.3,14.1-2.8,18.3-8.7c3.9-5.4,6.4-13.1,7.4-19.7c1.2-7.9-0.5-15.8-3.1-23.2
					c-2.1-6.1-4.8-12.3-10.1-16.3c-13.4-10.3-26.8,2.1-35,12.7c-9.6,12.5-13,30.6,0,42.2C119,101.3,127.4,92.9,121.7,87.8
					L121.7,87.8z"/>
			</g>
		</g>
		<g>
			<g>
				<path class="st2" d="M136.5,92.3c-4.8-3.3-10.5-5.4-11.3-11.8c-0.7-5.1,2.2-12.6,6.7-15.5c4.5-2.9,12-1.4,12.4-8.8
					c0.3-6.7-6.3-7.1-11.2-7.4c-6.6-0.4-8.2,10.4-1.6,11.7c3.7,0.7,4.2,1.5,5.7,4.7c1.5,3.1,2.9,6.2,3.6,9.6
					c1.3,5.9,0,12.7-6.8,13.6c1.5,3.6,3.1,7.2,4.6,10.9c3.5-2.1,8-4,10.4-7.4c2.4-3.3,2-7.7,2.2-11.6c0.3-7.2,0.6-15.3-5.4-20.5
					c-5.8-4.9-14.3,3.4-8.4,8.4c2.9,2.5,2.1,6.9,2,10.4c-0.1,1.4,0.5,5.6-0.3,6.7c-0.7,1-5.2,2.9-6.5,3.7
					c-6.2,3.7-1.8,11.8,4.6,10.9c11.9-1.7,17.1-14.2,15.7-24.9c-0.8-6-3.3-11.8-6.1-17.2c-2.6-5.1-6.5-7.6-12.1-8.7
					c-0.5,3.9-1.1,7.8-1.6,11.7c1,0.6,1.7,0.5,2.2-0.1c-1-1.7-2-3.4-3-5.1c0,0.3,0,0.5,0,0.8c0.6-1.4,1.2-2.8,1.7-4.2
					c-0.2,0.3-3.5,0.7-3.7,0.8c-1.3,0.4-2.5,0.9-3.7,1.5c-2.6,1.4-4.6,3.3-6.3,5.6c-3.6,4.7-6.1,10.1-6.8,16
					c-0.6,5.4,0.5,11.1,3.4,15.7c3.3,5.1,8.7,7.6,13.6,10.9C136.8,106.9,142.8,96.6,136.5,92.3L136.5,92.3z"/>
			</g>
		</g>
		<g>
			<g>
				<path class="st2" d="M101.6,81.9c-0.4,3.7,0.1,7.6,1.3,11.2c1,2.9,4.1,5.2,7.3,4.2c2.9-0.9,5.2-4.2,4.2-7.3
					c-1-2.9-1.2-4.8-0.9-8c0.3-3.1-3-6.1-6-5.9C104.1,76.1,102,78.6,101.6,81.9L101.6,81.9z"/>
			</g>
		</g>
		<g>
			<g>
				<path class="st2" d="M178.8,84.1c-3.9,2.9-7,6.2-9,10.6c-1.7,3.8,0.2,9.3,5.1,9c9.2-0.6,19.6-3.4,21.5-13.7
					c1.9-10-4.1-18.2-5.1-27.8c-3,1.7-6,3.4-9,5.1c3,2,4.9,5.8,6.8,8.8c2.2,3.6,4.4,7.2,6.4,10.9c3.3,6,5.9,12.4,12.7,15.1
					c13.1,5.1,25.2-6.9,22.2-20c-1.5-6.6-11.8-5.1-11.7,1.6c0,3.2,0.1,6.4,0.1,9.6c0.1,7.7,11.8,7.7,11.9,0c0.1-12,0.2-24,0.3-36
					c0-4.5,1.5-11.4-1.4-15.2c-3.3-4.3-8.4-1.3-12.7-2.7c-7.3-2.4-10.4,9.1-3.2,11.5c2,0.7,4.2,1.1,6.3,1.1c1.1-0.1,2.1-0.2,3.2-0.3
					c2.1-0.4,2.1-0.4,0.1-0.2c-1.4-1.4-2.8-2.8-4.2-4.2c0.7,3.3-0.1,7.6-0.1,11c0,3.9-0.1,7.8-0.1,11.7c-0.1,7.8-0.2,15.6-0.2,23.3
					c4,0,7.9,0,11.9,0c0-3.2-0.1-6.4-0.1-9.6c-3.9,0.5-7.8,1.1-11.7,1.6c0.7,3.2-1.5,6.5-5.1,6.1c-4.3-0.5-6.2-7.1-8-10.4
					c-4.6-8.2-9.5-18.5-17.5-23.9c-3.5-2.4-9.4,0.7-9,5.1c0.7,6.5,3.2,12.2,4.8,18.5c0.6,2.2,1.7,6.5,0,8.6c-1.6,2-7.1,2.4-9.3,2.5
					c1.7,3,3.4,6,5.1,9c1.2-2.5,2.5-4.7,4.8-6.4C191,89.9,185,79.6,178.8,84.1L178.8,84.1z"/>
			</g>
		</g>
		<g>
			<g>
				<path class="st2" d="M209,45.1c1,15.4,1.3,30.7,1,46.1c3.7-1,7.4-2,11.1-3c-2.6-4.2-4.8-8.5-6.5-13.1c-1.5-4.2-2.2-8.8-4.4-12.7
					c-2.2-3.9-5.5-7.2-7.9-11c-2.8-4.5-5.2-9.2-7.5-14c-1.8-3.5-6.7-3.7-9.3-1.2c-1.3,1.3-2.2,2.6-3.8,3.6c-1.5,0.9-3.1,1.4-4.6,2.3
					c-3.8,2.6-5.4,6.2-5.6,10.7c-0.5,11.8,0,23.7,0.1,35.5c0,4.2,5.2,7.9,9,5.1c5.4-3.9,8.1-9.3,9-15.9c1-8.2,0.6-16.3,2.2-24.5
					c-2.4,1.4-4.9,2.8-7.3,4.2c8.2,3.2,11.6,12.1,13.3,20.1c1.7,7.5,13.2,4.3,11.5-3.2c-2.8-12.6-9.3-23.5-21.7-28.4
					c-2.8-1.1-6.8,1.2-7.3,4.2c-1.2,6.1-2,12.4-2.2,18.6c-0.1,4.5,0.7,11.6-3.5,14.6c3,1.7,6,3.4,9,5.1c0-10,0-20-0.1-30
					c0-1.4-0.7-5,0-6.2c0.4-0.6,2.1-1.1,2.7-1.4c3.3-1.6,5.1-3.7,7.7-6.2c-3.1-0.4-6.2-0.8-9.3-1.2c2.2,4.5,4.5,8.9,7,13.2
					c2.5,4.1,6.2,7.6,8.4,11.8c1.9,3.7,2.6,8.3,4.2,12.2c1.9,4.7,4.2,9.2,6.8,13.5c3.1,5.1,11,2.9,11.1-3c0.3-15.4,0-30.7-1-46.1
					C220.5,37.5,208.6,37.5,209,45.1L209,45.1z"/>
			</g>
		</g>
		<g>
			<g>
				<path class="st2" d="M249.1,52.6c-0.7,3.6-3,5.7-6.7,5.6c1.9,2.5,3.8,5,5.7,7.5c1.2-5.3,1.9-10.6,2.3-16c-2.5,1.9-5,3.8-7.5,5.7
					c7.6,3,14.9-0.5,21.2-4.7c3.8-2.5,4-10.1-1.4-10.9c-6.5-1-11.5,1-17.1,4.2c-5.4,3.2-2.7,10.6,3,11.1c10.4,0.9,20.6-1.6,29.6-6.9
					c3.7-2.2,4-8.2,0-10.3c-5.4-2.8-11.9-2.9-16.9,1c-4.7,3.6-3.2,10.5,3,11.1c10.5,1,20.6-1.1,30.1-5.6c5.3-2.5,2.7-11.4-3-11.1
					c-6.9,0.4-13.8,1.2-20.6,2.6c-7.5,1.5-4.3,13,3.2,11.5c5.8-1.1,11.5-1.9,17.4-2.2c-1-3.7-2-7.4-3-11.1
					c-7.6,3.6-15.7,4.7-24.1,3.9c1,3.7,2,7.4,3,11.1c1.6-1.2,3-1.9,4.9-1c0-3.4,0-6.9,0-10.3c-7.3,4.3-15.2,5.9-23.6,5.2
					c1,3.7,2,7.4,3,11.1c2.2-1.3,5.2-3.4,7.9-3c-0.5-3.6-1-7.2-1.4-10.9c-3.8,2.5-7.5,5.3-12.1,3.5c-3.9-1.5-7.3,2.3-7.5,5.7
					c-0.3,4.3-1,8.6-1.9,12.8c-0.8,3.9,1.7,7.4,5.7,7.5c8.7,0.3,16.6-5.7,18.2-14.3C262.1,48.3,250.6,45.1,249.1,52.6L249.1,52.6z"
					/>
			</g>
		</g>
		<g>
			<g>
				<path class="st2" d="M282.9,47.2c0.3,1,0.4,2,0.4,3c0.9-1.2,1.8-2.4,2.7-3.6c1.3-0.1,0.9-0.1-1.3-0.1c-0.7,0-1.3,0-2,0
					c-2,0-3.9,0-5.9-0.1c-3.6,0-7.2-0.2-10.7,0.6c-5.3,1.1-10.2,4.3-12.3,9.4c-2.3,5.7-0.8,12.8-0.5,18.8c0.4,7.4,0.8,14.8,1.2,22.3
					c0.2,4.1,3.6,6.5,7.5,5.7c8.9-1.6,18.4-3.5,17.4-14.6c-0.9-10.3-1.9-20.4-1.6-30.8c0.1-5.6-8.6-8.5-11.1-3
					c-4.9,10.9-5.3,22.4-5,34.1c0.2,7.6,12.1,7.7,11.9,0c-0.2-9.4-0.5-19.4,3.4-28.1c-3.7-1-7.4-2-11.1-3c-0.2,7.6,0,15.1,0.7,22.6
					c0.2,2,2.1,8.5,1,10.3c1.1-1.8-1.6-0.5-2.5-0.3c-2.1,0.5-4.2,0.9-6.3,1.3c2.5,1.9,5,3.8,7.5,5.7c-0.4-7.4-0.8-14.8-1.2-22.3
					c-0.2-4.2-2.8-14,1.8-16.1c6-2.8,14.5,0.1,20.9-0.8c7.7-1,7.7-8.2,6.4-14.4C292.7,36.6,281.3,39.7,282.9,47.2L282.9,47.2z"/>
			</g>
		</g>
		<g>
			<g>
				<path class="st2" d="M302.3,62.5C298.5,71,293,80.1,291,89.3c-0.9,4.1-1.1,8.8,2.7,11.4c3.5,2.5,8.7,3.5,12.8,4.9
					c3.7,1.3,7.5-2.1,7.5-5.7c0-1.4-0.3-3.6,0.1-5c-1.4,1.4-2.8,2.8-4.2,4.2c3.5-1.1,8.7-0.3,12.5-0.4c1.9-0.1,3.8-0.1,5.6-0.2
					c1.2,0,2.5-0.1,3.8-0.1c-3-2.8-4.1-2.9-3.3-0.3c0,3.2,3,6.1,6,6.6c3.5,0.6,7.2-0.8,10.4-2c3.1-1.2,7-2.6,8.1-6.1
					c1-3.3-0.6-5.5-2.4-8.1c-1.9-2.8-2-6.5-3-9.7c-1.3-4.1-3.2-8-4.9-12c-3-7.2-5.3-14.8-6.9-22.4c-0.7-3.5-1.1-7.1-4.4-9.2
					c-3.1-2-7.1-1.1-10.5-0.6c-6.4,0.9-14.2,1.6-16.7,8.6c-1.4,3.8-1.4,8.5-2.1,12.5c-0.8,4.4-1.9,8.9-3.1,13.2
					c-1.7,6.4,7.6,10.6,10.9,4.6c2.2-4.1,4.4-8.2,6.6-12.2c1.9-3.5,3.5-7.4,6.5-10c-3.4-1.4-6.8-2.8-10.2-4.2
					c1.5,14-4.3,26.5-11.8,38c-1.9,3-0.2,8.1,3.6,8.8c6.5,1.1,12.3-0.6,18.8-0.9c5.8-0.2,11.9,3.4,16.1-2.6
					c3.4-4.8-0.2-12.4-2.1-17.1c-2.6-6.5-5.6-12.7-7.7-19.4c-2-6.6-11.3-5.1-11.7,1.6c-0.3,4.5-0.6,9-0.9,13.5
					c-0.1,1.9-0.2,3.9-0.4,5.8c-0.1,1.3-0.2,2.6-0.2,3.9c-0.3,1.2,0,1.3,0.8,0.1c-7.4,2-4.2,13.5,3.2,11.5c6.1-1.7,7.6-6.9,8-12.6
					c0.5-7.4,0.9-14.8,1.4-22.1c-3.9,0.5-7.8,1.1-11.7,1.6c1.3,4.4,3.1,8.6,4.9,12.8c0.9,2.2,1.9,4.4,2.8,6.6
					c0.7,1.7,1.4,6.2,2.5,7.4c0.1,1.4,0.8,1.3,2-0.4c2.1-0.8,2.4-1.2,1-1.4c-0.6-0.5-2.4-0.5-3.2-0.6c-2.2-0.3-4.3-0.3-6.5-0.1
					c-4.6,0.4-9.4,1.9-14,1.2c1.2,2.9,2.4,5.8,3.6,8.8c8.5-13.1,15.2-28.1,13.4-44.1c-0.6-5.1-6.1-7.8-10.2-4.2
					c-6.9,6.1-10.6,16.7-14.9,24.7c3.6,1.5,7.2,3.1,10.9,4.6c1.8-6.6,3.2-13.2,4.2-19.9c0.4-2.9-0.3-4.3,2.8-4.9
					c2.3-0.5,7-2,9.3-1.1c-1.2-0.9-2.4-1.8-3.6-2.7c1,1.5,1,4.2,1.4,6c0.6,2.6,1.3,5.3,2,7.9c1.4,4.9,3.2,9.7,5.2,14.5
					c1.9,4.6,4,9,5.2,13.9c0.5,2.2,0.9,4.5,1.8,6.6c0.4,0.9,0.9,1.8,1.5,2.6c0.3,0.4,0.6,0.8,0.9,1.2c0.7,1,0.7,0.7,0-0.9
					c1-1.7,2-3.4,3-5.1c-2.3,1.7-6.2,3.1-9,3.1c1.4,0.6,2.8,1.2,4.2,1.7c1.2,1.4,0-3.1-0.3-3.7c-0.8-1.7-2.2-3.1-4-3.9
					c-4.2-1.7-10.3-0.4-14.7-0.3c-4.2,0.1-9.7-0.6-13.7,0.8c-5.4,1.9-4.6,7.7-4.7,12.3c2.5-1.9,5-3.8,7.5-5.7c-3.2-1.1-7-2-9.9-3.7
					c0.9,1.2,1.8,2.4,2.7,3.6c-0.9-3.6,2.9-9.3,4.3-12.5c2-4.3,3.9-8.7,5.8-13C315.7,61.5,305.5,55.5,302.3,62.5L302.3,62.5z"/>
			</g>
		</g>
		<g>
			<g>
				<path class="st2" d="M404.3,53.1c-0.2,0.5-4.5,1.2-5.1,1.4c-1.8,0.6-3.4,1.5-5,2.5c-3.7,2.6-7.3,5.4-10.9,8.2
					c-6.1,4.5-0.1,14.9,6,10.3c4.7-3.6,9.7-8.5,15.4-10.2c5.3-1.5,9-3.8,11.1-9.1C418.5,49.1,407,46,404.3,53.1L404.3,53.1z"/>
			</g>
		</g>
		<g>
			<g>
				<path class="st2" d="M414.5,50.1c-0.3-1.5-0.5-2.8-0.7-4.3c-0.4-5.5-8.1-8.6-11.1-3c-2.9,5.4-7.2,8.7-13.2,10
					c1.5,3.6,3.1,7.2,4.6,10.9c3.7-2.8,7.5-5.5,11.2-8.3c-2.4-3.1-4.8-6.2-7.2-9.4c-2.7,3.3-5.5,6.4-8.4,9.5c-1,1.1-2.2,2.9-3.6,3.6
					c1.5,0.9,1.5,0.6,0.1-0.8c-0.6-1-0.9-2-0.9-3.1c-0.3-6,5.6-15.4,0.4-20.5c-2.3-2.2-5.2-2.1-8.1-1.4c-3.8,0.9-7.8,2-11.5,3.3
					c-8.2,2.9-5,12-4.5,18.7c0.6,8.8,0.6,17.5,0.5,26.3c0,3.9-0.1,7.8,0,11.7c0,3.5-0.6,7.8,1.2,10.9c3,5.5,11.7,5.3,16.1,1.7
					c5.6-4.7,3.7-16.6,3.5-23c-3.7,1-7.4,2-11.1,3c2.3,3.6,4.7,7.3,7.9,10.1c3.1,2.6,6.9,4.7,10.2,7c3.1,2.1,6.8,3.2,10.5,2.1
					c3.4-0.9,5.7-3.9,9-4.8c6.2-1.8,5.3-12.5-1.6-11.7c-5.1,0.6-7.1-0.3-10.4-4.2c-3-3.6-5.6-7.5-7.9-11.6c-4.4-8-7-16.7-8.3-25.8
					c-0.4-2.9-3.9-4.6-6.5-4.3c-3.2,0.4-4.8,2.9-5.2,5.9c-1.5,11.6-0.9,23.2,1.5,34.7c1.6,7.5,13.1,4.3,11.5-3.2
					c-2.2-10.4-2.5-20.9-1.1-31.5c-3.9,0.5-7.8,1.1-11.7,1.6c1.6,11.6,5.7,22.9,12,32.9c2.9,4.6,6.3,9.5,10.4,13.2
					c4.5,4.2,9.7,5.1,15.7,4.3c-0.5-3.9-1.1-7.8-1.6-11.7c-2.5,0.7-4.6,2-6.8,3.5c-2.4,1.6-2.2,1.4-4.6-0.4
					c-2.1-1.6-4.6-2.7-6.7-4.3c-2.6-2-4.4-5-6.1-7.7c-3.1-4.8-11.2-3.1-11.1,3c0.1,3.8,0.1,7.6,0,11.4c0,0.9-0.1,1.9-0.1,2.8
					c-0.3,1.6,0.2,1.4,1.5-0.6c-0.4,0-0.8,0-1.2,0.1c2.4,3.5,3.4,3.7,2.9,0.7c0.9-2.9,0-7.6,0-10.7c0-3.9,0.1-7.8,0.1-11.7
					c0-7.5-0.1-14.9-0.8-22.4c-0.2-1.8-0.1-4.1-0.6-5.8c-0.1-0.6-0.2-1.3-0.2-1.9c-2.2,2.8-2.1,3.6,0.4,2.4c2.9,0.1,6.7-2.2,9.7-2.6
					c-1.5-0.2-3.1-0.4-4.6-0.6c0.2,0.1,0.4,0.2,0.6,0.3c-0.9-1.2-1.8-2.4-2.7-3.6c0.4,2.4-1,6.2-1.5,8.6c-0.5,2.6-1,5.1-0.8,7.7
					c0.4,5,3.2,10.4,7.5,13c10.3,6.2,20-8.8,25.4-15.4c4-4.8-1.4-13.7-7.2-9.4c-3.7,2.8-7.5,5.5-11.2,8.3
					c-5.3,3.9-2.3,12.4,4.6,10.9c8.7-2,16.1-7.6,20.3-15.5c-3.7-1-7.4-2-11.1-3c0.2,2.5,0.5,5,1.1,7.5
					C404.8,60.7,416.2,57.6,414.5,50.1L414.5,50.1z"/>
			</g>
		</g>
		<g>
			<g>
				<path class="st2" d="M435.7,56.4c-2,1.5-4.4,2.3-6.8,2.4c2,2,4,4,6,5.9c0-2.6-0.1-5.3-0.1-7.9c0-0.6,0-1.2,0-1.8
					c0.2-1.3-0.2-1.3-1.3,0c-3.6,1.3,0.6,0.5,1.3,0.4c5-1,9.9-2.7,14.7-4.3c4.5-1.6,9.2-3.2,13.9-3.8c5-0.7,10.1-0.1,14.9-1.8
					c-2.4-2.4-4.9-4.9-7.3-7.3c-1.6,5.1-2.5,10.2-3,15.5c2-2,4-4,5.9-5.9c-8,0.2-15.9,0.7-23.9,1.5c0,4,0,7.9,0,11.9
					c7.7-1,13.4-2.6,18.8-8.3c-1.4,0.6-2.8,1.2-4.2,1.7c0.2,0,0.5-0.1,0.7-0.1c-1-3.7-2-7.4-3-11.1c-9.3,4.5-19.4,7.3-29.7,8.2
					c-5.5,0.5-8.6,8.1-3,11.1c2.8,1.5,6.7,2.8,9.1,4.9c1.5,1.3,0.6-0.3,0.8,1.5c0.2,1.9,0.1,3.9,0.2,5.9c0.2,7.5,0.4,15,0.6,22.5
					c0.1,3.6,3.8,7.1,7.5,5.7c3.9-1.4,8.6-2.4,12.1-4.8c3.7-2.5,4-6.4,4.3-10.6c0.4-5.2,0.6-10.3,0.6-15.5c0-4.4,0.6-10-0.9-14.2
					c-1.3-3.7-5-5.9-8.9-5.1c-4.1,0.8-6.2,4.4-7,8.2c-2,10.3-2.4,21.1-3.1,31.5c-0.5,7.6,11.4,7.6,11.9,0c0.4-5.6,0.8-11.2,1.4-16.9
					c0.3-2.9,1.2-6.4,1-9.3c0.1-0.6,0.2-1.2,0.2-1.9c-2.3-1-4.6-2-6.9-3.1c-0.4,0.3,0.2,4.4,0.2,4.8c0.2,5.8,0.1,11.6-0.3,17.4
					c-0.1,1.3-0.2,2.6-0.3,3.9c-0.1,0.7-0.1,1.5-0.2,2.2c0.4-0.5,0.8-1.1,1.3-1.6c0,0.1-8,2.9-8.7,3.2c2.5,1.9,5,3.8,7.5,5.7
					c-0.3-9.8-0.2-19.6-0.8-29.4c-0.6-9.4-8.4-11.8-15.7-15.7c-1,3.7-2,7.4-3,11.1c12.5-1.1,24.4-4.3,35.7-9.8
					c5.1-2.5,2.8-11.8-3-11.1c-3.5,0.4-4.4,1.8-6.9,4c-2.2,1.9-5.7,2.3-8.4,2.6c-7.4,1-7.7,12.7,0,11.9c7.9-0.8,15.9-1.3,23.9-1.5
					c3.4-0.1,5.6-2.7,5.9-5.9c0.4-4.2,1.3-8.3,2.6-12.3c1.3-4.1-3.1-8.9-7.3-7.3c-5.4,2-11.8,1.1-17.5,2.3
					c-6.1,1.3-11.9,3.7-17.9,5.6c-4.5,1.4-11.7,1.4-15,5.2c-3.6,4.2-1.9,12.6-1.8,17.7c0.1,3.1,2.7,6.2,6,5.9
					c5.9-0.4,10.6-2.3,15.2-5.9C450.1,60.1,441.7,51.7,435.7,56.4L435.7,56.4z"/>
			</g>
		</g>
		<text transform="matrix(1 0 0 1 29.4717 100.0353)" class="st3 st6">KONTAKT</text>
	</g>
</g>
</svg>
