<?xml version="1.0" encoding="utf-8"?>
<!-- Generator: Adobe Illustrator 25.2.3, SVG Export Plug-In . SVG Version: 6.00 Build 0)  -->
<svg version="1.1" xmlns="http://www.w3.org/2000/svg" xmlns:xlink="http://www.w3.org/1999/xlink" x="0px" y="0px"
	 viewBox="0 0 399.5 225" style="enable-background:new 0 0 399.5 225;" xml:space="preserve">
<style type="text/css">
	.st0{display:none;}
	.st1{display:inline;}
	.st2{fill:#1CBF03;}
	.st3{font-family:'Dynamix';}
	.st4{font-size:72px;}
</style>
<g id="Layer_1">
	<g id="Layer_1_1_" class="st0">
		<g class="st1">
			<g>
				<path class="st2" d="M-114.4,225.5c3.3-6.4-0.3-13.7-0.2-20.4c0.1-7.7-11.8-6.8-11.9,0.9c0,3,0.7,5.7,1.1,8.6
					c0.2,1.4,0.9,4.4,0.2,5.7C-128.5,227.1-117.8,232.3-114.4,225.5L-114.4,225.5z"/>
			</g>
		</g>
		<g class="st1">
			<g>
				<path class="st2" d="M-117.1,229.3c5-1.5,10.7-3.5,14.7-7.1c1.6-1.5,2.4-3.4,3.9-4.9c1.9-2,3.6-3.1,5.1-5.5
					c-3.8-0.7-7.5-1.5-11.3-2.2c0,3.1-5,4.7-7.1,5.8c-3.3,1.6-6,3.3-8.7,5.8c-4.1,3.7,0.3,10,4.9,9.8c5.1-0.2,11.4-0.7,15.8-3.6
					c3.6-2.3,5.8-6.8,8.6-10c5.5-6.5,11.8-17.8,7.6-26.4c-4.6-9.2-16-10.3-25-8.9c-5.2,0.8-10.2,2.3-15,4.7
					c-2.5,1.2-4.7,3.1-7.1,4.2c-2.1,1-4.5,0.5-6.7,1.5c-4.3,1.9-5.8,8.9-0.6,11c3,1.2,5.7,1.8,8.9,1.1c-2.1-2.4-4.2-4.7-6.3-7.1
					c-0.7,2.6-1.7,5.1-2.9,7.5c3.1-0.6,6.2-1.2,9.2-1.9c-0.2-0.3-0.4-0.5-0.6-0.8c-2.8-5.5-12.3-4.9-11.5,2.4
					c1,9.7,1.6,19.5,1.7,29.3c0,6.9-3.2,19.9,5.3,23.1c3.9,1.5,6.5-0.7,9.5-2.7c3.3-2.2,7.4-2.6,10-5.7c2.6-3,2.5-6.8,2.3-10.6
					c-0.3-4.9-0.6-9.9-0.8-14.8c-0.5-7.8-11.6-6.6-11.9,0.9c-0.2,7.4-2.7,18.4,2.5,24.6c2.5-2.9,5-5.8,7.5-8.7
					c-1.8-1-5.4-1.3-6.9-2.7c-1.5-1.4-0.9-7.4-1.1-9.5c-0.3-4-0.6-8-0.9-11.9c-0.3-3.4-1.4-8-0.8-11.3c-1.3,1.5-2.6,3-3.8,4.4
					c2.3-1,5.5-0.5,8-0.9c3.1-0.4,6.2-1.2,9.3-2c6-1.6,11.8-3.3,18.1-3c-2.1-1.8-4.2-3.7-6.4-5.5c0-1.6-0.4-0.5-1.6,0
					c-1,0.5-2,1.1-3,1.8c-6.3,4.4,0.4,14.2,6.7,9.8c5.1-3.6,9.6-5.3,9.6-12.4c0-3.5-3.4-5.4-6.4-5.5c-8.9-0.4-17,3.2-25.6,4.7
					c-4.1,0.7-9,0.1-12.9,1.8c-4.3,1.9-4.2,5.9-3.9,10c0.7,9.8,1,19.8,2.3,29.6c0.5,3.7,1.6,6.9,4.7,9.3c2.7,2.1,6.2,2.5,9.1,4.1
					c5,2.7,11.4-4.1,7.5-8.7c-1.6-2-0.8-5.5-0.7-7.9c0.1-3.6,0.2-7.2,0.3-10.8c-4,0.3-7.9,0.6-11.9,0.9c0.2,3.1,0.4,6.2,0.5,9.2
					c0.1,1.4,1.2,6.3,0.5,7.5c-0.8,1.4-5.9,2.3-7.4,3.6c-0.5,0.4-0.9,0.7-1.4,1.1c3.4,3.7,5.1,4.3,4.9,1.9c0.4-1,0.1-3.6,0.1-4.6
					c0.4-13-0.2-26.1-1.6-39c-3.9,0.8-7.7,1.6-11.5,2.4c1.1,2.3,2.3,4,4,5.8c2.6,2.9,7.7,1.3,9.2-1.9c1.6-3.4,2.9-6.8,3.9-10.4
					c1-3.4-2.6-7.8-6.3-7.1c-0.9,0.4-1.9,0.4-2.8,0c-0.2,3.7-0.4,7.3-0.6,11c2.6-1.2,5.5-0.7,8.2-2.2c3-1.7,5.6-3.7,8.9-5.1
					c5.3-2.2,15.3-5.4,20.6-1.8c4.5,3-1.9,12-4.4,14.9c-1.9,2.2-3.5,4.5-5.3,6.7c-2.4,2.9-7.4,2.7-10.9,2.8c1.6,3.3,3.3,6.6,4.9,9.8
					c3.9-3.5,9.5-4.5,13.5-8.1c3.6-3.2,5.3-7.3,5.2-12.1c-0.1-6.5-8.4-6.7-11.3-2.2c-0.8,1.3-2.9,2.2-4,3.5c-0.8,1-1.2,2.4-2.1,3.3
					c-2.6,2.7-7.6,3.8-10.9,4.8C-128.4,220.2-124.4,231.4-117.1,229.3L-117.1,229.3z"/>
			</g>
		</g>
		<g class="st1">
			<g>
				<path class="st2" d="M-43.4,237.7c2.5,3.8,6.4,6.6,11.1,6.2c2.1-0.2,3.9-1.1,5.5-2.3c1.2-1,2.4-3.4,3.7-3.9
					c4.5-1.8,5.5-8.8,0.6-11c-4-1.7-10.1-3.1-13.4-6c-1.6-1.4-1-1.7-1.2-3.5c0.1,0.6-2.1,1.2,0.4,0.1c2.3-1,4.5-2.2,6.6-3.5
					c8.8-5.2,11.4-13.1,11.2-23.1c-0.1-7.7-12-6.8-11.9,0.9c0,2.7,0,6.1-1.3,8.6c-1.2,2.2-4.1,3.5-6.2,4.6
					c-4.9,2.7-9.4,3.9-10.5,10.1c-2.5,14.2,10.5,18,21,22.5c0.2-3.7,0.4-7.3,0.6-11c-1.9,0.8-3.4,1.7-4.9,3.2
					c-0.5,0.6-1,1.3-1.6,1.8c-0.5,0.5,1.1,1.4-0.1-0.5C-37.8,224.6-47.7,231.3-43.4,237.7L-43.4,237.7z"/>
			</g>
		</g>
		<g class="st1">
			<g>
				<path class="st2" d="M-19.1,189.8c-0.3-25.9-40.1-17.3-52.6-6.1c-5.6,5,1,14.9,6.7,9.8c4.4-3.9,12.3-7.4,18.1-8.1
					c3.6-0.4,7.4-0.5,11.1-0.2c4,0.3,4.8,1.5,4.9,5.4C-30.9,198.3-19,197.4-19.1,189.8L-19.1,189.8z"/>
			</g>
		</g>
		<g class="st1">
			<g>
				<path class="st2" d="M-75.1,191.2c2.2,17.4,3.5,34.8,3.7,52.3c0.1,3.7,4.5,6.7,7.9,5.2c4.6-2,11-3.9,12.6-9.1
					c1.8-5.9,0.3-13.2-1.1-19.1c-0.7,2.3-1.5,4.6-2.2,6.9c0.3-0.2,0.6-0.3,0.9-0.5c-1.5,0.3-3,0.6-4.5,0.9c1.9,0.2,4.1,6.8,5.1,8.1
					c1.8,2.4,4.5,3.4,7.4,2.6c7.1-1.8,5.6-10.7,4-16c-1-3.2-2.4-6.1-3.7-9.2c-0.7-1.6-1.8-3.7-1.9-5.5c-0.1-1.3-0.4-0.9,1.5-2.2
					c4.9-3.6,10.4-5.4,14.3-10.4c-3.5-1.7-6.9-3.4-10.3-5.1c-1.2,5.5-2.5,12.7-8.4,15c1.8,3.5,3.6,7,5.4,10.5
					c7-5.7,17-11.3,15.7-21.8c-0.5-4.1-2.3-10.7-5.2-13.7c-3.1-3.2-9.4-2.9-13.5-2.4c-9,1-17.5,6.5-18.9,16
					c-0.7,4.7,0.1,9.7,0.4,14.4c0.4,6,0.9,11.9,1.3,17.9c0.5,6.6,10.6,7.5,11.8,0.7c0.9-5.5,1.9-11.1,3-16.6c0.5-2.5,1-4.9,1.6-7.3
					c0.4-1.5,2.4-6.3,0.9-6.7c7.4,2,9.7-9.7,2.3-11.7c-8.4-2.3-12.3,5.8-14,12.5c-2.4,9.1-3.9,18.3-5.4,27.6
					c3.9,0.2,7.9,0.5,11.8,0.7c-0.6-8.7-1.6-17.4-1.9-26.1c-0.1-3.8,0.3-6.7,4.1-8.5c3.1-1.5,7.7-1.6,11-0.6
					c-1.3-0.8-2.5-1.6-3.7-2.5c1.8,2.9,3.8,7.9,1.3,10.7c-2.5,2.9-6.4,5.2-9.4,7.6c-4.9,4-1.3,13.2,5.4,10.5
					c10.3-4.1,13.8-13.9,16.1-23.9c1.3-5.7-6.6-9.7-10.3-5.1c-5,6.2-15.7,7.4-18.5,15.6c-1.5,4.3,0.4,9.4,2,13.5
					c0.9,2.3,6.1,11.1,4.6,13.5c1.1-1,2.2-2,3.4-3c-0.3,0.1-0.5,0.1-0.8,0.2c2,0.4,3.9,0.7,5.9,1.1c-0.3-0.2-1.7-3.3-2.3-4.4
					c-1.2-2-2.7-4.1-4.6-5.6c-3.3-2.8-6.9-2.8-10.6-0.9c-2.5,1.3-2.8,4.6-2.2,6.9c0.7,3,1.6,6.9,1.1,10c-0.2,1.3,1.4,0.3-1,1
					c-1.5,0.4-2.9,1.3-4.3,2c2.6,1.7,5.3,3.5,7.9,5.2c-0.3-17.5-1.5-34.9-3.7-52.3C-64.2,182.7-76,183.5-75.1,191.2L-75.1,191.2z"/>
			</g>
		</g>
		<g class="st1">
			<g>
				<path class="st2" d="M13.8,192.9c-4.7,3.1-11.1,7.1-14,12c-3,5.1-2,12.4-1.6,18.1c0.3,4.9,7.2,7.6,10.4,3.5
					c3.9-5,6.4-10.5,7.7-16.7c1.5-7-7.8-9.2-11.2-3.8c-4.8,7.7-4.4,17.7,1,25c5,6.8,16.4,7.2,23.4,3.7c8.2-4.1,10-15.2,10.6-23.5
					c0.3-4.9,0-9.1-3-13.1c-2.6-3.4-5.7-6.5-9.6-8.4c-6.9-3.4-12.1,7.3-5.3,10.7c3.7,1.8,6.2,5.1,6.1,9.2
					c-0.1,3.8-0.7,10.7-3.3,13.7c-2,2.2-7.7,2.4-9.5,0.2c-3-3.7-2.1-8.4,0.2-12.1c-3.7-1.3-7.5-2.5-11.2-3.8
					c-0.9,4.2-2.5,7.8-5.1,11.2c3.5,1.2,7,2.3,10.4,3.5c-0.2-3.2-1.4-8.8,0.3-11.5c2-3.1,7-5.8,10.1-7.9
					C26.9,198.4,20.2,188.6,13.8,192.9L13.8,192.9z"/>
			</g>
		</g>
		<g class="st1">
			<g>
				<path class="st2" d="M21.3,188.1c-6.8,0.1-16.6,1.2-21.7,6.2c-5.2,5-5.5,14.9-5.7,21.7c-0.2,7.1-0.1,16.2,4.2,22.3
					c4,5.7,11,6.8,17.4,7.3c7.6,0.5,13.3-1.4,19.5-5.7c5.4-3.7,10.1-8.5,11.8-15c1.9-7.5,1.2-17.1,0-24.7
					c-1.2-7.5-3.8-14.9-9.3-20.4c-5.4-5.3-13.5-7.8-20.8-5.5c-8.3,2.7-12.9,10.5-16.4,18c-3.3,6.9,7.4,12.2,10.7,5.3
					c2.1-4.4,4.8-11.1,10.3-12.2c5.7-1.1,10.1,4.6,11.9,9.2c2.3,5.9,2.5,12.3,2.6,18.6c0.1,6.2,0,11-5.1,15.1
					c-4.4,3.6-8.7,5.8-14.5,5.4c-2.1-0.1-4.9-0.2-6.8-1.2c-2.4-1.3-2.7-4-3-6.5c-0.9-6.4-0.7-13,0.5-19.3c0.7-3.8,1.8-4.5,5.5-5.6
					c3.3-1,6.5-1.3,9.9-1.3C29.8,199.9,28.9,188,21.3,188.1L21.3,188.1z"/>
			</g>
		</g>
		<g class="st1">
			<g>
				<path class="st2" d="M23.7,194.3c0.3-0.3,0.6-0.6,0.8-0.8c0.5-0.6,0.6-0.6,0.1,0c-1,0.3-2,0.7-2.9,1c-1.6-0.5-1.9-0.5-0.9-0.1
					c0.2,0.1,0.4,0.2,0.6,0.3c0.7,0.3,0.3,0.1,1.1,0.8c0.3,0.2,1.2,1.1,1.1,1c0,0,0.8,1.1,1.1,1.4c1.8,2.7,5.6,3.4,8.3,1.5
					c2.7-1.8,3.4-5.6,1.5-8.3c-2.1-3.1-4.8-5.6-8.1-7.3c-2-1-4.1-1.6-6.3-1.1c-2.3,0.6-3.8,2.1-5.4,3.8c-2.3,2.3-1.7,6.4,0.6,8.4
					C17.8,197.2,21.4,196.6,23.7,194.3L23.7,194.3z"/>
			</g>
		</g>
		<g class="st1">
			<g>
				<path class="st2" d="M78.8,183.8c-1.2,0.2-3.1,0.7-4.4,0.4c1.5,1.3,3,2.6,4.4,3.8c-0.2-0.6-0.4-2.4-0.1-2.9c-0.2,0-0.3,0-0.5,0
					c0.6-0.2,1.2-0.4,1.8-0.7c2.7-1.1,5.4-2,8.1-3c5.1-1.9,10.2-3.7,15.2-5.6c-2.5-1.2-5.1-2.4-7.6-3.6c0.9,3.6,0.6,8,0.8,11.7
					c0.2,3.9,0.5,7.8,0.7,11.7c0.2,3.9,0.5,7.8,0.7,11.7c0.2,3.6,0.7,5.4-2,8c-4.4,4.3-10.7,6.5-16.4,8.3c-2.5,0.8-6.8,2.2-9.2,0.1
					c-0.7-0.7-2-6.6-1-7.4c-3.1-1.5-6.2-3-9.3-4.5c0,5.1-1.2,12,1.8,16.6c2.9,4.4,8.3,5.2,13.1,4.6c4.5-0.6,7-5.4,4.5-9.3
					c-0.6-1-1.2-1.9-2-2.7c-1.5,3.1-3,6.2-4.5,9.3c1-0.2,2-0.4,3-0.6c5.2-1,8.2-8.7,2.2-11.3c-2-0.9-3.9-1.5-6-1.7
					c-6.1-0.6-10.6,8.7-3.8,11.2c12.3,4.5,24.8-1,31.6-11.8c6.1-9.6,5.7-25.8-1.3-34.9c-3.5-4.5-11.3-2.3-10.8,3.8
					c0.6,7.9,2.6,16.9,0.8,24.7c3.9,0.2,7.9,0.5,11.8,0.7c-0.5-9.3-0.5-19.2-2.8-28.3c-2.4-9.6-10.7-6.7-17-2.5
					c-5.6,3.7-1,12.9,5.4,10.5c3-1.1,6-2.1,9.1-3c7.4-2.1,3.4-13.3-4-11.2c-3.1,0.9-6.1,1.9-9.1,3c1.8,3.5,3.6,7,5.4,10.5
					c0.9-0.6,1.8-1.2,2.7-1.7c2-0.7,1.9-0.8-0.1-0.4c-1.5-1.3-3-2.6-4.4-3.8c1.8,3.9,1.7,9.4,2,13.6c0.4,4.7,0.7,9.5,0.9,14.2
					c0.4,6.9,10.3,7.2,11.8,0.7c2.1-8.9,0.2-18.8-0.6-27.9c-3.6,1.3-7.2,2.5-10.8,3.8c3.8,4.9,4.6,14.2,2.1,19.9
					c-2.7,6.2-10.4,11.8-17.3,9.3c-1.3,3.7-2.5,7.5-3.8,11.2c1.1,0,2.1,0.2,3.1,0.7c0.7-3.8,1.5-7.5,2.2-11.3c-1,0.2-2,0.4-3,0.6
					c-3.8,0.8-7.8,5.5-4.5,9.3c0.8,0.8,1.5,1.7,2,2.7c1.5-3.1,3-6.2,4.5-9.3c-0.5,0.1-2.2,0.5-2.6,0.2c1.2,0.8,0.5-1,0.4-2
					c0-2.8,0-5.6,0-8.4c0-4.3-5.9-7.3-9.3-4.5c-7.1,5.8-7.4,20.1-0.3,26.2c8.9,7.7,22.2,2.7,31.4-1.8c4.6-2.2,9-5,12.3-8.9
					c3.6-4.2,4.2-8.3,3.9-13.6c-0.4-6.8-0.8-13.6-1.2-20.4c-0.4-6.5-0.2-13.4-1.8-19.7c-0.8-3.1-4.8-4.6-7.6-3.6
					c-5.4,2-10.8,3.9-16.1,5.9c-4.3,1.6-11.9,2.7-14.6,6.8c-2.3,3.5-2.5,10.3-1.1,14.2c2,5.4,7.5,4.7,12.2,4.1
					C87.3,194.7,86.4,182.8,78.8,183.8L78.8,183.8z"/>
			</g>
		</g>
		<g class="st1">
			<g>
				<path class="st2" d="M160.7,226.8c8.9-0.4,10.5-6.1,12.4-13.8c1-4.4-3.7-8.4-7.8-6.8c-2.5,1-4,2.8-6.3,4.2
					c-2.2,1.3-5.1,2-7.6,2.4c-2.3,0.4-5.3,0.9-6.9-1.2c-1.1-1.3-1.9-6.8-1.4-7.5c-1.1,1-2.2,2-3.4,3c3.8-1.1,8.1-0.3,11.9-1.7
					c4.4-1.7,6.5-6.1,6.3-10.7c-0.2-4.5-3-7.3-7.5-7.5c-2.2-0.1-4.4,0.4-6.5,0.9c-0.9,0.2-3.2,0.6-4,1.2c-1.4,0.3-1,0.5,1.1,0.5
					c1.8,0.7,2.4,0.6,1.6-0.5c-0.8,1.3-1.6,2.5-2.5,3.7c5.9-4,13.7-4.9,20-8c2.7-1.4,4.8-3.3,5.7-6.3c1.2-3.8,0-7.8,0.9-11.6
					c-0.8,1.3-1.6,2.5-2.5,3.7c0.2-0.1,0.4-0.2,0.6-0.3c-2.9-2.5-5.8-5-8.7-7.5c0.5-0.9-1.3,0.2-1.9,0.4c-1.5,0.5-3,0.9-4.5,1.4
					c-3,0.9-6,1.8-9,2.7c-5,1.5-11.8,2.2-16.2,5.1c-4.6,3-3.1,9.5-3,14.2c0.2,6.3,0.6,12.6,1.4,18.9c0.8,6.9,9.8,7.1,11.8,0.7
					c1.3-4.2,2.6-8.5,4.6-12.4c1.9-3.7,4.6-6.8,6.6-10.3c3.2-5.7-4-10.1-8.7-7.5c-4.3,2.4-6,6.5-6.1,11.2
					c-0.2,7.7,11.7,6.7,11.9-0.9c-0.4,0.3-0.1,0.1,1-0.5c-2.9-2.5-5.8-5-8.7-7.5c-2.3,4-5.3,7.5-7.3,11.8c-2.1,4.4-3.5,9.2-4.9,13.9
					c3.9,0.2,7.9,0.5,11.8,0.7c-0.5-4.4-0.9-8.8-1.1-13.2c-0.2-4-1.1-8.8-0.4-12.7c-0.8,1.3-1.6,2.5-2.5,3.7
					c2.9-1.5,7.1-1.9,10.3-2.9c3.3-1,6.6-2,9.9-3c6-1.8,12.3-2.9,15.8-8.6c3.5-5.7-4.1-9.9-8.7-7.5c-2.6,1.3-3.2,3.8-3.4,6.5
					c-0.2,1.8-0.2,3.9-0.1,5.7c0.2,3.3,0.6,0.8-1.1,1.9c-2.8,1.7-7,2.5-10.1,3.7c-3.1,1.3-7.2,2.4-9.9,4.5c-5,3.8-2.9,11.4,0.7,15.4
					c2,2.2,4.2,3,7.1,2.6c2.8-0.4,6.2-2.8,9-1.9c-1.5-1.3-3-2.6-4.4-3.8c1.4-1,1.4-1.3,0.1-0.9c-0.8,0.1-1.6,0.2-2.4,0.2
					c-1.9,0.2-3.8,0.3-5.7,0.6c-2.6,0.5-4.9,1.6-6,4.1c-2.4,5.3-0.6,14.3,2.6,18.9c4,5.8,10.9,7.4,17.6,6.4c2.9-0.4,6-1.1,8.8-2.1
					c1.4-0.5,2.8-1.1,4-1.9c1.4-0.8,2.7-2.6,4.2-3.2c-2.6-2.3-5.2-4.5-7.8-6.8c-0.5,2,0,4.2-1.6,4.3
					C152.2,215.2,153.1,227.1,160.7,226.8L160.7,226.8z"/>
			</g>
		</g>
		<g class="st1">
			<g>
				<path class="st2" d="M126.1,211.4c-0.3,0.8-0.6,1.7-0.9,2.5c2.7-0.9,5.3-1.8,8-2.7c-0.2-0.1-0.4-0.2-0.6-0.3c1,1.1,2,2.2,3,3.4
					c-0.7-2.1-0.6-5.1-0.8-7.4c-0.7-6.3-11.3-7.7-11.8-0.7c-0.5,7.1-0.8,14.2-0.6,21.2c0.2,6,2.6,11.4,9.5,11.2
					c6.1-0.2,12.3-2.5,18-4.4c6.1-2,11.9-4.6,17.5-7.8c3.2-1.8,3.5-7.2,0.5-9.4c-5.4-4-13.3-1-19.4-0.1c-3.8,0.6-7.6,1.2-11.5,1.8
					c-3.1,0.5-7.8,2.1-10.9,1.8c0.7,3.6,1.5,7.2,2.2,10.7c2.6-1.6,5.2-3,8-4.2c7-2.9,3.1-14.2-4-11.2c-3.8,1.6-7.3,3.4-10.8,5.6
					c-4.1,2.6-2.9,10.2,2.2,10.7c6.1,0.7,12.9-1.4,18.9-2.3c3.2-0.5,6.4-1,9.5-1.5c1.9-0.3,3.8-0.6,5.7-0.9c0.6-0.1,1.3-0.2,1.9-0.3
					c2.5,0,2.5-0.4,0.2-1.2c0.2-3.1,0.3-6.3,0.5-9.4c-7.2,4.2-15,6.7-23,8.9c-0.6,0.2-6,1.2-6,1.2c2.4,2.7,3.2,2.7,2.6-0.1
					c0-1,0-2-0.1-2.9c-0.1-5,0.1-10.1,0.4-15.1c-3.9-0.2-7.9-0.5-11.8-0.7c0.5,4.7-0.2,11.9,5.1,14.1c2.7,1.1,6.8,0.4,8-2.7
					c0.3-0.8,0.6-1.7,0.9-2.5C139.5,209.5,128.8,204.2,126.1,211.4L126.1,211.4z"/>
			</g>
		</g>
		<g class="st1">
			<g>
				<path class="st2" d="M194.9,210.6c-0.2-7.5-0.7-15-1.5-22.4c-0.4-3.6-0.8-7.1-1.3-10.7c-0.4-3.1-1.8-7.4-1.3-10.6
					c-0.8,1.3-1.6,2.5-2.5,3.7c3.3-1.7,9.2-1.7,12.9-2.2c-2.1-2.4-4.2-4.7-6.3-7.1c-1.9,7.7-2.7,15.4-2.7,23.3
					c3.9-0.8,7.7-1.6,11.5-2.4c-1.8-4.3-3.7-8.6-5.5-13c-3-7-14.1-3.2-11.2,4c1.8,4.5,3.6,9.1,5.4,13.6c1.4,3.6,2.7,7.8,7,8.8
					c7.9,1.8,14.5-6.9,16.5-13.3c-3.9-0.8-7.8-1.6-11.7-2.3c-0.2,0.8-0.4,1.6-0.6,2.4c-1.5,5.7,6.8,9.7,10.3,5.1
					c2.8-3.6,5.9-6.6,9.7-9.2c3.5-2.3,6.2-4.4,8.4-7.9c-3.7-0.2-7.3-0.4-11-0.6c0.7,2.7,2,5.9,2.1,8.7c0.9-1.8,1.7-3.6,2.6-5.3
					c-3.3,2.9-8.2,4.8-12.1,6.9c-4.4,2.5-8.8,5-13.3,7.5c-6.7,3.8,0.1,13.6,6.7,9.8c7.5-4.2,14.9-8.4,22.4-12.6
					c3-1.7,5.6-3.3,5.5-7.1c0-3.8-1.8-8.1-2.7-11.8c-1.4-5.5-8.5-4.5-11-0.6c-1.6,2.6-6.1,4.3-8.5,6.3c-3,2.5-5.6,5.2-7.9,8.3
					c3.5,1.7,6.9,3.4,10.3,5.1c0.2-0.8,0.4-1.6,0.6-2.4c2-7.6-9.4-9.4-11.7-2.3c-0.5,1.7-2.2,3.7-4.1,3.9c1.4,0.5,2.9,1,4.3,1.4
					c0.6,1.3,0.7,1.3,0.2,0.1c-0.3-0.8-0.7-1.7-1-2.5c-0.6-1.4-1.1-2.8-1.7-4.2c-1.2-3.1-2.5-6.2-3.7-9.3c-3.7,1.3-7.5,2.7-11.2,4
					c1.8,4.3,3.7,8.6,5.5,13c2.7,6.3,11.5,4.3,11.5-2.4c0-6.8,0.9-13.5,2.5-20.1c0.9-3.6-2.5-7.6-6.3-7.1c-5.5,0.7-12.7,1-17.7,3.7
					c-5.1,2.7-3.9,8.6-3.2,13.4c1.8,12.6,3.1,25.1,3.5,37.8C183.2,219.2,195.1,218.3,194.9,210.6L194.9,210.6z"/>
			</g>
		</g>
		<g class="st1">
			<g>
				<path class="st2" d="M200.7,190.6c-1.6,4-2.8,8.4-1.7,12.7c1.2,4.7,5.2,7.3,8.8,10.2c7.2,5.9,15.1,11.2,24.8,9
					c6.5-1.4,4.2-12.9-2.4-11.5c-3.6,0.7-7.2,1.4-10.5,3.2c-0.9,0.4-1.8,1-2.6,1.6c0.3-0.3,0.2-0.5-0.3-0.8
					c-1.3-0.9-2.1-2.9-3.1-4.1c-2.4-3-5.2-5.6-8-8.2c-3.3-3.2-4.4-5.7-4.6-10.4c-4,0.3-7.9,0.6-11.9,0.9c0.4,5,0.8,10,1.2,15
					c0.3,4.4,1.7,9.9,1.2,14.2c0.8-1.3,1.6-2.5,2.5-3.7c0.9-0.7-2.6-0.2-2.8-0.4c1.9,1.3,1.2-3.1,1.2-3.7c0.4-7.6-11.5-6.7-11.9,0.9
					c-0.3,5.2,1,12.3,6.7,14.2c3.7,1.2,10.3,1.4,13.5-1.1c4.5-3.5,2.3-10.8,1.9-15.5c-0.5-6.9-1.1-13.7-1.6-20.6
					c-0.6-7.7-12.2-6.8-11.9,0.9c0.2,5.8,1.5,10.7,5.4,15.2c3.5,4.1,7.7,7.3,10.9,11.7c2.8,3.8,6.3,7.3,11.3,7.7
					c2.4,0.2,4.3-0.4,6.3-1.7c2.6-1.7,4.8-2.6,7.9-3.3c-0.8-3.9-1.6-7.7-2.4-11.5c-3.9,0.8-8.9-3.5-11.6-5.6
					c-1.6-1.3-3.8-2.6-5.1-4.1c-1.7-2-1.6-3.1-0.6-5.7C214.2,188.8,203.5,183.5,200.7,190.6L200.7,190.6z"/>
			</g>
		</g>
		<g class="st1">
			<g>
				<path class="st2" d="M255.8,178.6c-0.1,0.3-0.3,0.6-0.4,0.9c1.1-1,2.2-2,3.4-3c-3.7,1.3-8.7,1.2-12.6,1.7
					c2.1,1.8,4.2,3.7,6.4,5.5c-0.4-3.5-1.4-8.2-0.8-11.7c-0.8,1.3-1.6,2.5-2.5,3.7c3.2-2.2,7.8-3.2,11.5-4.4
					c4.1-1.3,8.3-2.5,12.6-3.6c8-2.1,16.9-3,24.3-6.9c-3.1-2-6.1-4-9.2-6.1c-1.2,4.2-2.1,8.5-2.6,12.9c1.8-1.6,3.6-3.2,5.4-4.8
					c-6.7,0.9-13.4,2.3-19.9,4.4c-6.7,2.2-12.5,4.4-19.7,4.1c-5.2-0.2-7.3,7.4-3.5,10.4c4.1,3.2,8.9,3.5,14,3.6
					c5.4,0.1,9.1-2.1,11.7-7c2.1-4,2.8-9.2-1.5-11.9c-4.7-3-11.5,0.5-15.9,2.6c-3.7,1.8-4.9,5.3-2.9,9c2.7,4.9,11.6,4.2,15.8,1.9
					c0.5-0.2,1.1-0.3,1.6-0.5c-1.6-2.7-2.2-3-1.7-1c0.1,1.2,0.7,2.7,1.3,3.6c0.8,1.1,1.8,1.8,3,2.2c0.4,0.2,0.8,0.3,1.2,0.3
					c2.2,0.2,2.1,0.1-0.3-0.2c-1-1.1-2-2.2-3-3.4c1.1,2.2,0,6.9,0.1,9.6c0.1,3.6,0.8,7,1.6,10.4c0.3,1.2,1.5,4.1,1,5.2
					c0.1,0,0.3,0,0.4-0.1c-0.7,0.2-1.4,0.5-2,0.7c-3.1,1.2-6,2.7-8.7,4.6c3.1,1.5,6.2,3,9.3,4.5c-0.5-11.9-1-23.9-1.5-35.8
					c-3.6,1.3-7.2,2.5-10.8,3.8c0.9,1.2,0.7,4.2,0.8,5.6c0.3,2.7,0.4,5.4,0.6,8c0.3,5,1.3,8.9,4.4,12.9c2.8,3.7,8,3.2,10.3-0.7
					c0.2-0.3,0.4-0.6,0.5-0.9c3.8-6.7-6.9-11.9-10.7-5.3c-0.2,0.3-0.4,0.6-0.5,0.9c3.4-0.2,6.8-0.5,10.3-0.7c-5.6-7.4,0-19-5.8-26.6
					c-3.6-4.7-11.1-2.2-10.8,3.8c0.5,11.9,1,23.9,1.5,35.8c0.2,4.6,5.7,6.9,9.3,4.5c4-2.7,9.5-3.4,12.8-7c3.8-4.1,2.7-9.8,1.6-14.7
					c-1.4-6.3-1.1-12-1.5-18.4c-0.1-2.2-0.5-4.3-2-6c-0.7-0.8-1.5-1.3-2.4-1.7c-0.5-0.2-4.4-0.9-2.4-0.5c1.5,1.3,3,2.6,4.4,3.8
					c-1.7-3.7-1.5-7.4-6.2-9c-2.1-0.7-4.3-0.4-6.4,0.1c-1.1,0.3-2.1,0.7-3.2,1c-0.8,0.3-1.6,0.5-2.4,0.7c-1.4,0.1-1.3,0.7,0.4,1.9
					c-1,3-1.9,6-2.9,9c1.4-0.7,2.8-1.3,4.3-1.9c0.6-0.2,1.2-0.4,1.8-0.6c1.5-0.2,1.2-0.7-0.8-1.3c-0.7-1.4-1.4-2.7-2-4.1
					c0.1-1.2-0.3,0.3-0.5,0.7c-0.3,0.4-0.6,0.7-0.8,1.1c1.2-0.6,1.2-0.9,0-0.7c-1.8-0.7-4.7,0.5-6.3-0.7c-1.2,3.5-2.3,7-3.5,10.4
					c13.6,0.5,26.2-6.7,39.6-8.5c2.4-0.3,5.1-2.1,5.4-4.8c0.5-4.4,1.4-8.6,2.6-12.9c1.6-5.6-5.1-8.2-9.2-6.1
					c-5.2,2.7-12.3,3.2-17.9,4.6c-6,1.5-12,3.1-18,5c-4.3,1.4-11.4,2.8-14.1,6.8c-2.8,4.2-0.9,12.2-0.4,17c0.3,3.1,3.1,5.9,6.4,5.5
					c6-0.7,16.5,0.3,19.5-6.2C269.8,176.9,259.1,171.7,255.8,178.6L255.8,178.6z"/>
			</g>
		</g>
		<g class="st1">
			<g>
				<path class="st2" d="M348.9,209.8c4.4-2.1,9.6-5,10.3-10.4c0.7-5.7-5.2-10.6-10.4-7c-1.9,1.3-2.7,3.3-4.6,4.6
					c-2,1.5-3.9,2.6-4.8,5.1c-2,6.1,4.1,10.1,9.5,9.7c-1.6-3.3-3.3-6.6-4.9-9.8c-3.2,3.7-8.7,5.5-13.2,6.9c-4.2,1.3-11,3.4-15.4,2.5
					c1.5,1.3,3,2.6,4.4,3.8c-0.4-1.1-0.2-2.9-0.3-4c-1.3,2-2.6,4-3.9,6c5.3-1.3,11-0.8,16.4-2c4.7-1,11-1.8,14.9-4.6
					c2.1-1.4,3.2-4.5,2.2-6.9c-1.6-4-5.5-6-9.7-6c-4.4,0-9.3,2.7-12.9-1.1c0.7,1.4,1.4,2.7,2,4.1c0-1.3,0.3-4.1,1.2-4.9
					c1.3-1.2,4.1-1.7,5.6-3.1c3.6-3.2,5.2-7.7,4.8-12.4c-0.2-2.5-2.2-5-4.8-5.4c-2.6-0.4-7.4,0.1-8.9-0.4c1.3,0.8,2.5,1.6,3.7,2.5
					c-2.4-3.2,1-3.8,3.5-4.2c3.5-0.6,7.2-0.8,10.4-2.6c6.3-3.5,4.9-10.8,6.6-16.8c2.1-7.4-9.6-9.6-11.7-2.3
					c-0.8,2.8-1.4,5.6-1.5,8.5c-0.1,3.2-0.3,0.5,0.4,0.4c-1.6,0.1-3.4,0.7-5,0.9c-4.8,0.7-9.6,2.1-12.8,6
					c-3.5,4.3-3.1,10.2-0.7,14.9c3.1,6.1,8.2,3.9,13.8,4.8c-1.6-1.8-3.2-3.6-4.8-5.4c0.4,3.9-5.7,4.3-7.9,7
					c-2.6,3.2-3.9,8.6-3.7,12.7c0.2,4.9,4.8,7.6,9.1,8.9c2.2,0.7,4.5,1,6.8,0.9c1.1,0,2.1-0.3,3.1-0.4c0.8-0.2,1.6-0.3,2.4-0.5
					c1.4,0.1,1.4-0.6-0.2-2c0.7-2.3,1.5-4.6,2.2-6.9c-1.5,1.1-4.8,1.4-6.6,1.9c-2.6,0.7-5.2,1.3-7.8,1.6c-4.8,0.7-9.5,0.5-14.2,1.7
					c-2.5,0.6-4.1,3.6-3.9,6c0.3,4.4,0.2,9.5,5.4,10.9c4.3,1.1,10.1-0.3,14.3-1.2c9-1.8,19.5-4.9,25.6-12.1
					c3.3-3.9,0.3-10.3-4.9-9.8c0.9,0.7,1.7,1.4,2.6,2.1c-0.1,1.5-0.2,3.1-0.3,4.6c-0.8,1.2-0.4,0.7,0.6,0.2c1-0.5,1.9-1.4,2.7-2.1
					c0.7-0.6,1.3-1.3,1.8-2c0.3-0.4,0.5-0.8,0.8-1.2c0.7-1,0.5-0.9-0.4,0.5c-2,0.1-4,0.3-6,0.4c0.2,0.1,0.4,0.2,0.6,0.3
					c-1-1.1-2-2.2-3-3.4c-0.8-2.9-0.3-2-2.6-0.9C338.1,201.8,342,213.1,348.9,209.8L348.9,209.8z"/>
			</g>
		</g>
		<g class="st1">
			<g>
				<path class="st2" d="M346,151.5c-6.2-5-12-1.6-18.4,0.8c-3.9,1.5-7.9,2.4-11.9,3.6c-3.2,1-7.1,1.8-9.1,4.8
					c-1.9,2.9-1.3,6.9-1.1,10.1c0.3,4.3,0.5,8.6,0.8,13c0.5,8.5,1.7,17.3,0.7,25.8c-0.8,7.5,10.6,10,11.7,2.3
					c1.9-14,4.2-27.9,6.8-41.7c-3.9-0.2-7.9-0.5-11.8-0.7c0.4,7.8,0.8,15.6,1.8,23.3c0.5,4.1,4.1,6.2,7.9,5.2
					c0.2-0.1,0.5-0.1,0.7-0.2c7.4-2,3.4-13.2-4-11.2c-0.2,0.1-0.5,0.1-0.7,0.2c2.6,1.7,5.3,3.5,7.9,5.2c-1-7.7-1.4-15.5-1.8-23.3
					c-0.3-6.7-10.6-7.3-11.8-0.7c-2.6,13.9-4.8,27.8-6.8,41.7c3.9,0.8,7.8,1.6,11.7,2.3c0.9-7.7,0.3-15.3-0.2-23
					c-0.2-4-0.5-8-0.7-12c-0.2-3.4-1.4-8.4-0.5-11.8c-0.8,1.3-1.6,2.5-2.5,3.7c3.4-2.2,8.6-2.7,12.5-3.9c1.1-0.3,10.6-4.6,10.9-4.4
					C344.1,165.3,351.9,156.3,346,151.5L346,151.5z"/>
			</g>
		</g>
		<g class="st1">
			<g>
				<path class="st2" d="M408.4,167c-4.9,3.9-10.3,7.6-14.9,11.9c-3.9,3.7-4.5,9.1-1.3,13.4c1.4,1.9,3.5,2.8,5.2,4.3
					c1.9,1.6,3,3.9,5,5.4c3.8,3.1,10.5,6,15.3,3.8c6.8-3.3,3-14.4-4-11.2c-1.4,0.6-9,3.7-8.8,5.9c4,1.1,5.3,0.9,3.7-0.6
					c-0.5-0.6-1-1.2-1.5-1.7c-1.1-1.1-2.3-2.1-3.5-3c-3.4-2.5-7-4.8-10.6-7.2c-2.5-1.7-4.8-3.4-8-2.7c-6.3,1.4-7.5,12.2-3.9,16.7
					c0.8,2,1.2,0.8,1.1-3.6c-1.2,0.3-2.3,0.6-3.5,0.9c-1.6,0.5-3.2,0.9-4.8,1.7c-3.2,1.6-5.6,3.9-7.2,7.1c-2.6,5.1,2.6,9.3,7.3,8.2
					c5.8-1.3,11-3.4,16.2-6.3c3.9-2.2,3.1-8.6-0.7-10.3c-1.1-0.5-11.5-4.6-12-3.5c1.9,2.6,2.6,2.7,2,0.1c-0.1-0.9-0.1-1.9-0.2-2.8
					c-0.2-2.2-0.3-4.3-0.5-6.5c-0.4-4.9-0.7-9.9-1.1-14.8c-0.1-1.8-0.3-3.6-0.3-5.4c0-0.8,0.5-6.6-0.6-5.2c0.8-1,4.4-1.7,5.6-2.4
					c1.5-0.9,2.5-1.7,4.1-2.3c4.3-1.6,9.7-2.9,14.2-3.2c2.6-0.1,6.8,0,8.4,2.5c1.7,2.7,0.7,8.4-1.8,10.2c3,1,6,1.9,9,2.9
					c-2.3-6.1-1.9-15.4-9.5-17.6c-3.4-1-7.5-0.2-11,0c-3.3,0.2-6.8,0.1-9.7,1.8c-1.5,0.9-2.4,2.2-3.8,3.3c-1.3,1-2.6,1.4-4,2.2
					c-3.2,1.9-4.4,4.2-4.8,7.8c-0.9,8.8,1.5,17.6,0.5,26.4c-0.6,5.7,6.2,9.8,10.3,5.1c3.8-4.4,7.3-9.2,10.2-14.3
					c2.6-4.5,4.5-10.8,9.9-12.5c-2.6-1.7-5.3-3.5-7.9-5.2c0.1,3-6.8,5.7-9,4.4c1,1.1,2,2.2,3,3.4c-0.2,1.7,0.2,1.7,1.2,0.1
					c0.8-0.8,1.7-1.5,2.6-2.2c1.7-1.3,3.6-2.5,5.5-3.5c6.7-3.8-0.1-13.6-6.7-9.8c-4.7,2.7-10.4,6.4-13.2,11.1
					c-2.9,4.8-0.9,11.2,4.7,12.7c4.9,1.3,12.3-0.6,16.5-3.3c4.8-3.1,7.4-8,7.3-13.7c-0.1-4-4.4-6.3-7.9-5.2
					c-6.5,2-10.5,7.1-13.6,12.8c-3.4,6.2-6.9,12-11.5,17.4c3.5,1.7,6.9,3.4,10.3,5.1c0.6-5.6,0.5-11.2,0.2-16.9
					c-0.2-3.2-0.3-6.4-0.5-9.6c-0.2-3.5,0.3-0.3-0.2-0.2c1.1-0.2,2.5-1.2,3.4-1.8c1.9-1.3,2.6-2.7,4.7-3.2c2.3-0.5,5.2-0.3,7.6-0.4
					c0.8-0.1,3.3,0.4,1.8-0.7c-1.4-1-0.3,1.2-0.1,2.1c0.6,2.9,1.4,5.8,2.5,8.6c1.3,3.6,5.8,5.1,9,2.9c9.4-6.5,10.7-23.4,1.2-30.5
					c-4.9-3.6-11.3-4.5-17.2-3.8c-6.6,0.8-14.7,2.5-20.4,6c-2.5,1.6-5.5,2.2-8,3.8c-2.7,1.8-3.5,4.8-3.8,7.9
					c-0.8,7.2,0.1,14.4,0.7,21.6c0.3,3.7,0.5,7.4,0.8,11.1c0.2,3.2,0.1,6.9,1.2,9.9c2.4,6.4,10.5,5.7,15.8,8
					c-0.2-3.4-0.5-6.8-0.7-10.3c-4.2,2.3-8.7,3.9-13.4,4.9c2.4,2.8,4.9,5.5,7.3,8.2c2.1-4.2,10.3-3,13.6-6.8
					c1.6-1.8,2.3-4.1,1.9-6.4c-0.2-1.2-0.8-2.1-1.1-3.2c-0.2-0.7-0.3-3.1-1.1-2c-1.4,0.7-2.7,1.4-4.1,2c-2-0.3-1.9,0.1,0.2,1.1
					c1.1,0.7,2.1,1.4,3.2,2.2c1.5,1,3,2,4.5,3c2.7,1.9,4.6,4.2,7,6.3c2.2,2,5.3,3,8.2,2c3.2-1.1,5-4.3,8.1-5.8
					c-1.3-3.7-2.7-7.5-4-11.2c-1.6,0.8-4.6-2.8-5.4-3.8c-1.1-1.3-3.9-5-5.8-5.1c-0.5-0.6-0.7-0.4-0.5,0.6c-0.4,1.5,0.1,1.4,1.4-0.2
					c1.3-0.7,2.6-2,3.7-2.9c2.7-2.2,5.5-4.3,8.2-6.5C421.1,172.1,414.4,162.2,408.4,167L408.4,167z"/>
			</g>
		</g>
		<text transform="matrix(0.9974 -7.222411e-02 7.222411e-02 0.9974 -151.582 248.7268)" class="st1 st3 st4">PROJEKTER</text>
	</g>
	<g>
		<g>
			<path class="st2" d="M41,192.6c2-0.6,4.1-0.9,6.1-1c0.3,0,0.5-0.3,0.5-0.5c-0.8-2.9-3.5-5-6.6-5.4c-0.2,0-0.5,0.2-0.5,0.4
				c0,0.3,0.2,0.4,0.4,0.4c2.7,0.3,5.1,2.3,5.8,4.8c0.2-0.2,0.3-0.4,0.5-0.5c-2.2,0-4.3,0.4-6.4,1C40.3,192,40.5,192.8,41,192.6
				L41,192.6z"/>
		</g>
	</g>
	<g>
		<g>
			<path class="st2" d="M42.3,196c0.4-0.1,0.7-0.2,1.1-0.2c-0.5,0.1-1,0.1-1.4,0.2c0.6-0.1,1.1-0.1,1.7,0c-0.5-0.1-0.9-0.1-1.4-0.2
				c0.6,0.1,1.1,0.2,1.6,0.4c0.7,0.2,1.4,0.2,2.1,0.1c0.7,0,1.4-0.2,2.1-0.6c0.6-0.3,1.2-0.8,1.6-1.3c0.5-0.5,0.8-1.1,1-1.7
				c0.1-0.4,0.2-0.9,0.2-1.3c0-0.9-0.2-1.8-0.7-2.6c-0.3-0.3-0.6-0.7-0.8-1c-0.7-0.6-1.4-1.1-2.3-1.3c-0.4-0.1-0.7-0.3-1.1-0.3
				c-0.4-0.1-0.8-0.1-1.2-0.2c-0.4-0.1-0.8-0.1-1.3-0.1c-0.4,0-0.8,0-1.1,0c-0.9,0.1-1.7,0.2-2.6,0.4c-0.7,0.2-1.4,0.5-1.9,0.9
				c-0.6,0.4-1.1,0.8-1.4,1.4c-0.4,0.6-0.6,1.2-0.7,1.9c-0.2,0.7-0.2,1.3,0,2c0.2,0.4,0.3,0.8,0.5,1.3c0.5,0.8,1.1,1.4,1.9,1.8
				c0.4,0.2,0.8,0.3,1.3,0.5C40.4,196.3,41.4,196.3,42.3,196L42.3,196z"/>
		</g>
	</g>
	<g>
		<g>
			<path class="st2" d="M47,193.6c0.5-0.1,1.1-0.2,1.6-0.3c-0.2,0-0.5,0.1-0.7,0.1c1.1-0.1,2.1-0.1,3.2,0c-0.2,0-0.5-0.1-0.7-0.1
				c0.9,0.1,1.7,0.3,2.6,0.6c-0.2-1.6-0.3-3.1-0.5-4.7c-1.3,0.5-2.4,1.3-3.5,2.1c-1,0.7-2,1.5-3,2.3c-2.1,1.6-4.1,3.2-6.2,4.8
				c1.4,0.2,2.8,0.3,4.2,0.5c-1.1-1.5-2.2-3-3.3-4.5c-1-1.5-2.1-2.9-2.8-4.6c0.1,0.2,0.2,0.4,0.3,0.6c-0.3-0.9-0.6-1.7-1.1-2.6
				c-0.4-0.7-0.9-1.4-1.5-2c-1.1-1.2-2.6-2.1-4.2-2.6c-0.4-0.1-1-0.1-1.4,0c-0.6,0.1-1.1,0.5-1.5,0.9c-0.7,0.8-0.8,2-0.3,2.8
				c1.3,2,2.3,4.2,3.7,6.1c0.5,0.6,0.9,1.2,1.5,1.8c0.5,0.5,1.1,1,1.8,1.5c1.1,0.8,2.5,1.4,3.9,1.7c1.8,0.4,3.6,0.4,5.4,0
				c0.8-0.2,1.5-0.8,1.8-1.5c0.4-0.8,0.3-1.5-0.1-2.3c-0.8-1.6-1.7-3.2-2.6-4.7c-0.6-1-1.4-1.8-2.3-2.4c-0.7-0.5-1.6-0.8-2.4-1.1
				c0.2,0.1,0.4,0.2,0.6,0.3c-0.6-0.2-1.2-0.5-1.7-0.8c0.2,0.1,0.4,0.3,0.5,0.4c-0.2-0.1-0.3-0.3-0.5-0.4c0.1,0.2,0.3,0.3,0.4,0.5
				c0,0-0.1-0.1-0.1-0.1c0.1,0.2,0.2,0.4,0.3,0.6c0,0,0-0.1,0-0.1c0,0.4,0,0.9,0,1.3c0,0,0-0.1,0-0.1c-0.2,0.4-0.5,0.7-0.7,1.1
				c0,0,0,0,0.1-0.1c-0.2,0.1-0.4,0.3-0.6,0.4c0.1,0,0.1-0.1,0.2-0.1c-0.2,0.1-0.5,0.2-0.7,0.3c1.3-0.4,2.5-0.9,3.9-1.1
				c-0.2,0-0.5,0.1-0.7,0.1c0.6-0.1,1.2-0.1,1.8,0c-0.2,0-0.5-0.1-0.7-0.1c0.9,0.1,1.8,0.4,2.7,0.3c0.8,0,1.5-0.2,2.2-0.5
				c1.2-0.5,1.7-1.8,1.6-2.9c-0.1-0.6-0.3-1.2-0.7-1.7c-0.2-0.3-0.4-0.6-0.6-0.9c-0.4-0.6-0.7-1.3-1-2c0.1,0.2,0.2,0.4,0.3,0.6
				c-0.4-0.9-0.6-1.8-0.9-2.7c-0.4-1.2-1.5-2-2.9-1.8c-1.4,0.2-2.3,1.2-2.4,2.5c0,0.3-0.1,0.7-0.1,1c0-0.2,0.1-0.4,0.1-0.7
				c-0.2,1.1-0.6,2.2-1,3.2c0.1-0.2,0.2-0.4,0.3-0.6c0,0,0,0.1-0.1,0.1c1.6,0.7,3.3,1.3,4.9,2c0.5-2.3,0.6-4.7,0.4-7
				c-0.1-1.9-0.5-3.8-0.1-5.7c0,0.2-0.1,0.4-0.1,0.7c0.1-0.4,0.2-0.8,0.4-1.2c-0.1,0.2-0.2,0.4-0.3,0.6c0.1-0.3,0.3-0.6,0.5-0.8
				c-0.1,0.2-0.3,0.3-0.4,0.5c0.1-0.1,0.2-0.2,0.4-0.4c-1.5-0.6-3-1.2-4.6-1.8c-0.2,3.9-0.1,7.7,0.1,11.6c0,0.7,0.2,1.3,0.7,1.8
				c0.4,0.4,1.2,0.8,1.9,0.7c0.7,0,1.5-0.2,2-0.8c0.5-0.5,0.9-1.1,0.8-1.8c-0.2-3.8-0.2-7.7-0.1-11.6c0-1-0.6-2-1.6-2.4
				c-1-0.4-2.2-0.2-3,0.5c-2.2,2-2.3,4.9-2.1,7.6c0.2,2.7,0.4,5.5-0.1,8.2c0-0.2,0.1-0.4,0.1-0.7c0,0.2-0.1,0.3-0.1,0.5
				c-0.1,0.7-0.2,1.4,0.2,2c0.3,0.5,0.7,0.8,1.3,1c0.5,0.2,1.2,0.3,1.7,0.1c0.6-0.2,1.4-0.6,1.7-1.2c0.4-0.9,0.8-1.8,1.1-2.7
				c0.3-0.9,0.4-1.9,0.5-2.9c-1.8,0.2-3.6,0.4-5.3,0.6c0.4,1.3,0.8,2.5,1.4,3.8c0.2,0.5,0.5,1,0.8,1.5c0.3,0.5,0.7,0.9,1,1.4
				c-0.1-0.2-0.2-0.4-0.3-0.6c0,0.1,0,0.1,0.1,0.2c0-0.2,0-0.5-0.1-0.7c0,0.1,0,0.1,0,0.2c0-0.2,0.1-0.4,0.1-0.7c0,0,0,0.1,0,0.1
				c0.4-0.5,0.9-1,1.3-1.5c-0.1,0-0.2,0.1-0.2,0.1c0.2-0.1,0.5-0.2,0.7-0.3c-0.2,0.1-0.3,0.1-0.5,0.1c0.2,0,0.5-0.1,0.7-0.1
				c-0.3,0-0.7,0-1,0c0.2,0,0.5,0.1,0.7,0.1c-1.3-0.2-2.5-0.4-3.8-0.3c-1.3,0.2-2.5,0.4-3.8,0.9c-1,0.3-2.2,0.6-2.7,1.6
				c-0.8,1.3-0.4,2.7,0.7,3.7c1,0.8,2.1,1.2,3.3,1.7c-0.2-0.1-0.4-0.2-0.6-0.3c0.6,0.2,1.2,0.5,1.7,0.9c-0.2-0.1-0.4-0.3-0.5-0.4
				c0.3,0.2,0.6,0.5,0.8,0.8c-0.1-0.2-0.3-0.3-0.4-0.5c0.6,0.8,1,1.6,1.5,2.5c0.5,0.9,1,1.8,1.5,2.8c0.6-1.3,1.2-2.5,1.8-3.8
				c-0.3,0.1-0.6,0.1-0.8,0.1c0.2,0,0.5-0.1,0.7-0.1c-0.8,0.1-1.5,0.1-2.3,0c0.2,0,0.5,0.1,0.7,0.1c-0.8-0.1-1.5-0.3-2.3-0.6
				c0.2,0.1,0.4,0.2,0.6,0.3c-0.7-0.3-1.3-0.6-1.9-1.1c0.2,0.1,0.4,0.3,0.5,0.4c-0.8-0.6-1.5-1.3-2-2c0.1,0.2,0.3,0.3,0.4,0.5
				c-1.6-2-2.6-4.3-3.9-6.4c-1.1,1.3-2.1,2.5-3.2,3.8c0.1,0,0.2,0.1,0.3,0.1c-0.2-0.1-0.4-0.2-0.6-0.3c0.6,0.2,1.2,0.6,1.7,0.9
				c-0.2-0.1-0.4-0.3-0.5-0.4c0.5,0.4,1,0.9,1.4,1.4c-0.1-0.2-0.3-0.3-0.4-0.5c0.5,0.6,0.8,1.3,1.1,2c-0.1-0.2-0.2-0.4-0.3-0.6
				c0.4,1.1,0.8,2.2,1.4,3.2c0.5,0.9,1.1,1.7,1.7,2.5c1.2,1.7,2.4,3.4,3.7,5.1c0.5,0.7,1,1.1,1.9,1.2c0.9,0.1,1.6-0.2,2.3-0.7
				c1.6-1.2,3.2-2.5,4.8-3.7c1.5-1.2,3-2.4,4.6-3.6c-0.2,0.1-0.4,0.3-0.6,0.4c0.8-0.6,1.7-1.1,2.7-1.6c0.4-0.2,0.8-0.6,1-0.9
				c0.3-0.5,0.4-1,0.4-1.6c0-0.5-0.2-0.9-0.5-1.2c-0.4-0.5-0.8-0.7-1.4-0.9c-2.7-1-5.9-1.1-8.8-0.3c-1.4,0.4-2.4,1.8-2,3.1
				C44.1,193.1,45.5,193.9,47,193.6L47,193.6z"/>
		</g>
	</g>
	<g>
		<g>
			<path class="st2" d="M43.4,169c0.1-0.5,0.1-0.9,0.2-1.4c0,0.2-0.1,0.4-0.1,0.7c0.6-3.3,1.7-6.5,3.1-9.6c-0.1,0.2-0.2,0.4-0.3,0.6
				c0.4-0.9,0.8-1.7,1.2-2.6c-1.7-0.4-3.4-0.9-5.2-1.3c-0.6,2.8-1.4,5.5-2.5,8.2c-0.2,0.6-0.1,1.4,0.2,2c0.3,0.5,0.9,1,1.6,1.2
				c0.7,0.1,1.5,0.1,2.1-0.3c0.6-0.4,1-0.9,1.3-1.5c1.1-2.7,1.9-5.4,2.5-8.2c0.1-0.7,0.2-1.3-0.2-2c-0.3-0.5-0.9-1-1.6-1.2
				c-0.7-0.1-1.5-0.1-2.1,0.3c-0.6,0.4-1,0.9-1.3,1.5c-0.2,0.5-0.4,1-0.7,1.5c0.1-0.2,0.2-0.4,0.3-0.6c-1,2-1.9,4.1-2.6,6.2
				c-0.7,2.1-1.1,4.3-1.4,6.5c-0.1,0.6,0.3,1.4,0.7,1.8c0.4,0.4,1.2,0.8,1.9,0.7c0.7,0,1.5-0.2,2-0.8C43,170.3,43.3,169.7,43.4,169
				L43.4,169z"/>
		</g>
	</g>
	<g>
		<g>
			<path class="st2" d="M45,163.7c-0.4-1.1-0.6-2.3-0.7-3.5c0,0.2,0,0.5,0.1,0.7c-0.1-0.7-0.1-1.4,0-2.1c0,0.2-0.1,0.4-0.1,0.7
				c0.1-0.4,0.2-0.8,0.4-1.2c-0.1,0.2-0.2,0.4-0.3,0.6c0.5-1.1,1.1-2.2,1.4-3.4c0.4-1.3-0.4-2.8-1.8-3.1c-1.4-0.3-3,0.4-3.4,1.8
				c-0.2,0.7-0.5,1.4-0.8,2.1c0.1-0.2,0.2-0.4,0.3-0.6c-0.4,0.8-0.8,1.6-1,2.4c-0.2,0.8-0.2,1.6-0.2,2.4c0.1,1.6,0.4,3.2,0.9,4.7
				c0.2,0.6,0.6,1.2,1.2,1.5c0.6,0.3,1.4,0.4,2,0.3C44.3,166.4,45.4,165,45,163.7L45,163.7z"/>
		</g>
	</g>
	<g>
		<g>
			<path class="st2" d="M52.1,131.5c-3.1,5.6-5.6,11.3-7.9,17.1c-0.7,1.6-1.2,3.2-2,4.8c0.1-0.2,0.2-0.4,0.3-0.6
				c-0.1,0.3-0.3,0.5-0.5,0.8c0.1-0.2,0.3-0.3,0.4-0.5c0,0-0.1,0.1-0.1,0.1c1.5,0.4,3,0.8,4.5,1.1c-0.4-1.1-0.8-2.4-1-3.6
				c0,0.2,0,0.5,0.1,0.7c0-0.2,0-0.4,0-0.6c0,0.2-0.1,0.4-0.1,0.7c0.1-0.7,0.5-1.4,0.8-2.1c0.3-0.7,0.7-1.5,1-2.2
				c-0.1,0.2-0.2,0.4-0.3,0.6c1.1-2.2,2.4-4.3,3.5-6.5c1.1-2.3,2.2-4.6,3.3-6.8c0.6-1.3,1.3-2.6,1.9-3.9c0.2-0.4,0.4-0.8,0.4-1.3
				c0-0.6-0.2-1.1-0.5-1.6c-0.3-0.4-0.6-0.6-1.1-0.8c-0.5-0.2-1.2-0.3-1.7-0.1c-0.8,0.3-1.3,0.5-1.9,1c-0.3,0.2-0.5,0.4-0.7,0.7
				c-0.6,0.7-1.1,1.4-1.6,2.1c-0.8,1.1-1.6,2.2-2.2,3.5c-0.7,1.4-1.3,2.9-1.9,4.4c-0.5,1.4-1.1,2.7-1.7,4c0.1-0.2,0.2-0.4,0.3-0.6
				c-0.2,0.5-0.5,1-0.7,1.5c-0.3,0.6-0.5,1.2-0.3,1.9c0.2,0.6,0.6,1.3,1.2,1.5c0.6,0.3,1.3,0.5,2,0.3c0.6-0.2,1.4-0.6,1.7-1.2
				c0.8-1.6,1.6-3.2,2.3-4.9c0.6-1.5,1.1-3,1.8-4.5c-0.1,0.2-0.2,0.4-0.3,0.6c0.9-2,2.3-3.8,3.7-5.5c-0.1,0.2-0.3,0.3-0.4,0.5
				c0.2-0.2,0.4-0.5,0.7-0.7c-0.2,0.1-0.4,0.3-0.6,0.4c0.2-0.1,0.3-0.2,0.5-0.3c-0.2,0.1-0.5,0.2-0.7,0.3c0,0,0.1,0,0.1,0
				c-1-1.2-1.9-2.5-2.9-3.7c-1.7,3.5-3.3,7-5.1,10.5c-0.8,1.7-1.8,3.2-2.7,4.9c-1,1.8-1.8,3.6-2.6,5.5c-0.3,0.6-0.5,1.2-0.6,1.9
				c-0.1,0.6,0,1.3,0.2,1.9c0.2,1,0.5,2,0.9,3c0.3,0.9,0.9,1.6,1.8,1.8c0.9,0.2,2,0,2.7-0.7c0.6-0.7,1-1.3,1.4-2.2
				c0.2-0.5,0.4-1.1,0.7-1.6c0.5-1.1,0.9-2.2,1.4-3.3c0.9-2.2,1.8-4.3,2.7-6.5c0.5-1.2,1.1-2.5,1.7-3.7c-0.1,0.2-0.2,0.4-0.3,0.6
				c1-2,2-4,3.1-6c0.3-0.6,0.5-1.3,0.3-1.9c-0.2-0.6-0.6-1.3-1.2-1.5c-0.6-0.3-1.3-0.5-2-0.3C53.1,130.5,52.5,130.9,52.1,131.5
				L52.1,131.5z"/>
		</g>
	</g>
	<g>
		<g>
			<path class="st2" d="M56.6,134.7c0-0.7,0-1.3,0.1-2c0,0.2-0.1,0.4-0.1,0.7c0.1-0.8,0.4-1.5,0.8-2.2c-0.1,0.2-0.2,0.4-0.3,0.6
				c1.1-2.4,2.4-4.7,3.7-7.1c1.2-2.3,2.5-4.7,3.8-7c0.8-1.3,1.6-2.6,2.4-3.8c0.8-1.1,0.4-2.9-0.9-3.5c-1.3-0.7-2.9-0.3-3.7,0.9
				c-1.9,2.7-3.5,5.6-5,8.5c-1.6,2.9-3.1,5.9-4.6,8.8c-0.5,0.9-0.9,1.8-1.2,2.8c-0.3,1.1-0.4,2.2-0.4,3.3c0,1.3,1.1,2.6,2.6,2.6
				C55.3,137.2,56.6,136.1,56.6,134.7L56.6,134.7z"/>
		</g>
	</g>
	<g>
		<g>
			<path class="st2" d="M60,109.7c-0.8,0.7-1.5,1.7-2.1,2.6c-0.6,0.8-1.1,1.6-1.7,2.4c-1.1,1.6-2.2,3.2-3.2,4.8
				c-2.1,3.4-3.8,7-5.4,10.5c-0.9,1.9-1.7,3.9-2.5,5.9c-0.2,0.6-0.1,1.4,0.2,2c0.3,0.5,0.9,1,1.6,1.2c0.7,0.1,1.5,0.1,2.1-0.3
				c0.6-0.4,1-0.9,1.3-1.5c1.2-2.8,2.4-5.6,3.7-8.3c-0.1,0.2-0.2,0.4-0.3,0.6c2.1-4.5,4.6-8.8,7.5-12.9c0.8-1.1,1.6-2.3,2.5-3.4
				c-0.1,0.2-0.3,0.3-0.4,0.5c0.1-0.2,0.3-0.3,0.5-0.5c1.1-0.9,1.1-2.7,0.1-3.6C62.8,108.7,61.2,108.7,60,109.7L60,109.7z"/>
		</g>
	</g>
	<g>
		<g>
			<path class="st2" d="M66.8,113.9c1.9-2,3.5-4.3,4.9-6.5c1.4-2.1,2.7-4.3,4.1-6.5c0.8-1.2,1.7-2.4,2.6-3.5
				c-0.1,0.2-0.3,0.3-0.4,0.5c2.3-2.7,5.2-4.9,7.7-7.5c0.5-0.5,0.8-1.1,0.8-1.8c0-0.6-0.2-1.4-0.7-1.8c-1-0.9-2.8-1-3.8,0
				c-1.5,1.5-3,2.8-4.5,4.2c-1.6,1.4-3,3-4.3,4.7c-2.3,2.9-4,6.1-6,9.1c-1.1,1.7-2.3,3.4-3.6,5c0.1-0.2,0.3-0.3,0.4-0.5
				c-0.3,0.3-0.6,0.7-0.9,1c-0.5,0.5-0.8,1.1-0.8,1.8c0,0.6,0.2,1.4,0.7,1.8c0.5,0.4,1.1,0.8,1.9,0.7
				C65.5,114.6,66.3,114.4,66.8,113.9L66.8,113.9z"/>
		</g>
	</g>
	<g>
		<g>
			<path class="st2" d="M72.9,95.8c-1.6,0.3-2.7,1.5-3.8,2.6c-0.9,0.9-1.8,1.8-2.6,2.8c-1.7,1.9-3,4.2-4.3,6.4
				c-0.8,1.3-1.4,2.7-2,4.1c-0.2,0.6-0.1,1.4,0.2,2c0.3,0.5,0.9,1,1.6,1.2c0.7,0.1,1.5,0.1,2.1-0.3c0.6-0.4,1-0.9,1.3-1.5
				c0.2-0.5,0.4-0.9,0.6-1.3c-0.1,0.2-0.2,0.4-0.3,0.6c0.6-1.3,1.4-2.7,2.2-3.9c0.8-1.3,1.5-2.6,2.5-3.8c-0.1,0.2-0.3,0.3-0.4,0.5
				c0.7-0.8,1.5-1.6,2.2-2.4c0.7-0.8,1.5-1.7,2.3-2.3c-0.2,0.1-0.4,0.3-0.6,0.4c0.2-0.1,0.4-0.2,0.5-0.3c-0.2,0.1-0.5,0.2-0.7,0.3
				c0.1,0,0.2-0.1,0.4-0.1c0.7-0.1,1.3-0.7,1.7-1.2c0.3-0.5,0.5-1.3,0.3-1.9c-0.2-0.6-0.6-1.2-1.2-1.5
				C74.3,95.8,73.6,95.7,72.9,95.8L72.9,95.8z"/>
		</g>
	</g>
	<g>
		<g>
			<path class="st2" d="M87.4,88.5c1.4-0.7,2.6-1.9,3.8-2.9c1.1-0.9,2.2-1.9,3.3-2.8c1.1-0.9,1.1-2.7,0.1-3.6c-1.1-1-2.7-1-3.8,0
				c-0.9,0.8-1.9,1.6-2.8,2.4c-0.9,0.8-1.8,1.6-2.8,2.3c0.2-0.1,0.4-0.3,0.6-0.4c-0.3,0.2-0.6,0.4-0.9,0.6c-1.3,0.6-1.8,2.4-1.1,3.5
				C84.5,88.8,86,89.2,87.4,88.5L87.4,88.5z"/>
		</g>
	</g>
	<g>
		<path d="M41.7,205.9c6.6-4,12.6-9,18.7-13.6c0.8-0.6,0.5-1.9-0.2-2.3c-3.9-2-8-4.4-12.4-5.3l0-0.2c-6.7-20,6.9-44.5,17-62
			c11.5-20.2,26.8-39.7,48-51.3c2.8-1.1,5.7-2.2,8.8-2.9c1.4-0.4,1-2.2-0.5-2c-0.5,0.1-1.1,0.3-1.6,0.4c-0.2-0.7-0.8-1-1.7-0.8
			c-1.9,0.7-3.8,1.7-5.7,2.5C63.8,82,28.5,139,36.6,184c-3.2-0.8-6.6-1.4-9.9-2.3c-1.5-0.5-2.4,1.1-1.9,2.3
			c3.4,8.1,9.5,14.5,14.7,21.4C39.8,206,40.7,206.5,41.7,205.9z M28.9,185.3c2.6,0.4,5.1,0.5,7.7,1.1c1,0.1,1.6-0.6,1.6-1.1
			c0.5-0.1,0.8-0.6,0.9-1.1c-2.9-41.9,18.1-81.7,54.6-103.7c-13.6,11.8-24.2,27.3-32.6,42.1c-6.2,10.8-11.4,21.9-15.2,33.6
			c-2.9,9.1-4.8,20.1,0.5,28.4l0,0c-1.6-0.1-1.8,2-0.5,2.5c3.6,1.4,7,2.9,10.3,4.5c-5,3.7-9.9,7.7-15.1,10.9
			C36.9,196.8,32.1,191.4,28.9,185.3z"/>
	</g>
</g>
<g id="Layer_2">
	<g id="Layer_2_1_">
		<g>
			<g>
				<path class="st2" d="M193.2,65.5c0.5-1.9,1-3.8,2.1-5.4c-1.2,0.9-2.4,1.8-3.6,2.7c-0.1,0-0.1,0-0.2,0c-1-0.3-2-0.5-3-0.8
					c-1.3-0.7-0.3,0.9-0.2,1.9c0.3,1.6,0.5,3.3,0.8,5c0.5,3.1,1,6.1,1.4,9.2c0.6,3.7,5.8,5.6,8.8,3.6c7.5-5.2,6.3-18.3,4.9-26.2
					c-1.4-7.5-12.9-4.3-11.5,3.2c0.5,2.6,0.6,5.1,0.5,7.7c-0.1,1.2-0.2,2.3-0.4,3.4c-0.1,0.5-0.2,0.9-0.3,1.4
					c-0.7,1.8-0.4,1.9,0.8,0.2c2.9,1.2,5.8,2.4,8.8,3.6c-0.6-4-1.2-8-1.9-12c-0.5-3.5-0.9-7.2-3.6-9.8c-2.4-2.4-6.5-3-9.4-1.2
					c-3.2,2-4.5,6.9-5.4,10.4C179.7,69.8,191.2,72.9,193.2,65.5L193.2,65.5z"/>
			</g>
		</g>
		<g>
			<g>
				<path class="st2" d="M205.4,81.1c0-1,0-2,0-3.1c-3.9,0.5-7.8,1.1-11.7,1.6c0.6,2.2,1.2,4.4,1.8,6.5c0.2,0.5,0.3,1.1,0.4,1.6
					c0.4,2.9,1.1,2.2,2-2c-0.5-0.1-4.2,2.5-4.6,2.8c-2.1,1.2-4.1,2.5-6.2,3.7c3,1.7,6,3.4,9,5.1c-0.6-10-2.7-19.8-6.5-29.1
					c-1.1-2.7-4-5.4-7.3-4.2c-8.7,3.4-15.2,10.2-17.2,19.5c-1,4.7,2.8,8.1,7.3,7.3c5.5-0.9,11.1-1.8,16.6-2.8
					c2.6-0.4,5.2-0.9,7.8-1.3c1.5-0.2,5.8-1.7,7-1.3c-1.2-0.9-2.4-1.8-3.6-2.7c1-3.1,0.3-4.4-1.9-3.8c-7.6,0.4-7.7,12.3,0,11.9
					c4.7-0.3,9.7-1.4,12.2-5.9c2.2-4.1,1-9.7-3.8-11.1c-4.8-1.4-12.1,1.2-16.9,2c-6.8,1.1-13.7,2.3-20.6,3.4
					c2.4,2.4,4.9,4.9,7.3,7.3c1.1-5,4-9.3,8.9-11.2c-2.4-1.4-4.9-2.8-7.3-4.2c3.4,8.3,5.6,16.9,6.1,25.9c0.2,4.4,4.9,7.6,9,5.1
					c4.2-2.5,11.8-5.3,14.2-9.9c2.5-4.7-0.9-11.5-2.1-16.2c-1.8-6.5-11.7-5.1-11.7,1.6c0,1,0,2,0,3.1
					C193.5,88.7,205.4,88.7,205.4,81.1L205.4,81.1z"/>
			</g>
		</g>
		<g>
			<g>
				<path class="st2" d="M206.2,75.4c1-10.1,0.1-21-2.1-30.9c-0.8-3.5-2.6-6-5.8-7.6c-3.2-1.5-7.6,0-10.4-1.6
					c-3.2-1.9-7.9-0.2-8.8,3.6c-0.9,4-1.8,8.1-2.7,12.1c-0.7,2.8-1.2,6.7-3.6,8.5c2.9,1.2,5.8,2.4,8.8,3.6c-0.7-4.3,3.1-5.9,6.6-5.5
					c3.3,0.4,5.8-3,6-5.9c0-0.7,0.1-1.4,0.1-2.1c0.2-2.8-2-4.8-4.4-5.7c-3.5-1.4-7.3-1.3-10.8,0.1c-1.8,0.7-7.8,4.2-7.5,6.7
					c-0.9,1.2,0,1.3,2.7,0.2c-0.4-0.7-0.7-1.5-1-2.2c-0.6-1.7-1-3.4-1.7-5.1c-1.2-3.4-2.9-6.5-5.7-8.9c-2-1.7-4.8-2.4-7.2-0.9
					c-3.9,2.4-9.5,2-12.8,5.3c-3.8,3.8-2.3,10-2.9,14.9c-1.4,12.8-5.3,25.6-8.1,38.1c-0.7,3.3,1,6.2,4.2,7.3
					c5,1.7,12.2,5.8,17.2,2.2c5.1-3.6,3.3-12.2,3.6-17.7c0.4-6.7,2.8-12,5-18.2c0.9-2.4,1.5-5,1.6-7.6c0-1.7-0.2-3.4-0.8-5
					c-0.2-0.5-0.4-0.9-0.6-1.4c-0.9-2.3-1.6-1.8-2.1,1.4c-3.3-0.9-6.6-1.8-10-2.6c2.6,9.6,6.5,18.8,11.7,27.3c1.7-3,3.4-6,5.1-9
					c-0.8,0.3-1.4,0.2-2-0.2c-6-5-13.2,2.4-8.4,8.4c1.9,2.4,4.2,4.2,6.8,5.7c6.7,3.7,12.7-6.6,6-10.3c-1.8-1-3.1-2.2-4.4-3.8
					c-2.8,2.8-5.6,5.6-8.4,8.4c3.1,2.6,6.3,4.1,10.4,3.7c4.3-0.3,7.7-4.9,5.1-9c-4.7-7.7-8.2-15.7-10.5-24.4c-1.1-4-7.1-6.2-10-2.6
					c-2.6,3.3-3,6.3-1.5,10.2c1,2.6,1.6,3.4,0.8,6.2c-0.6,2-1.5,3.9-2.3,5.9c-1.8,4.3-2.8,8.7-3.3,13.3c-0.5,4.7,0.3,10-0.8,14.6
					c0.9-1.2,1.8-2.4,2.7-3.6c1.6-0.1,1.7-0.3,0.3-0.6c-0.9-0.3-1.9-0.6-2.8-1c-1.9-0.6-3.7-1.3-5.6-1.9c1.4,2.4,2.8,4.9,4.2,7.3
					c2.5-11,5.3-21.9,7.3-32.9c0.5-2.4,0.8-4.9,1.1-7.4c0.2-1.5,1.3-6.5,0.3-7.8c0.4,0.6-3.1,0.9-0.4,0.8c1.2,0,2.6-0.5,3.7-0.9
					c2.2-0.8,4.3-1.8,6.2-3c-2.4-0.3-4.8-0.6-7.2-0.9c5.8,4.8,3.7,14.9,11.3,18.7c3.5,1.7,7.5,1,10.3-1.6c2.7-2.6,3.1-6.6,7.5-4.8
					c-1.5-1.9-2.9-3.8-4.4-5.7c0,0.7-0.1,1.4-0.1,2.1c2-2,4-4,6-5.9c-12.1-1.3-19.9,9.4-18.1,20.6c0.6,3.6,5.8,5.7,8.8,3.6
					c8.8-6.4,9.6-17.9,11.8-27.7c-2.9,1.2-5.8,2.4-8.8,3.6c2.7,1.6,5.3,2,8.4,2c1,0,2-0.1,3.1,0c-0.9-1.4-1.1-1.4-0.7,0
					c0.2,1,0.3,1.9,0.5,2.9c1.2,8.2,2,16.5,1.2,24.8C193.5,83,205.4,82.9,206.2,75.4L206.2,75.4z"/>
			</g>
		</g>
		<g>
			<g>
				<path class="st2" d="M149,83.4c-0.1,0-0.1,0-0.2,0c0.5,0.1,1.1,0.1,1.6,0.2c-0.1,0-0.2,0-0.3-0.1c0.5,0.2,1,0.4,1.4,0.6
					c-0.1,0-0.2-0.1-0.3-0.2c0.4,0.3,0.8,0.6,1.2,0.9c-0.1-0.1-0.2-0.2-0.3-0.3c0.3,0.4,0.6,0.8,0.9,1.2c-0.1-0.1-0.1-0.2-0.2-0.3
					c0.2,0.5,0.4,1,0.6,1.4c0-0.1-0.1-0.2-0.1-0.4c0.1,0.5,0.1,1.1,0.2,1.6c0-0.1,0-0.2,0-0.4c-0.1,0.5-0.1,1.1-0.2,1.6
					c0,0,0-0.1,0-0.1c0.2-0.8,0.3-1.6,0.1-2.4c0-0.8-0.3-1.5-0.7-2.2c-0.4-0.7-0.9-1.2-1.5-1.7c-0.6-0.5-1.2-0.9-2-1.1
					c-1.5-0.4-3.2-0.3-4.6,0.6c-1.2,0.8-2.5,2-2.7,3.6c-0.1,0.6-0.2,1.3-0.2,1.9c0,0.3,0.1,0.8,0.1,0.9c0,0.2,0.1,0.6,0.1,0.9
					c0,0.1,0,0.1,0.1,0.2c0.2,0.5,0.4,1.1,0.6,1.5c0.3,0.5,0.7,1,1.1,1.5c0.1,0.1,0.2,0.2,0.3,0.3c0.4,0.3,0.9,0.8,1.3,1
					c0,0,0.1,0.1,0.2,0.1c0.4,0.2,1,0.5,1.5,0.6c0.1,0,0.1,0,0.2,0.1c0.3,0.1,0.8,0.1,1,0.1c0.3,0,0.7,0.1,1,0.1
					c0.8,0,1.6-0.1,2.3-0.5c0.7-0.2,1.4-0.6,1.9-1.2c0.6-0.5,1-1.2,1.2-1.9c0.4-0.7,0.5-1.5,0.5-2.3c-0.1-1.5-0.6-3.1-1.7-4.2
					C152.1,84.1,150.6,83.4,149,83.4L149,83.4z"/>
			</g>
		</g>
		<g>
			<g>
				<path class="st2" d="M219.4,103.3c0.2,0,0.4-0.1,0.6-0.1c-1.5-0.2-3.1-0.4-4.6-0.6c-1.7-3.3-2.3-4-1.9-2.1
					c0,0.6,0.2,1.2,0.4,1.8c0.6,1.6,1.3,2.5,2.7,3.6c2.3,1.7,5.1,2.2,7.9,1.8c2.7-0.3,5.2-1.6,7.2-3.4c1.7-1.6,3.1-2.5,5-3.8
					c5-3.5,5.7-9.6,5-15.2c-0.8-6.6-1.1-13-0.3-19.7c0.6-5.1-0.1-11.2-6.2-12.5c-2.5-0.6-5.3,0.2-7.2,2.1c-1.6,1.7-2.3,2-4.4,3.2
					c-5.4,3-6.3,7.6-6.5,13.4c-0.2,7.9-0.2,15.8-0.4,23.7c-0.1,4.3,5.2,7.7,9,5.1c10.5-7.2,11.3-19.1,10.2-30.8
					c-0.7-7.6-12.6-7.6-11.9,0c0.6,6.5,2,16.2-4.3,20.5c3,1.7,6,3.4,9,5.1c0.1-7.9,0.2-15.8,0.4-23.7c0-0.8,0.8-4.1-0.5-2.5
					c0.7-0.8,2.3-1.1,3.2-1.6c1.1-0.6,2.3-1.3,3.2-2.2c0.6-0.6,1.2-1.3,1.7-2.1c-4.5-2.9-6.8-3-6.9-0.3c-1.1,2.8-0.8,7.6-0.8,10.5
					c0,3.6,0.2,7.1,0.7,10.7c0.2,1.5,0.8,3.3,0.5,4.8c-0.3,1.6-0.5,1.3-1.6,2.2c-0.7,0.6-5.5,4.4-5.8,4.1c0.9,1.2,1.8,2.4,2.7,3.6
					c-1.3-5-3.4-8.2-9.2-7.4C208.7,93,211.9,104.4,219.4,103.3L219.4,103.3z"/>
			</g>
		</g>
		<g>
			<g>
				<path class="st2" d="M230.8,38.7c-1.3-0.2-2.5,0.1-3.7,0.7c-0.5,0.2-1,0.4-1.4,0.8c-1.6,1-1.6,1.2-0.2,0.5c1,0.3,2,0.5,3,0.8
					c0,0.5,0,0.3-0.1-0.7c-0.2-4.7-6.6-8.4-10.2-4.2c-5.7,6.8-2,15,6,17.6c4.3,1.4,8-0.7,11.3-3.2c2.9-2.1,7-4.2,8.9-7.3
					c5.2-8.4-5.3-14.4-12.2-15.4c-6.8-1-18.7,4.5-14.6,12.9c3.4,6.9,13.7,0.9,10.3-6c-0.1-0.1-0.1-0.3-0.2-0.4
					c0.2,1.5,0.4,3.1,0.6,4.6c0.1-0.2,0.1-0.3,0.2-0.5c-0.5,0.9-1,1.8-1.5,2.6c0.7-0.7,2.1-1.6,3.2-1.6c0.7,0,1.5,0.4,2.1,0.6
					c0.5,0.2,1,0.4,1.5,0.6c0.7,0.4,0.7,0-0.1-1.2c0.3-1,0.5-2,0.8-3c-0.8,1.4-3.7,2.8-5,3.8c-0.4,0.3-2.6,2.1-2.1,1.9
					c0.6,0.4,0.4,0.2-0.7-0.3c0.6,0.9,0.6,1.9-0.1,2.7c-3.4-1.4-6.8-2.8-10.2-4.2c0.2,4.2,1.6,8.5,5.5,10.7c1.8,1,4.1,1.4,6.1,0.9
					c0.7-0.2,1.5-0.6,2.2-0.9c0.5-0.3,0.9-0.6,1.3-1c1-0.7,0.8-0.7-0.8,0.1c3.2,0.4,6-3,6-5.9C236.7,41.1,234,39.1,230.8,38.7
					L230.8,38.7z"/>
			</g>
		</g>
		<g>
			<g>
				<path class="st2" d="M282.9,85.4c-3.6-3.3-5.8-7.6-6.3-12.5c-0.9-8.4,6-12.1,13.3-13.2c3.8-0.6,8.3,0.1,12-1.2
					c3.1-1.1,4.7-3.9,5.8-6.8c3-7.9-0.9-12.9-7.9-16.3c-6.8-3.3-14.1-5.3-21.4-2.2c-6.7,2.9-11.2,8.7-14.5,15.1
					c-6.7,13-12.9,30.5-6.5,44.9c3.6,8.1,12.3,11.9,20.9,11.5c3.7-0.2,7.9-2.2,11.3-1.2c4,1.1,6.7,1.8,10.9,0.5
					c1.9-0.6,3.8-2.1,4.2-4.2c0.6-3.2,0.9-6.3,0.7-9.5c0-0.5,0-1,0.2-1.5c-0.7,1-0.3,1.2,1.2,0.5c1.7,0,3.9-1,5.4-1.8
					c5.2-2.9,9.6-10.8,4.2-15.7c-2.8-2.5-6.3-2-9.7-1.8c-4.5,0.2-9,0.3-13.5,0.6c-3.6,0.2-6.8,0.5-8.6,4.1c-2,4-0.2,9.8,0.3,14
					c2-2,4-4,6-6c-4,0.3-8.1,0.5-12.1,0.8c-1.9,0.1-3.7,0.2-5.6,0.4c-0.9,0.1-1.9,0.1-2.8,0.2c1.5,1.1,1.9,1,1.3-0.4
					c-1.6-7.5-13.1-4.3-11.5,3.2c1.1,5.1,4.4,9.1,9.8,9.2c6.9,0.1,14-0.9,20.9-1.4c2.9-0.2,6.3-2.6,6-6c-0.2-2-0.5-4-0.7-6
					c-0.1-1.2,0.5-5.2-0.8-2.9c-1.2,0.9-2.4,1.8-3.6,2.7c4.6-1.1,10.1-0.5,14.8-0.7c1.3-0.1,2.6-0.1,3.8-0.2
					c-0.8-4.8-2.2-6.3-4.4-4.5c-1.7,0.2-3.9,0.7-5.5,1.3c-8.5,3.1-6.1,11.3-7.4,18.2c1.4-1.4,2.8-2.8,4.2-4.2
					c-2.8,0.9-4.4-0.9-7.3-1.2c-4-0.5-7.8,1.3-11.8,1.6c-9.9,0.6-11.3-6.2-11.2-14.4c0.2-8.9,3-16.2,7-24.1
					c3.7-7.2,8.6-12.9,17.2-9.6c1.8,0.7,3.5,1.7,5.3,2.5c-0.3-0.3-0.5,0.1-0.5,1.2c1.2-1,1.2-1.4,0-1.1c-1.2-0.6-4.8,0.3-6.1,0.5
					c-2,0.2-4,0.5-5.9,0.9c-7,1.6-13.8,5.6-17.2,12.2c-5.5,10.9-1,24.9,7.5,32.8C280.1,99,288.5,90.6,282.9,85.4L282.9,85.4z"/>
			</g>
		</g>
		<g>
			<g>
				<path class="st2" d="M278.9,39.4c-2.2,2.7-4.2,5.4-6,8.4c-3,5.1,3,11.2,8.2,8.1c1.5-0.9,3.7-2.8,5.3-3.1
					c1.6-0.3,3.4,0.6,4.8,1.1c3,1.1,6.5-1.2,7.3-4.2c0.9-3.3-1.1-6.2-4.2-7.3c-3.4-1.2-7-2.1-10.6-1.2c-3.2,0.7-6,2.8-8.8,4.4
					c2.7,2.7,5.4,5.4,8.2,8.1c1.2-2.1,2.6-4.1,4.2-6c2-2.5,2.4-6,0-8.4C285.2,37.2,280.9,36.9,278.9,39.4L278.9,39.4z"/>
			</g>
		</g>
		<g>
			<g>
				<path class="st2" d="M337.5,84.7c-7.2,1.5-10.4,8.3-12.3,14.7c3.9,0.5,7.8,1.1,11.7,1.6c0.1-1.2,0.2-2.5,0.3-3.7
					c-3.7,1-7.4,2-11.1,3c-0.1-0.5-0.2-1-0.3-1.5c0,0.5,0.1,0.9,0.2,1.4c0.2,1.1,0.2,1.7,0.8,2.7c0.8,1.5,1.8,2.5,3.4,3.2
					c3,1.4,6.2,0.4,9-1c5.4-2.6,6.7-8.7,8.5-14c1-3-1.2-6.5-4.2-7.3c-3.3-0.9-6.3,1.1-7.3,4.2c-0.6,1.8-1.2,4.1-1.9,5.6
					c-0.2,0.4-0.4,0.9-0.7,1.3c0.9-0.8,0.9-0.9,0.1-0.3c0.4-0.1,0.3-0.1-0.4,0.2c-1,0.3-0.8,0.4,0.6,0.2c0.9,0.5,1.8,1,2.6,1.5
					c0.8,2.5,1.2,3.2,1,2c-0.1-0.6-0.2-1.2-0.2-1.9c-0.2-0.9-0.6-1.6-1-2.4c-3.2-5.3-10.7-2.7-11.1,3c-0.1,1.2-0.2,2.5-0.3,3.7
					c-0.5,6.8,9.9,7.9,11.7,1.6c0.5-1.8,0.9-3.6,2-5.1c0.4-0.6,0.5-0.7,0.2-0.3c0.5-0.5,0.6-0.6,0.2-0.3c0.7-0.3,0.7-0.4,0.3-0.3
					c0.4-0.1,0.8-0.2,1.2-0.3c3.2-0.6,5-4.4,4.2-7.3C343.9,85.6,340.7,84.1,337.5,84.7L337.5,84.7z"/>
			</g>
		</g>
		<g>
			<g>
				<path class="st2" d="M340.6,65.1c-3.9-1.4-8.4,0.4-10,4.2c-3,6.9,5.8,12.4,10.3,6c2.5-3.7,1.7-8.2,1.6-12.4
					c-0.1-5.1-0.1-10.3,0-15.4c0.1-2.6,0.2-5.1,0.3-7.7c0.1-1.3,0.1-2.6,0.2-3.9c-1.5,1.3-1.3,1.5,0.9,0.6
					c4.7-0.2,10.2-2.7,14.8-3.9c7.4-2,4.3-13.5-3.2-11.5c-5.5,1.5-11.2,2.7-16.6,4.4c-4.8,1.5-7.2,4.7-7.7,9.7
					c-0.6,5.7-0.6,11.4-0.7,17.1c0,2.9,0,5.8,0,8.7c0,2,1.1,6.8,0.1,8.3c3.4,2,6.8,4,10.3,6c-1.1,0.4-2.3,0.9-3.4,1.3
					C344.7,79.2,347.8,67.7,340.6,65.1L340.6,65.1z"/>
			</g>
		</g>
		<g>
			<g>
				<path class="st2" d="M350.7,28c-2.8,6.9-5.2,13.9-7,21.1c-1.6,6.6-2.7,13.3-6,19.3c-3.7,6.7,6.6,12.7,10.3,6
					c3.6-6.5,5.2-13.4,6.9-20.5c1.8-7.8,4.3-15.3,7.3-22.7C365.1,24.1,353.6,21,350.7,28L350.7,28z"/>
			</g>
		</g>
		<g>
			<g>
				<path class="st2" d="M348.9,52.6c0.5-4.9,1-9.7,1.6-14.6c0.3-3.2-3-5.9-6-5.9c-3.5,0-5.6,2.7-6,5.9c-0.5,4.9-1,9.7-1.6,14.6
					c-0.3,3.2,3,5.9,6,5.9C346.5,58.5,348.6,55.8,348.9,52.6L348.9,52.6z"/>
			</g>
		</g>
		<text transform="matrix(1 0 0 1 125.8978 97.2315)" class="st3 st4">MIG!</text>
	</g>
</g>
</svg>
