<?xml version="1.0" encoding="utf-8"?>
<!-- Generator: Adobe Illustrator 25.2.3, SVG Export Plug-In . SVG Version: 6.00 Build 0)  -->
<svg version="1.1" id="Layer_1" xmlns="http://www.w3.org/2000/svg" xmlns:xlink="http://www.w3.org/1999/xlink" x="0px" y="0px"
	 viewBox="0 0 399.5 225" style="enable-background:new 0 0 399.5 225;" xml:space="preserve">
<style type="text/css">
	.st0{display:none;}
	.st1{display:inline;}
	.st2{fill:#1CBF03;}
	.st3{font-family:'Dynamix';}
	.st4{font-size:59.514px;}
	.st5{font-size:72px;}
</style>
<g id="Layer_1_2_">
	<g id="Layer_1_1_" class="st0">
		<g class="st1">
			<g>
				<path class="st2" d="M59.9,246.6c2-5.5-1.4-11.2-1.9-16.8c-0.6-6.3-9.6-4.7-9,1.7c0.3,2.5,1,4.6,1.6,7c0.3,1.1,1.1,3.5,0.6,4.7
					C49.3,249.1,57.9,252.5,59.9,246.6L59.9,246.6z"/>
			</g>
		</g>
		<g class="st1">
			<g>
				<path class="st2" d="M58.2,250c3.7-1.6,7.8-3.7,10.6-7c1.1-1.4,1.5-3,2.6-4.3c1.3-1.8,2.5-2.8,3.4-4.9c-3-0.3-5.8-0.6-8.8-0.9
					c0.3,2.5-3.4,4.3-4.9,5.3c-2.4,1.6-4.3,3.2-6.1,5.5c-2.8,3.4,1.1,8.2,4.6,7.7c3.9-0.6,8.6-1.5,11.7-4.2c2.5-2.2,3.8-6,5.7-8.9
					c3.6-5.8,7.5-15.6,3.5-22.3c-4.3-7.2-13.1-7.2-19.8-5.4c-3.9,1.1-7.6,2.7-11,5c-1.8,1.2-3.3,2.9-5,4c-1.5,1-3.4,0.8-5,1.8
					c-3.1,1.9-3.7,7.8,0.5,9.1c2.4,0.8,4.5,1,6.9,0.2c-1.8-1.8-3.6-3.5-5.4-5.3c-0.3,2.2-0.9,4.3-1.6,6.4c2.3-0.7,4.6-1.5,6.8-2.3
					c-0.2-0.2-0.3-0.4-0.5-0.6c-2.6-4.3-9.8-3.1-8.6,2.9c1.6,7.9,2.9,15.9,3.8,24c0.6,5.7-0.8,16.6,6,18.6c3.1,0.9,4.9-1.1,7-3
					c2.3-2.1,5.4-2.7,7.1-5.5c1.7-2.7,1.3-5.8,0.9-8.9c-0.6-4-1.3-8.1-1.9-12.1c-1-6.4-9.4-4.5-9,1.7c0.5,6.1-0.5,15.3,4,20
					c1.7-2.6,3.3-5.2,5-7.7c-1.5-0.7-4.2-0.6-5.5-1.7c-1.3-1-1.3-6-1.6-7.7c-0.6-3.3-1.1-6.5-1.7-9.7c-0.5-2.8-1.7-6.5-1.6-9.2
					c-0.9,1.3-1.7,2.7-2.5,3.9c1.7-1,4.1-0.8,6-1.4c2.3-0.6,4.6-1.5,6.9-2.4c4.4-1.8,8.7-3.6,13.5-3.9c-1.8-1.3-3.5-2.7-5.3-4
					c-0.1-1.3-0.3-0.4-1.2,0.1c-0.7,0.5-1.4,1.1-2.1,1.7c-4.4,4.1,1.5,11.6,5.9,7.5c3.6-3.4,6.9-5.1,6.3-11c-0.3-2.9-3-4.2-5.3-4
					c-6.8,0.4-12.7,4-19.1,5.9c-3.1,0.9-6.8,0.8-9.7,2.5c-3.1,1.9-2.7,5.2-2.1,8.5c1.4,8,2.4,16.2,4.3,24.2c0.7,3,1.8,5.6,4.4,7.3
					c2.2,1.5,4.9,1.6,7.3,2.7c4,1.8,8.3-4.3,5-7.7c-1.4-1.5-1.1-4.5-1.2-6.4c-0.2-3-0.5-5.9-0.7-8.9c-3,0.6-6,1.1-9,1.7
					c0.4,2.5,0.8,5.1,1.2,7.5c0.2,1.1,1.4,5.1,1,6.1c-0.5,1.2-4.3,2.4-5.3,3.5c-0.3,0.4-0.6,0.6-1,1c2.9,2.8,4.2,3.1,3.9,1.2
					c0.2-0.9-0.2-3-0.3-3.8c-0.8-10.7-2.4-21.5-4.5-32c-2.9,1-5.7,1.9-8.6,2.9c1,1.8,2.1,3.1,3.5,4.5c2.2,2.2,6,0.5,6.8-2.3
					c0.9-2.9,1.6-5.8,2.1-8.9c0.5-2.9-2.6-6.2-5.4-5.3c-0.7,0.4-1.4,0.5-2.1,0.2c0.2,3.1,0.3,6,0.5,9.1c1.9-1.2,4.1-1,6.1-2.5
					c2.1-1.6,4-3.5,6.3-4.9c3.8-2.2,11.2-5.6,15.5-3.1c3.7,2.1-0.4,10-2.1,12.6c-1.3,2-2.3,4-3.5,5.9c-1.6,2.6-5.4,2.8-8.1,3.2
					c1.5,2.6,3.1,5.2,4.6,7.7c2.7-3.2,6.9-4.4,9.6-7.7c2.5-2.9,3.4-6.4,2.9-10.4c-0.6-5.3-7-4.9-8.8-0.9c-0.5,1.1-2,2-2.7,3.2
					c-0.5,0.9-0.7,2.1-1.3,2.9c-1.8,2.4-5.5,3.7-7.9,4.8C48.8,243.4,52.8,252.3,58.2,250L58.2,250z"/>
			</g>
		</g>
		<g class="st1">
			<g>
				<path class="st2" d="M115,251.1c2.2,2.9,5.4,4.9,9,4.2c1.6-0.3,2.9-1.2,4-2.3c0.8-0.9,1.5-3,2.5-3.5c3.3-1.8,3.4-7.7-0.5-9.1
					c-3.2-1.1-8-1.8-10.7-3.9c-1.3-1-0.9-1.3-1.2-2.8c0.1,0.5-1.5,1.2,0.3,0.1c1.7-1,3.2-2.2,4.7-3.4c6.3-5,7.6-11.7,6.6-19.9
					c-0.7-6.3-9.7-4.7-9,1.7c0.2,2.2,0.5,5-0.3,7.2c-0.7,1.9-2.8,3.2-4.3,4.3c-3.5,2.6-6.8,3.9-7.1,9.1c-0.7,11.9,9.5,14,17.9,16.9
					c-0.2-3.1-0.3-6-0.5-9.1c-1.4,0.8-2.4,1.7-3.5,3c-0.3,0.5-0.7,1.1-1.1,1.6c-0.3,0.5,1,1.1-0.1-0.4
					C118.1,239.9,111.2,246.2,115,251.1L115,251.1z"/>
			</g>
		</g>
		<g class="st1">
			<g>
				<path class="st2" d="M129.4,209.8c-2.4-21.3-32-11.1-40.6-0.9c-3.8,4.6,2,12.2,5.9,7.5c3-3.6,8.7-7.1,13.1-8.1
					c2.7-0.6,5.6-1,8.4-1c3.1-0.1,3.8,0.9,4.2,4.1C121.2,217.7,130.1,216,129.4,209.8L129.4,209.8z"/>
			</g>
		</g>
		<g class="st1">
			<g>
				<path class="st2" d="M86.9,215.3c3.1,14.1,5.6,28.3,7.2,42.7c0.4,3,4,5.2,6.5,3.7c3.3-2,8-4.1,8.8-8.5c0.9-5-0.9-10.9-2.5-15.6
					c-0.3,1.9-0.8,3.9-1.1,5.8c0.2-0.2,0.4-0.3,0.6-0.5c-1.1,0.4-2.2,0.7-3.3,1.1c1.5,0,3.7,5.3,4.6,6.3c1.6,1.8,3.7,2.4,5.9,1.6
					c5.3-2,3.4-9.2,1.7-13.5c-1-2.6-2.3-4.8-3.6-7.3c-0.7-1.3-1.7-2.9-1.9-4.4c-0.2-1.1-0.4-0.7,1-1.9c3.4-3.3,7.5-5.3,10-9.7
					c-2.8-1.1-5.5-2.3-8.3-3.4c-0.4,4.6-0.8,10.6-5.1,13c1.7,2.7,3.3,5.5,5,8.2c4.8-5.2,12-10.6,10.1-19.2
					c-0.7-3.3-2.7-8.6-5.1-10.9c-2.6-2.4-7.4-1.6-10.5-0.9c-6.8,1.5-12.8,6.7-13,14.6c-0.1,3.9,0.9,8,1.5,11.8
					c0.8,4.9,1.7,9.7,2.5,14.6c0.9,5.4,8.7,5.3,9-0.3c0.2-4.6,0.5-9.3,0.9-13.9c0.2-2.1,0.3-4.1,0.6-6.1c0.2-1.3,1.3-5.4,0.1-5.6
					c5.8,1.1,6.6-8.7,0.8-9.8c-6.6-1.2-8.9,5.7-9.6,11.4c-1.1,7.7-1.4,15.4-1.8,23.1c3-0.1,6.1-0.2,9-0.3
					c-1.2-7.1-2.7-14.2-3.7-21.3c-0.4-3.1-0.3-5.5,2.4-7.3c2.2-1.5,5.7-1.9,8.3-1.4c-1.1-0.6-2-1.1-3-1.8c1.6,2.2,3.6,6.2,1.9,8.7
					c-1.7,2.6-4.4,4.8-6.5,7c-3.4,3.7,0.1,11,5,8.2c7.5-4.2,9.3-12.5,10.2-20.9c0.5-4.8-5.8-7.5-8.3-3.4
					c-3.3,5.5-11.3,7.3-12.8,14.3c-0.8,3.7,1.1,7.7,2.7,10.9c0.9,1.8,5.6,8.7,4.6,10.7c0.8-0.9,1.5-1.8,2.3-2.7
					c-0.2,0.1-0.4,0.1-0.6,0.2c1.6,0.2,3,0.3,4.6,0.4c-0.2-0.1-1.6-2.6-2.1-3.4c-1.1-1.6-2.4-3.2-4-4.2c-2.7-2-5.5-1.8-8.1,0.1
					c-1.8,1.3-1.7,4-1.1,5.8c0.8,2.4,1.8,5.6,1.7,8.1c0,1.1,1.1,0.1-0.7,0.9c-1.1,0.4-2.1,1.3-3.1,2c2.1,1.2,4.3,2.5,6.5,3.7
					c-1.7-14.4-4.1-28.6-7.2-42.7C94.5,207.5,85.6,209.1,86.9,215.3L86.9,215.3z"/>
			</g>
		</g>
		<g class="st1">
			<g>
				<path class="st2" d="M154.7,209.8c-3.3,2.9-7.8,6.7-9.6,11c-1.9,4.4-0.5,10.4,0.3,15c0.6,4,6.1,5.7,8.2,2.1
					c2.5-4.4,4-9.1,4.4-14.3c0.5-5.9-6.7-7-8.8-2.2c-3,6.7-1.9,14.9,2.9,20.5c4.4,5.2,13.1,4.6,18.1,1.2c5.9-4,6.3-13.3,6.1-20.2
					c-0.2-4.1-0.8-7.5-3.4-10.5c-2.3-2.6-4.9-4.9-8-6.2c-5.5-2.3-8.6,7-3.1,9.2c3,1.2,5.2,3.7,5.4,7.1c0.2,3.1,0.4,8.9-1.4,11.5
					c-1.3,2-5.7,2.6-7.2,0.9c-2.6-2.8-2.3-6.7-0.9-10c-2.9-0.8-5.9-1.5-8.8-2.2c-0.3,3.5-1.2,6.6-2.9,9.6c2.8,0.7,5.5,1.3,8.2,2.1
					c-0.4-2.6-1.8-7.1-0.7-9.5c1.3-2.7,4.8-5.3,7-7.3C165.2,213.3,159.2,205.7,154.7,209.8L154.7,209.8z"/>
			</g>
		</g>
		<g class="st1">
			<g>
				<path class="st2" d="M160,205.2c-5.2,0.6-12.5,2.3-16,6.8c-3.5,4.5-2.9,12.7-2.5,18.3c0.4,5.9,1.3,13.3,5.1,18
					c3.5,4.4,9,4.7,13.9,4.6c5.8-0.2,10-2.2,14.4-6.2c3.8-3.5,7-7.8,7.7-13.3c0.8-6.3-0.5-14.2-2.1-20.3c-1.5-6.1-4.2-12-8.8-16.1
					c-4.6-3.9-10.9-5.4-16.3-2.9c-6.1,2.9-8.9,9.6-11,16.1c-1.9,5.9,6.7,9.5,8.6,3.5c1.2-3.8,2.7-9.5,6.8-10.8
					c4.2-1.4,8.1,3,9.8,6.6c2.3,4.7,2.9,9.9,3.6,15.1c0.6,5.1,0.9,9-2.6,12.8c-3,3.3-6.1,5.5-10.6,5.6c-1.6,0.1-3.7,0.2-5.3-0.5
					c-1.9-0.9-2.4-3.1-2.8-5.1c-1.2-5.2-1.6-10.6-1.3-15.9c0.2-3.2,1-3.8,3.7-5c2.4-1.1,4.8-1.6,7.4-1.8
					C167.5,214.3,165.8,204.6,160,205.2L160,205.2z"/>
			</g>
		</g>
		<g class="st1">
			<g>
				<path class="st2" d="M162.4,210.1c0.2-0.3,0.4-0.5,0.5-0.7c0.3-0.5,0.4-0.5,0.1,0c-0.7,0.3-1.5,0.7-2.1,1
					c-1.3-0.3-1.5-0.3-0.7,0c0.2,0.1,0.3,0.1,0.5,0.2c0.6,0.2,0.2,0.1,0.9,0.6c0.2,0.1,1,0.8,0.9,0.7c0,0,0.7,0.8,1,1.1
					c1.6,2.1,4.6,2.4,6.4,0.6c1.9-1.7,2.1-4.9,0.4-6.9c-1.9-2.4-4.1-4.2-6.8-5.4c-1.6-0.7-3.3-1-4.9-0.4c-1.7,0.7-2.7,2-3.8,3.5
					c-1.6,2.1-0.8,5.4,1.2,6.9C158.1,213,160.8,212.2,162.4,210.1L162.4,210.1z"/>
			</g>
		</g>
		<g class="st1">
			<g>
				<path class="st2" d="M203.4,197.2c-0.9,0.3-2.3,0.8-3.3,0.7c1.3,1,2.5,1.9,3.7,2.8c-0.2-0.5-0.5-1.9-0.3-2.4c-0.2,0-0.2,0-0.4,0
					c0.4-0.2,0.9-0.4,1.3-0.7c2-1.1,3.9-2.1,5.9-3.1c3.7-2,7.5-3.8,11.1-5.8c-2-0.8-4.1-1.6-6.1-2.4c1,2.9,1.1,6.5,1.6,9.6
					c0.5,3.2,1,6.4,1.5,9.6c0.5,3.2,1,6.4,1.5,9.6c0.5,2.9,1,4.4-0.8,6.7c-3,3.9-7.6,6.2-11.8,8.1c-1.8,0.9-5,2.3-7,0.8
					c-0.6-0.5-2.1-5.3-1.4-6c-2.5-1-5-2-7.5-3c0.4,4.2,0.1,10,2.8,13.5c2.6,3.4,6.8,3.6,10.4,2.8c3.4-0.8,4.9-5,2.6-8
					c-0.5-0.8-1.1-1.5-1.8-2.1c-0.9,2.7-1.8,5.3-2.6,8c0.7-0.2,1.5-0.5,2.2-0.7c3.9-1.2,5.5-7.8,0.7-9.5c-1.6-0.6-3.1-0.9-4.7-0.9
					c-4.7,0-7.3,8-1.9,9.5c9.7,2.7,18.8-2.8,23.1-12.2c3.8-8.4,2.2-21.7-3.9-28.6c-3-3.4-8.8-1-7.9,4c1.1,6.5,3.4,13.7,2.7,20.3
					c3-0.1,6.1-0.2,9-0.3c-1.2-7.6-2-15.8-4.5-23.1c-2.6-7.7-8.7-4.7-13.2-0.7c-4,3.5,0.3,10.7,5,8.2c2.2-1.1,4.4-2.2,6.7-3.2
					c5.5-2.3,1.5-11.2-4-8.9c-2.3,1-4.5,2-6.7,3.2c1.7,2.7,3.3,5.5,5,8.2c0.6-0.6,1.3-1.1,1.9-1.6c1.5-0.7,1.4-0.8-0.1-0.3
					c-1.3-1-2.5-1.9-3.7-2.8c1.7,3.1,2.1,7.6,2.7,11c0.7,3.8,1.3,7.8,1.9,11.6c0.9,5.6,8.5,5.1,9-0.3c0.8-7.5-1.4-15.5-2.8-22.9
					c-2.6,1.4-5.3,2.6-7.9,4c3.3,3.7,4.7,11.3,3.3,16.2c-1.5,5.3-6.9,10.5-12.4,9c-0.7,3.1-1.3,6.4-1.9,9.5c0.8-0.1,1.6,0,2.4,0.3
					c0.2-3.2,0.5-6.3,0.7-9.5c-0.7,0.2-1.5,0.5-2.2,0.7c-2.8,1-5.5,5.1-2.6,8c0.7,0.6,1.3,1.3,1.8,2.1c0.9-2.7,1.8-5.3,2.6-8
					c-0.4,0.1-1.6,0.6-2,0.4c1,0.6,0.3-0.9,0.1-1.7c-0.2-2.3-0.5-4.6-0.7-6.9c-0.4-3.5-5.1-5.5-7.5-3c-4.9,5.3-3.9,17.1,2,21.6
					c7.4,5.6,17.1,0.5,23.8-3.9c3.3-2.2,6.4-4.8,8.6-8.3c2.4-3.7,2.5-7.2,1.8-11.5c-0.9-5.6-1.8-11.1-2.6-16.7
					c-0.9-5.3-1.3-11-3-16.1c-0.9-2.5-4-3.4-6.1-2.4c-3.9,2.1-7.9,4.1-11.8,6.1c-3.1,1.7-8.8,3.2-10.5,6.7c-1.5,3.1-1,8.7,0.4,11.8
					c2,4.3,6.1,3.3,9.6,2.4C210.8,205.5,209.1,195.8,203.4,197.2L203.4,197.2z"/>
			</g>
		</g>
		<g class="st1">
			<g>
				<path class="st2" d="M269.4,226.1c6.7-1,7.5-5.8,8.3-12.3c0.4-3.7-3.5-6.6-6.5-5c-1.8,1-2.8,2.6-4.4,3.9c-1.6,1.2-3.7,2-5.6,2.6
					c-1.7,0.5-4,1.2-5.4-0.4c-0.9-1-2-5.4-1.7-6.1c-0.8,0.9-1.5,1.8-2.3,2.7c2.8-1.2,6.1-0.9,8.9-2.3c3.2-1.7,4.4-5.5,3.9-9.3
					c-0.5-3.7-2.9-5.8-6.3-5.6c-1.7,0.1-3.3,0.7-4.9,1.2c-0.7,0.2-2.4,0.7-2.9,1.3c-1,0.4-0.7,0.5,0.9,0.3c1.4,0.4,1.9,0.3,1.2-0.5
					c-0.5,1.1-1,2.2-1.6,3.2c4.2-3.8,10-5.1,14.5-8.1c1.9-1.4,3.4-3.1,3.8-5.6c0.6-3.2-0.7-6.4-0.3-9.6c-0.5,1.1-1,2.2-1.6,3.2
					c0.1-0.1,0.3-0.2,0.4-0.3c-2.4-1.8-4.8-3.7-7.3-5.5c0.3-0.8-1,0.3-1.4,0.5c-1.1,0.5-2.2,1-3.3,1.5c-2.2,1-4.4,2-6.6,2.9
					c-3.7,1.6-8.8,2.7-11.9,5.5c-3.2,2.8-1.6,8.1-1.1,11.9c0.7,5.2,1.5,10.3,2.7,15.4c1.2,5.6,8.1,5.1,9-0.3
					c0.6-3.6,1.3-7.2,2.5-10.6c1.1-3.2,2.9-6,4.2-9c2-4.9-3.9-8-7.3-5.5c-3.1,2.3-4,5.8-3.7,9.7c0.5,6.3,9.5,4.6,9-1.7
					c-0.3,0.3-0.1,0.1,0.7-0.5c-2.4-1.8-4.8-3.7-7.3-5.5c-1.4,3.5-3.4,6.6-4.6,10.3c-1.2,3.8-1.9,7.8-2.6,11.8c3-0.1,6.1-0.2,9-0.3
					c-0.8-3.6-1.4-7.2-2-10.8c-0.5-3.3-1.6-7.2-1.4-10.4c-0.5,1.1-1,2.2-1.6,3.2c2.1-1.5,5.2-2.1,7.6-3.2c2.4-1.1,4.9-2.2,7.3-3.2
					c4.4-2,9.1-3.3,11.3-8.3c2.2-5-4-7.8-7.3-5.5c-1.9,1.3-2.1,3.4-2,5.6c0,1.5,0.2,3.2,0.4,4.7c0.4,2.7,0.5,0.6-0.7,1.6
					c-2,1.6-5.1,2.6-7.4,3.8c-2.2,1.3-5.3,2.5-7.2,4.5c-3.5,3.5-1.2,9.6,1.8,12.6c1.7,1.7,3.5,2.1,5.6,1.6c2.1-0.5,4.5-2.8,6.7-2.3
					c-1.3-1-2.5-1.9-3.7-2.8c1-0.9,1-1.2,0-0.7c-0.6,0.1-1.2,0.3-1.8,0.4c-1.4,0.3-2.9,0.5-4.3,0.9c-1.9,0.6-3.6,1.7-4.2,3.8
					c-1.4,4.5,0.8,11.8,3.6,15.3c3.5,4.5,8.9,5.2,13.9,3.9c2.2-0.6,4.5-1.4,6.5-2.4c1-0.5,2-1.1,2.9-1.9c1-0.8,1.8-2.4,2.9-3
					c-2.2-1.7-4.3-3.3-6.5-5c-0.2,1.7,0.4,3.5-0.9,3.7C262,217.3,263.7,227,269.4,226.1L269.4,226.1z"/>
			</g>
		</g>
		<g class="st1">
			<g>
				<path class="st2" d="M241.8,216.2c-0.2,0.7-0.3,1.4-0.5,2.1c2-1,3.9-1.9,5.9-2.8c-0.2-0.1-0.3-0.1-0.5-0.2
					c0.9,0.8,1.7,1.7,2.6,2.6c-0.7-1.7-0.9-4.1-1.2-6c-1.1-5.1-9.3-5.4-9,0.3c0.2,5.9,0.6,11.7,1.3,17.5c0.7,4.9,2.9,9.2,8.2,8.5
					c4.6-0.6,9.2-3,13.3-5c4.5-2.1,8.7-4.7,12.7-7.8c2.3-1.7,2.1-6.2-0.4-7.8c-4.5-2.9-10.2,0.2-14.8,1.4c-2.8,0.8-5.7,1.6-8.6,2.4
					c-2.3,0.7-5.8,2.3-8.1,2.3c0.8,2.9,1.8,5.8,2.6,8.6c1.8-1.5,3.7-2.9,5.7-4.1c5.1-2.9,1.2-11.9-4-8.9c-2.8,1.6-5.3,3.4-7.7,5.5
					c-2.9,2.5-1.3,8.6,2.6,8.6c4.7,0.1,9.7-2.2,14.2-3.4c2.4-0.7,4.8-1.3,7.1-2c1.4-0.4,2.8-0.8,4.3-1.2c0.4-0.1,1-0.3,1.4-0.4
					c1.9-0.2,1.9-0.5,0.1-1c-0.1-2.6-0.3-5.2-0.4-7.8c-5.1,4-10.9,6.7-16.8,9.1c-0.4,0.2-4.5,1.5-4.5,1.5c2.1,2,2.7,2,2-0.3
					c-0.1-0.8-0.2-1.6-0.3-2.4c-0.5-4.1-0.8-8.3-1-12.5c-3,0.1-6.1,0.2-9,0.3c0.8,3.8,0.9,9.8,5.1,11.2c2.1,0.7,5.2-0.2,5.9-2.8
					c0.2-0.7,0.3-1.4,0.5-2.1C251.8,213.6,243.2,210.1,241.8,216.2L241.8,216.2z"/>
			</g>
		</g>
		<g class="st1">
			<g>
				<path class="st2" d="M294.1,210.1c-0.8-6.2-1.8-12.3-3-18.3c-0.6-2.9-1.2-5.8-1.9-8.7c-0.6-2.5-2-5.9-1.9-8.6
					c-0.5,1.1-1,2.2-1.6,3.2c2.4-1.7,6.9-2.1,9.6-2.8c-1.8-1.8-3.6-3.5-5.4-5.3c-0.8,6.5-0.8,12.9-0.1,19.4c2.9-1,5.7-1.9,8.6-2.9
					c-1.7-3.4-3.5-6.8-5.3-10.3c-2.9-5.5-11-1.5-8.2,4.2c1.8,3.6,3.5,7.2,5.3,10.8c1.4,2.9,2.7,6.2,6.1,6.7
					c6.2,0.9,10.5-6.8,11.4-12.2c-3-0.4-6.1-0.7-9.1-1c-0.1,0.7-0.2,1.3-0.3,2c-0.7,4.8,6,7.4,8.3,3.4c1.8-3.2,3.9-5.9,6.6-8.3
					c2.5-2.2,4.3-4.1,5.7-7.2c-2.8,0.1-5.6,0.2-8.4,0.4c0.8,2.2,2,4.7,2.3,7c0.5-1.6,1-3.1,1.5-4.6c-2.3,2.6-5.8,4.6-8.6,6.6
					c-3.1,2.4-6.3,4.8-9.5,7.2c-4.8,3.7,1.2,11.2,5.9,7.5c5.4-4,10.6-8.1,16-12.1c2.1-1.6,4-3.2,3.6-6.3c-0.3-3.1-2.1-6.5-3.1-9.5
					c-1.5-4.4-6.9-3-8.4,0.4c-1,2.3-4.3,4-5.9,5.8c-2.1,2.3-3.8,4.7-5.3,7.4c2.8,1.1,5.5,2.3,8.3,3.4c0.1-0.7,0.2-1.3,0.3-2
					c0.9-6.4-8-7-9.1-1c-0.2,1.4-1.4,3.2-2.8,3.5c1.1,0.3,2.3,0.6,3.4,0.8c0.6,1,0.6,1,0.2,0.1c-0.3-0.6-0.7-1.3-1-2
					c-0.6-1.1-1.1-2.2-1.7-3.3c-1.2-2.5-2.4-4.9-3.6-7.4c-2.7,1.4-5.5,2.8-8.2,4.2c1.7,3.4,3.5,6.8,5.3,10.3c2.6,5,9.1,2.6,8.6-2.9
					c-0.6-5.6-0.5-11.2,0.2-16.7c0.4-3-2.5-6.1-5.4-5.3c-4.1,1-9.6,1.8-13.2,4.4c-3.7,2.6-2.2,7.4-1.3,11.3
					c2.4,10.2,4.5,20.4,5.9,30.8C285.9,218.1,294.9,216.5,294.1,210.1L294.1,210.1z"/>
			</g>
		</g>
		<g class="st1">
			<g>
				<path class="st2" d="M296.8,193.2c-0.9,3.4-1.4,7.1-0.2,10.6c1.3,3.8,4.6,5.6,7.6,7.7c6,4.3,12.4,8,19.6,5.5
					c4.8-1.7,2.1-10.9-2.8-9.3c-2.7,0.9-5.4,1.7-7.7,3.5c-0.7,0.4-1.3,1-1.8,1.5c0.2-0.3,0.1-0.4-0.3-0.6c-1.1-0.6-1.8-2.2-2.7-3.1
					c-2.1-2.3-4.4-4.2-6.8-6.1c-2.8-2.4-3.8-4.3-4.4-8.2c-3,0.6-6,1.1-9,1.7c0.7,4.1,1.5,8.2,2.2,12.2c0.6,3.6,2.1,8,2.1,11.6
					c0.5-1.1,1-2.2,1.6-3.2c0.6-0.6-2,0-2.2-0.1c1.6,0.9,0.7-2.6,0.6-3.1c-0.3-6.3-9.3-4.6-9,1.7c0.2,4.3,1.8,10,6.3,11.2
					c2.9,0.7,8,0.3,10.2-2c3.1-3.2,0.8-9.1,0.1-12.9c-1-5.6-2-11.2-3-16.8c-1.1-6.3-9.9-4.6-9,1.7c0.6,4.8,2,8.7,5.4,12.1
					c3,3.1,6.5,5.4,9.3,8.8c2.5,2.9,5.4,5.5,9.3,5.4c1.8,0,3.2-0.7,4.7-1.9c1.8-1.6,3.4-2.5,5.7-3.3c-0.9-3.1-1.9-6.2-2.8-9.3
					c-2.9,1-7.1-2.2-9.3-3.7c-1.3-0.9-3.1-1.8-4.2-3c-1.5-1.5-1.5-2.4-0.9-4.6C307,190.7,298.4,187.2,296.8,193.2L296.8,193.2z"/>
			</g>
		</g>
		<g class="st1">
			<g>
				<path class="st2" d="M337.8,179c-0.1,0.3-0.2,0.5-0.2,0.8c0.8-0.9,1.5-1.8,2.3-2.7c-2.7,1.4-6.5,1.7-9.4,2.4
					c1.8,1.3,3.5,2.7,5.3,4c-0.6-2.8-1.8-6.6-1.6-9.6c-0.5,1.1-1,2.2-1.6,3.2c2.2-2.1,5.7-3.2,8.4-4.5c3-1.4,6.1-2.7,9.3-3.9
					c5.9-2.4,12.6-3.8,17.9-7.6c-2.5-1.4-5-2.8-7.5-4.3c-0.6,3.5-0.9,7.2-0.9,10.8c1.2-1.5,2.5-2.9,3.7-4.4c-5,1.3-10,2.9-14.8,5.2
					c-4.9,2.3-9.1,4.6-14.7,4.9c-4,0.2-4.9,6.7-1.8,8.8c3.4,2.3,7.1,2.2,11,1.9c4.1-0.3,6.8-2.4,8.3-6.7c1.3-3.5,1.4-7.8-2.2-9.7
					c-3.8-2.1-8.7,1.3-11.9,3.4c-2.7,1.8-3.3,4.7-1.4,7.6c2.5,3.8,9.2,2.5,12.2,0.3c0.4-0.2,0.8-0.3,1.2-0.5
					c-1.4-2.1-1.9-2.3-1.4-0.7c0.2,1,0.8,2.2,1.3,2.9c0.7,0.8,1.5,1.3,2.5,1.6c0.3,0.1,0.6,0.2,0.9,0.2c1.7,0,1.6-0.1-0.2-0.1
					c-0.9-0.8-1.7-1.7-2.6-2.6c1,1.7,0.6,5.7,0.9,7.9c0.4,3,1.2,5.7,2.1,8.4c0.3,1,1.5,3.3,1.2,4.2c0.1,0,0.2,0,0.3-0.1
					c-0.5,0.2-1,0.5-1.5,0.7c-2.3,1.2-4.3,2.7-6.2,4.5c2.5,1,5,2,7.5,3c-1.4-9.7-2.8-19.6-4.2-29.3c-2.6,1.4-5.3,2.6-7.9,4
					c0.8,0.9,0.9,3.4,1.1,4.5c0.5,2.2,0.8,4.4,1.1,6.5c0.7,4.1,1.7,7.2,4.4,10.3c2.4,2.8,6.4,2,7.8-1.4c0.1-0.3,0.3-0.5,0.3-0.8
					c2.3-5.8-6.3-9.2-8.6-3.5c-0.1,0.3-0.3,0.5-0.3,0.8c2.6-0.4,5.1-0.9,7.8-1.4c-4.9-5.6-1.6-15.6-6.7-21.4c-3.1-3.6-8.6-0.9-7.9,4
					c1.4,9.7,2.8,19.6,4.2,29.3c0.5,3.8,4.9,5.2,7.5,3c2.8-2.5,6.9-3.5,9.2-6.8c2.5-3.7,1.2-8.3,0-12.2c-1.6-5.1-1.9-9.8-2.7-15
					c-0.3-1.8-0.7-3.5-2-4.8c-0.6-0.6-1.3-1-2-1.2c-0.4-0.1-3.4-0.4-1.9-0.2c1.3,1,2.5,1.9,3.7,2.8c-1.6-2.9-1.8-6-5.5-6.9
					c-1.7-0.4-3.3,0-4.9,0.6c-0.8,0.3-1.5,0.7-2.4,1.1c-0.6,0.3-1.2,0.5-1.8,0.8c-1.1,0.2-0.9,0.7,0.5,1.5c-0.5,2.5-0.9,5.1-1.4,7.6
					c1-0.7,2-1.3,3.1-1.9c0.4-0.2,0.9-0.4,1.3-0.6c1.1-0.3,0.9-0.7-0.7-1c-0.7-1.1-1.3-2.1-1.9-3.2c0-1-0.2,0.3-0.3,0.6
					c-0.2,0.4-0.4,0.6-0.5,1c0.9-0.6,0.8-0.8-0.1-0.6c-1.4-0.4-3.5,0.8-4.9-0.1c-0.6,3-1.2,5.9-1.8,8.8c10.4-0.7,19.4-7.6,29.4-10.1
					c1.8-0.4,3.7-2.1,3.7-4.4c0-3.7,0.3-7.2,0.9-10.8c0.7-4.7-4.6-6.3-7.5-4.3c-3.7,2.6-9.1,3.6-13.2,5.2c-4.4,1.7-8.9,3.5-13.3,5.5
					c-3.2,1.5-8.4,3.2-10.2,6.7c-1.8,3.7,0.3,10.1,1.1,14c0.5,2.5,2.9,4.6,5.3,4c4.5-1,12.6-1,14.3-6.6
					C348.3,176.5,339.7,173.1,337.8,179L337.8,179z"/>
			</g>
		</g>
		<g class="st1">
			<g>
				<path class="st2" d="M411.3,197.4c3.2-2.1,6.9-4.9,7-9.4c0.1-4.7-4.9-8.3-8.5-4.9c-1.3,1.2-1.8,2.9-3.1,4.1
					c-1.4,1.4-2.7,2.4-3.2,4.6c-1,5.2,4,8,8.1,7.2c-1.5-2.6-3.1-5.2-4.6-7.7c-2.1,3.3-6.2,5.2-9.5,6.7c-3.1,1.4-8.1,3.7-11.5,3.3
					c1.3,1,2.5,1.9,3.7,2.8c-0.4-0.9-0.4-2.4-0.6-3.3c-0.8,1.7-1.6,3.5-2.5,5.2c3.9-1.5,8.3-1.5,12.3-2.9c3.5-1.2,8.2-2.3,11-5
					c1.5-1.3,2.1-4,1.1-5.8c-1.6-3.2-4.7-4.5-7.9-4.2c-3.3,0.3-6.9,3-9.9,0.1c0.7,1.1,1.3,2.1,1.9,3.2c-0.1-1.1-0.1-3.4,0.5-4.1
					c0.9-1.1,3-1.7,4-3c2.5-2.9,3.3-6.7,2.6-10.6c-0.4-2-2.1-3.9-4.1-4.1c-2-0.1-5.6,0.7-6.8,0.4c1.1,0.6,2,1.1,3,1.8
					c-2.1-2.4,0.4-3.2,2.3-3.7c2.6-0.8,5.4-1.2,7.7-3c4.5-3.4,2.8-9.3,3.6-14.3c1-6.3-8.1-7.1-9.1-1c-0.4,2.4-0.6,4.7-0.4,7.1
					c0.2,2.6-0.2,0.4,0.3,0.3c-1.2,0.2-2.5,0.8-3.7,1.1c-3.6,1-7.1,2.5-9.2,5.9c-2.3,3.8-1.5,8.6,0.7,12.3c2.9,4.8,6.6,2.6,10.9,2.9
					c-1.4-1.4-2.7-2.7-4.1-4.1c0.6,3.2-4,4-5.4,6.4c-1.7,2.8-2.2,7.4-1.7,10.7c0.6,4,4.3,5.9,7.7,6.6c1.7,0.4,3.5,0.5,5.3,0.2
					c0.8-0.1,1.6-0.4,2.3-0.6c0.6-0.2,1.2-0.4,1.8-0.6c1.1,0,1-0.6-0.3-1.6c0.3-1.9,0.8-3.9,1.1-5.8c-1,1-3.5,1.5-4.9,2.1
					c-1.9,0.8-3.8,1.5-5.8,1.9c-3.6,1-7.2,1.2-10.7,2.5c-1.9,0.7-2.8,3.3-2.5,5.2c0.6,3.6,1,7.8,5,8.5c3.4,0.6,7.7-1,10.8-2.1
					c6.7-2.2,14.4-5.6,18.5-12c2.2-3.5-0.6-8.5-4.6-7.7c0.7,0.5,1.4,1,2.2,1.5c0.1,1.2,0.1,2.6,0.2,3.8c-0.5,1-0.2,0.6,0.5,0.1
					c0.7-0.5,1.3-1.3,1.9-1.9c0.5-0.5,0.9-1.2,1.2-1.8c0.2-0.4,0.3-0.7,0.5-1c0.4-0.9,0.3-0.8-0.3,0.4c-1.5,0.2-3,0.6-4.5,0.8
					c0.2,0.1,0.3,0.1,0.5,0.2c-0.9-0.8-1.7-1.7-2.6-2.6c-0.9-2.3-0.4-1.6-2.1-0.5C402.4,191.7,406.3,200.7,411.3,197.4L411.3,197.4z
					"/>
			</g>
		</g>
		<g class="st1">
			<g>
				<path class="st2" d="M404.1,149.7c-5.1-3.6-9.3-0.4-13.9,2.1c-2.8,1.5-5.8,2.6-8.8,3.9c-2.4,1.1-5.3,2-6.5,4.7
					c-1.2,2.5-0.4,5.8,0,8.4c0.6,3.5,1.1,7,1.7,10.6c1.1,7,2.8,14.1,2.7,21.2c0,6.2,8.9,7.4,9.1,1c0.3-11.7,0.8-23.3,1.6-34.8
					c-3,0.1-6.1,0.2-9,0.3c1,6.4,1.9,12.8,3.3,19c0.7,3.3,3.6,4.8,6.5,3.7c0.1-0.1,0.4-0.1,0.5-0.2c5.5-2.2,1.5-11.1-4-8.9
					c-0.1,0.1-0.4,0.1-0.5,0.2c2.1,1.2,4.3,2.5,6.5,3.7c-1.4-6.3-2.4-12.6-3.3-19c-0.8-5.5-8.7-5.2-9,0.3
					c-0.8,11.6-1.3,23.2-1.6,34.8c3,0.4,6.1,0.7,9.1,1c0-6.4-1.1-12.6-2.1-18.9c-0.5-3.3-1.1-6.5-1.5-9.8c-0.4-2.8-1.8-6.8-1.4-9.7
					c-0.5,1.1-1,2.2-1.6,3.2c2.4-2.1,6.3-2.9,9.2-4.2c0.8-0.3,7.7-4.6,7.9-4.5C403.9,161.2,409,153.2,404.1,149.7L404.1,149.7z"/>
			</g>
		</g>
		<g class="st1">
			<g>
				<path class="st2" d="M453,157.5c-3.4,3.6-7.2,7.1-10.3,11c-2.7,3.3-2.7,7.8,0.1,11.1c1.2,1.5,2.9,2,4.3,3.1c1.6,1.2,2.6,3,4.3,4
					c3.2,2.3,8.5,4.1,12,1.9c4.9-3.2,1.1-12.1-4-8.9c-1,0.6-6.5,3.7-6.2,5.5c3.1,0.6,4.1,0.3,2.8-0.8c-0.4-0.5-0.9-0.9-1.3-1.3
					c-0.9-0.8-1.9-1.5-2.9-2.2c-2.8-1.8-5.7-3.4-8.7-5.1c-2-1.2-3.9-2.4-6.3-1.6c-4.7,1.6-4.7,10.6-1.6,14c0.8,1.6,1,0.6,0.5-3
					c-0.9,0.3-1.7,0.7-2.6,1c-1.2,0.5-2.4,1-3.5,1.8c-2.3,1.6-3.9,3.6-4.9,6.4c-1.5,4.4,2.8,7.4,6.3,6.2c4.3-1.5,8.1-3.7,11.8-6.5
					c2.8-2.1,1.6-7.3-1.4-8.4c-0.9-0.3-9.1-2.9-9.4-1.9c1.7,2,2.2,2,1.5-0.1c-0.2-0.7-0.2-1.6-0.4-2.3c-0.3-1.8-0.6-3.5-0.9-5.3
					c-0.7-4-1.4-8.1-2.1-12.1c-0.2-1.5-0.5-2.9-0.7-4.4c-0.1-0.7-0.2-5.5-0.9-4.2c0.5-0.9,3.2-1.7,4.1-2.4c1.1-0.9,1.8-1.6,2.9-2.2
					c3.1-1.7,7.1-3.1,10.5-3.7c2-0.3,5.2-0.5,6.6,1.4c1.5,2.1,1.2,6.9-0.5,8.5c2.4,0.6,4.7,1.1,7.1,1.7c-2.3-4.8-2.8-12.5-8.7-13.7
					c-2.7-0.6-5.7,0.4-8.4,0.9c-2.5,0.4-5.2,0.6-7.2,2.2c-1.1,0.9-1.6,2-2.6,3c-0.9,0.9-1.9,1.4-2.9,2.1c-2.3,1.8-3,3.8-3,6.8
					c0.1,7.3,2.6,14.4,2.6,21.7c0,4.7,5.6,7.6,8.3,3.4c2.5-3.9,4.8-8.1,6.6-12.6c1.6-3.9,2.5-9.2,6.5-11.1c-2.1-1.2-4.3-2.5-6.5-3.7
					c0.3,2.5-4.7,5.2-6.5,4.3c0.9,0.8,1.7,1.7,2.6,2.6c0,1.4,0.3,1.4,0.9,0c0.5-0.7,1.2-1.4,1.8-2c1.2-1.2,2.5-2.3,3.9-3.3
					c4.8-3.7-1.2-11.2-5.9-7.5c-3.3,2.6-7.4,6.1-9.1,10.2c-1.8,4.2,0.3,9.3,4.7,10.1c3.8,0.7,9.3-1.5,12.3-4c3.4-2.9,5-7.2,4.4-11.8
					c-0.4-3.3-3.9-4.8-6.5-3.7c-4.8,2.2-7.4,6.7-9.3,11.6c-2.1,5.4-4.2,10.4-7.3,15.2c2.8,1.1,5.5,2.3,8.3,3.4
					c0-4.7-0.6-9.3-1.3-13.9c-0.4-2.6-0.8-5.2-1.2-7.9c-0.4-2.9,0.2-0.3-0.2-0.1c0.8-0.3,1.8-1.2,2.4-1.7c1.3-1.2,1.8-2.4,3.3-3
					c1.7-0.6,3.9-0.7,5.8-0.9c0.6-0.1,2.5,0.1,1.3-0.7c-1.2-0.7-0.1,1,0.1,1.7c0.7,2.3,1.6,4.7,2.6,6.9c1.3,2.9,4.8,3.7,7.1,1.7
					c6.6-6.1,6.2-20.1-1.7-25.2c-4-2.6-9-2.8-13.4-1.8c-5,1.2-11,3.2-15,6.5c-1.8,1.5-4,2.2-5.8,3.8c-1.9,1.7-2.3,4.2-2.2,6.8
					c0,6,1.3,11.8,2.4,17.7c0.5,3,1,6,1.5,9.1c0.4,2.6,0.7,5.7,1.8,8c2.4,5.1,8.5,3.9,12.7,5.3c-0.4-2.8-1-5.6-1.4-8.4
					c-3,2.2-6.3,3.9-9.8,5.1c2.1,2.1,4.2,4.1,6.3,6.2c1.2-3.6,7.6-3.3,9.8-6.7c1.1-1.6,1.4-3.6,0.9-5.4c-0.3-1-0.8-1.7-1.1-2.5
					c-0.2-0.6-0.5-2.5-1-1.6c-1,0.7-1.9,1.4-3,2c-1.5-0.1-1.4,0.2,0.2,0.9c0.9,0.5,1.7,1,2.6,1.6c1.2,0.7,2.5,1.4,3.7,2.1
					c2.2,1.4,3.9,3.1,5.9,4.6c1.8,1.5,4.3,2.1,6.4,1c2.3-1.2,3.4-3.9,5.7-5.4c-1.3-2.9-2.7-6-4-8.9c-1.2,0.8-3.7-1.9-4.4-2.7
					c-0.9-1-3.4-3.8-4.8-3.7c-0.4-0.5-0.6-0.3-0.3,0.5c-0.2,1.3,0.2,1.1,1-0.3c0.9-0.7,1.8-1.8,2.6-2.7c1.9-2,3.8-4,5.7-6
					C463.1,160.7,457.1,153.1,453,157.5L453,157.5z"/>
			</g>
		</g>
		<text transform="matrix(0.9113 -0.1665 0.1687 0.9857 33.5433 268.6591)" class="st1 st3 st4">PROJEKTER</text>
	</g>
	<g>
		<g>
			<path class="st2" d="M175.4,207.4c1.5-0.7,3-1.1,4.6-1.3c0.2,0,0.4-0.3,0.3-0.5c-0.9-2.3-3.1-3.8-5.5-3.9c-0.2,0-0.4,0.2-0.3,0.4
				c0,0.2,0.2,0.3,0.3,0.3c2.1,0,4.1,1.5,4.8,3.5c0.1-0.2,0.2-0.4,0.3-0.5c-1.7,0.2-3.2,0.7-4.8,1.3
				C174.8,207,175,207.6,175.4,207.4L175.4,207.4z"/>
		</g>
	</g>
	<g>
		<g>
			<path class="st2" d="M176.7,210.1c0.3-0.1,0.5-0.2,0.8-0.3c-0.4,0.1-0.8,0.2-1,0.3c0.4-0.1,0.8-0.2,1.3-0.1c-0.4,0-0.7,0-1.1-0.1
				c0.5,0,0.9,0.1,1.3,0.2c0.5,0.1,1.1,0.1,1.6-0.1c0.5-0.1,1-0.3,1.5-0.7c0.4-0.3,0.8-0.8,1.1-1.2c0.3-0.5,0.5-1,0.6-1.5
				c0-0.3,0.1-0.8,0-1.1c-0.1-0.7-0.3-1.5-0.8-2.1c-0.3-0.2-0.5-0.5-0.7-0.8c-0.6-0.4-1.2-0.8-1.9-0.9c-0.3-0.1-0.6-0.2-0.9-0.2
				c-0.3-0.1-0.6,0-0.9-0.1c-0.3-0.1-0.6,0-1,0c-0.3,0-0.6,0.1-0.8,0.1c-0.7,0.2-1.3,0.3-1.9,0.5c-0.5,0.2-1,0.5-1.4,0.9
				c-0.4,0.4-0.8,0.7-0.9,1.3c-0.3,0.5-0.4,1-0.4,1.6c-0.1,0.6,0,1.1,0.2,1.6c0.2,0.3,0.3,0.6,0.5,1c0.4,0.6,1,1.1,1.6,1.3
				c0.3,0.1,0.6,0.2,1,0.3C175.3,210.5,176,210.4,176.7,210.1L176.7,210.1z"/>
		</g>
	</g>
	<g>
		<g>
			<path class="st2" d="M180.1,207.7c0.4-0.1,0.8-0.3,1.2-0.4c-0.2,0-0.4,0.1-0.5,0.1c0.8-0.2,1.6-0.2,2.4-0.3c-0.2,0-0.4,0-0.5,0
				c0.7,0,1.3,0.1,2,0.3c-0.3-1.3-0.5-2.5-0.8-3.8c-0.9,0.5-1.7,1.3-2.5,2c-0.7,0.7-1.4,1.4-2.1,2.1c-1.5,1.5-2.9,3-4.3,4.4
				c1.1,0.1,2.2,0,3.2,0.1c-1-1.1-1.9-2.3-2.9-3.4c-0.9-1.2-1.8-2.2-2.5-3.6c0.1,0.2,0.2,0.3,0.3,0.5c-0.3-0.7-0.6-1.4-1.1-2.1
				c-0.4-0.5-0.8-1.1-1.3-1.5c-0.9-0.9-2.2-1.5-3.4-1.8c-0.3-0.1-0.8,0-1.1,0.1c-0.4,0.1-0.8,0.5-1.1,0.9c-0.5,0.7-0.4,1.7,0,2.3
				c1.2,1.5,2.1,3.3,3.3,4.7c0.4,0.5,0.8,0.9,1.3,1.4c0.4,0.4,0.9,0.7,1.5,1.1c0.9,0.6,2,1,3.1,1.1c1.4,0.2,2.8,0,4.1-0.4
				c0.6-0.2,1.1-0.8,1.2-1.4c0.2-0.7,0.1-1.3-0.3-1.9c-0.7-1.3-1.6-2.5-2.4-3.7c-0.5-0.8-1.2-1.4-2-1.8c-0.6-0.4-1.3-0.5-1.9-0.7
				c0.2,0.1,0.3,0.1,0.5,0.2c-0.5-0.1-1-0.3-1.4-0.5c0.2,0.1,0.3,0.2,0.4,0.3c-0.2-0.1-0.3-0.2-0.4-0.3c0.1,0.2,0.3,0.2,0.3,0.4
				l-0.1-0.1c0.1,0.2,0.2,0.3,0.3,0.5l0-0.1c0,0.3,0.1,0.7,0.1,1.1l0-0.1c-0.1,0.3-0.3,0.6-0.4,1c0,0,0,0,0.1-0.1
				c-0.1,0.1-0.3,0.3-0.4,0.4c0.1,0,0.1-0.1,0.1-0.1c-0.1,0.1-0.4,0.2-0.5,0.3c1-0.4,1.8-0.9,2.9-1.2c-0.2,0-0.4,0.1-0.5,0.1
				c0.4-0.1,0.9-0.2,1.4-0.1c-0.2,0-0.4,0-0.5,0c0.7,0,1.4,0.2,2.1,0c0.6-0.1,1.1-0.3,1.6-0.6c0.9-0.5,1.1-1.6,1-2.5
				c-0.1-0.5-0.3-1-0.7-1.3c-0.2-0.2-0.4-0.5-0.5-0.7c-0.4-0.5-0.6-1-0.9-1.6c0.1,0.2,0.2,0.3,0.3,0.5c-0.4-0.7-0.6-1.4-0.9-2.2
				c-0.4-1-1.3-1.5-2.4-1.3s-1.6,1.2-1.6,2.2c0,0.2,0,0.6,0,0.8c0-0.2,0-0.3,0-0.6c-0.1,0.9-0.3,1.9-0.5,2.7
				c0.1-0.2,0.1-0.3,0.2-0.5c0,0,0,0.1-0.1,0.1c1.3,0.5,2.6,0.8,3.9,1.3c0.2-1.9,0.1-3.9-0.3-5.8c-0.2-1.6-0.7-3.1-0.6-4.7
				c0,0.2,0,0.3,0,0.6c0-0.3,0.1-0.7,0.2-1c-0.1,0.2-0.1,0.3-0.2,0.5c0.1-0.3,0.2-0.5,0.3-0.7c-0.1,0.2-0.2,0.3-0.3,0.4
				c0.1-0.1,0.1-0.2,0.3-0.4c-1.2-0.4-2.4-0.8-3.7-1.1c0.2,3.2,0.6,6.3,1.1,9.5c0.1,0.6,0.3,1.1,0.7,1.4c0.3,0.3,1,0.6,1.5,0.4
				c0.5-0.1,1.1-0.3,1.5-0.8c0.3-0.5,0.6-1,0.5-1.5c-0.5-3.1-0.8-6.3-1.1-9.5c-0.1-0.8-0.6-1.6-1.4-1.8c-0.8-0.3-1.7,0-2.2,0.6
				c-1.5,1.8-1.3,4.2-1,6.4c0.4,2.2,0.8,4.5,0.6,6.8c0-0.2,0-0.3,0-0.6c0,0.2-0.1,0.3,0,0.4c0,0.6,0,1.2,0.3,1.6
				c0.3,0.4,0.6,0.6,1.1,0.7c0.4,0.1,0.9,0.2,1.3-0.1c0.4-0.2,1-0.6,1.2-1.1c0.2-0.8,0.5-1.5,0.6-2.3c0.2-0.8,0.1-1.6,0.1-2.4
				c-1.4,0.3-2.7,0.6-4,0.9c0.4,1,0.8,2,1.4,3c0.2,0.4,0.5,0.8,0.7,1.2c0.3,0.4,0.6,0.7,0.9,1.1c-0.1-0.2-0.2-0.3-0.3-0.5
				c0,0.1,0,0.1,0.1,0.2c0-0.2,0-0.4-0.1-0.6c0,0.1,0,0.1,0,0.2c0-0.2,0-0.3,0-0.6l0,0.1c0.3-0.4,0.6-0.9,0.9-1.3
				c-0.1,0-0.1,0.1-0.1,0.1c0.1-0.1,0.4-0.2,0.5-0.3c-0.1,0.1-0.2,0.1-0.4,0.1c0.2,0,0.4-0.1,0.5-0.1c-0.2,0-0.5,0.1-0.8,0.1
				c0.2,0,0.4,0,0.5,0c-1-0.1-1.9-0.1-2.9,0.1c-1,0.3-1.9,0.5-2.8,1c-0.7,0.3-1.6,0.7-1.9,1.5c-0.5,1.1-0.1,2.3,0.8,3
				c0.8,0.6,1.7,0.8,2.7,1.1c-0.2-0.1-0.3-0.1-0.5-0.2c0.5,0.1,1,0.3,1.4,0.6c-0.2-0.1-0.3-0.2-0.4-0.3c0.2,0.1,0.5,0.4,0.7,0.6
				c-0.1-0.2-0.3-0.2-0.3-0.4c0.5,0.6,0.9,1.2,1.4,1.9c0.5,0.7,0.9,1.4,1.4,2.2c0.3-1.1,0.7-2.2,1-3.3c-0.2,0.1-0.4,0.1-0.6,0.1
				c0.2,0,0.4-0.1,0.5-0.1c-0.6,0.1-1.1,0.2-1.8,0.2c0.2,0,0.4,0,0.5,0c-0.6,0-1.2-0.1-1.8-0.3c0.2,0.1,0.3,0.1,0.5,0.2
				c-0.6-0.2-1-0.4-1.5-0.8c0.2,0.1,0.3,0.2,0.4,0.3c-0.7-0.4-1.3-1-1.7-1.5c0.1,0.2,0.3,0.2,0.3,0.4c-1.4-1.5-2.3-3.3-3.5-5
				c-0.7,1.2-1.4,2.2-2.1,3.4c0.1,0,0.2,0.1,0.2,0.1c-0.2-0.1-0.3-0.1-0.5-0.2c0.5,0.1,1,0.4,1.4,0.6c-0.2-0.1-0.3-0.2-0.4-0.3
				c0.4,0.3,0.8,0.7,1.2,1c-0.1-0.2-0.3-0.2-0.3-0.4c0.4,0.5,0.7,1,1,1.6c-0.1-0.2-0.2-0.3-0.3-0.5c0.4,0.9,0.8,1.7,1.3,2.5
				c0.5,0.7,1,1.3,1.5,1.9c1.1,1.3,2.1,2.6,3.2,3.9c0.4,0.5,0.9,0.8,1.5,0.8c0.7,0,1.2-0.3,1.7-0.8c1.1-1.1,2.2-2.3,3.3-3.4
				c1-1.1,2.1-2.2,3.2-3.3c-0.1,0.1-0.3,0.3-0.4,0.4c0.6-0.6,1.2-1,1.9-1.5c0.3-0.2,0.6-0.6,0.7-0.8c0.2-0.4,0.2-0.9,0.2-1.3
				c0-0.4-0.2-0.7-0.5-0.9c-0.3-0.4-0.7-0.5-1.1-0.6c-2.1-0.6-4.6-0.4-6.7,0.4c-1,0.4-1.7,1.7-1.3,2.7
				C177.8,207.6,178.9,208.1,180.1,207.7L180.1,207.7z"/>
		</g>
	</g>
	<g>
		<g>
			<path class="st2" d="M175.2,187.8c0-0.4,0-0.7,0-1.2c0,0.2,0,0.3,0,0.6c0.2-2.8,0.7-5.5,1.5-8.1c-0.1,0.2-0.1,0.3-0.2,0.5
				c0.2-0.8,0.5-1.5,0.7-2.2c-1.3-0.2-2.7-0.5-4.1-0.7c-0.2,2.4-0.6,4.6-1.2,6.9c-0.1,0.5,0,1.2,0.3,1.6c0.3,0.4,0.8,0.8,1.3,0.9
				c0.5,0,1.2,0,1.6-0.4c0.4-0.4,0.7-0.8,0.9-1.3c0.6-2.3,1-4.6,1.2-6.9c0-0.6,0-1.1-0.3-1.6c-0.3-0.4-0.8-0.8-1.3-0.9
				c-0.5,0-1.2,0-1.6,0.4s-0.7,0.8-0.9,1.3c-0.1,0.4-0.2,0.9-0.4,1.3c0.1-0.2,0.1-0.3,0.2-0.5c-0.6,1.7-1.1,3.5-1.5,5.3
				c-0.4,1.8-0.5,3.6-0.5,5.5c0,0.5,0.3,1.1,0.7,1.4c0.3,0.3,1,0.6,1.5,0.4c0.5-0.1,1.1-0.3,1.5-0.8
				C175,188.9,175.2,188.4,175.2,187.8L175.2,187.8z"/>
		</g>
	</g>
	<g>
		<g>
			<path class="st2" d="M176,183.3c-0.4-0.9-0.7-1.8-0.8-2.8c0,0.2,0,0.4,0.1,0.6c-0.1-0.6-0.2-1.1-0.2-1.7c0,0.2,0,0.3,0,0.6
				c0-0.3,0.1-0.7,0.2-1c-0.1,0.2-0.1,0.3-0.2,0.5c0.3-0.9,0.7-1.9,0.8-2.9c0.2-1.1-0.5-2.3-1.6-2.4c-1.1-0.1-2.3,0.6-2.4,1.7
				c-0.1,0.6-0.3,1.2-0.4,1.8c0.1-0.2,0.1-0.3,0.2-0.5c-0.2,0.7-0.5,1.4-0.6,2.1c-0.1,0.7,0,1.3,0.1,2c0.2,1.3,0.6,2.6,1.1,3.8
				c0.2,0.5,0.6,0.9,1,1.1c0.5,0.2,1.1,0.2,1.5,0.1C175.7,185.6,176.4,184.3,176,183.3L176,183.3z"/>
		</g>
	</g>
	<g>
		<g>
			<path class="st2" d="M178.7,156.3c-1.9,4.8-3.3,9.7-4.6,14.7c-0.4,1.4-0.6,2.7-1.1,4.1c0.1-0.2,0.1-0.3,0.2-0.5
				c-0.1,0.3-0.2,0.4-0.3,0.7c0.1-0.2,0.2-0.3,0.3-0.4l-0.1,0.1c1.2,0.2,2.4,0.4,3.5,0.6c-0.4-0.9-0.8-1.9-1.1-2.9
				c0,0.2,0,0.4,0.1,0.6c0-0.2,0-0.3-0.1-0.5c0,0.2,0,0.3,0,0.6c0-0.6,0.3-1.2,0.4-1.8c0.2-0.6,0.4-1.3,0.6-1.9
				c-0.1,0.2-0.1,0.3-0.2,0.5c0.7-1.9,1.5-3.7,2.1-5.6c0.6-2,1.3-4,1.9-5.9c0.3-1.1,0.8-2.2,1.1-3.4c0.1-0.3,0.2-0.7,0.2-1.1
				c-0.1-0.5-0.2-0.9-0.5-1.3c-0.3-0.3-0.5-0.4-0.9-0.6s-0.9-0.2-1.3,0.1c-0.6,0.3-0.9,0.5-1.4,1c-0.2,0.2-0.3,0.4-0.5,0.6
				c-0.4,0.6-0.7,1.2-1,1.9c-0.5,1-1,1.9-1.4,3.1c-0.4,1.2-0.7,2.5-1.1,3.8c-0.3,1.2-0.6,2.3-1,3.4c0.1-0.2,0.1-0.3,0.2-0.5
				c-0.1,0.4-0.3,0.9-0.4,1.3c-0.2,0.5-0.3,1-0.1,1.6c0.2,0.5,0.6,1,1,1.1c0.5,0.2,1,0.3,1.5,0.1c0.4-0.2,1-0.6,1.2-1.1
				c0.5-1.4,0.9-2.8,1.3-4.2c0.3-1.3,0.6-2.6,1-3.8c-0.1,0.2-0.1,0.3-0.2,0.5c0.5-1.7,1.4-3.3,2.4-4.8c-0.1,0.2-0.2,0.3-0.3,0.4
				c0.1-0.2,0.3-0.4,0.5-0.6c-0.1,0.1-0.3,0.3-0.4,0.4c0.1-0.1,0.2-0.2,0.4-0.3c-0.1,0.1-0.4,0.2-0.5,0.3l0.1,0
				c-0.9-0.9-1.7-1.9-2.5-2.8c-1,3-1.9,6-3,9c-0.5,1.5-1.1,2.8-1.6,4.2c-0.6,1.6-1.1,3.1-1.5,4.7c-0.2,0.5-0.3,1-0.3,1.6
				c0,0.5,0.1,1.1,0.3,1.5c0.2,0.8,0.6,1.6,0.9,2.4c0.3,0.7,0.8,1.2,1.5,1.3c0.7,0.1,1.5-0.2,2-0.8c0.4-0.6,0.7-1.1,0.9-1.9
				c0.1-0.4,0.2-0.9,0.4-1.4c0.3-0.9,0.5-1.9,0.8-2.8c0.5-1.9,1-3.7,1.5-5.6c0.3-1,0.6-2.1,1-3.2c-0.1,0.2-0.1,0.3-0.2,0.5
				c0.6-1.7,1.2-3.4,1.9-5.2c0.2-0.5,0.3-1.1,0.1-1.6c-0.2-0.5-0.6-1-1-1.1c-0.5-0.2-1-0.3-1.5-0.1
				C179.4,155.4,178.9,155.7,178.7,156.3L178.7,156.3z"/>
		</g>
	</g>
	<g>
		<g>
			<path class="st2" d="M182.4,158.5c-0.1-0.6-0.1-1.1-0.1-1.7c0,0.2,0,0.3,0,0.6c0-0.7,0.2-1.3,0.4-1.9c-0.1,0.2-0.1,0.3-0.2,0.5
				c0.6-2.1,1.4-4.1,2.2-6.1c0.7-2,1.5-4.1,2.3-6.1c0.5-1.1,1-2.3,1.5-3.3c0.5-1,0.1-2.4-1-2.8c-1-0.5-2.2,0-2.7,1
				c-1.2,2.4-2.2,4.9-3.1,7.4c-1,2.5-1.9,5.1-2.8,7.6c-0.3,0.8-0.5,1.6-0.7,2.4c-0.1,0.9-0.1,1.8,0,2.7c0.1,1.1,1.1,2.1,2.2,1.9
				C181.6,160.7,182.5,159.7,182.4,158.5L182.4,158.5z"/>
		</g>
	</g>
	<g>
		<g>
			<path class="st2" d="M182.9,137.7c-0.5,0.6-1,1.5-1.4,2.3c-0.4,0.7-0.7,1.4-1.1,2.1c-0.7,1.4-1.4,2.8-2,4.2
				c-1.3,3-2.3,6.1-3.2,9.1c-0.5,1.6-1,3.3-1.4,5c-0.1,0.5,0,1.2,0.3,1.6c0.3,0.4,0.8,0.8,1.3,0.9c0.5,0,1.2,0,1.6-0.4
				c0.4-0.4,0.7-0.8,0.9-1.3c0.7-2.4,1.4-4.8,2.1-7.1c-0.1,0.2-0.1,0.3-0.2,0.5c1.2-3.9,2.8-7.6,4.6-11.2c0.5-1,1-2,1.6-3
				c-0.1,0.2-0.2,0.3-0.3,0.4c0.1-0.2,0.2-0.3,0.3-0.5c0.8-0.8,0.6-2.3-0.2-3C184.9,136.7,183.7,136.8,182.9,137.7L182.9,137.7z"/>
		</g>
	</g>
	<g>
		<g>
			<path class="st2" d="M188.4,140.6c1.3-1.8,2.3-3.8,3.2-5.7c0.9-1.8,1.7-3.7,2.6-5.7c0.5-1,1.1-2.1,1.7-3.1
				c-0.1,0.2-0.2,0.3-0.3,0.4c1.5-2.4,3.5-4.4,5.2-6.8c0.3-0.5,0.5-1,0.5-1.5c-0.1-0.5-0.3-1.1-0.7-1.4c-0.8-0.7-2.2-0.6-2.9,0.3
				c-1,1.4-2,2.5-3.1,3.8c-1.1,1.3-2,2.7-2.9,4.2c-1.5,2.6-2.5,5.3-3.8,8c-0.7,1.5-1.5,3-2.3,4.4c0.1-0.2,0.2-0.3,0.3-0.4
				c-0.2,0.3-0.4,0.6-0.6,0.9c-0.3,0.5-0.5,1-0.5,1.5c0.1,0.5,0.3,1.1,0.7,1.4s0.9,0.6,1.5,0.4C187.5,141.3,188,141.1,188.4,140.6
				L188.4,140.6z"/>
		</g>
	</g>
	<g>
		<g>
			<path class="st2" d="M191.5,125.3c-1.2,0.4-1.9,1.4-2.7,2.4c-0.6,0.8-1.2,1.6-1.7,2.5c-1.1,1.7-1.9,3.7-2.7,5.6
				c-0.5,1.1-0.8,2.3-1.2,3.5c-0.1,0.5,0,1.2,0.3,1.6c0.3,0.4,0.8,0.8,1.3,0.9c0.5,0,1.2,0,1.6-0.4c0.4-0.4,0.7-0.8,0.9-1.3
				c0.1-0.4,0.2-0.8,0.3-1.1c-0.1,0.2-0.1,0.3-0.2,0.5c0.3-1.1,0.8-2.3,1.3-3.4c0.5-1.1,0.9-2.3,1.6-3.3c-0.1,0.2-0.2,0.3-0.3,0.4
				c0.5-0.7,1-1.4,1.5-2.1c0.5-0.7,1-1.5,1.6-2.1c-0.1,0.1-0.3,0.3-0.4,0.4c0.1-0.1,0.3-0.2,0.4-0.3c-0.1,0.1-0.4,0.2-0.5,0.3
				c0.1,0,0.1-0.1,0.3-0.1c0.5-0.1,0.9-0.7,1.2-1.1c0.2-0.4,0.3-1.1,0.1-1.6c-0.2-0.5-0.6-0.9-1-1.1
				C192.6,125.2,192,125.1,191.5,125.3L191.5,125.3z"/>
		</g>
	</g>
	<g>
		<g>
			<path class="st2" d="M201.9,118.1c1-0.7,1.8-1.8,2.6-2.7c0.8-0.8,1.5-1.7,2.3-2.6c0.8-0.8,0.6-2.3-0.2-3
				c-0.9-0.7-2.1-0.6-2.9,0.3c-0.6,0.7-1.3,1.5-1.9,2.2c-0.6,0.7-1.2,1.5-1.9,2.1c0.1-0.1,0.3-0.3,0.4-0.4c-0.2,0.2-0.4,0.4-0.6,0.6
				c-0.9,0.6-1.2,2.1-0.5,3C199.7,118.6,200.9,118.8,201.9,118.1L201.9,118.1z"/>
		</g>
	</g>
	<g>
		<path d="M177.1,218.3c4.7-3.8,8.8-8.4,13.1-12.7c0.6-0.6,0.2-1.6-0.3-1.9c-3.1-1.3-6.5-3-9.9-3.4l0-0.2
			c-6.8-15.9,1.5-37.1,7.7-52.3c7-17.5,17-34.8,32.2-46c2-1.1,4.2-2.3,6.5-3.1c1-0.4,0.6-1.9-0.6-1.6c-0.4,0.1-0.8,0.3-1.2,0.5
			c-0.2-0.6-0.7-0.8-1.4-0.5c-1.4,0.7-2.7,1.7-4.1,2.5c-35.6,15-57.7,64.6-47.7,101c-2.5-0.4-5.1-0.6-7.7-1.1
			c-1.2-0.3-1.7,1.1-1.3,2c3.3,6.4,8.5,11.2,13,16.4C175.6,218.5,176.4,218.9,177.1,218.3z M165.6,202.3c2,0.1,3.9,0,6,0.3
			c0.8,0,1.2-0.6,1.1-1c0.4-0.1,0.6-0.6,0.6-1c-5.8-34.2,6.9-68.6,32.8-89.6c-9.4,10.8-16.1,24.4-21.3,37.2
			c-3.8,9.4-6.8,18.9-8.7,28.8c-1.4,7.7-2,16.9,2.8,23.3l0,0c-1.2,0-1.2,1.8-0.2,2.1c2.9,0.9,5.6,1.8,8.2,2.9
			c-3.5,3.4-6.9,7.1-10.6,10.1C172.6,211.2,168.5,207.1,165.6,202.3z"/>
	</g>
</g>
<g id="Layer_2_2_">
	<g id="Layer_2_1_">
		<g>
			<g>
				<path class="st2" d="M174.4,48.4c0.5-1.9,1-3.8,2.1-5.4c-1.2,0.9-2.4,1.8-3.6,2.7c-0.1,0-0.1,0-0.2,0c-1-0.3-2-0.5-3-0.8
					c-1.3-0.7-0.3,0.9-0.2,1.9c0.3,1.6,0.5,3.3,0.8,5c0.5,3.1,1,6.1,1.4,9.2c0.6,3.7,5.8,5.6,8.8,3.6c7.5-5.2,6.3-18.3,4.9-26.2
					c-1.4-7.5-12.9-4.3-11.5,3.2c0.5,2.6,0.6,5.1,0.5,7.7c-0.1,1.2-0.2,2.3-0.4,3.4c-0.1,0.5-0.2,0.9-0.3,1.4
					c-0.7,1.8-0.4,1.9,0.8,0.2c2.9,1.2,5.8,2.4,8.8,3.6c-0.6-4-1.2-8-1.9-12c-0.5-3.5-0.9-7.2-3.6-9.8c-2.4-2.4-6.5-3-9.4-1.2
					c-3.2,2-4.5,6.9-5.4,10.4C160.9,52.7,172.4,55.8,174.4,48.4L174.4,48.4z"/>
			</g>
		</g>
		<g>
			<g>
				<path class="st2" d="M186.6,64c0-1,0-2,0-3.1c-3.9,0.5-7.8,1.1-11.7,1.6c0.6,2.2,1.2,4.4,1.8,6.5c0.2,0.5,0.3,1.1,0.4,1.6
					c0.4,2.9,1.1,2.2,2-2c-0.5-0.1-4.2,2.5-4.6,2.8c-2.1,1.2-4.1,2.5-6.2,3.7c3,1.7,6,3.4,9,5.1c-0.6-10-2.7-19.8-6.5-29.1
					c-1.1-2.7-4-5.4-7.3-4.2c-8.7,3.4-15.2,10.2-17.2,19.5c-1,4.7,2.8,8.1,7.3,7.3c5.5-0.9,11.1-1.8,16.6-2.8
					c2.6-0.4,5.2-0.9,7.8-1.3c1.5-0.2,5.8-1.7,7-1.3c-1.2-0.9-2.4-1.8-3.6-2.7c1-3.1,0.3-4.4-1.9-3.8c-7.6,0.4-7.7,12.3,0,11.9
					c4.7-0.3,9.7-1.4,12.2-5.9c2.2-4.1,1-9.7-3.8-11.1s-12.1,1.2-16.9,2c-6.8,1.1-13.7,2.3-20.6,3.4c2.4,2.4,4.9,4.9,7.3,7.3
					c1.1-5,4-9.3,8.9-11.2c-2.4-1.4-4.9-2.8-7.3-4.2c3.4,8.3,5.6,16.9,6.1,25.9c0.2,4.4,4.9,7.6,9,5.1c4.2-2.5,11.8-5.3,14.2-9.9
					c2.5-4.7-0.9-11.5-2.1-16.2c-1.8-6.5-11.7-5.1-11.7,1.6c0,1,0,2,0,3.1C174.7,71.6,186.6,71.6,186.6,64L186.6,64z"/>
			</g>
		</g>
		<g>
			<g>
				<path class="st2" d="M187.4,58.3c1-10.1,0.1-21-2.1-30.9c-0.8-3.5-2.6-6-5.8-7.6c-3.2-1.5-7.6,0-10.4-1.6
					c-3.2-1.9-7.9-0.2-8.8,3.6c-0.9,4-1.8,8.1-2.7,12.1c-0.7,2.8-1.2,6.7-3.6,8.5c2.9,1.2,5.8,2.4,8.8,3.6c-0.7-4.3,3.1-5.9,6.6-5.5
					c3.3,0.4,5.8-3,6-5.9c0-0.7,0.1-1.4,0.1-2.1c0.2-2.8-2-4.8-4.4-5.7c-3.5-1.4-7.3-1.3-10.8,0.1c-1.8,0.7-7.8,4.2-7.5,6.7
					c-0.9,1.2,0,1.3,2.7,0.2c-0.4-0.7-0.7-1.5-1-2.2c-0.6-1.7-1-3.4-1.7-5.1c-1.2-3.4-2.9-6.5-5.7-8.9c-2-1.7-4.8-2.4-7.2-0.9
					c-3.9,2.4-9.5,2-12.8,5.3c-3.8,3.8-2.3,10-2.9,14.9c-1.4,12.8-5.3,25.6-8.1,38.1c-0.7,3.3,1,6.2,4.2,7.3
					c5,1.7,12.2,5.8,17.2,2.2c5.1-3.6,3.3-12.2,3.6-17.7c0.4-6.7,2.8-12,5-18.2c0.9-2.4,1.5-5,1.6-7.6c0-1.7-0.2-3.4-0.8-5
					c-0.2-0.5-0.4-0.9-0.6-1.4c-0.9-2.3-1.6-1.8-2.1,1.4c-3.3-0.9-6.6-1.8-10-2.6c2.6,9.6,6.5,18.8,11.7,27.3c1.7-3,3.4-6,5.1-9
					c-0.8,0.3-1.4,0.2-2-0.2c-6-5-13.2,2.4-8.4,8.4c1.9,2.4,4.2,4.2,6.8,5.7c6.7,3.7,12.7-6.6,6-10.3c-1.8-1-3.1-2.2-4.4-3.8
					c-2.8,2.8-5.6,5.6-8.4,8.4c3.1,2.6,6.3,4.1,10.4,3.7c4.3-0.3,7.7-4.9,5.1-9c-4.7-7.7-8.2-15.7-10.5-24.4c-1.1-4-7.1-6.2-10-2.6
					c-2.6,3.3-3,6.3-1.5,10.2c1,2.6,1.6,3.4,0.8,6.2c-0.6,2-1.5,3.9-2.3,5.9c-1.8,4.3-2.8,8.7-3.3,13.3c-0.5,4.7,0.3,10-0.8,14.6
					c0.9-1.2,1.8-2.4,2.7-3.6c1.6-0.1,1.7-0.3,0.3-0.6c-0.9-0.3-1.9-0.6-2.8-1c-1.9-0.6-3.7-1.3-5.6-1.9c1.4,2.4,2.8,4.9,4.2,7.3
					c2.5-11,5.3-21.9,7.3-32.9c0.5-2.4,0.8-4.9,1.1-7.4c0.2-1.5,1.3-6.5,0.3-7.8c0.4,0.6-3.1,0.9-0.4,0.8c1.2,0,2.6-0.5,3.7-0.9
					c2.2-0.8,4.3-1.8,6.2-3c-2.4-0.3-4.8-0.6-7.2-0.9c5.8,4.8,3.7,14.9,11.3,18.7c3.5,1.7,7.5,1,10.3-1.6c2.7-2.6,3.1-6.6,7.5-4.8
					c-1.5-1.9-2.9-3.8-4.4-5.7c0,0.7-0.1,1.4-0.1,2.1c2-2,4-4,6-5.9c-12.1-1.3-19.9,9.4-18.1,20.6c0.6,3.6,5.8,5.7,8.8,3.6
					c8.8-6.4,9.6-17.9,11.8-27.7c-2.9,1.2-5.8,2.4-8.8,3.6c2.7,1.6,5.3,2,8.4,2c1,0,2-0.1,3.1,0c-0.9-1.4-1.1-1.4-0.7,0
					c0.2,1,0.3,1.9,0.5,2.9c1.2,8.2,2,16.5,1.2,24.8C174.7,65.9,186.6,65.8,187.4,58.3L187.4,58.3z"/>
			</g>
		</g>
		<g>
			<g>
				<path class="st2" d="M130.2,66.3c-0.1,0-0.1,0-0.2,0c0.5,0.1,1.1,0.1,1.6,0.2c-0.1,0-0.2,0-0.3-0.1c0.5,0.2,1,0.4,1.4,0.6
					c-0.1,0-0.2-0.1-0.3-0.2c0.4,0.3,0.8,0.6,1.2,0.9c-0.1-0.1-0.2-0.2-0.3-0.3c0.3,0.4,0.6,0.8,0.9,1.2c-0.1-0.1-0.1-0.2-0.2-0.3
					c0.2,0.5,0.4,1,0.6,1.4c0-0.1-0.1-0.2-0.1-0.4c0.1,0.5,0.1,1.1,0.2,1.6c0-0.1,0-0.2,0-0.4c-0.1,0.5-0.1,1.1-0.2,1.6V72
					c0.2-0.8,0.3-1.6,0.1-2.4c0-0.8-0.3-1.5-0.7-2.2s-0.9-1.2-1.5-1.7s-1.2-0.9-2-1.1c-1.5-0.4-3.2-0.3-4.6,0.6
					c-1.2,0.8-2.5,2-2.7,3.6c-0.1,0.6-0.2,1.3-0.2,1.9c0,0.3,0.1,0.8,0.1,0.9c0,0.2,0.1,0.6,0.1,0.9c0,0.1,0,0.1,0.1,0.2
					c0.2,0.5,0.4,1.1,0.6,1.5c0.3,0.5,0.7,1,1.1,1.5c0.1,0.1,0.2,0.2,0.3,0.3c0.4,0.3,0.9,0.8,1.3,1c0,0,0.1,0.1,0.2,0.1
					c0.4,0.2,1,0.5,1.5,0.6c0.1,0,0.1,0,0.2,0.1c0.3,0.1,0.8,0.1,1,0.1c0.3,0,0.7,0.1,1,0.1c0.8,0,1.6-0.1,2.3-0.5
					c0.7-0.2,1.4-0.6,1.9-1.2c0.6-0.5,1-1.2,1.2-1.9c0.4-0.7,0.5-1.5,0.5-2.3c-0.1-1.5-0.6-3.1-1.7-4.2
					C133.3,67,131.8,66.3,130.2,66.3L130.2,66.3z"/>
			</g>
		</g>
		<g>
			<g>
				<path class="st2" d="M200.6,86.2c0.2,0,0.4-0.1,0.6-0.1c-1.5-0.2-3.1-0.4-4.6-0.6c-1.7-3.3-2.3-4-1.9-2.1c0,0.6,0.2,1.2,0.4,1.8
					c0.6,1.6,1.3,2.5,2.7,3.6c2.3,1.7,5.1,2.2,7.9,1.8c2.7-0.3,5.2-1.6,7.2-3.4c1.7-1.6,3.1-2.5,5-3.8c5-3.5,5.7-9.6,5-15.2
					c-0.8-6.6-1.1-13-0.3-19.7c0.6-5.1-0.1-11.2-6.2-12.5c-2.5-0.6-5.3,0.2-7.2,2.1c-1.6,1.7-2.3,2-4.4,3.2c-5.4,3-6.3,7.6-6.5,13.4
					c-0.2,7.9-0.2,15.8-0.4,23.7c-0.1,4.3,5.2,7.7,9,5.1c10.5-7.2,11.3-19.1,10.2-30.8c-0.7-7.6-12.6-7.6-11.9,0
					c0.6,6.5,2,16.2-4.3,20.5c3,1.7,6,3.4,9,5.1c0.1-7.9,0.2-15.8,0.4-23.7c0-0.8,0.8-4.1-0.5-2.5c0.7-0.8,2.3-1.1,3.2-1.6
					c1.1-0.6,2.3-1.3,3.2-2.2c0.6-0.6,1.2-1.3,1.7-2.1c-4.5-2.9-6.8-3-6.9-0.3c-1.1,2.8-0.8,7.6-0.8,10.5c0,3.6,0.2,7.1,0.7,10.7
					c0.2,1.5,0.8,3.3,0.5,4.8c-0.3,1.6-0.5,1.3-1.6,2.2c-0.7,0.6-5.5,4.4-5.8,4.1c0.9,1.2,1.8,2.4,2.7,3.6c-1.3-5-3.4-8.2-9.2-7.4
					C189.9,75.9,193.1,87.3,200.6,86.2L200.6,86.2z"/>
			</g>
		</g>
		<g>
			<g>
				<path class="st2" d="M212,21.6c-1.3-0.2-2.5,0.1-3.7,0.7c-0.5,0.2-1,0.4-1.4,0.8c-1.6,1-1.6,1.2-0.2,0.5c1,0.3,2,0.5,3,0.8
					c0,0.5,0,0.3-0.1-0.7c-0.2-4.7-6.6-8.4-10.2-4.2c-5.7,6.8-2,15,6,17.6c4.3,1.4,8-0.7,11.3-3.2c2.9-2.1,7-4.2,8.9-7.3
					c5.2-8.4-5.3-14.4-12.2-15.4c-6.8-1-18.7,4.5-14.6,12.9c3.4,6.9,13.7,0.9,10.3-6c-0.1-0.1-0.1-0.3-0.2-0.4
					c0.2,1.5,0.4,3.1,0.6,4.6c0.1-0.2,0.1-0.3,0.2-0.5c-0.5,0.9-1,1.8-1.5,2.6c0.7-0.7,2.1-1.6,3.2-1.6c0.7,0,1.5,0.4,2.1,0.6
					c0.5,0.2,1,0.4,1.5,0.6c0.7,0.4,0.7,0-0.1-1.2c0.3-1,0.5-2,0.8-3c-0.8,1.4-3.7,2.8-5,3.8c-0.4,0.3-2.6,2.1-2.1,1.9
					c0.6,0.4,0.4,0.2-0.7-0.3c0.6,0.9,0.6,1.9-0.1,2.7c-3.4-1.4-6.8-2.8-10.2-4.2c0.2,4.2,1.6,8.5,5.5,10.7c1.8,1,4.1,1.4,6.1,0.9
					c0.7-0.2,1.5-0.6,2.2-0.9c0.5-0.3,0.9-0.6,1.3-1c1-0.7,0.8-0.7-0.8,0.1c3.2,0.4,6-3,6-5.9C217.9,24,215.2,22,212,21.6L212,21.6z
					"/>
			</g>
		</g>
		<g>
			<g>
				<path class="st2" d="M264.1,68.3c-3.6-3.3-5.8-7.6-6.3-12.5c-0.9-8.4,6-12.1,13.3-13.2c3.8-0.6,8.3,0.1,12-1.2
					c3.1-1.1,4.7-3.9,5.8-6.8c3-7.9-0.9-12.9-7.9-16.3c-6.8-3.3-14.1-5.3-21.4-2.2c-6.7,2.9-11.2,8.7-14.5,15.1
					c-6.7,13-12.9,30.5-6.5,44.9c3.6,8.1,12.3,11.9,20.9,11.5c3.7-0.2,7.9-2.2,11.3-1.2c4,1.1,6.7,1.8,10.9,0.5
					c1.9-0.6,3.8-2.1,4.2-4.2c0.6-3.2,0.9-6.3,0.7-9.5c0-0.5,0-1,0.2-1.5c-0.7,1-0.3,1.2,1.2,0.5c1.7,0,3.9-1,5.4-1.8
					c5.2-2.9,9.6-10.8,4.2-15.7c-2.8-2.5-6.3-2-9.7-1.8c-4.5,0.2-9,0.3-13.5,0.6c-3.6,0.2-6.8,0.5-8.6,4.1c-2,4-0.2,9.8,0.3,14
					c2-2,4-4,6-6c-4,0.3-8.1,0.5-12.1,0.8c-1.9,0.1-3.7,0.2-5.6,0.4c-0.9,0.1-1.9,0.1-2.8,0.2c1.5,1.1,1.9,1,1.3-0.4
					c-1.6-7.5-13.1-4.3-11.5,3.2c1.1,5.1,4.4,9.1,9.8,9.2c6.9,0.1,14-0.9,20.9-1.4c2.9-0.2,6.3-2.6,6-6c-0.2-2-0.5-4-0.7-6
					c-0.1-1.2,0.5-5.2-0.8-2.9c-1.2,0.9-2.4,1.8-3.6,2.7c4.6-1.1,10.1-0.5,14.8-0.7c1.3-0.1,2.6-0.1,3.8-0.2
					c-0.8-4.8-2.2-6.3-4.4-4.5c-1.7,0.2-3.9,0.7-5.5,1.3c-8.5,3.1-6.1,11.3-7.4,18.2c1.4-1.4,2.8-2.8,4.2-4.2
					c-2.8,0.9-4.4-0.9-7.3-1.2c-4-0.5-7.8,1.3-11.8,1.6c-9.9,0.6-11.3-6.2-11.2-14.4c0.2-8.9,3-16.2,7-24.1
					c3.7-7.2,8.6-12.9,17.2-9.6c1.8,0.7,3.5,1.7,5.3,2.5c-0.3-0.3-0.5,0.1-0.5,1.2c1.2-1,1.2-1.4,0-1.1c-1.2-0.6-4.8,0.3-6.1,0.5
					c-2,0.2-4,0.5-5.9,0.9c-7,1.6-13.8,5.6-17.2,12.2c-5.5,10.9-1,24.9,7.5,32.8C261.3,81.9,269.7,73.5,264.1,68.3L264.1,68.3z"/>
			</g>
		</g>
		<g>
			<g>
				<path class="st2" d="M260.1,22.3c-2.2,2.7-4.2,5.4-6,8.4c-3,5.1,3,11.2,8.2,8.1c1.5-0.9,3.7-2.8,5.3-3.1
					c1.6-0.3,3.4,0.6,4.8,1.1c3,1.1,6.5-1.2,7.3-4.2c0.9-3.3-1.1-6.2-4.2-7.3c-3.4-1.2-7-2.1-10.6-1.2c-3.2,0.7-6,2.8-8.8,4.4
					c2.7,2.7,5.4,5.4,8.2,8.1c1.2-2.1,2.6-4.1,4.2-6c2-2.5,2.4-6,0-8.4C266.4,20.1,262.1,19.8,260.1,22.3L260.1,22.3z"/>
			</g>
		</g>
		<g>
			<g>
				<path class="st2" d="M318.7,67.6c-7.2,1.5-10.4,8.3-12.3,14.7c3.9,0.5,7.8,1.1,11.7,1.6c0.1-1.2,0.2-2.5,0.3-3.7
					c-3.7,1-7.4,2-11.1,3c-0.1-0.5-0.2-1-0.3-1.5c0,0.5,0.1,0.9,0.2,1.4c0.2,1.1,0.2,1.7,0.8,2.7c0.8,1.5,1.8,2.5,3.4,3.2
					c3,1.4,6.2,0.4,9-1c5.4-2.6,6.7-8.7,8.5-14c1-3-1.2-6.5-4.2-7.3c-3.3-0.9-6.3,1.1-7.3,4.2c-0.6,1.8-1.2,4.1-1.9,5.6
					c-0.2,0.4-0.4,0.9-0.7,1.3c0.9-0.8,0.9-0.9,0.1-0.3c0.4-0.1,0.3-0.1-0.4,0.2c-1,0.3-0.8,0.4,0.6,0.2c0.9,0.5,1.8,1,2.6,1.5
					c0.8,2.5,1.2,3.2,1,2c-0.1-0.6-0.2-1.2-0.2-1.9c-0.2-0.9-0.6-1.6-1-2.4c-3.2-5.3-10.7-2.7-11.1,3c-0.1,1.2-0.2,2.5-0.3,3.7
					c-0.5,6.8,9.9,7.9,11.7,1.6c0.5-1.8,0.9-3.6,2-5.1c0.4-0.6,0.5-0.7,0.2-0.3c0.5-0.5,0.6-0.6,0.2-0.3c0.7-0.3,0.7-0.4,0.3-0.3
					c0.4-0.1,0.8-0.2,1.2-0.3c3.2-0.6,5-4.4,4.2-7.3C325.1,68.5,321.9,67,318.7,67.6L318.7,67.6z"/>
			</g>
		</g>
		<g>
			<g>
				<path class="st2" d="M321.8,48c-3.9-1.4-8.4,0.4-10,4.2c-3,6.9,5.8,12.4,10.3,6c2.5-3.7,1.7-8.2,1.6-12.4
					c-0.1-5.1-0.1-10.3,0-15.4c0.1-2.6,0.2-5.1,0.3-7.7c0.1-1.3,0.1-2.6,0.2-3.9c-1.5,1.3-1.3,1.5,0.9,0.6
					c4.7-0.2,10.2-2.7,14.8-3.9c7.4-2,4.3-13.5-3.2-11.5c-5.5,1.5-11.2,2.7-16.6,4.4c-4.8,1.5-7.2,4.7-7.7,9.7
					c-0.6,5.7-0.6,11.4-0.7,17.1c0,2.9,0,5.8,0,8.7c0,2,1.1,6.8,0.1,8.3c3.4,2,6.8,4,10.3,6c-1.1,0.4-2.3,0.9-3.4,1.3
					C325.9,62.1,329,50.6,321.8,48L321.8,48z"/>
			</g>
		</g>
		<g>
			<g>
				<path class="st2" d="M331.9,10.9c-2.8,6.9-5.2,13.9-7,21.1c-1.6,6.6-2.7,13.3-6,19.3c-3.7,6.7,6.6,12.7,10.3,6
					c3.6-6.5,5.2-13.4,6.9-20.5c1.8-7.8,4.3-15.3,7.3-22.7C346.3,7,334.8,3.9,331.9,10.9L331.9,10.9z"/>
			</g>
		</g>
		<g>
			<g>
				<path class="st2" d="M330.1,35.5c0.5-4.9,1-9.7,1.6-14.6c0.3-3.2-3-5.9-6-5.9c-3.5,0-5.6,2.7-6,5.9c-0.5,4.9-1,9.7-1.6,14.6
					c-0.3,3.2,3,5.9,6,5.9C327.7,41.4,329.8,38.7,330.1,35.5L330.1,35.5z"/>
			</g>
		</g>
		<text transform="matrix(1 0 0 1 107.0978 80.1315)" class="st3 st5">MIG!</text>
	</g>
</g>
</svg>
