<?xml version="1.0" encoding="utf-8"?>
<!-- Generator: Adobe Illustrator 25.2.3, SVG Export Plug-In . SVG Version: 6.00 Build 0)  -->
<svg version="1.1" xmlns="http://www.w3.org/2000/svg" xmlns:xlink="http://www.w3.org/1999/xlink" x="0px" y="0px"
	 viewBox="0 0 889.4 306.2" style="enable-background:new 0 0 889.4 306.2;" xml:space="preserve">
<style type="text/css">
	.st0{display:none;}
	.st1{display:inline;}
	.st2{fill:#1CBF03;}
	.st3{font-family:'Dynamix';}
	.st4{font-size:31.5349px;}
	.st5{font-size:72px;}
</style>
<g id="Layer_1">
	<g id="Layer_2_1_" class="st0">
		<g class="st1">
			<g>
				<path class="st2" d="M165.2,107.7c0.4-0.8,0.8-1.7,1.7-2.4c-0.9,0.4-1.9,0.8-2.8,1.2c-0.1,0-0.1,0-0.2,0
					c-0.8-0.1-1.6-0.2-2.4-0.4c-1-0.3-0.3,0.4-0.2,0.8c0.2,0.7,0.4,1.4,0.6,2.2c0.4,1.3,0.8,2.7,1.1,4c0.5,1.6,4.6,2.4,6.9,1.6
					c5.9-2.3,5-8,3.8-11.5c-1.1-3.3-10.2-1.9-9.1,1.4c0.4,1.1,0.5,2.2,0.4,3.4c0,0.5-0.1,1-0.3,1.5c-0.1,0.2-0.2,0.4-0.2,0.6
					c-0.6,0.8-0.3,0.8,0.6,0.1c2.3,0.5,4.6,1,6.9,1.6c-0.5-1.8-1-3.5-1.5-5.3c-0.4-1.5-0.7-3.1-2.8-4.3c-1.9-1-5.1-1.3-7.4-0.5
					c-2.6,0.9-3.5,3-4.3,4.6C154.6,109.6,163.6,111,165.2,107.7L165.2,107.7z"/>
			</g>
		</g>
		<g class="st1">
			<g>
				<path class="st2" d="M174.8,114.5c0-0.4,0-0.9,0-1.3c-3.1,0.2-6.2,0.5-9.2,0.7c0.5,1,0.9,1.9,1.4,2.9c0.1,0.2,0.2,0.5,0.3,0.7
					c0.3,1.3,0.8,1,1.5-0.9c-0.4-0.1-3.3,1.1-3.7,1.2c-1.6,0.5-3.2,1.1-4.9,1.6c2.4,0.7,4.7,1.5,7.1,2.3c-0.5-4.4-2.1-8.7-5.1-12.7
					c-0.9-1.2-3.2-2.4-5.8-1.8c-6.9,1.5-12,4.5-13.6,8.5c-0.8,2.1,2.2,3.5,5.8,3.2c4.4-0.4,8.8-0.8,13.1-1.2
					c2.1-0.2,4.1-0.4,6.2-0.6c1.2-0.1,4.6-0.8,5.5-0.6c-0.9-0.4-1.9-0.8-2.8-1.2c0.8-1.4,0.3-1.9-1.5-1.6c-6,0.2-6.1,5.4,0,5.2
					c3.7-0.1,7.7-0.6,9.6-2.6c1.8-1.8,0.8-4.2-3-4.9c-3.8-0.6-9.6,0.5-13.4,0.9c-5.4,0.5-10.8,1-16.2,1.5c1.9,1.1,3.9,2.1,5.8,3.2
					c0.9-2.2,3.2-4.1,7-4.9c-1.9-0.6-3.9-1.2-5.8-1.8c2.7,3.6,4.4,7.4,4.8,11.4c0.2,1.9,3.9,3.3,7.1,2.3c3.3-1.1,9.4-2.3,11.3-4.3
					c2-2.1-0.7-5.1-1.7-7.1c-1.4-2.8-9.2-2.3-9.2,0.7c0,0.4,0,0.9,0,1.3C165.4,117.9,174.8,117.9,174.8,114.5L174.8,114.5z"/>
			</g>
		</g>
		<g class="st1">
			<g>
				<path class="st2" d="M175.5,112c0.8-4.4,0.1-9.2-1.6-13.5c-0.6-1.5-2-2.6-4.6-3.3c-2.5-0.7-6,0-8.2-0.7
					c-2.5-0.8-6.2-0.1-6.9,1.6c-0.7,1.8-1.4,3.5-2.2,5.3c-0.5,1.2-0.9,2.9-2.9,3.7c2.3,0.5,4.6,1,6.9,1.6c-0.6-1.9,2.4-2.6,5.2-2.4
					c2.6,0.2,4.6-1.3,4.7-2.6c0-0.3,0.1-0.6,0.1-0.9c0.1-1.2-1.6-2.1-3.5-2.5c-2.8-0.6-5.8-0.6-8.6,0.1c-1.4,0.3-6.2,1.8-5.9,2.9
					c-0.7,0.5,0,0.6,2.2,0.1c-0.3-0.3-0.6-0.6-0.8-1c-0.5-0.7-0.8-1.5-1.3-2.2c-1-1.5-2.3-2.9-4.5-3.9c-1.6-0.7-3.8-1.1-5.7-0.4
					c-3.1,1.1-7.5,0.9-10.1,2.3c-3,1.7-1.8,4.4-2.3,6.5c-1.1,5.6-4.2,11.2-6.4,16.7c-0.6,1.4,0.8,2.7,3.3,3.2c4,0.7,9.6,2.5,13.6,1
					c4-1.6,2.6-5.4,2.9-7.7c0.3-2.9,2.2-5.3,3.9-8c0.7-1.1,1.2-2.2,1.2-3.3c0-0.7-0.2-1.5-0.6-2.2c-0.2-0.2-0.3-0.4-0.5-0.6
					c-0.7-1-1.3-0.8-1.7,0.6c-2.6-0.4-5.2-0.8-7.9-1.2c2,4.2,5.1,8.2,9.3,11.9c1.4-1.3,2.7-2.6,4.1-3.9c-0.6,0.1-1.1,0.1-1.6-0.1
					c-4.7-2.2-10.4,1.1-6.7,3.7c1.5,1,3.3,1.8,5.4,2.5c5.3,1.6,10.1-2.9,4.7-4.5c-1.5-0.4-2.4-0.9-3.5-1.7c-2.2,1.2-4.4,2.5-6.7,3.7
					c2.4,1.1,5,1.8,8.2,1.6c3.4-0.1,6.1-2.1,4.1-3.9c-3.7-3.4-6.5-6.9-8.3-10.7c-0.8-1.7-5.6-2.7-7.9-1.2c-2.1,1.4-2.4,2.7-1.2,4.5
					c0.8,1.1,1.3,1.5,0.6,2.7c-0.5,0.9-1.2,1.7-1.8,2.6c-1.4,1.9-2.2,3.8-2.6,5.8c-0.4,2.1,0.2,4.4-0.6,6.4c0.7-0.5,1.4-1,2.2-1.6
					c1.2-0.1,1.3-0.1,0.3-0.3c-0.7-0.1-1.5-0.3-2.2-0.4c-1.5-0.3-2.9-0.6-4.4-0.8c1.1,1.1,2.2,2.1,3.3,3.2c2-4.8,4.2-9.6,5.8-14.4
					c0.4-1.1,0.7-2.1,0.9-3.2c0.1-0.7,1-2.9,0.3-3.4c0.3,0.2-2.5,0.4-0.3,0.4c0.9,0,2.1-0.2,2.9-0.4c1.7-0.3,3.4-0.8,4.9-1.3
					c-1.9-0.1-3.8-0.3-5.7-0.4c4.6,2.1,2.9,6.5,9,8.2c2.7,0.7,6,0.4,8.2-0.7c2.2-1.1,2.4-2.9,6-2.1c-1.2-0.8-2.3-1.7-3.5-2.5
					c0,0.3-0.1,0.6-0.1,0.9c1.6-0.9,3.1-1.7,4.7-2.6c-9.5-0.6-15.8,4.1-14.3,9c0.5,1.6,4.6,2.5,6.9,1.6c6.9-2.8,7.6-7.8,9.4-12.1
					c-2.3,0.5-4.6,1-6.9,1.6c2.1,0.7,4.2,0.9,6.6,0.9c0.8,0,1.6,0,2.4,0c-0.7-0.6-0.9-0.6-0.5,0c0.1,0.4,0.2,0.8,0.4,1.3
					c1,3.6,1.6,7.2,0.9,10.9C165.4,115.4,174.9,115.4,175.5,112L175.5,112z"/>
			</g>
		</g>
		<g class="st1">
			<g>
				<path class="st2" d="M130.3,115.6c0,0-0.1,0-0.1,0c0.4,0,0.8,0.1,1.2,0.1c-0.1,0-0.2,0-0.3,0c0.4,0.1,0.8,0.2,1.1,0.3
					c-0.1,0-0.2,0-0.2-0.1c0.3,0.1,0.6,0.3,0.9,0.4c-0.1,0-0.2-0.1-0.3-0.1c0.2,0.2,0.5,0.4,0.7,0.5c-0.1,0-0.1-0.1-0.1-0.1
					c0.2,0.2,0.3,0.4,0.5,0.6c0,0-0.1-0.1-0.1-0.2c0.1,0.2,0.1,0.5,0.2,0.7c0-0.1,0-0.1,0-0.2c-0.1,0.2-0.1,0.5-0.2,0.7c0,0,0,0,0,0
					c0.2-0.3,0.2-0.7,0.1-1c0-0.3-0.2-0.7-0.6-1c-0.3-0.3-0.7-0.5-1.2-0.7c-0.5-0.2-1-0.4-1.6-0.5c-1.2-0.2-2.6-0.1-3.6,0.3
					c-1,0.4-1.9,0.9-2.2,1.6c-0.1,0.3-0.2,0.6-0.2,0.8c0,0.1,0.1,0.4,0.1,0.4c0,0.1,0,0.3,0.1,0.4c0,0,0,0.1,0.1,0.1
					c0.1,0.2,0.3,0.5,0.5,0.7c0.2,0.2,0.6,0.5,0.9,0.6c0.1,0,0.1,0.1,0.2,0.1c0.3,0.1,0.7,0.3,1,0.4c0,0,0.1,0,0.1,0
					c0.3,0.1,0.8,0.2,1.2,0.3c0,0,0.1,0,0.1,0c0.2,0,0.6,0,0.8,0.1c0.3,0,0.5,0,0.8,0c0.6,0,1.2-0.1,1.8-0.2
					c0.6-0.1,1.1-0.3,1.5-0.5c0.5-0.2,0.8-0.5,1-0.8c0.3-0.3,0.4-0.6,0.4-1c-0.1-0.7-0.5-1.4-1.4-1.8
					C132.7,115.8,131.5,115.6,130.3,115.6L130.3,115.6z"/>
			</g>
		</g>
		<g class="st1">
			<g>
				<path class="st2" d="M185.9,124.3c0.2,0,0.3,0,0.5,0c-1.2-0.1-2.4-0.2-3.6-0.3c-1.3-1.4-1.8-1.7-1.5-0.9c0,0.3,0.1,0.5,0.3,0.8
					c0.5,0.7,1.1,1.1,2.2,1.6c1.8,0.7,4,1,6.2,0.8c2.1-0.1,4.1-0.7,5.7-1.5c1.3-0.7,2.4-1.1,3.9-1.7c4-1.5,4.5-4.2,4-6.6
					c-0.6-2.9-0.8-5.7-0.2-8.6c0.5-2.2-0.1-4.9-4.9-5.5c-2-0.2-4.2,0.1-5.6,0.9c-1.3,0.7-1.8,0.9-3.5,1.4c-4.3,1.3-5,3.3-5.1,5.9
					c-0.1,3.5-0.2,6.9-0.3,10.4c-0.1,1.9,4.1,3.4,7.1,2.3c8.3-3.1,8.9-8.4,8.1-13.5c-0.6-3.3-10-3.3-9.4,0c0.5,2.9,1.6,7.1-3.4,9
					c2.4,0.7,4.7,1.5,7.1,2.3c0.1-3.5,0.2-6.9,0.3-10.4c0-0.4,0.7-1.8-0.4-1.1c0.5-0.4,1.8-0.5,2.5-0.7c0.9-0.3,1.8-0.6,2.5-1
					c0.5-0.3,0.9-0.6,1.3-0.9c-3.6-1.3-5.4-1.3-5.5-0.1c-0.9,1.2-0.6,3.3-0.7,4.6c0,1.6,0.2,3.1,0.6,4.7c0.2,0.7,0.6,1.4,0.4,2.1
					c-0.3,0.7-0.4,0.6-1.3,1c-0.6,0.3-4.3,1.9-4.6,1.8c0.7,0.5,1.4,1,2.2,1.6c-1-2.2-2.7-3.6-7.2-3.2
					C177.4,119.7,180,124.8,185.9,124.3L185.9,124.3z"/>
			</g>
		</g>
		<g class="st1">
			<g>
				<path class="st2" d="M194.9,96c-1.1-0.1-2,0.1-2.9,0.3c-0.4,0.1-0.8,0.2-1.1,0.3c-1.2,0.5-1.3,0.5-0.1,0.2
					c0.8,0.1,1.6,0.2,2.4,0.4c0,0.2,0,0.1-0.1-0.3c-0.2-2.1-5.2-3.7-8-1.8c-4.5,3-1.6,6.6,4.8,7.7c3.4,0.6,6.3-0.3,9-1.4
					c2.3-0.9,5.5-1.8,7-3.2c4.1-3.7-4.2-6.3-9.7-6.7c-5.4-0.4-14.8,2-11.5,5.7c2.7,3,10.8,0.4,8.1-2.6c0-0.1-0.1-0.1-0.2-0.2
					c0.2,0.7,0.3,1.3,0.5,2c0.1-0.1,0.1-0.1,0.2-0.2c-0.4,0.4-0.8,0.8-1.2,1.2c0.6-0.3,1.6-0.7,2.5-0.7c0.5,0,1.2,0.2,1.7,0.2
					c0.4,0.1,0.8,0.2,1.2,0.3c0.5,0.2,0.5,0-0.1-0.5c0.2-0.4,0.4-0.9,0.6-1.3c-0.6,0.6-2.9,1.2-4,1.7c-0.3,0.1-2,0.9-1.7,0.8
					c0.5,0.2,0.3,0.1-0.5-0.1c0.5,0.4,0.5,0.8-0.1,1.2c-2.7-0.6-5.4-1.2-8-1.8c0.2,1.9,1.3,3.7,4.4,4.7c1.4,0.4,3.2,0.6,4.8,0.4
					c0.6-0.1,1.2-0.2,1.7-0.4c0.4-0.1,0.7-0.3,1-0.4c0.8-0.3,0.6-0.3-0.7,0.1c2.5,0.2,4.7-1.3,4.7-2.6C199.6,97,197.4,96.2,194.9,96
					L194.9,96z"/>
			</g>
		</g>
		<g class="st1">
			<g>
				<path class="st2" d="M236.1,116.4c-2.8-1.5-4.6-3.3-5-5.5c-0.7-3.7,4.7-5.3,10.5-5.8c3-0.3,6.5,0,9.5-0.5c2.5-0.5,3.7-1.7,4.6-3
					c2.4-3.4-0.7-5.7-6.2-7.1c-5.4-1.4-11.2-2.3-16.9-0.9c-5.3,1.2-8.9,3.8-11.4,6.6c-5.3,5.7-10.2,13.4-5.1,19.7
					c2.9,3.6,9.7,5.2,16.5,5c2.9-0.1,6.3-1,8.9-0.5c3.2,0.5,5.3,0.8,8.6,0.2c1.5-0.2,3-0.9,3.3-1.8c0.5-1.4,0.7-2.8,0.5-4.2
					c0-0.2,0-0.4,0.2-0.7c-0.6,0.4-0.3,0.5,0.9,0.2c1.3,0,3.1-0.5,4.2-0.8c4.1-1.3,7.6-4.7,3.3-6.9c-2.2-1.1-5-0.9-7.7-0.8
					c-3.5,0.1-7.1,0.1-10.6,0.3c-2.8,0.1-5.4,0.2-6.8,1.8c-1.6,1.8-0.1,4.3,0.3,6.1c1.6-0.9,3.1-1.7,4.7-2.6
					c-3.2,0.1-6.4,0.2-9.6,0.3c-1.5,0.1-2.9,0.1-4.4,0.2c-0.7,0-1.5,0.1-2.2,0.1c1.2,0.5,1.5,0.4,1-0.2c-1.3-3.3-10.3-1.9-9.1,1.4
					c0.9,2.2,3.5,4,7.8,4c5.4,0.1,11.1-0.4,16.5-0.6c2.3-0.1,5-1.1,4.7-2.6c-0.2-0.9-0.4-1.7-0.5-2.6c-0.1-0.5,0.4-2.3-0.6-1.3
					c-0.9,0.4-1.9,0.8-2.8,1.2c3.6-0.5,8-0.2,11.7-0.3c1,0,2,0,3-0.1c-0.6-2.1-1.8-2.8-3.5-2c-1.3,0.1-3.1,0.3-4.3,0.6
					c-6.7,1.4-4.9,5-5.8,8c1.1-0.6,2.2-1.2,3.3-1.8c-2.2,0.4-3.5-0.4-5.8-0.5c-3.2-0.2-6.1,0.6-9.3,0.7c-7.8,0.3-9-2.7-8.8-6.3
					c0.2-3.9,2.4-7.1,5.6-10.5c2.9-3.1,6.8-5.7,13.6-4.2c1.5,0.3,2.8,0.8,4.2,1.1c-0.3-0.1-0.4,0-0.4,0.5c1-0.4,1-0.6,0-0.5
					c-1-0.3-3.8,0.1-4.8,0.2c-1.6,0.1-3.1,0.2-4.7,0.4c-5.6,0.7-10.9,2.5-13.6,5.4c-4.4,4.8-0.8,10.9,5.9,14.4
					C233.9,122.4,240.5,118.7,236.1,116.4L236.1,116.4z"/>
			</g>
		</g>
		<g class="st1">
			<g>
				<path class="st2" d="M232.9,96.3c-1.7,1.2-3.4,2.4-4.7,3.7c-2.4,2.2,2.4,4.9,6.4,3.6c1.2-0.4,2.9-1.2,4.2-1.4
					c1.2-0.1,2.7,0.3,3.8,0.5c2.4,0.5,5.2-0.5,5.8-1.8c0.7-1.4-0.9-2.7-3.3-3.2c-2.7-0.5-5.5-0.9-8.3-0.5c-2.5,0.3-4.7,1.2-6.9,1.9
					c2.1,1.2,4.3,2.4,6.4,3.6c1-0.9,2-1.8,3.3-2.6c1.6-1.1,1.9-2.6,0-3.7C237.9,95.3,234.5,95.2,232.9,96.3L232.9,96.3z"/>
			</g>
		</g>
		<g class="st1">
			<g>
				<path class="st2" d="M279.2,116.1c-5.7,0.6-8.2,3.6-9.7,6.4c3.1,0.2,6.2,0.5,9.2,0.7c0.1-0.5,0.1-1.1,0.2-1.6
					c-2.9,0.4-5.8,0.9-8.8,1.3c-0.1-0.2-0.2-0.4-0.3-0.6c0,0.2,0.1,0.4,0.1,0.6c0.1,0.5,0.2,0.7,0.6,1.2c0.6,0.6,1.5,1.1,2.7,1.4
					c2.4,0.6,4.9,0.2,7.2-0.4c4.3-1.2,5.3-3.8,6.7-6.1c0.8-1.3-0.9-2.9-3.3-3.2c-2.6-0.4-5,0.5-5.8,1.8c-0.5,0.8-1,1.8-1.5,2.5
					c-0.2,0.2-0.3,0.4-0.6,0.6c0.7-0.3,0.7-0.4,0.1-0.1c0.3-0.1,0.2,0-0.3,0.1c-0.8,0.1-0.6,0.2,0.5,0.1c0.7,0.2,1.4,0.4,2.1,0.7
					c0.7,1.1,0.9,1.4,0.8,0.9c-0.1-0.3-0.1-0.5-0.2-0.8c-0.2-0.4-0.4-0.7-0.8-1c-2.5-2.3-8.4-1.2-8.8,1.3c-0.1,0.5-0.2,1.1-0.2,1.6
					c-0.4,3,7.8,3.5,9.2,0.7c0.4-0.8,0.7-1.6,1.6-2.2c0.3-0.3,0.4-0.3,0.2-0.1c0.4-0.2,0.5-0.3,0.2-0.1c0.5-0.1,0.6-0.2,0.2-0.1
					c0.3-0.1,0.6-0.1,1-0.1c2.5-0.3,3.9-1.9,3.3-3.2C284.3,116.5,281.7,115.9,279.2,116.1L279.2,116.1z"/>
			</g>
		</g>
		<g class="st1">
			<g>
				<path class="st2" d="M281.7,107.6c-3.1-0.6-6.6,0.2-7.9,1.8c-2.4,3,4.6,5.4,8.1,2.6c2-1.6,1.3-3.6,1.3-5.4
					c-0.1-2.3-0.1-4.5,0-6.8c0.1-1.1,0.1-2.3,0.2-3.4c0-0.6,0.1-1.1,0.2-1.7c-1.2,0.6-1,0.7,0.7,0.2c3.7-0.1,8.1-1.2,11.7-1.7
					c5.8-0.9,3.4-5.9-2.5-5c-4.4,0.6-8.9,1.2-13.1,1.9c-3.8,0.7-5.7,2.1-6.1,4.3c-0.4,2.5-0.5,5-0.5,7.5c0,1.3,0,2.5,0,3.8
					c0,0.9,0.9,3,0,3.6c2.7,0.9,5.4,1.8,8.1,2.6c-0.9,0.2-1.8,0.4-2.7,0.6C284.9,113.7,287.3,108.7,281.7,107.6L281.7,107.6z"/>
			</g>
		</g>
		<g class="st1">
			<g>
				<path class="st2" d="M289.7,91.3c-2.2,3-4.1,6.1-5.5,9.2c-1.3,2.9-2.2,5.8-4.8,8.5c-2.9,2.9,5.2,5.6,8.1,2.6
					c2.8-2.8,4.1-5.9,5.4-9c1.5-3.4,3.4-6.7,5.8-9.9C301,89.6,291.9,88.2,289.7,91.3L289.7,91.3z"/>
			</g>
		</g>
		<g class="st1">
			<g>
				<path class="st2" d="M288.3,102.1c0.4-2.1,0.8-4.3,1.2-6.4c0.3-1.4-2.4-2.6-4.7-2.6c-2.8,0-4.4,1.2-4.7,2.6
					c-0.4,2.1-0.8,4.3-1.2,6.4c-0.3,1.4,2.4,2.6,4.7,2.6C286.3,104.7,288,103.5,288.3,102.1L288.3,102.1z"/>
			</g>
		</g>
		<text transform="matrix(1.8041 0 0 1 112.0066 121.6174)" class="st1 st3 st4">MIG!</text>
	</g>
	<g>
		<g>
			<path class="st2" d="M47.9,256.2c0.2-3-0.2-6-1.2-9c-0.1-0.4,0.3-0.8,0.9-0.8c6.5,0.1,12.5,3.1,14.9,7.4c0.2,0.3-0.2,0.7-0.6,0.8
				c-0.5,0.1-0.9-0.1-1.1-0.5c-2.1-3.7-7.5-6.3-13.1-6.4c0.3-0.3,0.6-0.6,0.9-0.8c1.1,3,1.5,6.2,1.3,9.3
				C49.7,257.1,47.9,257.1,47.9,256.2L47.9,256.2z"/>
		</g>
	</g>
	<g>
		<g>
			<path class="st2" d="M40.1,255.7c0-0.6,0-1.1-0.1-1.7c0.1,0.7,0.3,1.4,0.4,2.1c-0.2-0.8-0.5-1.6-0.9-2.4c0.4,0.6,0.7,1.3,1.1,1.9
				c-0.5-0.8-1-1.5-1.7-2.1c-0.8-0.9-1.2-1.9-1.3-2.9c-0.3-1-0.3-2.1,0.2-3.1c0.3-1,1-1.9,2-2.7c0.8-0.9,1.8-1.5,3.1-2
				c0.9-0.3,1.8-0.5,2.6-0.8c2-0.4,3.9-0.4,5.9,0c0.9,0.3,1.8,0.5,2.6,0.8c1.7,0.7,3,1.6,4,2.8c0.5,0.5,0.9,0.9,1.3,1.4
				c0.4,0.5,0.7,1.1,1,1.6c0.3,0.6,0.7,1.1,1,1.7c0.2,0.5,0.4,1.1,0.5,1.6c0.3,1.2,0.6,2.5,0.5,3.7c0.1,1.1-0.3,2.1-1,3
				c-0.4,1-1.2,1.8-2.3,2.5c-1,0.8-2.2,1.3-3.6,1.6c-1.3,0.5-2.7,0.7-4.3,0.7c-1-0.1-2-0.2-2.9-0.3c-1.9-0.4-3.5-1.1-4.9-2
				c-0.6-0.5-1.2-1.1-1.7-1.6C40.6,258.4,40.1,257.1,40.1,255.7L40.1,255.7z"/>
		</g>
	</g>
	<g>
		<g>
			<path class="st2" d="M42.8,248.3c0-0.8-0.1-1.6-0.2-2.4c0.1,0.4,0.1,0.7,0.2,1c-0.3-1.6-0.9-3.1-1.7-4.5c0.2,0.3,0.4,0.6,0.6,0.9
				c-0.7-1.2-1.6-2.3-2.7-3.4c3.4-0.3,6.7-0.6,10.1-0.9c-0.5,2-1.5,3.8-2.6,5.7c-1,1.7-2.2,3.4-3.3,5c-2.3,3.5-4.6,6.9-6.9,10.4
				c-1.1-1.9-2.2-3.9-3.3-5.8c3.8,1.1,7.5,2.1,11.3,3.1c3.6,1,7.3,2,11.2,2.4c-0.5,0-1-0.1-1.5-0.1c2,0.2,4,0.3,6,0.6
				c1.7,0.3,3.4,0.8,5,1.4c3.2,1.2,5.7,2.9,7.7,5c0.5,0.5,0.8,1.4,0.8,2c0,0.9-0.4,1.7-1.2,2.4c-1.3,1.2-3.7,1.9-5.8,1.4
				c-4.9-1.1-10.1-1.7-14.9-3.1c-1.5-0.4-3.1-0.9-4.6-1.5c-1.4-0.6-2.7-1.2-4-1.9c-2.3-1.3-4.3-3-5.7-4.9c-1.8-2.4-2.8-4.9-3-7.6
				c-0.1-1.2,0.9-2.4,2.2-3.1c1.4-0.8,3.1-1,4.8-0.7c3.8,0.6,7.6,1.2,11.3,2c2.4,0.5,4.4,1.3,6.3,2.4c1.4,0.9,2.5,2,3.6,3.1
				c-0.3-0.3-0.6-0.5-0.9-0.8c0.8,0.7,1.6,1.5,2.7,2.1c-0.4-0.2-0.7-0.4-1.1-0.6c0.3,0.2,0.7,0.4,1.1,0.5c-0.4-0.1-0.9-0.3-1.3-0.4
				c0.1,0,0.2,0,0.2,0.1c-0.5,0-1-0.1-1.5-0.1c0.1,0,0.2,0,0.3,0c-0.9,0.2-1.9,0.4-2.8,0.5c0,0,0.1,0,0.2-0.1
				c-0.7,0.5-1.3,0.9-2,1.4c0,0,0.1-0.1,0.1-0.1c-0.2,0.3-0.4,0.6-0.6,0.9c0-0.1,0.1-0.2,0.1-0.3c-0.1,0.4-0.1,0.7-0.2,1
				c0.3-1.9,0.5-3.9,0.2-5.8c0.1,0.4,0.1,0.7,0.2,1c-0.2-0.9-0.5-1.8-0.9-2.6c0.2,0.3,0.4,0.6,0.6,0.9c-0.7-1.2-1.7-2.4-2.2-3.7
				c-0.4-1.1-0.4-2.1-0.1-3.3c0.5-1.9,2.9-3,5.3-3.2c1.3-0.1,2.7,0,3.9,0.3c0.7,0.2,1.4,0.4,2.2,0.6c1.5,0.3,3.1,0.6,4.7,0.7
				c-0.5,0-1-0.1-1.5-0.1c2,0.2,4.1,0.3,6.1,0.4c2.8,0.1,5,1.4,5.4,3.4c0.4,2-1.3,3.7-4,4.3c-0.7,0.2-1.3,0.3-2,0.5
				c0.4-0.1,0.9-0.3,1.3-0.4c-2.2,0.7-4.3,1.6-6.2,2.6c0.4-0.2,0.7-0.4,1.1-0.6c-0.1,0-0.1,0.1-0.2,0.1c-2.2-2.1-4.5-4.1-6.7-6.2
				c4.7-1.5,9.5-2.4,14.6-3.1c4-0.5,8.3-0.7,12.1-1.9c-0.4,0.1-0.9,0.3-1.3,0.4c0.8-0.3,1.6-0.6,2.4-1c-0.4,0.2-0.7,0.4-1.1,0.6
				c0.5-0.3,1-0.6,1.5-1c-0.3,0.3-0.6,0.5-0.9,0.8c0.2-0.2,0.4-0.4,0.6-0.6c2.1,1.9,4.2,3.9,6.2,5.8c-8.1,1.6-16.2,2.9-24.4,4
				c-1.5,0.2-2.9,0.2-4.3-0.4c-1.1-0.5-2.2-1.4-2.5-2.4c-0.3-1-0.3-2.1,0.6-3c0.7-0.8,1.9-1.6,3.3-1.8c8.2-1.1,16.4-2.4,24.4-4
				c2.1-0.4,4.5,0.2,5.8,1.4c1.4,1.3,1.5,3,0.4,4.4c-3.1,3.9-9.2,5-14.9,5.7c-5.8,0.7-11.7,1.4-17.2,3c0.4-0.1,0.9-0.3,1.3-0.4
				c-0.3,0.1-0.7,0.2-1,0.3c-1.3,0.4-2.8,0.7-4.3,0.4c-1.2-0.3-2.1-0.7-2.9-1.4c-0.7-0.7-1.2-1.5-1.2-2.4c0.1-1,0.5-2.2,1.6-2.8
				c1.6-0.9,3.3-1.8,5.1-2.5c1.8-0.7,3.8-1.3,5.7-1.8c0.5,2.6,1,5.2,1.5,7.7c-2.9-0.1-5.8-0.3-8.7-0.6c-1.2-0.1-2.4-0.3-3.5-0.6
				c-1.2-0.3-2.3-0.7-3.5-0.8c0.5,0,1,0.1,1.5,0.1c-0.2,0-0.3,0-0.5,0c0.5,0,1-0.1,1.5-0.1c-0.2,0-0.3,0-0.5,0.1
				c0.4-0.1,0.9-0.3,1.3-0.4c-0.1,0-0.1,0-0.2,0.1c0.8-0.8,1.7-1.6,2.5-2.4c0,0.1-0.1,0.2-0.1,0.4c0.1-0.4,0.1-0.7,0.2-1
				c0,0.2,0,0.5,0,0.7c-0.1-0.4-0.1-0.7-0.2-1c0.1,0.5,0.3,1,0.6,1.4c-0.2-0.3-0.4-0.6-0.6-0.9c1.1,1.7,2.2,3.4,2.6,5.3
				c0.4,1.9,0.4,3.7,0.2,5.6c-0.2,1.6-0.2,3.3-2,4.4c-2.3,1.5-5.5,1.6-8.1,0.3c-2.3-1.1-3.7-2.5-5.4-4c0.3,0.3,0.6,0.5,0.9,0.8
				c-0.8-0.7-1.7-1.5-2.7-2.1c0.4,0.2,0.7,0.4,1.1,0.6c-0.7-0.4-1.4-0.6-2.2-0.9c0.4,0.1,0.9,0.3,1.3,0.4c-1.9-0.6-4-0.9-6-1.2
				c-2.2-0.4-4.4-0.8-6.6-1.1c2.3-1.3,4.7-2.5,7-3.8c0,0.4,0.1,0.8,0.2,1.2c-0.1-0.4-0.1-0.7-0.2-1c0.2,1.1,0.6,2.2,1.2,3.2
				c-0.2-0.3-0.4-0.6-0.6-0.9c0.6,1.1,1.4,2.1,2.4,3c-0.3-0.3-0.6-0.5-0.9-0.8c1,0.9,2,1.6,3.3,2.3c-0.4-0.2-0.7-0.4-1.1-0.6
				c1.6,0.9,3.5,1.6,5.4,2.2c-0.4-0.1-0.9-0.3-1.3-0.4c5,1.5,10.5,2.1,15.7,3.3c-2.1,1.9-4.2,3.9-6.2,5.8c-0.1-0.1-0.3-0.3-0.4-0.4
				c0.3,0.3,0.6,0.5,0.9,0.8c-0.8-0.8-1.8-1.4-2.8-2c0.4,0.2,0.7,0.4,1.1,0.6c-1.1-0.6-2.4-1.1-3.7-1.5c0.4,0.1,0.9,0.3,1.3,0.4
				c-1.5-0.4-3.1-0.7-4.7-0.8c0.5,0,1,0.1,1.5,0.1c-2.5-0.2-5-0.4-7.4-0.9c-2.1-0.4-4.2-1-6.2-1.5c-4.2-1.1-8.4-2.2-12.6-3.4
				c-1.7-0.5-2.9-1.1-3.6-2.3c-0.7-1.2-0.5-2.3,0.3-3.5c1.8-2.7,3.6-5.3,5.3-8c1.7-2.6,3.5-5.1,5.1-7.8c-0.2,0.3-0.4,0.6-0.6,0.9
				c0.8-1.4,1.5-2.9,1.9-4.4c0.1-0.6,0.8-1.3,1.4-1.7c0.9-0.6,2-1,3.2-1.1c1-0.1,1.9,0,2.9,0.3c1.2,0.4,1.9,0.9,2.6,1.6
				c3.6,3.5,5.4,8,5.4,12.3c0,2.1-2.5,4-5.5,3.9C45.4,252.1,42.8,250.5,42.8,248.3L42.8,248.3z"/>
		</g>
	</g>
	<g>
		<g>
			<path class="st2" d="M96.4,244.6c0.9-0.3,1.9-0.5,2.8-0.8c-0.4,0.1-0.9,0.3-1.3,0.4c6.6-2,12.8-4.6,18.5-7.8
				c-0.4,0.2-0.7,0.4-1.1,0.6c1.6-0.9,3.2-1.8,4.9-2.6c1.9,2.3,3.7,4.5,5.6,6.8c-5.5,1.8-10.9,4-15.9,6.5c-1.1,0.6-3,0.6-4.3,0.4
				c-1.3-0.2-2.7-1-3.3-1.8c-0.7-0.9-1-2-0.6-3c0.5-1,1.3-1.7,2.5-2.4c5-2.5,10.3-4.6,15.9-6.5c1.4-0.5,2.7-0.7,4.3-0.4
				c1.3,0.2,2.7,1,3.3,1.8c0.7,0.9,1,2,0.6,3c-0.5,1-1.3,1.7-2.5,2.4c-1,0.5-1.9,1-2.8,1.5c0.4-0.2,0.7-0.4,1.1-0.6
				c-3.8,2.1-7.6,4.1-11.8,5.8c-4.1,1.7-8.4,3.1-12.9,4.3c-1.3,0.3-3.1,0.1-4.3-0.4c-1.1-0.5-2.2-1.4-2.5-2.4c-0.3-1-0.3-2.1,0.6-3
				C94,245.5,95,245,96.4,244.6L96.4,244.6z"/>
		</g>
	</g>
	<g>
		<g>
			<path class="st2" d="M106.8,240.5c2.6,0.1,5.2,0.1,7.7-0.2c-0.5,0-1,0.1-1.5,0.1c1.5-0.2,3.1-0.3,4.5-0.7
				c-0.4,0.1-0.9,0.3-1.3,0.4c0.8-0.3,1.6-0.6,2.3-1c-0.4,0.2-0.7,0.4-1.1,0.6c2.1-1.2,4.2-2.3,6.5-3.2c2.5-1,6.1-0.5,7.6,1.4
				c1.4,1.9,0.7,4.3-2,5.4c-1.4,0.6-2.8,1.2-4,1.9c0.4-0.2,0.7-0.4,1.1-0.6c-1.5,0.8-2.8,1.7-4.5,2.3c-1.6,0.5-3.2,0.9-4.9,1.1
				c-3.4,0.4-6.9,0.6-10.4,0.5c-1.5-0.1-2.8-0.4-3.9-1.2c-1-0.7-1.7-1.8-1.6-2.8C101.4,242.4,103.7,240.3,106.8,240.5L106.8,240.5z"
				/>
		</g>
	</g>
	<g>
		<g>
			<path class="st2" d="M170.8,219c-10.1,6.3-20.9,11.8-31.9,17.3c-3,1.5-6.1,2.9-9,4.4c0.4-0.2,0.7-0.4,1.1-0.6
				c-0.5,0.3-1,0.6-1.4,1c0.3-0.3,0.6-0.5,0.9-0.8c0,0-0.1,0.1-0.1,0.1c-1.6-2-3.2-4-4.8-5.9c2.6,0.1,5.4,0.4,8,0.1
				c-0.5,0-1,0.1-1.5,0.1c0.4-0.1,0.9-0.1,1.3-0.2c-0.4,0.1-0.9,0.3-1.3,0.4c1.5-0.4,2.7-1.2,4-1.9c1.4-0.7,2.7-1.4,4.1-2.2
				c-0.4,0.2-0.7,0.4-1.1,0.6c4.1-2.3,7.8-4.9,11.8-7.2c4.2-2.4,8.4-4.7,12.6-7.1c2.4-1.3,4.8-2.7,7.2-4c0.8-0.4,1.5-0.8,2.4-1
				c1.2-0.2,2.5-0.1,3.6,0.2c0.9,0.3,1.6,0.7,2.2,1.2c0.7,0.6,1.3,1.6,1.2,2.4c-0.2,1.2-0.4,1.9-1.1,3c-0.3,0.4-0.7,0.8-1.1,1.2
				c-1.1,1-2.3,2-3.5,3c-1.9,1.6-3.9,3.1-6.1,4.4c-2.6,1.5-5.4,2.8-8.2,4.2c-2.6,1.2-5.1,2.5-7.5,3.9c0.4-0.2,0.7-0.4,1.1-0.6
				c-0.9,0.5-1.8,1-2.7,1.5c-1.2,0.7-2.3,1.2-3.9,1.2c-1.4,0-3-0.4-3.9-1.2c-1-0.8-1.7-1.7-1.6-2.8c0.1-1,0.5-2.1,1.6-2.8
				c2.9-1.7,6-3.4,9.1-4.9c2.8-1.4,5.7-2.7,8.4-4.1c-0.4,0.2-0.7,0.4-1.1,0.6c3.6-2,6.8-4.5,9.7-7.1c-0.3,0.3-0.6,0.5-0.9,0.8
				c0.4-0.4,0.8-0.8,1.1-1.2c-0.2,0.3-0.4,0.6-0.6,0.9c0.2-0.3,0.3-0.6,0.3-0.8c-0.1,0.4-0.1,0.7-0.2,1c0-0.1,0-0.1,0-0.2
				c3.1,0.9,6.3,1.9,9.4,2.8c-6.5,3.6-13,7.2-19.4,10.9c-3.1,1.8-5.9,3.7-8.9,5.5c-3.2,2-6.7,3.8-10.2,5.6c-1.2,0.6-2.4,1.1-3.8,1.5
				c-1.3,0.3-2.7,0.4-4.1,0.4c-2.2,0-4.5-0.1-6.7-0.2c-2-0.1-3.7-0.7-4.8-2c-0.9-1.1-1.1-2.9,0-4c1.1-1.1,2.3-1.9,3.9-2.7
				c1-0.5,2-1,3-1.5c2.1-1,4.2-2.1,6.3-3.1c4.1-2,8.2-4.1,12.2-6.2c2.3-1.2,4.6-2.4,6.9-3.7c-0.4,0.2-0.7,0.4-1.1,0.6
				c3.8-2.1,7.4-4.2,11-6.5c1.1-0.7,2.4-1.2,3.9-1.2c1.4,0,3,0.4,3.9,1.2c1,0.8,1.7,1.7,1.6,2.8C172.4,217.2,171.9,218.3,170.8,219
				L170.8,219z"/>
		</g>
	</g>
	<g>
		<g>
			<path class="st2" d="M161.7,213.8c1.4-0.2,2.8-0.5,4.2-0.9c-0.4,0.1-0.9,0.3-1.3,0.4c1.6-0.5,3-1.1,4.3-1.9
				c-0.4,0.2-0.7,0.4-1.1,0.6c4.4-2.5,8.7-5.1,13-7.7c4.3-2.5,8.6-5.1,12.7-7.8c2.3-1.5,4.6-3.1,6.8-4.8c2-1.5,5.8-1.5,7.8,0
				c2.1,1.6,2.1,4,0,5.6c-4.8,3.6-9.9,6.9-15.2,10.1c-5.3,3.2-10.8,6.4-16.2,9.6c-1.7,1-3.4,1.9-5.3,2.7c-2.1,0.8-4.4,1.3-6.7,1.7
				c-2.8,0.5-6.1-0.6-6.8-2.8C157.2,216.6,158.7,214.3,161.7,213.8L161.7,213.8z"/>
		</g>
	</g>
	<g>
		<g>
			<path class="st2" d="M212.5,200.2c-1.1,1.4-2.8,2.7-4.4,3.9c-1.3,1.1-2.7,2.1-4.1,3.2c-2.8,2.1-5.6,4.2-8.5,6.1
				c-6.1,4.1-12.6,7.8-19.3,11.4c-3.6,1.9-7.3,3.8-11,5.7c-1.1,0.6-3,0.6-4.3,0.4c-1.3-0.2-2.7-1-3.3-1.8c-0.7-0.9-1-2-0.6-3
				c0.5-1,1.3-1.7,2.5-2.4c5.3-2.7,10.5-5.3,15.6-8.2c-0.4,0.2-0.7,0.4-1.1,0.6c8.3-4.6,16-9.6,23.1-15.2c2-1.5,4.1-3.1,5.9-4.7
				c-0.3,0.3-0.6,0.5-0.9,0.8c0.3-0.3,0.5-0.5,0.7-0.8c1.4-1.8,5.1-2.5,7.6-1.4C213.1,196,214,198.2,212.5,200.2L212.5,200.2z"/>
		</g>
	</g>
	<g>
		<g>
			<path class="st2" d="M200.1,192.1c3.3-3.3,7.1-6.4,11.2-9.3c3.8-2.7,7.7-5.3,11.4-8c2.1-1.6,4.1-3.2,6-4.9
				c-0.3,0.3-0.6,0.5-0.9,0.8c4.6-4.2,7.6-9.1,11.6-13.5c0.8-0.9,1.9-1.5,3.3-1.8c1.3-0.3,3.1-0.1,4.3,0.4c2.4,1.1,3.6,3.5,2,5.4
				c-2.3,2.6-4.3,5.3-6.4,7.9c-2.2,2.7-4.7,5.3-7.5,7.7c-4.9,4.2-10.6,7.8-16,11.7c-3.1,2.2-6,4.4-8.7,6.9c0.3-0.3,0.6-0.5,0.9-0.8
				c-0.6,0.5-1.1,1.1-1.7,1.6c-0.8,0.9-1.8,1.5-3.3,1.8c-1.3,0.3-3.1,0.1-4.3-0.4c-1.2-0.5-2.2-1.3-2.5-2.4
				C199.3,194.2,199.3,193,200.1,192.1L200.1,192.1z"/>
		</g>
	</g>
	<g>
		<g>
			<path class="st2" d="M235,177.2c0.3,2.4-1.8,4.4-3.5,6.2c-1.5,1.6-2.9,3.2-4.4,4.7c-3.2,3.1-7.2,5.8-11.3,8.3
				c-2.4,1.5-5,3-7.6,4.3c-1.1,0.6-3,0.6-4.3,0.4c-1.3-0.2-2.7-1-3.3-1.8c-0.7-0.9-1-2-0.6-3c0.5-1,1.3-1.7,2.5-2.4
				c0.9-0.4,1.7-0.9,2.5-1.3c-0.4,0.2-0.7,0.4-1.1,0.6c2.5-1.4,4.9-2.9,7.2-4.4c2.3-1.6,4.7-3.1,6.7-4.9c-0.3,0.3-0.6,0.5-0.9,0.8
				c1.4-1.3,2.6-2.6,3.8-4c1.2-1.3,2.7-2.6,3.6-4.1c-0.2,0.3-0.4,0.6-0.6,0.9c0.2-0.3,0.3-0.6,0.3-0.9c-0.1,0.4-0.1,0.7-0.2,1
				c0-0.2,0-0.4,0-0.5c-0.1-1,0.7-2.1,1.6-2.8c1-0.7,2.5-1.2,3.9-1.2c1.4,0,2.9,0.4,3.9,1.2C234.4,175.2,234.8,176.1,235,177.2
				L235,177.2z"/>
		</g>
	</g>
	<g>
		<g>
			<path class="st2" d="M242.7,154.2c0.7-2.3,2.5-4.3,4-6.4c1.4-1.9,2.8-3.8,4.2-5.7c1.4-1.8,5.1-2.5,7.6-1.4c2.6,1.2,3.4,3.5,2,5.4
				c-1.2,1.6-2.4,3.2-3.6,4.8c-1.2,1.6-2.4,3.1-3.4,4.8c0.2-0.3,0.4-0.6,0.6-0.9c-0.3,0.5-0.5,1-0.7,1.5c-0.6,2-4.1,3.4-6.8,2.8
				C243.6,158.3,242,156.3,242.7,154.2L242.7,154.2z"/>
		</g>
	</g>
	<g>
		<path d="M19.5,260.1c4.9-10.7,12.4-20.9,18.8-31.1c0.7-1.3,3.8-1.3,4.9-0.5c6.4,4.8,13.5,9.6,17.6,15.5h0.4
			c45.8,2.4,90.1-25.5,121.6-45.8c36.4-23.3,69.5-51.7,82.6-85.8c0.7-4.3,1.5-8.8,1.5-13.4c0-2.1,4.1-2.1,4.5,0c0,0.8,0,1.6,0,2.4
			c1.5,0,2.6,0.8,2.6,2.1c-0.4,2.9-1.5,5.9-2.3,8.8C268.8,185,167.5,255,68.3,259.5c3.4,4.3,6.4,8.8,10.1,13.1
			c1.9,1.9-1.1,3.8-3.8,3.5c-18.8-1.9-35.7-8.3-52.9-13.1C20.3,262.7,18.8,261.7,19.5,260.1z M69.8,270.8c-2.3-3.5-3.8-7-6.4-10.5
			c-0.8-1.3,0.4-2.4,1.5-2.7c0-0.8,0.7-1.3,1.9-1.6c89.7-10.7,162.6-54.4,189.6-113.7c-17.6,23.3-44.7,43.7-71.3,60.8
			c-19.5,12.6-40.2,23.9-62.7,33.2c-17.6,7.2-39.8,13.9-60.1,9.4l0,0c1.1,2.1-3.4,3.2-4.9,1.6c-4.9-4.6-9.8-8.8-15-12.9
			c-5.3,8.3-10.9,16.6-15,25.2C41.3,263.5,55.2,268.4,69.8,270.8z"/>
	</g>
</g>
<g id="Layer_2">
	<g id="Layer_1_1_">
		<g>
			<g>
				<path class="st2" d="M311.9,71.6c3.7-6.2,0.7-13.7,1.3-20.4c0.6-7.6-11.3-7.6-11.9,0c-0.2,3,0.3,5.8,0.5,8.7
					c0.1,1.5,0.5,4.5-0.2,5.7C297.7,72.2,308,78.2,311.9,71.6L311.9,71.6z"/>
			</g>
		</g>
		<g>
			<g>
				<path class="st2" d="M309,75.2c5.1-1.1,10.9-2.8,15.1-6c1.7-1.3,2.7-3.2,4.2-4.6c2-1.9,3.8-2.9,5.5-5.2c-3.7-1-7.4-2-11.1-3
					c-0.2,3.1-5.3,4.4-7.5,5.3c-3.4,1.4-6.2,2.9-9.1,5.1c-4.4,3.4-0.4,10,4.2,10.2c5.1,0.2,11.4,0.1,16-2.4c3.7-2.1,6.3-6.4,9.3-9.4
					c6-6.1,13.1-17,9.5-25.8c-3.9-9.5-15.2-11.5-24.3-10.7c-5.3,0.4-10.4,1.6-15.3,3.6c-2.5,1-4.9,2.8-7.4,3.7
					c-2.2,0.8-4.5,0.2-6.8,1.1c-4.4,1.6-6.4,8.5-1.4,10.9c2.9,1.4,5.6,2.2,8.8,1.8c-1.9-2.5-3.8-5-5.7-7.5c-0.9,2.6-2.1,4.9-3.4,7.3
					c3.1-0.4,6.2-0.8,9.4-1.2c-0.2-0.3-0.3-0.6-0.5-0.8c-2.4-5.7-11.9-5.7-11.7,1.6c0.3,9.8,0.2,19.5-0.4,29.3
					c-0.5,6.9-4.6,19.6,3.6,23.5c3.8,1.8,6.5-0.2,9.7-2c3.4-1.9,7.5-2.1,10.4-4.9c2.9-2.9,3-6.6,3.1-10.4c0.1-4.9,0.1-9.9,0.2-14.8
					c0.1-7.8-11.1-7.5-11.9,0c-0.8,7.4-4,18.1,0.7,24.7c2.7-2.7,5.4-5.4,8.1-8.1c-1.8-1.1-5.3-1.7-6.6-3.2c-1.4-1.5-0.4-7.4-0.4-9.6
					c0-4-0.1-8-0.1-12c0-3.4-0.8-8,0-11.3c-1.4,1.4-2.8,2.8-4.2,4.2c2.4-0.8,5.5-0.1,8-0.3c3.1-0.2,6.3-0.7,9.4-1.3
					c6.1-1.1,12-2.5,18.2-1.7c-2-2-4-4-6-6c0.1-1.6-0.3-0.6-1.5-0.1c-1.1,0.4-2.1,1-3.1,1.5c-6.6,3.9-0.6,14.2,6,10.3
					c5.3-3.2,9.9-4.6,10.5-11.7c0.3-3.5-3-5.6-6-6c-8.9-1.1-17.1,1.9-25.9,2.9c-4.1,0.5-9-0.6-13,0.9c-4.4,1.6-4.6,5.6-4.6,9.6
					c0,9.8-0.4,19.9,0.2,29.7c0.2,3.7,1.1,7,4,9.6c2.5,2.3,6,3,8.8,4.8c4.8,3,11.7-3.2,8.1-8.1c-1.5-2.1-0.4-5.5-0.2-8
					c0.4-3.6,0.7-7.1,1.1-10.7c-4,0-7.9,0-11.9,0c0,3.1-0.1,6.2-0.1,9.2c0,1.4,0.7,6.4-0.1,7.5c-0.9,1.3-6.1,1.9-7.6,3.1
					c-0.5,0.3-1,0.6-1.5,1c3.2,3.9,4.7,4.7,4.7,2.2c0.5-1,0.4-3.6,0.5-4.6c1.3-13,1.7-26,1.3-39c-3.9,0.5-7.8,1.1-11.7,1.6
					c1,2.3,2,4.1,3.6,6.1c2.4,3.1,7.6,1.8,9.4-1.2c1.9-3.2,3.4-6.6,4.6-10.1c1.2-3.4-2-8-5.7-7.5c-1,0.3-1.9,0.2-2.8-0.2
					c-0.5,3.6-1,7.2-1.4,10.9c2.7-1,5.5-0.3,8.4-1.6c3.1-1.5,5.9-3.3,9.2-4.5c5.4-1.8,15.7-4.2,20.7-0.3c4.2,3.3-2.8,11.8-5.5,14.5
					c-2,2-3.8,4.3-5.8,6.3c-2.6,2.7-7.6,2.1-11.1,2c1.4,3.4,2.8,6.8,4.2,10.2c4.2-3.2,9.8-3.8,14-7.1c3.8-3,5.8-6.9,6.1-11.7
					c0.4-6.5-7.9-7.3-11.1-3c-0.9,1.2-3.1,2-4.2,3.2c-0.9,0.9-1.4,2.3-2.3,3.1c-2.7,2.5-7.8,3.3-11.3,4
					C298.3,65.3,301.5,76.8,309,75.2L309,75.2z"/>
			</g>
		</g>
		<g>
			<g>
				<path class="st2" d="M381.8,88.9c2.2,4,5.9,7.1,10.7,7c2.1,0,3.9-0.8,5.6-1.9c1.3-0.9,2.6-3.2,4-3.6c4.7-1.5,6.2-8.4,1.4-10.9
					c-3.8-2-9.8-3.9-12.9-7c-1.5-1.5-0.8-1.8-1-3.6c0,0.6-2.2,1,0.4,0.1c2.3-0.8,4.6-1.9,6.8-3c9.2-4.5,12.3-12.2,12.9-22.2
					c0.4-7.7-11.5-7.6-11.9,0c-0.2,2.7-0.5,6.1-2,8.5c-1.3,2.1-4.3,3.2-6.5,4.2c-5,2.3-9.6,3.3-11.2,9.3c-3.5,14,9.2,18.7,19.3,24
					c0.5-3.6,1-7.2,1.4-10.9c-2,0.6-3.5,1.5-5.1,2.8c-0.6,0.5-1.1,1.2-1.7,1.7c-0.6,0.4,1,1.4-0.1-0.5
					C388.3,76.2,378,82.2,381.8,88.9L381.8,88.9z"/>
			</g>
		</g>
		<g>
			<g>
				<path class="st2" d="M409.5,42.9c1.6-25.9-38.7-20.1-52-9.9c-6,4.6-0.1,15,6,10.3c4.6-3.5,12.8-6.5,18.6-6.7
					c3.6-0.1,7.5,0,11,0.6c4,0.6,4.7,1.8,4.5,5.7C397.1,50.5,409,50.5,409.5,42.9L409.5,42.9z"/>
			</g>
		</g>
		<g>
			<g>
				<path class="st2" d="M353.6,40.2c1,17.5,1,35,0,52.4c-0.2,3.7,4,7,7.5,5.7c4.7-1.7,11.2-3,13.2-8.2c2.3-5.8,1.3-13.2,0.3-19.1
					c-0.9,2.2-1.8,4.5-2.7,6.7c0.3-0.1,0.6-0.3,0.9-0.4c-1.5,0.2-3.1,0.4-4.6,0.6c1.9,0.3,3.6,7,4.5,8.5c1.6,2.5,4.3,3.7,7.2,3.1
					c7.2-1.3,6.4-10.3,5.2-15.6c-0.7-3.2-2-6.3-3-9.4c-0.5-1.7-1.5-3.8-1.5-5.6c0-1.3-0.3-0.9,1.6-2.1c5.2-3.2,10.8-4.7,15.1-9.3
					c-3.3-1.9-6.6-3.9-10-5.8c-1.6,5.4-3.4,12.5-9.5,14.4c1.5,3.6,3.1,7.2,4.6,10.9c7.4-5.2,17.8-10,17.3-20.6
					c-0.2-4.1-1.5-10.8-4.2-14c-2.8-3.4-9.2-3.6-13.3-3.4c-9,0.3-17.9,5.2-20,14.6c-1,4.7-0.6,9.7-0.6,14.4c0,6,0,12,0,18
					c0,6.6,10.1,8.2,11.7,1.6c1.3-5.5,2.7-10.9,4.2-16.4c0.7-2.4,1.4-4.8,2.1-7.2c0.5-1.5,2.9-6.1,1.4-6.6
					c7.2,2.6,10.4-8.9,3.2-11.5c-8.2-2.9-12.7,4.9-14.9,11.4c-3,8.9-5.2,18-7.4,27.1c3.9,0.5,7.8,1.1,11.7,1.6
					c0-8.7-0.3-17.4,0-26.1c0.1-3.8,0.8-6.7,4.7-8.2c3.2-1.3,7.8-1.1,11,0.1c-1.2-0.9-2.4-1.8-3.6-2.7c1.6,3.1,3.2,8.2,0.6,10.8
					c-2.7,2.7-6.7,4.7-9.9,6.9c-5.2,3.6-2.2,13.1,4.6,10.9c10.6-3.4,14.8-12.8,17.8-22.7c1.7-5.6-5.9-10.2-10-5.8
					c-5.4,5.9-16.2,6.2-19.6,14.2c-1.8,4.2-0.2,9.4,1.1,13.6c0.8,2.4,5.3,11.5,3.6,13.8c1.2-0.9,2.4-1.8,3.6-2.7
					c-0.3,0-0.5,0.1-0.8,0.1c1.9,0.5,3.9,1,5.8,1.5c-0.3-0.2-1.4-3.4-2-4.5c-1.1-2.1-2.4-4.2-4.1-5.9c-3.1-3-6.7-3.3-10.5-1.7
					c-2.6,1.1-3.1,4.3-2.7,6.7c0.5,3,1.1,7,0.4,10c-0.3,1.3,1.4,0.4-1.1,1c-1.5,0.3-3,1.1-4.4,1.6c2.5,1.9,5,3.8,7.5,5.7
					c1-17.5,1-35,0-52.4C365.1,32.6,353.2,32.5,353.6,40.2L353.6,40.2z"/>
			</g>
		</g>
		<g>
			<g>
				<path class="st2" d="M442.1,48.3c-4.9,2.8-11.5,6.2-14.8,11c-3.4,4.8-2.8,12.3-2.9,17.9c0,4.9,6.7,8.1,10.2,4.2
					c4.2-4.7,7.2-10,8.9-16.1c2-6.9-7.1-9.8-10.9-4.6c-5.3,7.3-5.6,17.3-0.8,25c4.5,7.1,15.9,8.4,23.1,5.4
					c8.4-3.5,11.1-14.4,12.3-22.6c0.7-4.8,0.7-9-2.1-13.2c-2.4-3.6-5.2-6.9-8.9-9.1c-6.6-3.9-12.6,6.4-6,10.3
					c3.5,2.1,5.8,5.5,5.4,9.6c-0.4,3.8-1.5,10.7-4.3,13.4c-2.1,2-7.8,1.9-9.5-0.5c-2.7-3.9-1.5-8.6,1.1-12.1
					c-3.6-1.5-7.2-3.1-10.9-4.6c-1.2,4.1-3,7.6-5.9,10.8c3.4,1.4,6.8,2.8,10.2,4.2c0-3.2-0.8-8.9,1.2-11.5c2.2-3,7.5-5.3,10.6-7.1
					C454.8,54.8,448.8,44.5,442.1,48.3L442.1,48.3z"/>
			</g>
		</g>
		<g>
			<g>
				<path class="st2" d="M450,44.1c-6.8-0.4-16.6,0-22.1,4.6c-5.6,4.6-6.5,14.5-7.3,21.3c-0.8,7.1-1.2,16.2,2.6,22.5
					c3.5,6,10.4,7.6,16.8,8.5c7.6,1.1,13.3-0.5,19.9-4.3c5.7-3.3,10.7-7.8,12.8-14.1c2.5-7.3,2.4-17,1.8-24.6
					c-0.6-7.6-2.7-15.1-7.8-21c-5-5.7-12.9-8.8-20.3-6.9c-8.5,2.1-13.6,9.6-17.7,16.7c-3.8,6.7,6.5,12.7,10.3,6
					c2.4-4.3,5.6-10.8,11.1-11.4c5.8-0.7,9.7,5.3,11.2,10c1.9,6,1.6,12.5,1.2,18.7c-0.4,6.2-0.8,11-6.2,14.7
					c-4.7,3.3-9.1,5.2-14.8,4.4c-2-0.3-4.9-0.5-6.7-1.6c-2.3-1.5-2.4-4.2-2.6-6.7c-0.5-6.5,0.2-13,1.9-19.2c1-3.7,2.1-4.3,5.8-5.1
					c3.3-0.7,6.6-0.8,10-0.6C457.6,56.5,457.6,44.6,450,44.1L450,44.1z"/>
			</g>
		</g>
		<g>
			<g>
				<path class="st2" d="M451.9,50.5c0.3-0.3,0.6-0.5,0.9-0.8c0.6-0.5,0.6-0.5,0.1,0c-1,0.3-2,0.5-3,0.8c-1.6-0.6-1.9-0.7-0.9-0.2
					c0.2,0.1,0.4,0.2,0.5,0.3c0.7,0.4,0.3,0.1,1.1,0.8c0.2,0.2,1.1,1.1,1,1c0,0,0.7,1.1,1,1.5c1.6,2.8,5.4,3.8,8.1,2.1
					c2.8-1.6,3.8-5.4,2.1-8.1c-1.8-3.2-4.4-5.9-7.6-7.8c-1.9-1.1-4-1.9-6.2-1.5c-2.3,0.4-3.9,1.9-5.6,3.4c-2.4,2.1-2.2,6.3,0,8.4
					C445.8,52.9,449.4,52.6,451.9,50.5L451.9,50.5z"/>
			</g>
		</g>
		<g>
			<g>
				<path class="st2" d="M507.7,44c-1.2,0.1-3.2,0.4-4.4,0.1c1.4,1.4,2.8,2.8,4.2,4.2c-0.2-0.6-0.2-2.4,0.1-2.9c-0.2,0-0.3,0-0.5,0
					c0.6-0.2,1.2-0.4,1.8-0.5c2.7-0.9,5.5-1.6,8.2-2.4c5.2-1.5,10.4-3,15.6-4.5c-2.4-1.4-4.9-2.8-7.3-4.2c0.6,3.7,0,8,0,11.8
					c0,3.9-0.1,7.8-0.1,11.7c0,3.9-0.1,7.8-0.2,11.7c-0.1,3.6,0.3,5.5-2.5,7.9c-4.7,4-11.1,5.7-17,7.1c-2.6,0.6-7,1.7-9.2-0.6
					c-0.7-0.7-1.5-6.7-0.4-7.5c-3-1.7-6-3.4-9-5.1c-0.4,5.1-2.1,11.9,0.6,16.6c2.6,4.5,7.9,5.8,12.7,5.5c4.5-0.3,7.4-4.9,5.1-9
					c-0.5-1-1.1-2-1.8-2.9c-1.7,3-3.4,6-5.1,9c1-0.1,2-0.3,3-0.4c5.3-0.7,8.8-8.1,3-11.1c-1.9-1-3.7-1.7-5.9-2.1
					c-6.1-1-11.2,7.9-4.6,10.9c11.9,5.4,24.8,0.8,32.4-9.5c6.8-9.1,7.5-25.3,1.2-34.9c-3.2-4.8-11.1-3.1-11.1,3
					c0,7.9,1.4,17.1-1,24.7c3.9,0.5,7.8,1.1,11.7,1.6c0.2-9.3,0.9-19.2-0.7-28.4c-1.7-9.7-10.2-7.4-16.8-3.7
					c-5.9,3.3-1.9,12.8,4.6,10.9c3.1-0.9,6.2-1.7,9.3-2.4c7.5-1.5,4.3-13-3.2-11.5c-3.2,0.6-6.2,1.4-9.3,2.4
					c1.5,3.6,3.1,7.2,4.6,10.9c0.9-0.5,1.9-1,2.9-1.5c2-0.5,2-0.7-0.1-0.5c-1.4-1.4-2.8-2.8-4.2-4.2c1.5,4,1,9.5,1,13.7
					c0.1,4.7,0,9.5-0.1,14.2c-0.1,6.9,9.7,7.9,11.7,1.6c2.8-8.8,1.5-18.8,1.5-27.8c-3.7,1-7.4,2-11.1,3c3.4,5.2,3.5,14.5,0.7,20
					c-3.1,6-11.3,11-18,8c-1.5,3.6-3.1,7.2-4.6,10.9c1.1,0.1,2.1,0.4,3,0.9c1-3.7,2-7.4,3-11.1c-1,0.1-2,0.3-3,0.4
					c-3.9,0.5-8.2,4.9-5.1,9c0.8,0.9,1.4,1.8,1.8,2.9c1.7-3,3.4-6,5.1-9c-0.5,0-2.2,0.4-2.6,0c1.2,0.9,0.5-1,0.6-1.9
					c0.2-2.8,0.4-5.6,0.6-8.4c0.3-4.3-5.4-7.7-9-5.1c-7.5,5.2-8.8,19.5-2.2,26.1c8.3,8.3,21.9,4.3,31.4,0.5c4.7-1.9,9.3-4.3,12.9-8
					c3.9-4,4.8-7.9,4.9-13.3c0.1-6.8,0.2-13.6,0.3-20.5c0.1-6.5,0.8-13.4-0.3-19.8c-0.5-3.1-4.5-5-7.3-4.2c-5.5,1.6-11,3.1-16.5,4.7
					c-4.4,1.3-12.1,1.9-15.1,5.8c-2.6,3.3-3.2,10.1-2.1,14.1c1.6,5.5,7.1,5.2,11.8,4.9C515.3,55.4,515.3,43.5,507.7,44L507.7,44z"/>
			</g>
		</g>
		<g>
			<g>
				<path class="st2" d="M586.2,92.7c8.9,0.2,11-5.4,13.3-12.9c1.3-4.3-3.1-8.6-7.3-7.3c-2.6,0.8-4.2,2.5-6.5,3.7
					c-2.3,1.1-5.2,1.6-7.8,1.8c-2.3,0.2-5.3,0.5-6.8-1.7c-1-1.4-1.4-6.9-0.9-7.6c-1.2,0.9-2.4,1.8-3.6,2.7c3.9-0.8,8.1,0.3,12-0.9
					c4.5-1.4,7-5.6,7-10.2c0.1-4.5-2.5-7.5-7-8c-2.2-0.2-4.4,0.1-6.5,0.5c-0.9,0.2-3.2,0.4-4.1,0.9c-1.5,0.2-1.1,0.4,1.1,0.5
					c1.8,0.9,2.3,0.8,1.6-0.4c-0.9,1.2-1.8,2.4-2.7,3.6c6.2-3.6,14-3.9,20.6-6.6c2.8-1.2,5-3,6.2-5.9c1.5-3.7,0.5-7.8,1.8-11.5
					c-0.9,1.2-1.8,2.4-2.7,3.6c0.2-0.1,0.4-0.2,0.6-0.3c-2.7-2.7-5.4-5.4-8.2-8.1c0.6-0.9-1.3,0.1-1.9,0.2c-1.5,0.4-3,0.7-4.6,1.1
					c-3,0.7-6.1,1.4-9.2,2.1c-5.1,1.1-12,1.4-16.6,3.9c-4.8,2.6-3.8,9.3-4,13.9c-0.2,6.3-0.3,12.6,0,19c0.3,7,9.3,7.8,11.7,1.6
					c1.6-4.1,3.2-8.3,5.5-12.1c2.1-3.5,5-6.4,7.3-9.8c3.6-5.4-3.2-10.4-8.2-8.1c-4.4,2-6.5,6.1-6.9,10.8c-0.7,7.6,11.2,7.6,11.9,0
					c-0.4,0.2-0.1,0.1,1-0.5c-2.7-2.7-5.4-5.4-8.2-8.1c-2.6,3.9-5.9,7.1-8.1,11.2c-2.4,4.3-4.1,8.9-5.9,13.5
					c3.9,0.5,7.8,1.1,11.7,1.6c-0.2-4.4-0.3-8.8-0.2-13.3c0.1-4-0.5-8.9,0.5-12.7c-0.9,1.2-1.8,2.4-2.7,3.6c3-1.3,7.3-1.4,10.5-2.1
					c3.4-0.7,6.7-1.5,10.1-2.2c6.1-1.4,12.5-2,16.3-7.4c3.9-5.4-3.4-10.2-8.2-8.1c-2.7,1.1-3.5,3.6-3.9,6.3
					c-0.3,1.8-0.5,3.8-0.5,5.7c-0.1,3.3,0.5,0.8-1.2,1.8c-2.9,1.5-7.2,2-10.3,3c-3.2,1-7.4,1.9-10.2,3.7c-5.2,3.4-3.7,11.1-0.4,15.5
					c1.8,2.4,4,3.3,6.9,3.1c2.8-0.1,6.4-2.4,9.1-1.2c-1.4-1.4-2.8-2.8-4.2-4.2c1.4-0.9,1.5-1.2,0.2-0.9c-0.8,0-1.6,0-2.5,0.1
					c-1.9,0.1-3.8,0-5.7,0.2c-2.6,0.3-5,1.2-6.3,3.6c-2.7,5.1-1.6,14.3,1.2,19.1c3.6,6.1,10.3,8.1,17.1,7.6c3-0.2,6.1-0.7,8.9-1.5
					c1.4-0.4,2.8-0.9,4.2-1.6c1.5-0.7,2.9-2.4,4.4-2.9c-2.4-2.4-4.9-4.9-7.3-7.3c-0.6,2-0.3,4.2-1.9,4.1
					C578.5,80.6,578.6,92.5,586.2,92.7L586.2,92.7z"/>
			</g>
		</g>
		<g>
			<g>
				<path class="st2" d="M552.8,74.9c-0.4,0.8-0.8,1.6-1.1,2.4c2.7-0.7,5.4-1.4,8.2-2.1c-0.2-0.1-0.4-0.2-0.6-0.3
					c0.9,1.2,1.8,2.4,2.7,3.6c-0.6-2.2-0.2-5.2-0.3-7.4c-0.2-6.4-10.7-8.5-11.7-1.6c-1,7-1.9,14.1-2.1,21.1
					c-0.2,6,1.7,11.6,8.7,11.8c6.1,0.2,12.5-1.6,18.3-3c6.3-1.5,12.2-3.7,18-6.5c3.3-1.6,4-7,1.2-9.4c-5.1-4.4-13.2-2-19.3-1.5
					c-3.8,0.3-7.7,0.6-11.6,1c-3.1,0.3-8,1.5-11,1c0.5,3.6,1,7.2,1.4,10.9c2.7-1.5,5.4-2.6,8.3-3.6c7.2-2.4,4.1-13.9-3.2-11.5
					c-3.9,1.3-7.5,2.9-11.1,4.8c-4.3,2.3-3.7,9.9,1.4,10.9c6,1.1,12.9-0.4,19-0.9c3.2-0.3,6.4-0.5,9.6-0.8c1.9-0.2,3.8-0.3,5.8-0.5
					c0.6,0,1.3-0.1,1.9-0.2c2.5,0.2,2.6-0.2,0.3-1.1c0.4-3.1,0.8-6.2,1.2-9.4c-7.4,3.6-15.5,5.6-23.6,7.2c-0.6,0.1-6.1,0.7-6.1,0.8
					c2.2,2.9,3,2.9,2.6,0.1c0-1,0.1-2,0.2-2.9c0.3-5,0.8-10,1.5-15c-3.9-0.5-7.8-1.1-11.7-1.6c0.2,4.7-1,11.9,4,14.5
					c2.7,1.3,6.7,0.9,8.2-2.1c0.4-0.8,0.8-1.6,1.1-2.4C566.3,74,556,68,552.8,74.9L552.8,74.9z"/>
			</g>
		</g>
		<g>
			<g>
				<path class="st2" d="M621.4,79.1c0.3-7.5,0.4-15,0.1-22.5c-0.1-3.6-0.3-7.2-0.5-10.7c-0.2-3.1-1.3-7.5-0.5-10.6
					c-0.9,1.2-1.8,2.4-2.7,3.6c3.4-1.4,9.3-1.1,13-1.3c-1.9-2.5-3.8-5-5.7-7.5c-2.4,7.5-3.8,15.2-4.4,23c3.9-0.5,7.8-1.1,11.7-1.6
					c-1.5-4.4-3-8.9-4.5-13.3c-2.4-7.2-13.8-4.2-11.5,3.2c1.5,4.6,3,9.3,4.4,13.9c1.2,3.7,2.2,8,6.3,9.2c7.8,2.4,14.9-5.9,17.4-12.1
					c-3.8-1.1-7.7-2.1-11.5-3.2c-0.3,0.8-0.5,1.6-0.8,2.3c-1.9,5.6,6,10.2,10,5.8c3-3.4,6.3-6.2,10.3-8.5c3.6-2.1,6.5-3.9,9-7.3
					c-3.6-0.5-7.2-1-10.9-1.4c0.5,2.7,1.6,6,1.4,8.8c1-1.7,2-3.4,3-5.1c-3.5,2.6-8.6,4.2-12.5,6.1c-4.6,2.2-9.2,4.3-13.8,6.5
					c-6.9,3.3-0.9,13.5,6,10.3c7.7-3.6,15.5-7.3,23.2-11c3.1-1.5,5.8-2.9,6-6.7c0.2-3.8-1.2-8.2-1.8-12c-1-5.6-8.2-5.1-10.9-1.4
					c-1.8,2.5-6.4,3.9-8.9,5.7c-3.1,2.2-6,4.8-8.5,7.7c3.3,1.9,6.6,3.9,10,5.8c0.3-0.8,0.5-1.6,0.8-2.3c2.5-7.4-8.7-10.1-11.5-3.2
					c-0.7,1.6-2.5,3.6-4.4,3.5c1.4,0.6,2.8,1.2,4.2,1.7c0.5,1.3,0.6,1.4,0.2,0.2c-0.3-0.9-0.5-1.7-0.8-2.6c-0.5-1.5-0.9-2.9-1.4-4.4
					c-1-3.2-2-6.4-3-9.6c-3.8,1.1-7.7,2.1-11.5,3.2c1.5,4.4,3,8.9,4.5,13.3c2.2,6.5,11.2,5.2,11.7-1.6c0.5-6.8,1.9-13.4,3.9-19.9
					c1.1-3.5-2-7.8-5.7-7.5c-5.6,0.3-12.7,0.1-17.9,2.4c-5.3,2.4-4.5,8.3-4.1,13.1c0.9,12.6,1.3,25.2,0.8,37.9
					C609.2,86.8,621.1,86.8,621.4,79.1L621.4,79.1z"/>
			</g>
		</g>
		<g>
			<g>
				<path class="st2" d="M628.7,59.6c-1.8,3.9-3.4,8.2-2.6,12.6c0.8,4.8,4.7,7.6,8,10.8c6.8,6.4,14.3,12.2,24.1,10.8
					c6.6-0.9,5.1-12.6-1.6-11.7c-3.7,0.5-7.3,0.9-10.7,2.4c-1,0.4-1.9,0.9-2.7,1.5c0.4-0.3,0.3-0.5-0.2-0.8c-1.2-1-1.9-3-2.8-4.3
					c-2.1-3.2-4.8-5.9-7.3-8.8c-3-3.5-4-6-3.8-10.7c-4,0-7.9,0-11.9,0c0,5,0.1,10,0.1,15c0,4.4,1,10,0.2,14.3
					c0.9-1.2,1.8-2.4,2.7-3.6c0.9-0.6-2.5-0.4-2.8-0.6c1.8,1.5,1.4-3,1.5-3.6c0.9-7.6-11-7.5-11.9,0c-0.6,5.2,0.1,12.3,5.6,14.6
					c3.6,1.5,10.2,2.1,13.6-0.1c4.7-3.1,3.1-10.6,3-15.4c0-6.9-0.1-13.8-0.2-20.6c-0.1-7.7-11.7-7.6-11.9,0
					c-0.2,5.8,0.7,10.8,4.3,15.5c3.2,4.3,7.1,7.9,10,12.5c2.5,4,5.8,7.8,10.7,8.5c2.3,0.4,4.3-0.1,6.4-1.2c2.8-1.5,4.9-2.3,8.1-2.7
					c-0.5-3.9-1-7.8-1.6-11.7c-3.9,0.6-8.6-4.1-11.1-6.5c-1.5-1.4-3.6-2.8-4.8-4.5c-1.5-2.1-1.3-3.2-0.1-5.7
					C642.3,58.7,632,52.7,628.7,59.6L628.7,59.6z"/>
			</g>
		</g>
		<g>
			<g>
				<path class="st2" d="M684.5,51.6c-0.2,0.3-0.3,0.6-0.5,0.8c1.2-0.9,2.4-1.8,3.6-2.7c-3.8,1-8.8,0.5-12.7,0.7c2,2,4,4,6,6
					c-0.1-3.5-0.8-8.3,0.1-11.7c-0.9,1.2-1.8,2.4-2.7,3.6c3.3-2,8-2.6,11.8-3.5c4.2-1,8.5-1.9,12.8-2.6c8.2-1.5,17.1-1.8,24.7-5.1
					c-2.9-2.2-5.8-4.5-8.8-6.7c-1.5,4.1-2.7,8.3-3.5,12.6c1.9-1.5,3.8-2.9,5.7-4.4c-6.8,0.4-13.5,1.3-20.1,2.9
					c-6.8,1.7-12.8,3.5-20,2.7c-5.1-0.6-7.9,6.9-4.2,10.2c3.9,3.5,8.6,4.1,13.7,4.6c5.4,0.5,9.2-1.4,12.1-6.1c2.4-3.8,3.5-9-0.7-12
					c-4.5-3.3-11.5-0.4-16,1.5c-3.8,1.5-5.3,5-3.6,8.8c2.3,5,11.3,5,15.7,3c0.5-0.1,1.1-0.3,1.6-0.4c-1.4-2.8-1.9-3.2-1.6-1.1
					c0,1.2,0.5,2.7,1.1,3.7c0.7,1.1,1.7,1.9,2.8,2.4c0.4,0.2,0.8,0.3,1.2,0.4c2.2,0.4,2.1,0.3-0.3-0.2c-0.9-1.2-1.8-2.4-2.7-3.6
					c0.9,2.3-0.5,6.9-0.6,9.6c-0.2,3.6,0.3,7,0.8,10.5c0.2,1.2,1.2,4.2,0.6,5.2c0.2,0,0.3,0,0.5,0c-0.7,0.2-1.4,0.4-2.1,0.6
					c-3.2,1-6.2,2.2-9,3.9c3,1.7,6,3.4,9,5.1c0.4-12,0.8-23.9,1.1-35.9c-3.7,1-7.4,2-11.1,3c0.8,1.2,0.4,4.2,0.4,5.7
					c0.1,2.7,0,5.4,0,8.1c-0.1,5,0.7,8.9,3.4,13.2c2.5,3.9,7.8,3.8,10.3,0c0.2-0.3,0.4-0.6,0.6-0.9c4.3-6.4-6-12.4-10.3-6
					c-0.2,0.3-0.4,0.6-0.6,0.9c3.4,0,6.8,0,10.3,0c-5-7.8,1.3-19-3.8-26.9c-3.2-4.9-10.9-3-11.1,3c-0.4,12-0.8,23.9-1.1,35.9
					c-0.1,4.6,5.2,7.3,9,5.1c4.2-2.4,9.8-2.7,13.3-6.1c4.1-3.8,3.4-9.5,2.6-14.5c-0.9-6.4-0.2-12.1-0.1-18.5c0-2.2-0.2-4.3-1.6-6.2
					c-0.6-0.8-1.4-1.5-2.3-1.9c-0.5-0.2-4.3-1.2-2.3-0.7c1.4,1.4,2.8,2.8,4.2,4.2c-1.4-3.8-1-7.5-5.5-9.5c-2-0.9-4.2-0.8-6.4-0.4
					c-1.1,0.2-2.2,0.5-3.2,0.8c-0.8,0.2-1.6,0.4-2.5,0.5c-1.4,0-1.3,0.6,0.2,2c-1.2,2.9-2.4,5.8-3.6,8.8c1.5-0.6,2.9-1.1,4.4-1.6
					c0.6-0.2,1.2-0.4,1.8-0.5c1.5-0.1,1.3-0.6-0.7-1.4c-0.6-1.4-1.2-2.8-1.7-4.2c0.1-1.2-0.3,0.3-0.6,0.7c-0.3,0.3-0.6,0.7-0.9,1
					c1.3-0.5,1.3-0.8,0-0.7c-1.7-0.8-4.7,0.2-6.2-1.2c-1.4,3.4-2.8,6.8-4.2,10.2c13.5,1.5,26.6-4.8,40.1-5.6
					c2.5-0.1,5.2-1.7,5.7-4.4c0.8-4.3,2-8.5,3.5-12.6c2-5.4-4.5-8.6-8.8-6.7c-5.3,2.4-12.5,2.4-18.2,3.3c-6.1,1-12.2,2.2-18.3,3.7
					c-4.3,1.1-11.6,2-14.5,5.8c-3.1,4-1.8,12.1-1.6,16.9c0.1,3.1,2.6,6.1,6,6c6.1-0.3,16.4,1.5,19.9-4.7
					C698.6,50.9,688.3,44.9,684.5,51.6L684.5,51.6z"/>
			</g>
		</g>
		<g>
			<g>
				<path class="st2" d="M775.2,89.4c4.5-1.8,10-4.3,11-9.6c1.1-5.6-4.4-10.9-9.9-7.8c-2,1.1-3,3.1-4.9,4.3
					c-2.1,1.3-4.1,2.3-5.1,4.8c-2.4,5.9,3.3,10.4,8.8,10.3c-1.4-3.4-2.8-6.8-4.2-10.2c-3.4,3.5-9,4.9-13.7,6
					c-4.3,1-11.2,2.6-15.5,1.4c1.4,1.4,2.8,2.8,4.2,4.2c-0.3-1.1,0-2.9,0-4c-1.5,1.9-2.9,3.8-4.4,5.7c5.4-0.9,11,0,16.5-0.8
					c4.8-0.6,11.1-1,15.2-3.5c2.2-1.3,3.5-4.2,2.7-6.7c-1.3-4.1-5-6.4-9.3-6.7c-4.4-0.4-9.5,2.1-12.8-2c0.6,1.4,1.2,2.8,1.7,4.2
					c0.1-1.3,0.6-4.1,1.6-4.8c1.4-1.1,4.2-1.4,5.8-2.6c3.8-2.9,5.8-7.3,5.7-12c-0.1-2.5-1.8-5.1-4.4-5.7c-2.5-0.6-7.3-0.4-8.9-1.1
					c1.2,0.9,2.4,1.8,3.6,2.7c-2.2-3.4,1.2-3.7,3.8-4c3.6-0.4,7.2-0.3,10.5-1.8c6.5-3,5.6-10.4,7.8-16.3c2.7-7.2-8.8-10.3-11.5-3.2
					c-1,2.7-1.8,5.5-2.2,8.4c-0.3,3.2-0.3,0.5,0.4,0.5c-1.6,0-3.5,0.4-5.1,0.5c-4.9,0.4-9.8,1.4-13.2,5.1c-3.8,4-3.9,9.9-1.8,14.8
					c2.7,6.3,7.9,4.5,13.4,5.8c-1.5-1.9-2.9-3.8-4.4-5.7c0.1,3.9-6,3.9-8.4,6.4c-2.8,3-4.5,8.3-4.6,12.4c-0.1,5,4.3,7.9,8.5,9.5
					c2.1,0.8,4.4,1.3,6.7,1.4c1.1,0,2.1-0.1,3.2-0.2c0.8-0.1,1.6-0.2,2.5-0.3c1.4,0.2,1.4-0.5-0.1-2c0.9-2.2,1.8-4.5,2.7-6.7
					c-1.6,1-4.9,1-6.7,1.4c-2.6,0.5-5.2,0.9-7.9,1.1c-4.8,0.3-9.5-0.1-14.3,0.6c-2.5,0.4-4.4,3.3-4.4,5.7c0,4.4-0.5,9.5,4.6,11.3
					c4.2,1.5,10,0.4,14.4-0.1c9.1-1.1,19.8-3.5,26.4-10.3c3.5-3.6,1-10.3-4.2-10.2c0.8,0.8,1.6,1.5,2.4,2.3
					c-0.2,1.5-0.4,3.1-0.6,4.6c-0.9,1.2-0.5,0.6,0.5,0.2s2-1.2,2.9-1.9c0.7-0.6,1.4-1.2,2-1.9c0.3-0.4,0.6-0.8,0.9-1.1
					c0.8-1,0.6-0.8-0.5,0.5c-2,0-4,0-6,0c0.2,0.1,0.4,0.2,0.6,0.4c-0.9-1.2-1.8-2.4-2.7-3.6c-0.6-3-0.1-2-2.6-1
					C764.9,80.6,768,92.2,775.2,89.4L775.2,89.4z"/>
			</g>
		</g>
		<g>
			<g>
				<path class="st2" d="M776.4,31c-5.8-5.5-11.8-2.5-18.5-0.5c-4,1.2-8.1,1.8-12.1,2.7c-3.2,0.7-7.3,1.3-9.4,4.1
					c-2.1,2.7-1.8,6.7-1.8,10c0,4.3-0.1,8.7-0.1,13c-0.1,8.5,0.5,17.4-1.1,25.8c-1.4,7.5,9.9,10.7,11.5,3.2
					c3-13.8,6.2-27.5,9.8-41.1c-3.9-0.5-7.8-1.1-11.7-1.6c-0.2,7.8-0.3,15.6,0.1,23.4c0.2,4.1,3.6,6.5,7.5,5.7
					c0.2,0,0.5-0.1,0.8-0.1c7.5-1.4,4.3-12.9-3.2-11.5c-0.2,0-0.5,0.1-0.8,0.1c2.5,1.9,5,3.8,7.5,5.7c-0.5-7.8-0.3-15.6-0.1-23.4
					c0.2-6.7-10-8.1-11.7-1.6c-3.5,13.6-6.8,27.4-9.8,41.1c3.8,1.1,7.7,2.1,11.5,3.2c1.4-7.6,1.4-15.2,1.5-22.9c0-4,0.1-8,0.1-12
					c0-3.5-0.8-8.5,0.4-11.8c-0.9,1.2-1.8,2.4-2.7,3.6c3.6-2,8.8-2.1,12.7-3c1.2-0.3,10.9-3.9,11.2-3.6
					C773.6,44.7,782,36.3,776.4,31L776.4,31z"/>
			</g>
		</g>
		<g>
			<g>
				<path class="st2" d="M837.6,51c-5.2,3.5-10.8,6.8-15.8,10.8c-4.2,3.4-5.2,8.7-2.3,13.3c1.3,2,3.2,3,4.9,4.7
					c1.7,1.8,2.7,4.1,4.5,5.8c3.6,3.3,10,6.8,14.9,4.9c7-2.8,4.1-14.2-3.2-11.5c-1.5,0.5-9.2,3.1-9.2,5.2c3.9,1.4,5.2,1.2,3.8-0.3
					c-0.5-0.6-0.9-1.2-1.4-1.8c-1-1.2-2.1-2.2-3.3-3.3c-3.2-2.8-6.7-5.3-10-7.9c-2.4-1.9-4.5-3.8-7.8-3.3c-6.4,1-8.4,11.6-5.1,16.4
					c0.7,2.1,1.2,0.9,1.4-3.5c-1.2,0.2-2.4,0.5-3.5,0.7c-1.7,0.4-3.3,0.7-4.9,1.3c-3.3,1.3-5.8,3.5-7.7,6.5
					c-2.9,4.9,1.9,9.5,6.7,8.8c5.8-0.9,11.2-2.6,16.6-5.1c4-1.9,3.7-8.3,0-10.3c-1.1-0.6-11.1-5.5-11.7-4.4c1.7,2.8,2.4,2.9,2,0.2
					c0-0.9,0-1.9,0-2.8c0-2.2,0-4.3,0-6.5c0-5,0-9.9,0-14.9c0-1.8,0-3.6,0.1-5.4c0-0.8,1-6.5-0.2-5.2c0.8-0.9,4.5-1.4,5.8-2
					c1.5-0.8,2.6-1.5,4.2-2c4.4-1.3,9.8-2.2,14.4-2.1c2.6,0,6.8,0.5,8.2,3.1c1.5,2.8,0.1,8.5-2.5,10c2.9,1.2,5.8,2.4,8.8,3.6
					c-1.8-6.2-0.8-15.5-8.2-18.3c-3.3-1.3-7.5-0.7-11-0.8c-3.3,0-6.8-0.4-9.8,1.1c-1.6,0.8-2.6,2-4,3c-1.3,0.9-2.7,1.2-4.1,1.9
					c-3.3,1.6-4.7,3.9-5.3,7.4c-1.5,8.7,0.2,17.6-1.4,26.4c-1,5.6,5.5,10.3,10,5.8c4.1-4.2,7.9-8.7,11.2-13.5
					c2.9-4.3,5.2-10.5,10.8-11.8c-2.5-1.9-5-3.8-7.5-5.7c-0.2,3-7.2,5.2-9.3,3.7c0.9,1.2,1.8,2.4,2.7,3.6c-0.3,1.6,0.1,1.7,1.2,0.2
					c0.9-0.7,1.8-1.4,2.7-2c1.8-1.2,3.8-2.2,5.7-3.1c6.9-3.3,0.9-13.5-6-10.3c-4.9,2.3-10.8,5.6-14,10.1c-3.2,4.6-1.7,11.1,3.8,13
					c4.8,1.7,12.3,0.3,16.7-2.1c5-2.8,8-7.5,8.2-13.1c0.2-4-4-6.6-7.5-5.7c-6.6,1.5-11,6.3-14.5,11.8c-3.8,6-7.7,11.5-12.8,16.5
					c3.3,1.9,6.6,3.9,10,5.8c1-5.6,1.3-11.1,1.4-16.8c0-3.2,0.1-6.4,0.2-9.6c0-3.5,0.3-0.3-0.2-0.2c1.2-0.1,2.6-1,3.6-1.6
					c2-1.1,2.8-2.5,5-2.9c2.4-0.4,5.2,0.1,7.6,0.1c0.8,0,3.3,0.6,1.9-0.5c-1.3-1.1-0.4,1.1-0.3,2.1c0.4,3,1,5.8,1.8,8.7
					c1.1,3.7,5.4,5.5,8.8,3.6c9.9-5.8,12.3-22.6,3.4-30.3c-4.6-4-11-5.3-16.9-5c-6.7,0.3-14.8,1.4-20.8,4.5
					c-2.7,1.4-5.7,1.8-8.3,3.3c-2.8,1.6-3.8,4.6-4.4,7.6c-1.3,7.1-0.9,14.4-0.9,21.6c0,3.7,0,7.4,0,11.2c0,3.2-0.4,6.9,0.5,10
					c1.9,6.5,10.1,6.5,15.2,9.1c0-3.4,0-6.9,0-10.3c-4.4,2-9,3.2-13.7,3.9c2.2,2.9,4.5,5.8,6.7,8.8c2.4-4,10.5-2.2,14-5.8
					c1.7-1.7,2.5-3.9,2.3-6.3c-0.1-1.2-0.6-2.1-0.9-3.3c-0.2-0.7-0.1-3.1-0.9-2.1c-1.4,0.6-2.8,1.2-4.2,1.7c-2-0.4-2-0.1,0.1,1.1
					c1,0.8,2,1.6,3,2.4c1.4,1.1,2.9,2.2,4.3,3.4c2.5,2.1,4.3,4.5,6.5,6.8c2.1,2.1,5.1,3.3,8,2.6c3.3-0.8,5.3-4,8.5-5.2
					c-1.1-3.8-2.1-7.6-3.2-11.5c-1.7,0.7-4.4-3.1-5.2-4.2c-1-1.4-3.5-5.3-5.4-5.5c-0.5-0.6-0.7-0.4-0.6,0.6c-0.5,1.5,0,1.4,1.4-0.1
					c1.4-0.6,2.7-1.8,3.9-2.7c2.9-2,5.8-3.9,8.6-5.9C849.9,57,843.9,46.7,837.6,51L837.6,51z"/>
			</g>
		</g>
		<text transform="matrix(1 0 0 1 273.1449 92.0911)" class="st3 st5">PROJEKTER</text>
	</g>
</g>
</svg>
